M48
;Layer_Color=9474304
;FILE_FORMAT=4:3
METRIC,TZ
;TYPE=PLATED
T1F00S00C0.300
T2F00S00C0.400
T3F00S00C0.800
T4F00S00C0.900
T5F00S00C1.000
%
T01
X11303Y9827
X20447Y9337
X26153Y27396
X3520Y25395
X50673Y19067
X50673Y27802
X50673Y35059
X26017Y34512
T02
X19683Y20412
X19683Y21512
X46603Y21512
X46603Y20412
X58812Y27305
X60012Y27305
T03
X25640Y19712
X25640Y21712
X25640Y23712
X30640Y23712
X30640Y21712
X30640Y19712
T04
X53975Y2413
X56515Y2413
X62237Y2755
X64777Y2755
X67317Y2755
X67317Y17995
X64777Y17995
X62237Y17995
X56515Y14605
X53975Y14605
X53975Y8536
X56515Y8536
X69857Y2755
X72397Y2755
X74937Y2755
X77477Y2755
X77477Y17995
X74937Y17995
X72397Y17995
X69857Y17995
T05
X4508Y15367
X12133Y15367
X35541Y15267
X35541Y12727
X35541Y10187
X43161Y10187
X43161Y12727
X43161Y15267
X75598Y28085
X75598Y35711
M30
