G04*
G04 #@! TF.GenerationSoftware,Altium Limited,Altium Designer,22.10.1 (41)*
G04*
G04 Layer_Physical_Order=1*
G04 Layer_Color=255*
%FSLAX43Y43*%
%MOMM*%
G71*
G04*
G04 #@! TF.SameCoordinates,616D65FC-62BC-469B-91EF-3386A997E351*
G04*
G04*
G04 #@! TF.FilePolarity,Positive*
G04*
G01*
G75*
%ADD10C,0.200*%
%ADD11C,0.100*%
%ADD13C,0.254*%
%ADD14C,0.150*%
%ADD15C,0.178*%
%ADD17C,0.127*%
%ADD18C,0.180*%
%ADD19C,0.350*%
%ADD20R,1.500X0.700*%
%ADD21R,0.700X1.500*%
G04:AMPARAMS|DCode=22|XSize=1.75mm|YSize=1mm|CornerRadius=0.25mm|HoleSize=0mm|Usage=FLASHONLY|Rotation=180.000|XOffset=0mm|YOffset=0mm|HoleType=Round|Shape=RoundedRectangle|*
%AMROUNDEDRECTD22*
21,1,1.750,0.500,0,0,180.0*
21,1,1.250,1.000,0,0,180.0*
1,1,0.500,-0.625,0.250*
1,1,0.500,0.625,0.250*
1,1,0.500,0.625,-0.250*
1,1,0.500,-0.625,-0.250*
%
%ADD22ROUNDEDRECTD22*%
G04:AMPARAMS|DCode=23|XSize=1.4mm|YSize=0.9mm|CornerRadius=0.225mm|HoleSize=0mm|Usage=FLASHONLY|Rotation=0.000|XOffset=0mm|YOffset=0mm|HoleType=Round|Shape=RoundedRectangle|*
%AMROUNDEDRECTD23*
21,1,1.400,0.450,0,0,0.0*
21,1,0.950,0.900,0,0,0.0*
1,1,0.450,0.475,-0.225*
1,1,0.450,-0.475,-0.225*
1,1,0.450,-0.475,0.225*
1,1,0.450,0.475,0.225*
%
%ADD23ROUNDEDRECTD23*%
%ADD24R,1.200X1.200*%
%ADD25R,1.200X1.200*%
G04:AMPARAMS|DCode=26|XSize=1.4mm|YSize=0.9mm|CornerRadius=0.225mm|HoleSize=0mm|Usage=FLASHONLY|Rotation=90.000|XOffset=0mm|YOffset=0mm|HoleType=Round|Shape=RoundedRectangle|*
%AMROUNDEDRECTD26*
21,1,1.400,0.450,0,0,90.0*
21,1,0.950,0.900,0,0,90.0*
1,1,0.450,0.225,0.475*
1,1,0.450,0.225,-0.475*
1,1,0.450,-0.225,-0.475*
1,1,0.450,-0.225,0.475*
%
%ADD26ROUNDEDRECTD26*%
%ADD27R,1.500X1.500*%
%ADD28R,1.500X1.500*%
%ADD33R,1.400X1.400*%
%ADD43C,0.250*%
%ADD44C,1.524*%
%ADD45P,1.840X8X202.5*%
%ADD46C,1.700*%
%ADD47C,1.400*%
%ADD48C,0.700*%
%ADD49C,0.800*%
G36*
X80897Y510D02*
X510Y510D01*
X510Y13697D01*
X627Y13746D01*
X8094Y6279D01*
X8235Y6185D01*
X8401Y6152D01*
X52415Y6152D01*
X53542Y5025D01*
X53542Y3487D01*
X53531Y3485D01*
X53269Y3333D01*
X53055Y3119D01*
X52903Y2857D01*
X52825Y2564D01*
X52825Y2262D01*
X52903Y1969D01*
X53055Y1707D01*
X53269Y1493D01*
X53531Y1341D01*
X53824Y1263D01*
X54126Y1263D01*
X54419Y1341D01*
X54681Y1493D01*
X54895Y1707D01*
X55047Y1969D01*
X55125Y2262D01*
X55125Y2564D01*
X55047Y2857D01*
X54895Y3119D01*
X54681Y3333D01*
X54419Y3485D01*
X54408Y3487D01*
X54408Y5205D01*
X54375Y5371D01*
X54281Y5511D01*
X52922Y6870D01*
X53522Y7470D01*
X53531Y7464D01*
X53824Y7386D01*
X54126Y7386D01*
X54419Y7464D01*
X54681Y7616D01*
X54895Y7830D01*
X55047Y8092D01*
X55125Y8385D01*
X55125Y8687D01*
X55047Y8980D01*
X54895Y9242D01*
X54681Y9456D01*
X54419Y9608D01*
X54126Y9686D01*
X53824Y9686D01*
X53531Y9608D01*
X53269Y9456D01*
X53055Y9242D01*
X52903Y8980D01*
X52825Y8687D01*
X52825Y8385D01*
X52903Y8092D01*
X52909Y8083D01*
X52405Y7579D01*
X23937Y7579D01*
X23547Y7969D01*
X23547Y12931D01*
X29729Y19113D01*
X29840Y19098D01*
X30026Y18912D01*
X30254Y18780D01*
X30509Y18712D01*
X30772Y18712D01*
X31026Y18780D01*
X31254Y18912D01*
X31441Y19098D01*
X31572Y19326D01*
X31640Y19580D01*
X31640Y19844D01*
X31572Y20098D01*
X31441Y20326D01*
X31254Y20512D01*
X31026Y20644D01*
X31017Y20646D01*
X31017Y20778D01*
X31026Y20780D01*
X31254Y20912D01*
X31441Y21098D01*
X31572Y21326D01*
X31640Y21580D01*
X31640Y21844D01*
X31586Y22045D01*
X32324Y22783D01*
X32441Y22734D01*
X32441Y21962D01*
X32441Y20862D01*
X32441Y19762D01*
X33997Y19762D01*
X34045Y19645D01*
X32077Y17677D01*
X30590Y17677D01*
X30590Y15577D01*
X32690Y15577D01*
X32690Y17064D01*
X35164Y19538D01*
X35291Y19516D01*
X35291Y17812D01*
X38422Y17812D01*
X38471Y17695D01*
X36576Y15800D01*
X36450Y15817D01*
X36391Y15919D01*
X36193Y16117D01*
X35951Y16257D01*
X35681Y16329D01*
X35402Y16329D01*
X35131Y16257D01*
X34889Y16117D01*
X34692Y15919D01*
X34552Y15677D01*
X34479Y15407D01*
X34479Y15127D01*
X34552Y14857D01*
X34692Y14615D01*
X34889Y14417D01*
X35131Y14277D01*
X35402Y14205D01*
X35681Y14205D01*
X35951Y14277D01*
X36193Y14417D01*
X36391Y14615D01*
X36509Y14819D01*
X36642Y14819D01*
X36807Y14852D01*
X36948Y14946D01*
X39548Y17546D01*
X39642Y17686D01*
X39667Y17812D01*
X39856Y17812D01*
X39887Y17685D01*
X35925Y13724D01*
X35681Y13789D01*
X35402Y13789D01*
X35131Y13717D01*
X34889Y13577D01*
X34692Y13379D01*
X34552Y13137D01*
X34479Y12867D01*
X34479Y12587D01*
X34552Y12317D01*
X34692Y12075D01*
X34889Y11877D01*
X35131Y11737D01*
X35343Y11681D01*
X35387Y11545D01*
X35287Y11444D01*
X35193Y11304D01*
X35170Y11187D01*
X35131Y11177D01*
X34889Y11037D01*
X34692Y10839D01*
X34552Y10597D01*
X34479Y10327D01*
X34479Y10047D01*
X34552Y9777D01*
X34692Y9535D01*
X34889Y9337D01*
X35131Y9197D01*
X35402Y9125D01*
X35681Y9125D01*
X35951Y9197D01*
X36193Y9337D01*
X36391Y9535D01*
X36531Y9777D01*
X36603Y10047D01*
X36603Y10327D01*
X36531Y10597D01*
X36391Y10839D01*
X36239Y10991D01*
X36221Y11153D01*
X41748Y16680D01*
X41842Y16820D01*
X41875Y16986D01*
X41875Y17812D01*
X43191Y17812D01*
X43191Y19403D01*
X43309Y19452D01*
X43580Y19181D01*
X43720Y19087D01*
X43886Y19054D01*
X45062Y19054D01*
X47762Y16353D01*
X47710Y16226D01*
X47703Y16226D01*
X47703Y15267D01*
X47703Y14308D01*
X47778Y14308D01*
X47918Y14335D01*
X48045Y14258D01*
X48045Y13770D01*
X47918Y13668D01*
X47828Y13686D01*
X47753Y13686D01*
X47753Y12727D01*
X47603Y12727D01*
X47603Y12577D01*
X46894Y12577D01*
X46894Y12252D01*
X46931Y12067D01*
X47036Y11910D01*
X47193Y11805D01*
X47378Y11768D01*
X47651Y11768D01*
X47699Y11650D01*
X47347Y11298D01*
X47265Y11175D01*
X47173Y11157D01*
X47000Y11040D01*
X46884Y10867D01*
X46843Y10662D01*
X46843Y9712D01*
X46884Y9507D01*
X47000Y9333D01*
X47173Y9217D01*
X47378Y9177D01*
X47828Y9177D01*
X48033Y9217D01*
X48207Y9333D01*
X48323Y9507D01*
X48364Y9712D01*
X48364Y10662D01*
X48323Y10867D01*
X48250Y10976D01*
X48785Y11510D01*
X48879Y11651D01*
X48912Y11816D01*
X48912Y16250D01*
X48879Y16416D01*
X48785Y16557D01*
X45697Y19645D01*
X45745Y19762D01*
X46041Y19762D01*
X46041Y19875D01*
X46168Y19928D01*
X46204Y19892D01*
X46352Y19806D01*
X46518Y19762D01*
X46689Y19762D01*
X46854Y19806D01*
X47002Y19892D01*
X47123Y20013D01*
X47209Y20161D01*
X47253Y20326D01*
X47253Y20498D01*
X47209Y20663D01*
X47123Y20811D01*
X47058Y20877D01*
X47017Y20962D01*
X47058Y21047D01*
X47123Y21113D01*
X47209Y21261D01*
X47253Y21426D01*
X47253Y21598D01*
X47209Y21763D01*
X47123Y21911D01*
X47002Y22032D01*
X46854Y22118D01*
X46689Y22162D01*
X46518Y22162D01*
X46352Y22118D01*
X46204Y22032D01*
X46168Y21996D01*
X46041Y22049D01*
X46041Y23062D01*
X46041Y24162D01*
X46041Y25262D01*
X46041Y26362D01*
X46041Y27462D01*
X46041Y28779D01*
X46203Y28779D01*
X46203Y28312D01*
X48003Y28312D01*
X48003Y30112D01*
X46203Y30112D01*
X46203Y29645D01*
X46041Y29645D01*
X46041Y29862D01*
X45991Y29862D01*
X45991Y30162D01*
X43991Y30162D01*
X43991Y29862D01*
X43941Y29862D01*
X43941Y28562D01*
X43941Y27462D01*
X43941Y26362D01*
X43941Y25262D01*
X43941Y24418D01*
X42841Y24418D01*
X42724Y24395D01*
X42625Y24328D01*
X42559Y24229D01*
X42535Y24112D01*
X42535Y22712D01*
X42559Y22595D01*
X42625Y22496D01*
X42724Y22429D01*
X42841Y22406D01*
X43941Y22406D01*
X43941Y21962D01*
X43941Y20862D01*
X43941Y20211D01*
X43824Y20162D01*
X40505Y23481D01*
X40505Y27933D01*
X43451Y30879D01*
X43991Y30879D01*
X43991Y30462D01*
X45991Y30462D01*
X45991Y30879D01*
X46203Y30879D01*
X46203Y30412D01*
X48003Y30412D01*
X48003Y32212D01*
X46203Y32212D01*
X46203Y31745D01*
X43272Y31745D01*
X43106Y31712D01*
X42965Y31618D01*
X42165Y30818D01*
X42047Y30866D01*
X42047Y31812D01*
X42024Y31929D01*
X41958Y32028D01*
X41858Y32095D01*
X41741Y32118D01*
X40141Y32118D01*
X40024Y32095D01*
X39925Y32028D01*
X39859Y31929D01*
X39835Y31812D01*
X39835Y30312D01*
X39859Y30195D01*
X39925Y30096D01*
X40024Y30029D01*
X40141Y30006D01*
X41187Y30006D01*
X41236Y29889D01*
X39892Y28545D01*
X34541Y28545D01*
X34541Y29662D01*
X34541Y30762D01*
X34541Y32062D01*
X34491Y32062D01*
X34491Y32362D01*
X32491Y32362D01*
X32491Y32062D01*
X32441Y32062D01*
X32441Y31845D01*
X32044Y31845D01*
X32037Y31877D01*
X31916Y32059D01*
X31734Y32180D01*
X31519Y32223D01*
X30269Y32223D01*
X30055Y32180D01*
X29873Y32059D01*
X29751Y31877D01*
X29745Y31845D01*
X26459Y31845D01*
X26293Y31812D01*
X26153Y31718D01*
X22808Y28373D01*
X22714Y28233D01*
X22681Y28067D01*
X22681Y26886D01*
X22554Y26848D01*
X22540Y26868D01*
X21990Y27418D01*
X21849Y27512D01*
X21683Y27545D01*
X21233Y27545D01*
X21233Y28012D01*
X19433Y28012D01*
X19433Y26212D01*
X21233Y26212D01*
X21233Y26679D01*
X21504Y26679D01*
X21800Y26383D01*
X21800Y19829D01*
X21630Y19715D01*
X21514Y19542D01*
X21473Y19337D01*
X21473Y18387D01*
X21514Y18182D01*
X21630Y18008D01*
X21800Y17895D01*
X21800Y7019D01*
X8580Y7019D01*
X1058Y14540D01*
X1058Y15113D01*
X1185Y15126D01*
X1223Y14937D01*
X1339Y14764D01*
X1512Y14647D01*
X1717Y14607D01*
X2667Y14607D01*
X2872Y14647D01*
X3046Y14764D01*
X3160Y14934D01*
X3532Y14934D01*
X3658Y14715D01*
X3855Y14517D01*
X4098Y14378D01*
X4368Y14305D01*
X4647Y14305D01*
X4917Y14378D01*
X5160Y14517D01*
X5357Y14715D01*
X5497Y14957D01*
X5570Y15227D01*
X5570Y15507D01*
X5497Y15777D01*
X5357Y16019D01*
X5160Y16217D01*
X4917Y16357D01*
X4647Y16429D01*
X4368Y16429D01*
X4098Y16357D01*
X3855Y16217D01*
X3658Y16019D01*
X3531Y15800D01*
X3160Y15800D01*
X3046Y15970D01*
X2872Y16087D01*
X2667Y16127D01*
X1717Y16127D01*
X1512Y16087D01*
X1339Y15970D01*
X1223Y15797D01*
X1185Y15608D01*
X1058Y15621D01*
X1058Y30512D01*
X2592Y30512D01*
X2592Y30979D01*
X2948Y30979D01*
X2954Y30947D01*
X3076Y30765D01*
X3258Y30644D01*
X3472Y30601D01*
X4722Y30601D01*
X4937Y30644D01*
X5119Y30765D01*
X5206Y30896D01*
X5333Y30858D01*
X5333Y29662D01*
X5333Y28562D01*
X5333Y27462D01*
X5333Y26362D01*
X5333Y25262D01*
X5333Y24162D01*
X5333Y23062D01*
X5333Y21962D01*
X5333Y20862D01*
X5333Y19762D01*
X7433Y19762D01*
X7433Y20862D01*
X7433Y21962D01*
X7433Y23062D01*
X7433Y24162D01*
X7433Y25262D01*
X7433Y26362D01*
X7433Y27462D01*
X7433Y28562D01*
X7433Y29662D01*
X7433Y30762D01*
X7433Y32062D01*
X7383Y32062D01*
X7383Y32362D01*
X5383Y32362D01*
X5383Y32062D01*
X5333Y32062D01*
X5333Y31966D01*
X5206Y31928D01*
X5119Y32059D01*
X4937Y32180D01*
X4722Y32223D01*
X3472Y32223D01*
X3258Y32180D01*
X3076Y32059D01*
X2954Y31877D01*
X2948Y31845D01*
X2592Y31845D01*
X2592Y32312D01*
X792Y32312D01*
X792Y31845D01*
X637Y31814D01*
X627Y31814D01*
X510Y31885D01*
X510Y40394D01*
X5358Y40394D01*
X5362Y40374D01*
X5391Y40329D01*
X5391Y39962D01*
X6391Y39962D01*
X6391Y39662D01*
X5391Y39662D01*
X5391Y39212D01*
X5391Y38862D01*
X6391Y38862D01*
X6391Y38562D01*
X5391Y38562D01*
X5391Y38398D01*
X5316Y38383D01*
X5217Y38316D01*
X5151Y38217D01*
X5127Y38100D01*
X5127Y36662D01*
X5151Y36545D01*
X5217Y36446D01*
X5316Y36379D01*
X5433Y36356D01*
X7399Y36356D01*
X7399Y36356D01*
X13827Y36356D01*
X13827Y33412D01*
X13851Y33295D01*
X13917Y33196D01*
X14016Y33129D01*
X14133Y33106D01*
X18133Y33106D01*
X18250Y33129D01*
X18350Y33196D01*
X18416Y33295D01*
X18439Y33412D01*
X18439Y36356D01*
X18575Y36356D01*
X18692Y36379D01*
X18792Y36446D01*
X18858Y36545D01*
X18881Y36662D01*
X18881Y38100D01*
X18880Y38108D01*
X18883Y38112D01*
X18883Y38112D01*
X18883Y38562D01*
X17883Y38562D01*
X17883Y38862D01*
X18883Y38862D01*
X18883Y39212D01*
X18883Y39662D01*
X17883Y39662D01*
X17883Y39962D01*
X18883Y39962D01*
X18883Y40394D01*
X32499Y40394D01*
X32499Y39962D01*
X33499Y39962D01*
X33499Y39662D01*
X32499Y39662D01*
X32499Y39212D01*
X32499Y38862D01*
X33499Y38862D01*
X33499Y38562D01*
X32499Y38562D01*
X32499Y38112D01*
X32603Y38112D01*
X32613Y38100D01*
X32613Y36662D01*
X32636Y36545D01*
X32703Y36446D01*
X32802Y36379D01*
X32919Y36356D01*
X40935Y36356D01*
X40935Y33412D01*
X40959Y33295D01*
X41025Y33196D01*
X41124Y33129D01*
X41241Y33106D01*
X45241Y33106D01*
X45358Y33129D01*
X45458Y33196D01*
X45524Y33295D01*
X45547Y33412D01*
X45547Y36369D01*
X45753Y36369D01*
X45870Y36392D01*
X45970Y36459D01*
X46036Y36558D01*
X46059Y36675D01*
X46059Y38100D01*
X46036Y38217D01*
X45991Y38284D01*
X45991Y38562D01*
X44991Y38562D01*
X44991Y38862D01*
X45991Y38862D01*
X45991Y39212D01*
X45991Y39662D01*
X44991Y39662D01*
X44991Y39962D01*
X45991Y39962D01*
X45991Y40307D01*
X46036Y40374D01*
X46040Y40394D01*
X55106Y40394D01*
X55106Y36398D01*
X55130Y36281D01*
X55196Y36182D01*
X55295Y36115D01*
X55312Y36112D01*
X55312Y35098D01*
X55362Y35098D01*
X55362Y34698D01*
X56362Y34698D01*
X56362Y34398D01*
X55362Y34398D01*
X55362Y33998D01*
X55312Y33998D01*
X55312Y32698D01*
X55312Y31498D01*
X55312Y30298D01*
X56962Y30298D01*
X56962Y28248D01*
X58379Y28248D01*
X58379Y27862D01*
X58252Y27735D01*
X58160Y27575D01*
X58112Y27397D01*
X58112Y27213D01*
X58160Y27035D01*
X58252Y26875D01*
X58383Y26745D01*
X58542Y26653D01*
X58720Y26605D01*
X58904Y26605D01*
X59083Y26653D01*
X59242Y26745D01*
X59330Y26833D01*
X59412Y26861D01*
X59495Y26833D01*
X59583Y26745D01*
X59742Y26653D01*
X59920Y26605D01*
X60104Y26605D01*
X60283Y26653D01*
X60442Y26745D01*
X60572Y26875D01*
X60665Y27035D01*
X60712Y27213D01*
X60712Y27397D01*
X60665Y27575D01*
X60572Y27735D01*
X60446Y27862D01*
X60446Y28248D01*
X61979Y28248D01*
X61979Y26832D01*
X61979Y25532D01*
X61397Y25532D01*
X61397Y23432D01*
X63497Y23432D01*
X63497Y25532D01*
X62846Y25532D01*
X62846Y26399D01*
X64598Y26399D01*
X64712Y26229D01*
X64885Y26112D01*
X65090Y26072D01*
X66040Y26072D01*
X66245Y26112D01*
X66419Y26229D01*
X66535Y26402D01*
X66576Y26607D01*
X66576Y27057D01*
X66535Y27262D01*
X66419Y27435D01*
X66250Y27548D01*
X66249Y27558D01*
X66285Y27675D01*
X67989Y27675D01*
X67989Y29475D01*
X67796Y29475D01*
X67784Y29602D01*
X67909Y29627D01*
X68075Y29738D01*
X68185Y29903D01*
X68224Y30098D01*
X68224Y30198D01*
X67089Y30198D01*
X67089Y30348D01*
X66939Y30348D01*
X66939Y31108D01*
X66464Y31108D01*
X66269Y31069D01*
X66104Y30958D01*
X66039Y30862D01*
X65912Y30900D01*
X65912Y31598D01*
X65862Y31598D01*
X65862Y31998D01*
X64862Y31998D01*
X64862Y32298D01*
X65862Y32298D01*
X65862Y32698D01*
X65912Y32698D01*
X65912Y32706D01*
X66039Y32744D01*
X66068Y32701D01*
X66250Y32580D01*
X66464Y32537D01*
X67714Y32537D01*
X67929Y32580D01*
X68111Y32701D01*
X68221Y32867D01*
X68287Y32866D01*
X68348Y32846D01*
X68348Y32448D01*
X70148Y32448D01*
X70148Y32795D01*
X70534Y32795D01*
X71520Y31809D01*
X71520Y30277D01*
X70251Y29008D01*
X70089Y29008D01*
X70089Y29475D01*
X68289Y29475D01*
X68289Y27675D01*
X68706Y27675D01*
X68706Y26553D01*
X67519Y25365D01*
X66533Y25365D01*
X66419Y25535D01*
X66245Y25652D01*
X66040Y25692D01*
X65090Y25692D01*
X64885Y25652D01*
X64712Y25535D01*
X64596Y25362D01*
X64555Y25157D01*
X64555Y24707D01*
X64596Y24502D01*
X64712Y24329D01*
X64885Y24212D01*
X65020Y24186D01*
X65062Y24048D01*
X62275Y21261D01*
X58753Y21261D01*
X58587Y21228D01*
X58446Y21134D01*
X53682Y16370D01*
X53588Y16229D01*
X53555Y16063D01*
X53555Y15683D01*
X53531Y15677D01*
X53269Y15525D01*
X53055Y15311D01*
X52903Y15049D01*
X52825Y14756D01*
X52825Y14454D01*
X52903Y14161D01*
X53055Y13899D01*
X53269Y13685D01*
X53531Y13533D01*
X53824Y13455D01*
X54126Y13455D01*
X54419Y13533D01*
X54681Y13685D01*
X54895Y13899D01*
X55047Y14161D01*
X55125Y14454D01*
X55125Y14756D01*
X55047Y15049D01*
X54895Y15311D01*
X54681Y15525D01*
X54421Y15675D01*
X54421Y15884D01*
X58932Y20395D01*
X62455Y20395D01*
X62621Y20428D01*
X62761Y20522D01*
X65872Y23632D01*
X65966Y23773D01*
X65999Y23939D01*
X65999Y24172D01*
X66040Y24172D01*
X66245Y24212D01*
X66419Y24329D01*
X66533Y24499D01*
X67698Y24499D01*
X67864Y24532D01*
X68005Y24626D01*
X69446Y26067D01*
X69540Y26207D01*
X69573Y26373D01*
X69573Y27675D01*
X70089Y27675D01*
X70089Y28142D01*
X70430Y28142D01*
X70596Y28175D01*
X70737Y28269D01*
X72260Y29792D01*
X72353Y29932D01*
X72386Y30098D01*
X72386Y31988D01*
X72353Y32154D01*
X72260Y32295D01*
X71020Y33535D01*
X70879Y33628D01*
X70713Y33661D01*
X70148Y33661D01*
X70148Y34248D01*
X68348Y34248D01*
X68348Y33850D01*
X68287Y33830D01*
X68221Y33829D01*
X68111Y33995D01*
X67929Y34116D01*
X67714Y34159D01*
X66464Y34159D01*
X66250Y34116D01*
X66068Y33995D01*
X66039Y33952D01*
X65912Y33990D01*
X65912Y35315D01*
X74605Y35315D01*
X74609Y35301D01*
X74749Y35059D01*
X74946Y34861D01*
X75188Y34721D01*
X75459Y34649D01*
X75738Y34649D01*
X76008Y34721D01*
X76250Y34861D01*
X76448Y35059D01*
X76588Y35301D01*
X76660Y35571D01*
X76660Y35851D01*
X76588Y36121D01*
X76448Y36363D01*
X76250Y36561D01*
X76008Y36700D01*
X75738Y36773D01*
X75459Y36773D01*
X75188Y36700D01*
X74946Y36561D01*
X74749Y36363D01*
X74644Y36181D01*
X66181Y36181D01*
X66150Y36218D01*
X66100Y36308D01*
X66118Y36398D01*
X66118Y40394D01*
X80897Y40394D01*
X80897Y510D01*
X80897Y510D02*
G37*
G36*
X60106Y30398D02*
X60065Y30348D01*
X57412Y30348D01*
X57412Y31498D01*
X57412Y32698D01*
X57412Y33230D01*
X57539Y33307D01*
X57612Y33292D01*
X59112Y33292D01*
X59229Y33315D01*
X59329Y33382D01*
X59395Y33481D01*
X59418Y33598D01*
X59418Y36092D01*
X60106Y36092D01*
X60106Y30398D01*
X60106Y30398D02*
G37*
G36*
X32441Y30690D02*
X32335Y30618D01*
X32060Y30343D01*
X31966Y30203D01*
X31933Y30037D01*
X31933Y29140D01*
X31806Y29072D01*
X31714Y29133D01*
X31519Y29172D01*
X31044Y29172D01*
X31044Y28412D01*
X30894Y28412D01*
X30894Y28262D01*
X29760Y28262D01*
X29760Y28162D01*
X29798Y27967D01*
X29909Y27802D01*
X30074Y27691D01*
X30269Y27652D01*
X30274Y27525D01*
X30210Y27513D01*
X30037Y27396D01*
X29921Y27223D01*
X29880Y27018D01*
X29880Y26068D01*
X29921Y25863D01*
X30037Y25690D01*
X30207Y25576D01*
X30207Y24712D01*
X29640Y24712D01*
X29640Y22712D01*
X30118Y22712D01*
X30152Y22585D01*
X30026Y22512D01*
X29840Y22326D01*
X29708Y22098D01*
X29640Y21844D01*
X29640Y21580D01*
X29708Y21326D01*
X29840Y21098D01*
X30026Y20912D01*
X30254Y20780D01*
X30263Y20778D01*
X30263Y20646D01*
X30254Y20644D01*
X30026Y20512D01*
X29840Y20326D01*
X29736Y20145D01*
X29715Y20145D01*
X29549Y20112D01*
X29409Y20018D01*
X23665Y14274D01*
X23547Y14323D01*
X23547Y27888D01*
X26638Y30979D01*
X29745Y30979D01*
X29751Y30947D01*
X29873Y30765D01*
X30055Y30644D01*
X30269Y30601D01*
X31519Y30601D01*
X31734Y30644D01*
X31916Y30765D01*
X32037Y30947D01*
X32044Y30979D01*
X32441Y30979D01*
X32441Y30690D01*
X32441Y30690D02*
G37*
G36*
X62540Y27160D02*
X62547Y27117D01*
X62560Y27080D01*
X62577Y27047D01*
X62600Y27020D01*
X62627Y26997D01*
X62660Y26979D01*
X62697Y26967D01*
X62740Y26959D01*
X62787Y26957D01*
X62787Y26707D01*
X62740Y26705D01*
X62697Y26697D01*
X62660Y26684D01*
X62627Y26667D01*
X62600Y26645D01*
X62577Y26617D01*
X62560Y26584D01*
X62547Y26547D01*
X62540Y26504D01*
X62537Y26457D01*
X62287Y26832D01*
X62537Y27207D01*
X62540Y27160D01*
X62540Y27160D02*
G37*
G36*
X31933Y27684D02*
X31933Y23617D01*
X31758Y23442D01*
X31640Y23491D01*
X31640Y24712D01*
X31074Y24712D01*
X31074Y25576D01*
X31244Y25690D01*
X31360Y25863D01*
X31401Y26068D01*
X31401Y27018D01*
X31360Y27223D01*
X31244Y27396D01*
X31070Y27513D01*
X31006Y27525D01*
X31019Y27652D01*
X31519Y27652D01*
X31714Y27691D01*
X31806Y27752D01*
X31933Y27684D01*
X31933Y27684D02*
G37*
G36*
X39638Y23302D02*
X39671Y23136D01*
X39765Y22995D01*
X42213Y20547D01*
X42161Y20420D01*
X35000Y20420D01*
X34834Y20387D01*
X34694Y20293D01*
X34659Y20258D01*
X34541Y20307D01*
X34541Y20862D01*
X34541Y21962D01*
X34541Y23062D01*
X34541Y24162D01*
X34541Y25262D01*
X34541Y26362D01*
X34541Y27679D01*
X39638Y27679D01*
X39638Y23302D01*
X39638Y23302D02*
G37*
G36*
X41008Y17165D02*
X36724Y12881D01*
X36588Y12925D01*
X36538Y13111D01*
X40648Y17221D01*
X40742Y17361D01*
X40775Y17527D01*
X40775Y17812D01*
X41008Y17812D01*
X41008Y17165D01*
X41008Y17165D02*
G37*
G36*
X22361Y6913D02*
X22368Y6870D01*
X22381Y6833D01*
X22398Y6800D01*
X22421Y6773D01*
X22448Y6750D01*
X22481Y6733D01*
X22518Y6720D01*
X22561Y6713D01*
X22608Y6710D01*
X22233Y6460D01*
X21858Y6710D01*
X21906Y6713D01*
X21948Y6720D01*
X21986Y6733D01*
X22018Y6750D01*
X22046Y6773D01*
X22068Y6800D01*
X22086Y6833D01*
X22098Y6870D01*
X22106Y6913D01*
X22108Y6960D01*
X22358Y6960D01*
X22361Y6913D01*
X22361Y6913D02*
G37*
G36*
X259338Y-154352D02*
X259423Y-154373D01*
X259528Y-154416D01*
X259634Y-154479D01*
X259719Y-154574D01*
X259782Y-154712D01*
X259793Y-154786D01*
X259804Y-154881D01*
X259804Y-154892D01*
X259804Y-154902D01*
X259793Y-154966D01*
X259772Y-155061D01*
X259740Y-155167D01*
X259666Y-155273D01*
X259571Y-155368D01*
X259507Y-155410D01*
X259433Y-155431D01*
X259349Y-155453D01*
X259253Y-155463D01*
X259211Y-155463D01*
X259169Y-155453D01*
X259116Y-155442D01*
X259042Y-155421D01*
X258978Y-155389D01*
X258904Y-155347D01*
X258841Y-155294D01*
X258830Y-155283D01*
X258819Y-155262D01*
X258788Y-155230D01*
X258756Y-155177D01*
X258724Y-155114D01*
X258703Y-155050D01*
X258682Y-154966D01*
X258671Y-154881D01*
X258671Y-154871D01*
X258671Y-154839D01*
X258682Y-154807D01*
X258693Y-154754D01*
X258714Y-154691D01*
X258745Y-154627D01*
X258788Y-154564D01*
X258841Y-154500D01*
X258851Y-154490D01*
X258872Y-154479D01*
X258904Y-154447D01*
X258957Y-154416D01*
X259021Y-154394D01*
X259084Y-154363D01*
X259169Y-154352D01*
X259253Y-154341D01*
X259274Y-154341D01*
X259338Y-154352D01*
X259338Y-154352D02*
G37*
G36*
X255624Y-153855D02*
X255730Y-153855D01*
X255846Y-153865D01*
X255984Y-153876D01*
X256121Y-153897D01*
X256280Y-153918D01*
X256449Y-153950D01*
X256788Y-154024D01*
X257148Y-154130D01*
X257497Y-154267D01*
X260671Y-159304D01*
X260671Y-159315D01*
X260671Y-159347D01*
X260661Y-159399D01*
X260661Y-159463D01*
X260650Y-159548D01*
X260629Y-159632D01*
X260587Y-159844D01*
X260587Y-159855D01*
X260576Y-159897D01*
X260565Y-159950D01*
X260544Y-160034D01*
X260513Y-160130D01*
X260491Y-160235D01*
X260417Y-160468D01*
X257666Y-156172D01*
X257655Y-156162D01*
X257624Y-156119D01*
X257581Y-156066D01*
X257529Y-156003D01*
X257454Y-155939D01*
X257370Y-155886D01*
X257275Y-155844D01*
X257169Y-155833D01*
X257126Y-155833D01*
X257084Y-155855D01*
X257021Y-155876D01*
X256957Y-155908D01*
X256883Y-155971D01*
X256798Y-156045D01*
X256714Y-156151D01*
X255793Y-157410D01*
X259031Y-162510D01*
X259010Y-162521D01*
X258957Y-162574D01*
X258872Y-162637D01*
X258756Y-162722D01*
X258608Y-162828D01*
X258428Y-162944D01*
X258216Y-163071D01*
X257984Y-163198D01*
X257719Y-163325D01*
X257433Y-163452D01*
X257126Y-163569D01*
X256798Y-163674D01*
X256449Y-163759D01*
X256079Y-163823D01*
X255687Y-163876D01*
X255285Y-163886D01*
X255190Y-163886D01*
X255137Y-163876D01*
X255074Y-163876D01*
X254915Y-163865D01*
X254724Y-163833D01*
X254502Y-163801D01*
X254248Y-163749D01*
X253984Y-163674D01*
X253687Y-163590D01*
X253381Y-163484D01*
X253063Y-163346D01*
X252746Y-163188D01*
X252418Y-162997D01*
X252090Y-162775D01*
X251772Y-162521D01*
X251465Y-162235D01*
X252841Y-160341D01*
X252851Y-160331D01*
X252862Y-160310D01*
X252873Y-160278D01*
X252883Y-160235D01*
X252894Y-160183D01*
X252915Y-160119D01*
X252926Y-160034D01*
X252926Y-160024D01*
X252926Y-160003D01*
X252915Y-159971D01*
X252904Y-159929D01*
X252894Y-159876D01*
X252862Y-159812D01*
X252830Y-159738D01*
X252777Y-159653D01*
X251762Y-158066D01*
X250248Y-160161D01*
X250248Y-160151D01*
X250238Y-160130D01*
X250227Y-160098D01*
X250217Y-160045D01*
X250206Y-159992D01*
X250195Y-159918D01*
X250164Y-159749D01*
X250121Y-159548D01*
X250100Y-159315D01*
X250079Y-159061D01*
X250068Y-158786D01*
X250068Y-158775D01*
X250068Y-158765D01*
X250068Y-158701D01*
X250079Y-158595D01*
X250090Y-158458D01*
X250111Y-158288D01*
X250143Y-158087D01*
X250195Y-157865D01*
X250248Y-157622D01*
X250322Y-157368D01*
X250418Y-157093D01*
X250545Y-156818D01*
X250682Y-156521D01*
X250852Y-156236D01*
X251042Y-155950D01*
X251264Y-155664D01*
X251518Y-155389D01*
X251539Y-155368D01*
X251592Y-155326D01*
X251677Y-155241D01*
X251793Y-155146D01*
X251952Y-155029D01*
X252132Y-154902D01*
X252344Y-154765D01*
X252587Y-154617D01*
X252862Y-154468D01*
X253158Y-154331D01*
X253476Y-154204D01*
X253825Y-154088D01*
X254195Y-153982D01*
X254587Y-153908D01*
X255000Y-153865D01*
X255433Y-153844D01*
X255550Y-153844D01*
X255624Y-153855D01*
X255624Y-153855D02*
G37*
G36*
X260893Y-165315D02*
X260978Y-165315D01*
X261052Y-165325D01*
X261105Y-165336D01*
X261116Y-165336D01*
X261147Y-165346D01*
X261190Y-165368D01*
X261243Y-165399D01*
X261296Y-165442D01*
X261348Y-165505D01*
X261391Y-165579D01*
X261423Y-165674D01*
X261423Y-165685D01*
X261423Y-165706D01*
X261433Y-165748D01*
X261433Y-165812D01*
X261433Y-165886D01*
X261444Y-165981D01*
X261444Y-166098D01*
X261444Y-166225D01*
X259560Y-166182D01*
X259539Y-166182D01*
X259497Y-166193D01*
X259423Y-166214D01*
X259349Y-166267D01*
X259264Y-166341D01*
X259232Y-166405D01*
X259190Y-166468D01*
X259169Y-166542D01*
X259148Y-166637D01*
X259126Y-166743D01*
X259126Y-166870D01*
X259126Y-167262D01*
X259126Y-167272D01*
X259126Y-167293D01*
X259126Y-167325D01*
X259137Y-167367D01*
X259148Y-167484D01*
X259179Y-167600D01*
X259232Y-167727D01*
X259306Y-167844D01*
X259349Y-167886D01*
X259412Y-167918D01*
X259476Y-167939D01*
X259550Y-167949D01*
X261475Y-167949D01*
X261475Y-167960D01*
X261475Y-167971D01*
X261475Y-168034D01*
X261475Y-168129D01*
X261465Y-168246D01*
X261454Y-168362D01*
X261433Y-168468D01*
X261401Y-168563D01*
X261370Y-168637D01*
X261359Y-168648D01*
X261338Y-168669D01*
X261306Y-168690D01*
X261243Y-168722D01*
X261158Y-168764D01*
X261052Y-168785D01*
X260904Y-168807D01*
X260735Y-168817D01*
X259370Y-168817D01*
X259327Y-168807D01*
X259211Y-168796D01*
X259073Y-168775D01*
X258925Y-168732D01*
X258777Y-168669D01*
X258650Y-168574D01*
X258544Y-168457D01*
X258534Y-168447D01*
X258523Y-168404D01*
X258491Y-168341D01*
X258470Y-168246D01*
X258439Y-168119D01*
X258407Y-167971D01*
X258396Y-167791D01*
X258386Y-167590D01*
X258386Y-166563D01*
X258386Y-166553D01*
X258386Y-166521D01*
X258386Y-166479D01*
X258396Y-166426D01*
X258396Y-166352D01*
X258407Y-166278D01*
X258439Y-166098D01*
X258491Y-165907D01*
X258555Y-165727D01*
X258661Y-165558D01*
X258724Y-165495D01*
X258798Y-165442D01*
X258809Y-165431D01*
X258841Y-165420D01*
X258883Y-165399D01*
X258957Y-165368D01*
X259042Y-165346D01*
X259158Y-165325D01*
X259285Y-165315D01*
X259433Y-165304D01*
X260809Y-165304D01*
X260893Y-165315D01*
X260893Y-165315D02*
G37*
G36*
X264904Y-168796D02*
X264174Y-168796D01*
X264174Y-167484D01*
X262618Y-167484D01*
X262618Y-168796D01*
X261930Y-168796D01*
X261930Y-165336D01*
X262618Y-165336D01*
X262618Y-166563D01*
X264174Y-166563D01*
X264174Y-165336D01*
X264904Y-165336D01*
X264904Y-168796D01*
X264904Y-168796D02*
G37*
G36*
X245211Y-164204D02*
X245275Y-164225D01*
X245349Y-164256D01*
X245434Y-164320D01*
X245508Y-164415D01*
X245540Y-164479D01*
X245561Y-164553D01*
X245592Y-164637D01*
X245603Y-164733D01*
X246069Y-168796D01*
X245201Y-168796D01*
X244958Y-165875D01*
X244947Y-165875D01*
X244048Y-168214D01*
X244037Y-168235D01*
X244016Y-168277D01*
X243984Y-168341D01*
X243931Y-168404D01*
X243857Y-168479D01*
X243772Y-168542D01*
X243667Y-168584D01*
X243540Y-168606D01*
X243518Y-168606D01*
X243476Y-168595D01*
X243413Y-168584D01*
X243328Y-168553D01*
X243233Y-168510D01*
X243148Y-168436D01*
X243063Y-168341D01*
X243000Y-168214D01*
X242111Y-165918D01*
X242100Y-165918D01*
X241847Y-168796D01*
X241000Y-168796D01*
X241444Y-164690D01*
X241444Y-164680D01*
X241444Y-164669D01*
X241466Y-164616D01*
X241487Y-164532D01*
X241529Y-164436D01*
X241582Y-164352D01*
X241667Y-164267D01*
X241772Y-164214D01*
X241836Y-164193D01*
X241931Y-164193D01*
X241984Y-164204D01*
X242058Y-164214D01*
X242153Y-164246D01*
X242259Y-164309D01*
X242365Y-164394D01*
X242460Y-164500D01*
X242503Y-164574D01*
X242534Y-164659D01*
X243518Y-167166D01*
X243540Y-167166D01*
X244524Y-164659D01*
X244524Y-164648D01*
X244534Y-164637D01*
X244555Y-164584D01*
X244608Y-164510D01*
X244672Y-164426D01*
X244756Y-164341D01*
X244862Y-164267D01*
X244989Y-164214D01*
X245063Y-164193D01*
X245169Y-164193D01*
X245211Y-164204D01*
X245211Y-164204D02*
G37*
G36*
X269031Y-165346D02*
X269137Y-165368D01*
X269274Y-165410D01*
X269412Y-165473D01*
X269539Y-165579D01*
X269602Y-165643D01*
X269655Y-165727D01*
X269697Y-165812D01*
X269729Y-165918D01*
X269729Y-165928D01*
X269740Y-165960D01*
X269750Y-166013D01*
X269761Y-166077D01*
X269771Y-166172D01*
X269782Y-166278D01*
X269793Y-166394D01*
X269793Y-166532D01*
X269793Y-166796D01*
X269793Y-166807D01*
X269793Y-166828D01*
X269793Y-166849D01*
X269793Y-166891D01*
X269782Y-167008D01*
X269771Y-167135D01*
X269740Y-167283D01*
X269708Y-167431D01*
X269655Y-167579D01*
X269581Y-167695D01*
X269570Y-167706D01*
X269549Y-167727D01*
X269518Y-167770D01*
X269465Y-167801D01*
X269401Y-167844D01*
X269316Y-167886D01*
X269221Y-167907D01*
X269115Y-167918D01*
X267401Y-167918D01*
X267401Y-168796D01*
X266682Y-168796D01*
X266682Y-165336D01*
X268988Y-165336D01*
X269031Y-165346D01*
X269031Y-165346D02*
G37*
G36*
X266216Y-168796D02*
X265412Y-168796D01*
X265412Y-165336D01*
X266216Y-165336D01*
X266216Y-168796D01*
X266216Y-168796D02*
G37*
G36*
X253677Y-165346D02*
X253719Y-165346D01*
X253836Y-165389D01*
X253888Y-165420D01*
X253963Y-165463D01*
X254026Y-165516D01*
X254079Y-165590D01*
X254142Y-165664D01*
X254195Y-165770D01*
X254238Y-165886D01*
X254269Y-166024D01*
X254291Y-166182D01*
X254301Y-166362D01*
X254301Y-166574D01*
X254301Y-166584D01*
X254301Y-166606D01*
X254301Y-166637D01*
X254291Y-166690D01*
X254280Y-166807D01*
X254248Y-166955D01*
X254206Y-167103D01*
X254132Y-167251D01*
X254037Y-167367D01*
X253984Y-167410D01*
X253910Y-167442D01*
X253910Y-167452D01*
X253931Y-167463D01*
X253973Y-167473D01*
X254037Y-167516D01*
X254111Y-167590D01*
X254174Y-167685D01*
X254238Y-167822D01*
X254269Y-167897D01*
X254280Y-167992D01*
X254301Y-168098D01*
X254301Y-168214D01*
X254301Y-168796D01*
X253571Y-168796D01*
X253571Y-168383D01*
X253571Y-168373D01*
X253571Y-168341D01*
X253571Y-168288D01*
X253571Y-168235D01*
X253560Y-168108D01*
X253550Y-168055D01*
X253539Y-168024D01*
X253539Y-168013D01*
X253529Y-168002D01*
X253486Y-167949D01*
X253402Y-167907D01*
X253349Y-167897D01*
X253285Y-167886D01*
X251994Y-167886D01*
X251994Y-168796D01*
X251264Y-168796D01*
X251264Y-165336D01*
X253645Y-165336D01*
X253677Y-165346D01*
X253677Y-165346D02*
G37*
G36*
X247307Y-168796D02*
X246492Y-168796D01*
X246492Y-165336D01*
X247307Y-165336D01*
X247307Y-168796D01*
X247307Y-168796D02*
G37*
G36*
X257148Y-165315D02*
X257275Y-165346D01*
X257412Y-165378D01*
X257550Y-165431D01*
X257666Y-165505D01*
X257761Y-165611D01*
X257772Y-165622D01*
X257793Y-165664D01*
X257835Y-165738D01*
X257878Y-165844D01*
X257909Y-165971D01*
X257952Y-166129D01*
X257973Y-166320D01*
X257984Y-166542D01*
X257984Y-167579D01*
X257984Y-167590D01*
X257984Y-167621D01*
X257984Y-167664D01*
X257973Y-167727D01*
X257973Y-167812D01*
X257962Y-167897D01*
X257920Y-168087D01*
X257857Y-168288D01*
X257772Y-168479D01*
X257708Y-168563D01*
X257645Y-168637D01*
X257560Y-168701D01*
X257476Y-168754D01*
X257465Y-168754D01*
X257444Y-168764D01*
X257391Y-168775D01*
X257338Y-168785D01*
X257253Y-168796D01*
X257169Y-168807D01*
X257063Y-168817D01*
X255730Y-168817D01*
X255687Y-168807D01*
X255571Y-168796D01*
X255444Y-168775D01*
X255306Y-168732D01*
X255158Y-168680D01*
X255031Y-168595D01*
X254925Y-168489D01*
X254915Y-168479D01*
X254894Y-168436D01*
X254862Y-168362D01*
X254830Y-168267D01*
X254798Y-168140D01*
X254767Y-167981D01*
X254746Y-167801D01*
X254735Y-167579D01*
X254735Y-166542D01*
X254735Y-166532D01*
X254735Y-166500D01*
X254735Y-166447D01*
X254746Y-166383D01*
X254756Y-166299D01*
X254767Y-166203D01*
X254809Y-166002D01*
X254883Y-165801D01*
X254936Y-165696D01*
X254989Y-165600D01*
X255063Y-165516D01*
X255137Y-165442D01*
X255232Y-165389D01*
X255338Y-165346D01*
X255349Y-165346D01*
X255370Y-165336D01*
X255412Y-165336D01*
X255465Y-165325D01*
X255529Y-165315D01*
X255603Y-165315D01*
X255783Y-165304D01*
X257042Y-165304D01*
X257148Y-165315D01*
X257148Y-165315D02*
G37*
G36*
X250079Y-165315D02*
X250248Y-165325D01*
X250407Y-165336D01*
X250471Y-165346D01*
X250534Y-165357D01*
X250576Y-165368D01*
X250608Y-165378D01*
X250619Y-165389D01*
X250640Y-165410D01*
X250672Y-165452D01*
X250703Y-165526D01*
X250735Y-165622D01*
X250756Y-165696D01*
X250767Y-165770D01*
X250777Y-165854D01*
X250788Y-165950D01*
X250799Y-166055D01*
X250799Y-166182D01*
X248904Y-166182D01*
X248862Y-166193D01*
X248820Y-166203D01*
X248714Y-166235D01*
X248661Y-166278D01*
X248619Y-166320D01*
X248619Y-166330D01*
X248598Y-166352D01*
X248587Y-166383D01*
X248566Y-166436D01*
X248545Y-166510D01*
X248524Y-166606D01*
X248513Y-166733D01*
X248502Y-166870D01*
X248502Y-167262D01*
X248502Y-167283D01*
X248502Y-167325D01*
X248502Y-167399D01*
X248513Y-167473D01*
X248513Y-167569D01*
X248524Y-167653D01*
X248534Y-167727D01*
X248555Y-167780D01*
X248555Y-167791D01*
X248576Y-167801D01*
X248598Y-167833D01*
X248640Y-167865D01*
X248682Y-167897D01*
X248746Y-167918D01*
X248820Y-167939D01*
X248915Y-167949D01*
X250852Y-167949D01*
X250852Y-167960D01*
X250852Y-167971D01*
X250852Y-168034D01*
X250852Y-168119D01*
X250841Y-168225D01*
X250830Y-168330D01*
X250809Y-168436D01*
X250777Y-168531D01*
X250746Y-168606D01*
X250735Y-168616D01*
X250714Y-168637D01*
X250672Y-168669D01*
X250619Y-168711D01*
X250523Y-168754D01*
X250418Y-168785D01*
X250270Y-168807D01*
X250100Y-168817D01*
X248703Y-168817D01*
X248598Y-168807D01*
X248481Y-168785D01*
X248344Y-168754D01*
X248206Y-168701D01*
X248079Y-168637D01*
X247973Y-168542D01*
X247963Y-168531D01*
X247942Y-168489D01*
X247899Y-168415D01*
X247857Y-168320D01*
X247815Y-168182D01*
X247772Y-168024D01*
X247751Y-167822D01*
X247741Y-167579D01*
X247741Y-166542D01*
X247741Y-166532D01*
X247741Y-166489D01*
X247741Y-166436D01*
X247751Y-166373D01*
X247762Y-166278D01*
X247783Y-166182D01*
X247836Y-165971D01*
X247920Y-165759D01*
X247973Y-165653D01*
X248047Y-165558D01*
X248132Y-165473D01*
X248227Y-165399D01*
X248333Y-165346D01*
X248460Y-165315D01*
X248513Y-165315D01*
X248555Y-165304D01*
X249910Y-165304D01*
X250079Y-165315D01*
X250079Y-165315D02*
G37*
%LPC*%
G36*
X4722Y35172D02*
X4247Y35172D01*
X4247Y34562D01*
X5232Y34562D01*
X5232Y34662D01*
X5193Y34857D01*
X5083Y35022D01*
X4917Y35133D01*
X4722Y35172D01*
X4722Y35172D02*
G37*
G36*
X3947Y35172D02*
X3472Y35172D01*
X3277Y35133D01*
X3112Y35022D01*
X3001Y34857D01*
X2963Y34662D01*
X2963Y34562D01*
X3947Y34562D01*
X3947Y35172D01*
X3947Y35172D02*
G37*
G36*
X2542Y34362D02*
X1842Y34362D01*
X1842Y33662D01*
X2542Y33662D01*
X2542Y34362D01*
X2542Y34362D02*
G37*
G36*
X1542Y34362D02*
X842Y34362D01*
X842Y33662D01*
X1542Y33662D01*
X1542Y34362D01*
X1542Y34362D02*
G37*
G36*
X5232Y34262D02*
X4247Y34262D01*
X4247Y33652D01*
X4722Y33652D01*
X4917Y33691D01*
X5083Y33802D01*
X5193Y33967D01*
X5232Y34162D01*
X5232Y34262D01*
X5232Y34262D02*
G37*
G36*
X3947Y34262D02*
X2963Y34262D01*
X2963Y34162D01*
X3001Y33967D01*
X3112Y33802D01*
X3277Y33691D01*
X3472Y33652D01*
X3947Y33652D01*
X3947Y34262D01*
X3947Y34262D02*
G37*
G36*
X2542Y33362D02*
X1842Y33362D01*
X1842Y32662D01*
X2542Y32662D01*
X2542Y33362D01*
X2542Y33362D02*
G37*
G36*
X1542Y33362D02*
X842Y33362D01*
X842Y32662D01*
X1542Y32662D01*
X1542Y33362D01*
X1542Y33362D02*
G37*
G36*
X34491Y33112D02*
X33641Y33112D01*
X33641Y32662D01*
X34491Y32662D01*
X34491Y33112D01*
X34491Y33112D02*
G37*
G36*
X33341Y33112D02*
X32491Y33112D01*
X32491Y32662D01*
X33341Y32662D01*
X33341Y33112D01*
X33341Y33112D02*
G37*
G36*
X7383Y33112D02*
X6533Y33112D01*
X6533Y32662D01*
X7383Y32662D01*
X7383Y33112D01*
X7383Y33112D02*
G37*
G36*
X6233Y33112D02*
X5383Y33112D01*
X5383Y32662D01*
X6233Y32662D01*
X6233Y33112D01*
X6233Y33112D02*
G37*
G36*
X70098Y32098D02*
X69398Y32098D01*
X69398Y31398D01*
X70098Y31398D01*
X70098Y32098D01*
X70098Y32098D02*
G37*
G36*
X69098Y32098D02*
X68398Y32098D01*
X68398Y31398D01*
X69098Y31398D01*
X69098Y32098D01*
X69098Y32098D02*
G37*
G36*
X67714Y31108D02*
X67239Y31108D01*
X67239Y30498D01*
X68224Y30498D01*
X68224Y30598D01*
X68185Y30793D01*
X68075Y30958D01*
X67909Y31069D01*
X67714Y31108D01*
X67714Y31108D02*
G37*
G36*
X18883Y30912D02*
X18033Y30912D01*
X18033Y30462D01*
X18883Y30462D01*
X18883Y30912D01*
X18883Y30912D02*
G37*
G36*
X17733Y30912D02*
X16883Y30912D01*
X16883Y30462D01*
X17733Y30462D01*
X17733Y30912D01*
X17733Y30912D02*
G37*
G36*
X70098Y31098D02*
X69398Y31098D01*
X69398Y30398D01*
X70098Y30398D01*
X70098Y31098D01*
X70098Y31098D02*
G37*
G36*
X69098Y31098D02*
X68398Y31098D01*
X68398Y30398D01*
X69098Y30398D01*
X69098Y31098D01*
X69098Y31098D02*
G37*
G36*
X14633Y32118D02*
X13033Y32118D01*
X12916Y32095D01*
X12817Y32028D01*
X12751Y31929D01*
X12727Y31812D01*
X12727Y30312D01*
X12751Y30195D01*
X12817Y30096D01*
X12916Y30029D01*
X13033Y30006D01*
X14633Y30006D01*
X14750Y30029D01*
X14850Y30096D01*
X14916Y30195D01*
X14939Y30312D01*
X14939Y31812D01*
X14916Y31929D01*
X14850Y32028D01*
X14750Y32095D01*
X14633Y32118D01*
X14633Y32118D02*
G37*
G36*
X37391Y31518D02*
X35741Y31518D01*
X35624Y31495D01*
X35525Y31428D01*
X35459Y31329D01*
X35435Y31212D01*
X35435Y29612D01*
X35459Y29495D01*
X35525Y29396D01*
X35624Y29329D01*
X35741Y29306D01*
X37391Y29306D01*
X37508Y29329D01*
X37608Y29396D01*
X37674Y29495D01*
X37697Y29612D01*
X37697Y31212D01*
X37674Y31329D01*
X37608Y31428D01*
X37508Y31495D01*
X37391Y31518D01*
X37391Y31518D02*
G37*
G36*
X10283Y31518D02*
X8633Y31518D01*
X8516Y31495D01*
X8417Y31428D01*
X8351Y31329D01*
X8327Y31212D01*
X8327Y29612D01*
X8351Y29495D01*
X8417Y29396D01*
X8516Y29329D01*
X8633Y29306D01*
X10283Y29306D01*
X10400Y29329D01*
X10500Y29396D01*
X10566Y29495D01*
X10589Y29612D01*
X10589Y31212D01*
X10566Y31329D01*
X10500Y31428D01*
X10400Y31495D01*
X10283Y31518D01*
X10283Y31518D02*
G37*
G36*
X18883Y30162D02*
X16883Y30162D01*
X16883Y29862D01*
X16833Y29862D01*
X16833Y28562D01*
X16833Y27462D01*
X16833Y26362D01*
X16833Y25262D01*
X16833Y24418D01*
X15733Y24418D01*
X15616Y24395D01*
X15517Y24328D01*
X15451Y24229D01*
X15427Y24112D01*
X15427Y22712D01*
X15451Y22595D01*
X15517Y22496D01*
X15616Y22429D01*
X15733Y22406D01*
X16833Y22406D01*
X16833Y21962D01*
X16833Y20862D01*
X16833Y19762D01*
X18933Y19762D01*
X18933Y19979D01*
X19197Y19979D01*
X19284Y19892D01*
X19432Y19806D01*
X19598Y19762D01*
X19608Y19762D01*
X19676Y19635D01*
X19614Y19542D01*
X19573Y19337D01*
X19573Y19295D01*
X16083Y19295D01*
X16083Y19912D01*
X8183Y19912D01*
X8183Y17812D01*
X11700Y17812D01*
X11700Y16343D01*
X11481Y16217D01*
X11284Y16019D01*
X11144Y15777D01*
X11071Y15507D01*
X11071Y15227D01*
X11144Y14957D01*
X11284Y14715D01*
X11481Y14517D01*
X11723Y14377D01*
X11993Y14305D01*
X12273Y14305D01*
X12543Y14377D01*
X12785Y14517D01*
X12983Y14715D01*
X13123Y14957D01*
X13195Y15227D01*
X13195Y15507D01*
X13123Y15777D01*
X12983Y16019D01*
X12785Y16217D01*
X12567Y16343D01*
X12567Y17812D01*
X15000Y17812D01*
X15000Y17396D01*
X14493Y17396D01*
X14493Y15296D01*
X16593Y15296D01*
X16593Y17396D01*
X15867Y17396D01*
X15867Y17812D01*
X16083Y17812D01*
X16083Y18429D01*
X19573Y18429D01*
X19573Y18387D01*
X19614Y18182D01*
X19730Y18008D01*
X19903Y17892D01*
X20108Y17852D01*
X20558Y17852D01*
X20763Y17892D01*
X20937Y18008D01*
X21053Y18182D01*
X21094Y18387D01*
X21094Y19337D01*
X21053Y19542D01*
X20937Y19715D01*
X20763Y19832D01*
X20558Y19872D01*
X20242Y19872D01*
X20190Y19999D01*
X20203Y20013D01*
X20289Y20161D01*
X20333Y20326D01*
X20333Y20498D01*
X20289Y20663D01*
X20203Y20811D01*
X20138Y20877D01*
X20097Y20962D01*
X20138Y21047D01*
X20203Y21113D01*
X20289Y21261D01*
X20333Y21426D01*
X20333Y21598D01*
X20289Y21763D01*
X20203Y21911D01*
X20082Y22032D01*
X19934Y22118D01*
X19769Y22162D01*
X19598Y22162D01*
X19432Y22118D01*
X19284Y22032D01*
X19197Y21945D01*
X18933Y21945D01*
X18933Y23062D01*
X18933Y24162D01*
X18933Y25262D01*
X18933Y26362D01*
X18933Y27462D01*
X18933Y28779D01*
X19433Y28779D01*
X19433Y28312D01*
X21233Y28312D01*
X21233Y30112D01*
X19433Y30112D01*
X19433Y29645D01*
X18933Y29645D01*
X18933Y29862D01*
X18883Y29862D01*
X18883Y30162D01*
X18883Y30162D02*
G37*
G36*
X73886Y26341D02*
X73811Y26341D01*
X73811Y25532D01*
X74370Y25532D01*
X74370Y25857D01*
X74334Y26042D01*
X74229Y26199D01*
X74071Y26304D01*
X73886Y26341D01*
X73886Y26341D02*
G37*
G36*
X73511Y26341D02*
X73436Y26341D01*
X73251Y26304D01*
X73094Y26199D01*
X72989Y26042D01*
X72952Y25857D01*
X72952Y25532D01*
X73511Y25532D01*
X73511Y26341D01*
X73511Y26341D02*
G37*
G36*
X55647Y25482D02*
X54797Y25482D01*
X54797Y24632D01*
X55647Y24632D01*
X55647Y25482D01*
X55647Y25482D02*
G37*
G36*
X54497Y25482D02*
X53647Y25482D01*
X53647Y24632D01*
X54497Y24632D01*
X54497Y25482D01*
X54497Y25482D02*
G37*
G36*
X74370Y25232D02*
X73811Y25232D01*
X73811Y24423D01*
X73886Y24423D01*
X74071Y24460D01*
X74229Y24565D01*
X74334Y24722D01*
X74370Y24907D01*
X74370Y25232D01*
X74370Y25232D02*
G37*
G36*
X73511Y25232D02*
X72952Y25232D01*
X72952Y24907D01*
X72989Y24722D01*
X73094Y24565D01*
X73251Y24460D01*
X73436Y24423D01*
X73511Y24423D01*
X73511Y25232D01*
X73511Y25232D02*
G37*
G36*
X75738Y29147D02*
X75458Y29147D01*
X75188Y29075D01*
X74946Y28935D01*
X74748Y28737D01*
X74609Y28495D01*
X74536Y28225D01*
X74536Y27945D01*
X74609Y27675D01*
X74748Y27433D01*
X74946Y27235D01*
X75165Y27109D01*
X75165Y26358D01*
X75131Y26352D01*
X74958Y26236D01*
X74842Y26062D01*
X74801Y25857D01*
X74801Y24907D01*
X74842Y24702D01*
X74958Y24528D01*
X75131Y24412D01*
X75336Y24372D01*
X75786Y24372D01*
X75991Y24412D01*
X76165Y24528D01*
X76281Y24702D01*
X76321Y24907D01*
X76321Y25857D01*
X76281Y26062D01*
X76165Y26236D01*
X76031Y26324D01*
X76031Y27109D01*
X76250Y27235D01*
X76448Y27433D01*
X76588Y27675D01*
X76660Y27945D01*
X76660Y28225D01*
X76588Y28495D01*
X76448Y28737D01*
X76250Y28935D01*
X76008Y29075D01*
X75738Y29147D01*
X75738Y29147D02*
G37*
G36*
X55647Y24332D02*
X54797Y24332D01*
X54797Y23482D01*
X55647Y23482D01*
X55647Y24332D01*
X55647Y24332D02*
G37*
G36*
X54497Y24332D02*
X53647Y24332D01*
X53647Y23482D01*
X54497Y23482D01*
X54497Y24332D01*
X54497Y24332D02*
G37*
G36*
X2667Y17976D02*
X2342Y17976D01*
X2342Y17417D01*
X3152Y17417D01*
X3152Y17492D01*
X3115Y17677D01*
X3010Y17834D01*
X2853Y17939D01*
X2667Y17976D01*
X2667Y17976D02*
G37*
G36*
X2042Y17976D02*
X1717Y17976D01*
X1532Y17939D01*
X1375Y17834D01*
X1270Y17677D01*
X1233Y17492D01*
X1233Y17417D01*
X2042Y17417D01*
X2042Y17976D01*
X2042Y17976D02*
G37*
G36*
X78052Y19145D02*
X76902Y19145D01*
X76327Y18570D01*
X76327Y17420D01*
X76902Y16845D01*
X78052Y16845D01*
X78627Y17420D01*
X78627Y18570D01*
X78052Y19145D01*
X78052Y19145D02*
G37*
G36*
X75088Y19145D02*
X74786Y19145D01*
X74493Y19067D01*
X74231Y18915D01*
X74017Y18701D01*
X73865Y18439D01*
X73787Y18146D01*
X73787Y17844D01*
X73865Y17551D01*
X74017Y17289D01*
X74231Y17075D01*
X74493Y16923D01*
X74786Y16845D01*
X75088Y16845D01*
X75381Y16923D01*
X75643Y17075D01*
X75857Y17289D01*
X76009Y17551D01*
X76087Y17844D01*
X76087Y18146D01*
X76009Y18439D01*
X75857Y18701D01*
X75643Y18915D01*
X75381Y19067D01*
X75088Y19145D01*
X75088Y19145D02*
G37*
G36*
X72548Y19145D02*
X72246Y19145D01*
X71953Y19067D01*
X71691Y18915D01*
X71477Y18701D01*
X71325Y18439D01*
X71247Y18146D01*
X71247Y17844D01*
X71325Y17551D01*
X71477Y17289D01*
X71691Y17075D01*
X71953Y16923D01*
X72246Y16845D01*
X72548Y16845D01*
X72841Y16923D01*
X73103Y17075D01*
X73317Y17289D01*
X73469Y17551D01*
X73547Y17844D01*
X73547Y18146D01*
X73469Y18439D01*
X73317Y18701D01*
X73103Y18915D01*
X72841Y19067D01*
X72548Y19145D01*
X72548Y19145D02*
G37*
G36*
X70008Y19145D02*
X69706Y19145D01*
X69413Y19067D01*
X69151Y18915D01*
X68937Y18701D01*
X68785Y18439D01*
X68707Y18146D01*
X68707Y17844D01*
X68785Y17551D01*
X68937Y17289D01*
X69151Y17075D01*
X69413Y16923D01*
X69706Y16845D01*
X70008Y16845D01*
X70301Y16923D01*
X70563Y17075D01*
X70777Y17289D01*
X70929Y17551D01*
X71007Y17844D01*
X71007Y18146D01*
X70929Y18439D01*
X70777Y18701D01*
X70563Y18915D01*
X70301Y19067D01*
X70008Y19145D01*
X70008Y19145D02*
G37*
G36*
X67468Y19145D02*
X67166Y19145D01*
X66873Y19067D01*
X66611Y18915D01*
X66397Y18701D01*
X66245Y18439D01*
X66167Y18146D01*
X66167Y17844D01*
X66245Y17551D01*
X66397Y17289D01*
X66611Y17075D01*
X66873Y16923D01*
X67166Y16845D01*
X67468Y16845D01*
X67761Y16923D01*
X68023Y17075D01*
X68237Y17289D01*
X68389Y17551D01*
X68467Y17844D01*
X68467Y18146D01*
X68389Y18439D01*
X68237Y18701D01*
X68023Y18915D01*
X67761Y19067D01*
X67468Y19145D01*
X67468Y19145D02*
G37*
G36*
X64928Y19145D02*
X64626Y19145D01*
X64333Y19067D01*
X64071Y18915D01*
X63857Y18701D01*
X63705Y18439D01*
X63627Y18146D01*
X63627Y17844D01*
X63705Y17551D01*
X63857Y17289D01*
X64071Y17075D01*
X64333Y16923D01*
X64626Y16845D01*
X64928Y16845D01*
X65221Y16923D01*
X65483Y17075D01*
X65697Y17289D01*
X65849Y17551D01*
X65927Y17844D01*
X65927Y18146D01*
X65849Y18439D01*
X65697Y18701D01*
X65483Y18915D01*
X65221Y19067D01*
X64928Y19145D01*
X64928Y19145D02*
G37*
G36*
X62388Y19145D02*
X62086Y19145D01*
X61793Y19067D01*
X61531Y18915D01*
X61317Y18701D01*
X61165Y18439D01*
X61087Y18146D01*
X61087Y17844D01*
X61165Y17551D01*
X61317Y17289D01*
X61531Y17075D01*
X61793Y16923D01*
X62086Y16845D01*
X62388Y16845D01*
X62681Y16923D01*
X62943Y17075D01*
X63157Y17289D01*
X63309Y17551D01*
X63387Y17844D01*
X63387Y18146D01*
X63309Y18439D01*
X63157Y18701D01*
X62943Y18915D01*
X62681Y19067D01*
X62388Y19145D01*
X62388Y19145D02*
G37*
G36*
X3152Y17117D02*
X2342Y17117D01*
X2342Y16558D01*
X2667Y16558D01*
X2853Y16595D01*
X3010Y16700D01*
X3115Y16857D01*
X3152Y17042D01*
X3152Y17117D01*
X3152Y17117D02*
G37*
G36*
X2042Y17117D02*
X1233Y17117D01*
X1233Y17042D01*
X1270Y16857D01*
X1375Y16700D01*
X1532Y16595D01*
X1717Y16558D01*
X2042Y16558D01*
X2042Y17117D01*
X2042Y17117D02*
G37*
G36*
X47403Y16226D02*
X47328Y16226D01*
X47143Y16189D01*
X46986Y16084D01*
X46881Y15927D01*
X46844Y15742D01*
X46844Y15417D01*
X47403Y15417D01*
X47403Y16226D01*
X47403Y16226D02*
G37*
G36*
X47403Y15117D02*
X46844Y15117D01*
X46844Y14792D01*
X46881Y14607D01*
X46986Y14450D01*
X47143Y14345D01*
X47328Y14308D01*
X47403Y14308D01*
X47403Y15117D01*
X47403Y15117D02*
G37*
G36*
X43301Y16329D02*
X43021Y16329D01*
X42751Y16257D01*
X42509Y16117D01*
X42312Y15919D01*
X42172Y15677D01*
X42099Y15407D01*
X42099Y15127D01*
X42172Y14857D01*
X42312Y14615D01*
X42509Y14417D01*
X42751Y14277D01*
X43021Y14205D01*
X43301Y14205D01*
X43571Y14277D01*
X43813Y14417D01*
X44011Y14615D01*
X44137Y14834D01*
X44893Y14834D01*
X44893Y14792D01*
X44934Y14587D01*
X45050Y14413D01*
X45223Y14297D01*
X45428Y14257D01*
X45878Y14257D01*
X46083Y14297D01*
X46257Y14413D01*
X46373Y14587D01*
X46414Y14792D01*
X46414Y15742D01*
X46373Y15947D01*
X46257Y16121D01*
X46083Y16237D01*
X45878Y16277D01*
X45428Y16277D01*
X45223Y16237D01*
X45050Y16121D01*
X44934Y15947D01*
X44893Y15742D01*
X44893Y15700D01*
X44137Y15700D01*
X44011Y15919D01*
X43813Y16117D01*
X43571Y16257D01*
X43301Y16329D01*
X43301Y16329D02*
G37*
G36*
X47453Y13686D02*
X47378Y13686D01*
X47193Y13649D01*
X47036Y13544D01*
X46931Y13387D01*
X46894Y13202D01*
X46894Y12877D01*
X47453Y12877D01*
X47453Y13686D01*
X47453Y13686D02*
G37*
G36*
X43301Y13789D02*
X43021Y13789D01*
X42751Y13717D01*
X42509Y13577D01*
X42312Y13379D01*
X42172Y13137D01*
X42099Y12867D01*
X42099Y12587D01*
X42172Y12317D01*
X42312Y12075D01*
X42509Y11877D01*
X42751Y11737D01*
X43021Y11665D01*
X43301Y11665D01*
X43571Y11737D01*
X43813Y11877D01*
X44011Y12075D01*
X44137Y12294D01*
X44943Y12294D01*
X44943Y12252D01*
X44984Y12047D01*
X45100Y11873D01*
X45273Y11757D01*
X45478Y11717D01*
X45928Y11717D01*
X46133Y11757D01*
X46307Y11873D01*
X46423Y12047D01*
X46464Y12252D01*
X46464Y13202D01*
X46423Y13407D01*
X46307Y13580D01*
X46133Y13697D01*
X45928Y13737D01*
X45478Y13737D01*
X45273Y13697D01*
X45100Y13580D01*
X44984Y13407D01*
X44943Y13202D01*
X44943Y13160D01*
X44137Y13160D01*
X44011Y13379D01*
X43813Y13577D01*
X43571Y13717D01*
X43301Y13789D01*
X43301Y13789D02*
G37*
G36*
X43301Y11249D02*
X43021Y11249D01*
X42751Y11177D01*
X42509Y11037D01*
X42312Y10839D01*
X42172Y10597D01*
X42099Y10327D01*
X42099Y10047D01*
X42172Y9777D01*
X42312Y9535D01*
X42509Y9337D01*
X42751Y9197D01*
X43021Y9125D01*
X43301Y9125D01*
X43571Y9197D01*
X43813Y9337D01*
X44011Y9535D01*
X44137Y9754D01*
X44943Y9754D01*
X44943Y9712D01*
X44984Y9507D01*
X45100Y9333D01*
X45273Y9217D01*
X45478Y9177D01*
X45928Y9177D01*
X46133Y9217D01*
X46307Y9333D01*
X46423Y9507D01*
X46464Y9712D01*
X46464Y10662D01*
X46423Y10867D01*
X46307Y11040D01*
X46133Y11157D01*
X45928Y11197D01*
X45478Y11197D01*
X45273Y11157D01*
X45100Y11040D01*
X44984Y10867D01*
X44943Y10662D01*
X44943Y10620D01*
X44137Y10620D01*
X44011Y10839D01*
X43813Y11037D01*
X43571Y11177D01*
X43301Y11249D01*
X43301Y11249D02*
G37*
G36*
X32640Y9827D02*
X31790Y9827D01*
X31790Y8977D01*
X32640Y8977D01*
X32640Y9827D01*
X32640Y9827D02*
G37*
G36*
X31490Y9827D02*
X30640Y9827D01*
X30640Y8977D01*
X31490Y8977D01*
X31490Y9827D01*
X31490Y9827D02*
G37*
G36*
X16543Y9546D02*
X15693Y9546D01*
X15693Y8696D01*
X16543Y8696D01*
X16543Y9546D01*
X16543Y9546D02*
G37*
G36*
X15393Y9546D02*
X14543Y9546D01*
X14543Y8696D01*
X15393Y8696D01*
X15393Y9546D01*
X15393Y9546D02*
G37*
G36*
X32640Y8677D02*
X31790Y8677D01*
X31790Y7827D01*
X32640Y7827D01*
X32640Y8677D01*
X32640Y8677D02*
G37*
G36*
X31490Y8677D02*
X30640Y8677D01*
X30640Y7827D01*
X31490Y7827D01*
X31490Y8677D01*
X31490Y8677D02*
G37*
G36*
X16543Y8396D02*
X15693Y8396D01*
X15693Y7546D01*
X16543Y7546D01*
X16543Y8396D01*
X16543Y8396D02*
G37*
G36*
X15393Y8396D02*
X14543Y8396D01*
X14543Y7546D01*
X15393Y7546D01*
X15393Y8396D01*
X15393Y8396D02*
G37*
G36*
X64927Y3854D02*
X64927Y2905D01*
X65876Y2905D01*
X65802Y3180D01*
X65657Y3430D01*
X65452Y3635D01*
X65202Y3780D01*
X64927Y3854D01*
X64927Y3854D02*
G37*
G36*
X64627Y3854D02*
X64352Y3780D01*
X64102Y3635D01*
X63897Y3430D01*
X63752Y3180D01*
X63678Y2905D01*
X64627Y2905D01*
X64627Y3854D01*
X64627Y3854D02*
G37*
G36*
X65876Y2605D02*
X64927Y2605D01*
X64927Y1656D01*
X65202Y1730D01*
X65452Y1875D01*
X65657Y2080D01*
X65802Y2330D01*
X65876Y2605D01*
X65876Y2605D02*
G37*
G36*
X64627Y2605D02*
X63678Y2605D01*
X63752Y2330D01*
X63897Y2080D01*
X64102Y1875D01*
X64352Y1730D01*
X64627Y1656D01*
X64627Y2605D01*
X64627Y2605D02*
G37*
G36*
X78052Y3905D02*
X76902Y3905D01*
X76327Y3330D01*
X76327Y2180D01*
X76902Y1605D01*
X78052Y1605D01*
X78627Y2180D01*
X78627Y3330D01*
X78052Y3905D01*
X78052Y3905D02*
G37*
G36*
X75088Y3905D02*
X74786Y3905D01*
X74493Y3827D01*
X74231Y3675D01*
X74017Y3461D01*
X73865Y3199D01*
X73787Y2906D01*
X73787Y2604D01*
X73865Y2311D01*
X74017Y2049D01*
X74231Y1835D01*
X74493Y1683D01*
X74786Y1605D01*
X75088Y1605D01*
X75381Y1683D01*
X75643Y1835D01*
X75857Y2049D01*
X76009Y2311D01*
X76087Y2604D01*
X76087Y2906D01*
X76009Y3199D01*
X75857Y3461D01*
X75643Y3675D01*
X75381Y3827D01*
X75088Y3905D01*
X75088Y3905D02*
G37*
G36*
X72548Y3905D02*
X72246Y3905D01*
X71953Y3827D01*
X71691Y3675D01*
X71477Y3461D01*
X71325Y3199D01*
X71247Y2906D01*
X71247Y2604D01*
X71325Y2311D01*
X71477Y2049D01*
X71691Y1835D01*
X71953Y1683D01*
X72246Y1605D01*
X72548Y1605D01*
X72841Y1683D01*
X73103Y1835D01*
X73317Y2049D01*
X73469Y2311D01*
X73547Y2604D01*
X73547Y2906D01*
X73469Y3199D01*
X73317Y3461D01*
X73103Y3675D01*
X72841Y3827D01*
X72548Y3905D01*
X72548Y3905D02*
G37*
G36*
X70008Y3905D02*
X69706Y3905D01*
X69413Y3827D01*
X69151Y3675D01*
X68937Y3461D01*
X68785Y3199D01*
X68707Y2906D01*
X68707Y2604D01*
X68785Y2311D01*
X68937Y2049D01*
X69151Y1835D01*
X69413Y1683D01*
X69706Y1605D01*
X70008Y1605D01*
X70301Y1683D01*
X70563Y1835D01*
X70777Y2049D01*
X70929Y2311D01*
X71007Y2604D01*
X71007Y2906D01*
X70929Y3199D01*
X70777Y3461D01*
X70563Y3675D01*
X70301Y3827D01*
X70008Y3905D01*
X70008Y3905D02*
G37*
G36*
X67468Y3905D02*
X67166Y3905D01*
X66873Y3827D01*
X66611Y3675D01*
X66397Y3461D01*
X66245Y3199D01*
X66167Y2906D01*
X66167Y2604D01*
X66245Y2311D01*
X66397Y2049D01*
X66611Y1835D01*
X66873Y1683D01*
X67166Y1605D01*
X67468Y1605D01*
X67761Y1683D01*
X68023Y1835D01*
X68237Y2049D01*
X68389Y2311D01*
X68467Y2604D01*
X68467Y2906D01*
X68389Y3199D01*
X68237Y3461D01*
X68023Y3675D01*
X67761Y3827D01*
X67468Y3905D01*
X67468Y3905D02*
G37*
G36*
X57090Y15755D02*
X55940Y15755D01*
X55365Y15180D01*
X55365Y14030D01*
X55940Y13455D01*
X56082Y13455D01*
X56082Y9686D01*
X55940Y9686D01*
X55365Y9111D01*
X55365Y7961D01*
X55940Y7386D01*
X56082Y7386D01*
X56082Y3563D01*
X55940Y3563D01*
X55365Y2988D01*
X55365Y1838D01*
X55940Y1263D01*
X57090Y1263D01*
X57665Y1838D01*
X57665Y1980D01*
X61386Y1980D01*
X61531Y1835D01*
X61793Y1683D01*
X62086Y1605D01*
X62388Y1605D01*
X62681Y1683D01*
X62943Y1835D01*
X63157Y2049D01*
X63309Y2311D01*
X63387Y2604D01*
X63387Y2906D01*
X63309Y3199D01*
X63157Y3461D01*
X62943Y3675D01*
X62681Y3827D01*
X62388Y3905D01*
X62086Y3905D01*
X61793Y3827D01*
X61531Y3675D01*
X61317Y3461D01*
X61165Y3199D01*
X61087Y2906D01*
X61087Y2846D01*
X57665Y2846D01*
X57665Y2988D01*
X57090Y3563D01*
X56948Y3563D01*
X56948Y7386D01*
X57090Y7386D01*
X57665Y7961D01*
X57665Y9111D01*
X57090Y9686D01*
X56948Y9686D01*
X56948Y13455D01*
X57090Y13455D01*
X57665Y14030D01*
X57665Y15180D01*
X57090Y15755D01*
X57090Y15755D02*
G37*
G36*
X30744Y29172D02*
X30269Y29172D01*
X30074Y29133D01*
X29909Y29022D01*
X29798Y28857D01*
X29760Y28662D01*
X29760Y28562D01*
X30744Y28562D01*
X30744Y29172D01*
X30744Y29172D02*
G37*
G36*
X28965Y27502D02*
X28890Y27502D01*
X28890Y26693D01*
X29450Y26693D01*
X29450Y27018D01*
X29413Y27203D01*
X29308Y27360D01*
X29151Y27465D01*
X28965Y27502D01*
X28965Y27502D02*
G37*
G36*
X28590Y27502D02*
X28515Y27502D01*
X28330Y27465D01*
X28173Y27360D01*
X28068Y27203D01*
X28031Y27018D01*
X28031Y26693D01*
X28590Y26693D01*
X28590Y27502D01*
X28590Y27502D02*
G37*
G36*
X29450Y26393D02*
X28890Y26393D01*
X28890Y25584D01*
X28965Y25584D01*
X29151Y25621D01*
X29308Y25726D01*
X29413Y25883D01*
X29450Y26068D01*
X29450Y26393D01*
X29450Y26393D02*
G37*
G36*
X28590Y26393D02*
X28031Y26393D01*
X28031Y26068D01*
X28068Y25883D01*
X28173Y25726D01*
X28330Y25621D01*
X28515Y25584D01*
X28590Y25584D01*
X28590Y26393D01*
X28590Y26393D02*
G37*
G36*
X25772Y24712D02*
X25509Y24712D01*
X25254Y24644D01*
X25026Y24512D01*
X24840Y24326D01*
X24708Y24098D01*
X24640Y23844D01*
X24640Y23580D01*
X24708Y23326D01*
X24840Y23098D01*
X25026Y22912D01*
X25254Y22780D01*
X25263Y22778D01*
X25263Y22646D01*
X25254Y22644D01*
X25026Y22512D01*
X24840Y22326D01*
X24708Y22098D01*
X24640Y21844D01*
X24640Y21580D01*
X24708Y21326D01*
X24840Y21098D01*
X25026Y20912D01*
X25254Y20780D01*
X25263Y20778D01*
X25263Y20646D01*
X25254Y20644D01*
X25026Y20512D01*
X24840Y20326D01*
X24708Y20098D01*
X24640Y19844D01*
X24640Y19580D01*
X24708Y19326D01*
X24840Y19098D01*
X25026Y18912D01*
X25254Y18780D01*
X25509Y18712D01*
X25772Y18712D01*
X26026Y18780D01*
X26254Y18912D01*
X26441Y19098D01*
X26572Y19326D01*
X26640Y19580D01*
X26640Y19844D01*
X26572Y20098D01*
X26441Y20326D01*
X26254Y20512D01*
X26026Y20644D01*
X26017Y20646D01*
X26017Y20778D01*
X26026Y20780D01*
X26254Y20912D01*
X26441Y21098D01*
X26572Y21326D01*
X26640Y21580D01*
X26640Y21844D01*
X26572Y22098D01*
X26441Y22326D01*
X26254Y22512D01*
X26026Y22644D01*
X26017Y22646D01*
X26017Y22778D01*
X26026Y22780D01*
X26254Y22912D01*
X26441Y23098D01*
X26572Y23326D01*
X26640Y23580D01*
X26640Y23844D01*
X26572Y24098D01*
X26441Y24326D01*
X26254Y24512D01*
X26026Y24644D01*
X25772Y24712D01*
X25772Y24712D02*
G37*
G36*
X259338Y-154437D02*
X259232Y-154437D01*
X259179Y-154447D01*
X259095Y-154458D01*
X259010Y-154490D01*
X258915Y-154543D01*
X258830Y-154627D01*
X258777Y-154733D01*
X258767Y-154807D01*
X258756Y-154881D01*
X258756Y-154892D01*
X258756Y-154913D01*
X258767Y-154955D01*
X258777Y-155008D01*
X258819Y-155125D01*
X258851Y-155177D01*
X258894Y-155241D01*
X258904Y-155251D01*
X258925Y-155262D01*
X258957Y-155283D01*
X258999Y-155304D01*
X259105Y-155357D01*
X259179Y-155368D01*
X259253Y-155378D01*
X259274Y-155378D01*
X259327Y-155368D01*
X259401Y-155347D01*
X259486Y-155315D01*
X259571Y-155251D01*
X259645Y-155167D01*
X259698Y-155040D01*
X259719Y-154966D01*
X259719Y-154881D01*
X259719Y-154860D01*
X259708Y-154807D01*
X259698Y-154744D01*
X259666Y-154659D01*
X259603Y-154574D01*
X259518Y-154511D01*
X259412Y-154458D01*
X259338Y-154437D01*
X259338Y-154437D02*
G37*
%LPD*%
G36*
X259327Y-154574D02*
X259370Y-154585D01*
X259412Y-154617D01*
X259454Y-154648D01*
X259476Y-154701D01*
X259486Y-154765D01*
X259486Y-154775D01*
X259486Y-154796D01*
X259465Y-154860D01*
X259444Y-154892D01*
X259423Y-154923D01*
X259380Y-154945D01*
X259327Y-154955D01*
X259507Y-155241D01*
X259401Y-155241D01*
X259222Y-154955D01*
X259116Y-154955D01*
X259116Y-155241D01*
X259010Y-155241D01*
X259010Y-154564D01*
X259285Y-154564D01*
X259327Y-154574D01*
X259327Y-154574D02*
G37*
%LPC*%
G36*
X259285Y-154659D02*
X259116Y-154659D01*
X259116Y-154871D01*
X259296Y-154871D01*
X259338Y-154860D01*
X259370Y-154828D01*
X259380Y-154765D01*
X259380Y-154744D01*
X259370Y-154712D01*
X259338Y-154680D01*
X259285Y-154659D01*
X259285Y-154659D02*
G37*
G36*
X253603Y-155823D02*
X253560Y-155823D01*
X253508Y-155844D01*
X253444Y-155865D01*
X253370Y-155897D01*
X253296Y-155960D01*
X253201Y-156035D01*
X253116Y-156140D01*
X252227Y-157389D01*
X254925Y-161664D01*
X254936Y-161685D01*
X254968Y-161727D01*
X255010Y-161791D01*
X255074Y-161854D01*
X255148Y-161928D01*
X255222Y-161992D01*
X255296Y-162034D01*
X255380Y-162055D01*
X255423Y-162055D01*
X255476Y-162045D01*
X255539Y-162024D01*
X255613Y-161981D01*
X255687Y-161939D01*
X255772Y-161865D01*
X255846Y-161770D01*
X256788Y-160415D01*
X254079Y-156151D01*
X254068Y-156140D01*
X254047Y-156098D01*
X253994Y-156045D01*
X253941Y-155982D01*
X253867Y-155929D01*
X253793Y-155876D01*
X253698Y-155833D01*
X253603Y-155823D01*
X253603Y-155823D02*
G37*
G36*
X268756Y-166172D02*
X267401Y-166172D01*
X267401Y-167050D01*
X268819Y-167050D01*
X268840Y-167039D01*
X268883Y-167029D01*
X268925Y-167008D01*
X268957Y-166965D01*
X268999Y-166902D01*
X269020Y-166807D01*
X269031Y-166690D01*
X269031Y-166563D01*
X269031Y-166542D01*
X269031Y-166500D01*
X269020Y-166436D01*
X268999Y-166362D01*
X268967Y-166299D01*
X268914Y-166235D01*
X268851Y-166193D01*
X268756Y-166172D01*
X268756Y-166172D02*
G37*
G36*
X253254Y-166172D02*
X251994Y-166172D01*
X251994Y-167039D01*
X253338Y-167039D01*
X253370Y-167029D01*
X253423Y-167018D01*
X253476Y-166987D01*
X253518Y-166944D01*
X253571Y-166881D01*
X253603Y-166785D01*
X253613Y-166658D01*
X253613Y-166563D01*
X253613Y-166542D01*
X253613Y-166500D01*
X253592Y-166436D01*
X253571Y-166362D01*
X253529Y-166299D01*
X253465Y-166235D01*
X253370Y-166193D01*
X253254Y-166172D01*
X253254Y-166172D02*
G37*
G36*
X256788Y-166172D02*
X255899Y-166172D01*
X255857Y-166182D01*
X255804Y-166193D01*
X255751Y-166214D01*
X255698Y-166235D01*
X255645Y-166278D01*
X255592Y-166330D01*
X255592Y-166341D01*
X255571Y-166362D01*
X255560Y-166394D01*
X255539Y-166457D01*
X255518Y-166532D01*
X255507Y-166616D01*
X255486Y-166733D01*
X255486Y-166870D01*
X255486Y-167262D01*
X255486Y-167283D01*
X255486Y-167325D01*
X255486Y-167389D01*
X255497Y-167473D01*
X255518Y-167653D01*
X255539Y-167738D01*
X255560Y-167801D01*
X255560Y-167812D01*
X255581Y-167822D01*
X255603Y-167844D01*
X255634Y-167875D01*
X255677Y-167907D01*
X255730Y-167928D01*
X255804Y-167939D01*
X255888Y-167949D01*
X256830Y-167949D01*
X256883Y-167939D01*
X256957Y-167918D01*
X257042Y-167865D01*
X257116Y-167780D01*
X257158Y-167727D01*
X257190Y-167664D01*
X257222Y-167579D01*
X257243Y-167484D01*
X257264Y-167378D01*
X257264Y-167262D01*
X257264Y-166870D01*
X257264Y-166849D01*
X257264Y-166807D01*
X257253Y-166743D01*
X257243Y-166658D01*
X257201Y-166479D01*
X257169Y-166394D01*
X257116Y-166330D01*
X257105Y-166320D01*
X257095Y-166309D01*
X257063Y-166278D01*
X257021Y-166246D01*
X256915Y-166193D01*
X256862Y-166182D01*
X256788Y-166172D01*
X256788Y-166172D02*
G37*
%LPD*%
D10*
X337357Y-153546D02*
X337357Y-154403D01*
X337000Y-153761D02*
X337714Y-154189D01*
X337714Y-153761D02*
X337000Y-154189D01*
X338378Y-153546D02*
X338378Y-154403D01*
X338021Y-153761D02*
X338735Y-154189D01*
X338735Y-153761D02*
X338021Y-154189D01*
D11*
X347700Y-175396D02*
X347700Y-174796D01*
X353820Y-155796D02*
X353820Y-155796D01*
X342700Y-175596D02*
X342700Y-174596D01*
X342540Y-177431D02*
X342540Y-176161D01*
X345080Y-177431D02*
X345080Y-176161D01*
X347620Y-177431D02*
X347620Y-176161D01*
X350160Y-177431D02*
X350160Y-176161D01*
X352700Y-175596D02*
X352700Y-174596D01*
X352700Y-177431D02*
X352700Y-176161D01*
X324000Y-155796D02*
X324000Y-152796D01*
X342540Y-176796D02*
X352700Y-176796D01*
X342700Y-175096D02*
X352700Y-175096D01*
X324000Y-155796D02*
X353820Y-155796D01*
X272000Y-160296D02*
X353820Y-160296D01*
X339233Y-176396D02*
X338900Y-176863D01*
X339400Y-176863D01*
X339233Y-176396D02*
X339233Y-177096D01*
X339723Y-176396D02*
X339623Y-176429D01*
X339557Y-176529D01*
X339523Y-176696D01*
X339523Y-176796D01*
X339557Y-176963D01*
X339623Y-177063D01*
X339723Y-177096D01*
X339790Y-177096D01*
X339890Y-177063D01*
X339956Y-176963D01*
X339990Y-176796D01*
X339990Y-176696D01*
X339956Y-176529D01*
X339890Y-176429D01*
X339790Y-176396D01*
X339723Y-176396D01*
X340346Y-176396D02*
X340246Y-176429D01*
X340180Y-176529D01*
X340146Y-176696D01*
X340146Y-176796D01*
X340180Y-176963D01*
X340246Y-177063D01*
X340346Y-177096D01*
X340413Y-177096D01*
X340513Y-177063D01*
X340580Y-176963D01*
X340613Y-176796D01*
X340613Y-176696D01*
X340580Y-176529D01*
X340513Y-176429D01*
X340413Y-176396D01*
X340346Y-176396D01*
X340770Y-176629D02*
X340770Y-177096D01*
X340770Y-176763D02*
X340870Y-176663D01*
X340936Y-176629D01*
X341036Y-176629D01*
X341103Y-176663D01*
X341136Y-176763D01*
X341136Y-177096D01*
X341136Y-176763D02*
X341236Y-176663D01*
X341303Y-176629D01*
X341403Y-176629D01*
X341469Y-176663D01*
X341503Y-176763D01*
X341503Y-177096D01*
X341789Y-176396D02*
X341823Y-176429D01*
X341856Y-176396D01*
X341823Y-176363D01*
X341789Y-176396D01*
X341823Y-176629D02*
X341823Y-177096D01*
X341979Y-176396D02*
X341979Y-177096D01*
X339000Y-174829D02*
X339067Y-174796D01*
X339167Y-174696D01*
X339167Y-175396D01*
X339713Y-174696D02*
X339613Y-174729D01*
X339547Y-174829D01*
X339513Y-174996D01*
X339513Y-175096D01*
X339547Y-175263D01*
X339613Y-175363D01*
X339713Y-175396D01*
X339780Y-175396D01*
X339880Y-175363D01*
X339946Y-175263D01*
X339980Y-175096D01*
X339980Y-174996D01*
X339946Y-174829D01*
X339880Y-174729D01*
X339780Y-174696D01*
X339713Y-174696D01*
X340136Y-174929D02*
X340136Y-175396D01*
X340136Y-175063D02*
X340236Y-174963D01*
X340303Y-174929D01*
X340403Y-174929D01*
X340470Y-174963D01*
X340503Y-175063D01*
X340503Y-175396D01*
X340503Y-175063D02*
X340603Y-174963D01*
X340670Y-174929D01*
X340770Y-174929D01*
X340836Y-174963D01*
X340870Y-175063D01*
X340870Y-175396D01*
X341090Y-174929D02*
X341090Y-175396D01*
X341090Y-175063D02*
X341190Y-174963D01*
X341256Y-174929D01*
X341356Y-174929D01*
X341423Y-174963D01*
X341456Y-175063D01*
X341456Y-175396D01*
X341456Y-175063D02*
X341556Y-174963D01*
X341623Y-174929D01*
X341723Y-174929D01*
X341789Y-174963D01*
X341823Y-175063D01*
X341823Y-175396D01*
D13*
X353820Y43924D02*
X353820Y52924D01*
X232320Y52924D02*
X353820Y52924D01*
X255820Y43924D02*
X255820Y48424D01*
X232320Y48424D02*
X232320Y52924D01*
X232320Y48424D02*
X353820Y48424D01*
X243320Y48424D02*
X243320Y52924D01*
X255820Y48424D02*
X255820Y52924D01*
X334320Y48424D02*
X334320Y52924D01*
X232320Y43924D02*
X232320Y48424D01*
X232320Y43924D02*
X353820Y43924D01*
X334320Y43924D02*
X334320Y48424D01*
X243320Y43924D02*
X243320Y48424D01*
X234820Y49924D02*
X234820Y51448D01*
X235582Y51448D01*
X235836Y51194D01*
X235836Y50686D01*
X235582Y50432D01*
X234820Y50432D01*
X235328Y50432D02*
X235836Y49924D01*
X237359Y51448D02*
X236344Y51448D01*
X236344Y49924D01*
X237359Y49924D01*
X236344Y50686D02*
X236851Y50686D01*
X237867Y51448D02*
X237867Y50432D01*
X238375Y49924D01*
X238883Y50432D01*
X238883Y51448D01*
X245836Y51448D02*
X244820Y51448D01*
X244820Y49924D01*
X245836Y49924D01*
X244820Y50686D02*
X245328Y50686D01*
X247359Y51194D02*
X247105Y51448D01*
X246597Y51448D01*
X246344Y51194D01*
X246344Y50178D01*
X246597Y49924D01*
X247105Y49924D01*
X247359Y50178D01*
X248629Y51448D02*
X248121Y51448D01*
X247867Y51194D01*
X247867Y50178D01*
X248121Y49924D01*
X248629Y49924D01*
X248883Y50178D01*
X248883Y51194D01*
X248629Y51448D01*
X292336Y50694D02*
X292082Y50948D01*
X291574Y50948D01*
X291320Y50694D01*
X291320Y49678D01*
X291574Y49424D01*
X292082Y49424D01*
X292336Y49678D01*
X293097Y49424D02*
X293605Y49424D01*
X293859Y49678D01*
X293859Y50186D01*
X293605Y50440D01*
X293097Y50440D01*
X292844Y50186D01*
X292844Y49678D01*
X293097Y49424D01*
X294367Y49424D02*
X294367Y50440D01*
X294621Y50440D01*
X294875Y50186D01*
X294875Y49424D01*
X294875Y50186D01*
X295129Y50440D01*
X295383Y50186D01*
X295383Y49424D01*
X295891Y49424D02*
X295891Y50440D01*
X296144Y50440D01*
X296398Y50186D01*
X296398Y49424D01*
X296398Y50186D01*
X296652Y50440D01*
X296906Y50186D01*
X296906Y49424D01*
X298176Y49424D02*
X297668Y49424D01*
X297414Y49678D01*
X297414Y50186D01*
X297668Y50440D01*
X298176Y50440D01*
X298430Y50186D01*
X298430Y49932D01*
X297414Y49932D01*
X298938Y49424D02*
X298938Y50440D01*
X299699Y50440D01*
X299953Y50186D01*
X299953Y49424D01*
X300715Y50694D02*
X300715Y50440D01*
X300461Y50440D01*
X300969Y50440D01*
X300715Y50440D01*
X300715Y49678D01*
X300969Y49424D01*
X301731Y49424D02*
X302492Y49424D01*
X302746Y49678D01*
X302492Y49932D01*
X301985Y49932D01*
X301731Y50186D01*
X301985Y50440D01*
X302746Y50440D01*
X339320Y50948D02*
X339320Y49424D01*
X340082Y49424D01*
X340336Y49678D01*
X340336Y50694D01*
X340082Y50948D01*
X339320Y50948D01*
X341097Y50440D02*
X341605Y50440D01*
X341859Y50186D01*
X341859Y49424D01*
X341097Y49424D01*
X340844Y49678D01*
X341097Y49932D01*
X341859Y49932D01*
X342621Y50694D02*
X342621Y50440D01*
X342367Y50440D01*
X342875Y50440D01*
X342621Y50440D01*
X342621Y49678D01*
X342875Y49424D01*
X344398Y49424D02*
X343891Y49424D01*
X343637Y49678D01*
X343637Y50186D01*
X343891Y50440D01*
X344398Y50440D01*
X344652Y50186D01*
X344652Y49932D01*
X343637Y49932D01*
D14*
X301000Y-176046D02*
X301000Y-177546D01*
X300500Y-176046D02*
X301500Y-176046D01*
X302035Y-176546D02*
X301893Y-176618D01*
X301750Y-176760D01*
X301678Y-176975D01*
X301678Y-177118D01*
X301750Y-177332D01*
X301893Y-177475D01*
X302035Y-177546D01*
X302250Y-177546D01*
X302392Y-177475D01*
X302535Y-177332D01*
X302607Y-177118D01*
X302607Y-176975D01*
X302535Y-176760D01*
X302392Y-176618D01*
X302250Y-176546D01*
X302035Y-176546D01*
X302935Y-176546D02*
X302935Y-178046D01*
X302935Y-176760D02*
X303078Y-176618D01*
X303221Y-176546D01*
X303435Y-176546D01*
X303578Y-176618D01*
X303721Y-176760D01*
X303792Y-176975D01*
X303792Y-177118D01*
X303721Y-177332D01*
X303578Y-177475D01*
X303435Y-177546D01*
X303221Y-177546D01*
X303078Y-177475D01*
X302935Y-177332D01*
X305292Y-176046D02*
X305292Y-177546D01*
X306149Y-177546D01*
X307170Y-176546D02*
X307170Y-177546D01*
X307170Y-176760D02*
X307027Y-176618D01*
X306884Y-176546D01*
X306670Y-176546D01*
X306527Y-176618D01*
X306384Y-176760D01*
X306313Y-176975D01*
X306313Y-177118D01*
X306384Y-177332D01*
X306527Y-177475D01*
X306670Y-177546D01*
X306884Y-177546D01*
X307027Y-177475D01*
X307170Y-177332D01*
X307641Y-176546D02*
X308070Y-177546D01*
X308498Y-176546D02*
X308070Y-177546D01*
X307927Y-177832D01*
X307784Y-177974D01*
X307641Y-178046D01*
X307570Y-178046D01*
X308748Y-176975D02*
X309605Y-176975D01*
X309605Y-176832D01*
X309534Y-176689D01*
X309462Y-176618D01*
X309320Y-176546D01*
X309105Y-176546D01*
X308962Y-176618D01*
X308820Y-176760D01*
X308748Y-176975D01*
X308748Y-177118D01*
X308820Y-177332D01*
X308962Y-177475D01*
X309105Y-177546D01*
X309320Y-177546D01*
X309462Y-177475D01*
X309605Y-177332D01*
X309927Y-176546D02*
X309927Y-177546D01*
X309927Y-176975D02*
X309998Y-176760D01*
X310141Y-176618D01*
X310284Y-176546D01*
X310498Y-176546D01*
X273000Y-174998D02*
X273493Y-174998D01*
X273657Y-174944D01*
X273712Y-174889D01*
X273767Y-174779D01*
X273767Y-174615D01*
X273712Y-174506D01*
X273657Y-174451D01*
X273493Y-174396D01*
X273000Y-174396D01*
X273000Y-175546D01*
X274845Y-174670D02*
X274790Y-174560D01*
X274681Y-174451D01*
X274571Y-174396D01*
X274352Y-174396D01*
X274243Y-174451D01*
X274133Y-174560D01*
X274079Y-174670D01*
X274024Y-174834D01*
X274024Y-175108D01*
X274079Y-175272D01*
X274133Y-175382D01*
X274243Y-175491D01*
X274352Y-175546D01*
X274571Y-175546D01*
X274681Y-175491D01*
X274790Y-175382D01*
X274845Y-175272D01*
X275168Y-174396D02*
X275168Y-175546D01*
X275168Y-174396D02*
X275661Y-174396D01*
X275825Y-174451D01*
X275880Y-174506D01*
X275935Y-174615D01*
X275935Y-174725D01*
X275880Y-174834D01*
X275825Y-174889D01*
X275661Y-174944D01*
X275168Y-174944D02*
X275661Y-174944D01*
X275825Y-174998D01*
X275880Y-175053D01*
X275935Y-175163D01*
X275935Y-175327D01*
X275880Y-175436D01*
X275825Y-175491D01*
X275661Y-175546D01*
X275168Y-175546D01*
X277095Y-174396D02*
X277095Y-175546D01*
X277095Y-174396D02*
X277807Y-174396D01*
X277095Y-174944D02*
X277533Y-174944D01*
X277938Y-174396D02*
X277938Y-175546D01*
X278179Y-174396D02*
X278179Y-175546D01*
X278836Y-175546D01*
X279674Y-174396D02*
X278962Y-174396D01*
X278962Y-175546D01*
X279674Y-175546D01*
X278962Y-174944D02*
X279400Y-174944D01*
X280769Y-174396D02*
X280769Y-175546D01*
X280769Y-174396D02*
X281536Y-175546D01*
X281536Y-174396D02*
X281536Y-175546D01*
X282729Y-175546D02*
X282291Y-174396D01*
X281853Y-175546D01*
X282017Y-175163D02*
X282565Y-175163D01*
X282997Y-174396D02*
X282997Y-175546D01*
X282997Y-174396D02*
X283435Y-175546D01*
X283873Y-174396D02*
X283435Y-175546D01*
X283873Y-174396D02*
X283873Y-175546D01*
X284914Y-174396D02*
X284202Y-174396D01*
X284202Y-175546D01*
X284914Y-175546D01*
X284202Y-174944D02*
X284640Y-174944D01*
X285160Y-174779D02*
X285105Y-174834D01*
X285160Y-174889D01*
X285215Y-174834D01*
X285160Y-174779D01*
X285160Y-175436D02*
X285105Y-175491D01*
X285160Y-175546D01*
X285215Y-175491D01*
X285160Y-175436D01*
X273714Y-176784D02*
X273667Y-176689D01*
X273571Y-176594D01*
X273476Y-176546D01*
X273286Y-176546D01*
X273190Y-176594D01*
X273095Y-176689D01*
X273048Y-176784D01*
X273000Y-176927D01*
X273000Y-177165D01*
X273048Y-177308D01*
X273095Y-177403D01*
X273190Y-177498D01*
X273286Y-177546D01*
X273476Y-177546D01*
X273571Y-177498D01*
X273667Y-177403D01*
X273714Y-177308D01*
X274233Y-176879D02*
X274138Y-176927D01*
X274043Y-177022D01*
X273995Y-177165D01*
X273995Y-177260D01*
X274043Y-177403D01*
X274138Y-177498D01*
X274233Y-177546D01*
X274376Y-177546D01*
X274471Y-177498D01*
X274566Y-177403D01*
X274614Y-177260D01*
X274614Y-177165D01*
X274566Y-177022D01*
X274471Y-176927D01*
X274376Y-176879D01*
X274233Y-176879D01*
X274833Y-176879D02*
X274833Y-177879D01*
X274833Y-177022D02*
X274928Y-176927D01*
X275023Y-176879D01*
X275166Y-176879D01*
X275261Y-176927D01*
X275357Y-177022D01*
X275404Y-177165D01*
X275404Y-177260D01*
X275357Y-177403D01*
X275261Y-177498D01*
X275166Y-177546D01*
X275023Y-177546D01*
X274928Y-177498D01*
X274833Y-177403D01*
X275666Y-176879D02*
X275952Y-177546D01*
X276237Y-176879D02*
X275952Y-177546D01*
X275857Y-177736D01*
X275761Y-177832D01*
X275666Y-177879D01*
X275618Y-177879D01*
X277428Y-176879D02*
X277332Y-176927D01*
X277237Y-177022D01*
X277190Y-177165D01*
X277190Y-177260D01*
X277237Y-177403D01*
X277332Y-177498D01*
X277428Y-177546D01*
X277570Y-177546D01*
X277666Y-177498D01*
X277761Y-177403D01*
X277809Y-177260D01*
X277809Y-177165D01*
X277761Y-177022D01*
X277666Y-176927D01*
X277570Y-176879D01*
X277428Y-176879D01*
X278408Y-176546D02*
X278313Y-176546D01*
X278218Y-176594D01*
X278170Y-176737D01*
X278170Y-177546D01*
X278027Y-176879D02*
X278361Y-176879D01*
X279337Y-177070D02*
X279765Y-177070D01*
X279908Y-177022D01*
X279956Y-176975D01*
X280003Y-176879D01*
X280003Y-176737D01*
X279956Y-176641D01*
X279908Y-176594D01*
X279765Y-176546D01*
X279337Y-176546D01*
X279337Y-177546D01*
X280941Y-176784D02*
X280894Y-176689D01*
X280798Y-176594D01*
X280703Y-176546D01*
X280513Y-176546D01*
X280417Y-176594D01*
X280322Y-176689D01*
X280275Y-176784D01*
X280227Y-176927D01*
X280227Y-177165D01*
X280275Y-177308D01*
X280322Y-177403D01*
X280417Y-177498D01*
X280513Y-177546D01*
X280703Y-177546D01*
X280798Y-177498D01*
X280894Y-177403D01*
X280941Y-177308D01*
X281222Y-176546D02*
X281222Y-177546D01*
X281222Y-176546D02*
X281651Y-176546D01*
X281793Y-176594D01*
X281841Y-176641D01*
X281889Y-176737D01*
X281889Y-176832D01*
X281841Y-176927D01*
X281793Y-176975D01*
X281651Y-177022D01*
X281222Y-177022D02*
X281651Y-177022D01*
X281793Y-177070D01*
X281841Y-177118D01*
X281889Y-177213D01*
X281889Y-177356D01*
X281841Y-177451D01*
X281793Y-177498D01*
X281651Y-177546D01*
X281222Y-177546D01*
X282160Y-176784D02*
X282160Y-176737D01*
X282208Y-176641D01*
X282255Y-176594D01*
X282350Y-176546D01*
X282541Y-176546D01*
X282636Y-176594D01*
X282684Y-176641D01*
X282731Y-176737D01*
X282731Y-176832D01*
X282684Y-176927D01*
X282588Y-177070D01*
X282112Y-177546D01*
X282779Y-177546D01*
X283050Y-177451D02*
X283003Y-177498D01*
X283050Y-177546D01*
X283098Y-177498D01*
X283050Y-177451D01*
X283317Y-177070D02*
X283745Y-177070D01*
X283888Y-177022D01*
X283936Y-176975D01*
X283983Y-176879D01*
X283983Y-176737D01*
X283936Y-176641D01*
X283888Y-176594D01*
X283745Y-176546D01*
X283317Y-176546D01*
X283317Y-177546D01*
X284778Y-177022D02*
X284683Y-176927D01*
X284588Y-176879D01*
X284445Y-176879D01*
X284350Y-176927D01*
X284255Y-177022D01*
X284207Y-177165D01*
X284207Y-177260D01*
X284255Y-177403D01*
X284350Y-177498D01*
X284445Y-177546D01*
X284588Y-177546D01*
X284683Y-177498D01*
X284778Y-177403D01*
X284993Y-176546D02*
X284993Y-177546D01*
X284993Y-177022D02*
X285088Y-176927D01*
X285183Y-176879D01*
X285326Y-176879D01*
X285421Y-176927D01*
X285516Y-177022D01*
X285564Y-177165D01*
X285564Y-177260D01*
X285516Y-177403D01*
X285421Y-177498D01*
X285326Y-177546D01*
X285183Y-177546D01*
X285088Y-177498D01*
X284993Y-177403D01*
X285778Y-176546D02*
X285778Y-177546D01*
X285778Y-176546D02*
X286111Y-176546D01*
X286254Y-176594D01*
X286350Y-176689D01*
X286397Y-176784D01*
X286445Y-176927D01*
X286445Y-177165D01*
X286397Y-177308D01*
X286350Y-177403D01*
X286254Y-177498D01*
X286111Y-177546D01*
X285778Y-177546D01*
X286907Y-176879D02*
X286811Y-176927D01*
X286716Y-177022D01*
X286668Y-177165D01*
X286668Y-177260D01*
X286716Y-177403D01*
X286811Y-177498D01*
X286907Y-177546D01*
X287049Y-177546D01*
X287145Y-177498D01*
X287240Y-177403D01*
X287287Y-177260D01*
X287287Y-177165D01*
X287240Y-177022D01*
X287145Y-176927D01*
X287049Y-176879D01*
X286907Y-176879D01*
X288078Y-177022D02*
X287983Y-176927D01*
X287887Y-176879D01*
X287744Y-176879D01*
X287649Y-176927D01*
X287554Y-177022D01*
X287506Y-177165D01*
X287506Y-177260D01*
X287554Y-177403D01*
X287649Y-177498D01*
X287744Y-177546D01*
X287887Y-177546D01*
X287983Y-177498D01*
X288078Y-177403D01*
X273000Y-163248D02*
X273493Y-163248D01*
X273657Y-163194D01*
X273712Y-163139D01*
X273767Y-163029D01*
X273767Y-162865D01*
X273712Y-162756D01*
X273657Y-162701D01*
X273493Y-162646D01*
X273000Y-162646D01*
X273000Y-163796D01*
X274845Y-162920D02*
X274790Y-162810D01*
X274681Y-162701D01*
X274571Y-162646D01*
X274352Y-162646D01*
X274243Y-162701D01*
X274133Y-162810D01*
X274079Y-162920D01*
X274024Y-163084D01*
X274024Y-163358D01*
X274079Y-163522D01*
X274133Y-163632D01*
X274243Y-163741D01*
X274352Y-163796D01*
X274571Y-163796D01*
X274681Y-163741D01*
X274790Y-163632D01*
X274845Y-163522D01*
X275168Y-162646D02*
X275168Y-163796D01*
X275168Y-162646D02*
X275661Y-162646D01*
X275825Y-162701D01*
X275880Y-162756D01*
X275935Y-162865D01*
X275935Y-162975D01*
X275880Y-163084D01*
X275825Y-163139D01*
X275661Y-163194D01*
X275168Y-163194D02*
X275661Y-163194D01*
X275825Y-163248D01*
X275880Y-163303D01*
X275935Y-163413D01*
X275935Y-163577D01*
X275880Y-163686D01*
X275825Y-163741D01*
X275661Y-163796D01*
X275168Y-163796D01*
X277095Y-162646D02*
X277095Y-163796D01*
X277752Y-163796D01*
X278535Y-163029D02*
X278535Y-163796D01*
X278535Y-163194D02*
X278426Y-163084D01*
X278316Y-163029D01*
X278152Y-163029D01*
X278042Y-163084D01*
X277933Y-163194D01*
X277878Y-163358D01*
X277878Y-163467D01*
X277933Y-163632D01*
X278042Y-163741D01*
X278152Y-163796D01*
X278316Y-163796D01*
X278426Y-163741D01*
X278535Y-163632D01*
X278897Y-163029D02*
X279225Y-163796D01*
X279554Y-163029D02*
X279225Y-163796D01*
X279116Y-164015D01*
X279006Y-164124D01*
X278897Y-164179D01*
X278842Y-164179D01*
X280019Y-163029D02*
X279909Y-163084D01*
X279800Y-163194D01*
X279745Y-163358D01*
X279745Y-163467D01*
X279800Y-163632D01*
X279909Y-163741D01*
X280019Y-163796D01*
X280183Y-163796D01*
X280293Y-163741D01*
X280402Y-163632D01*
X280457Y-163467D01*
X280457Y-163358D01*
X280402Y-163194D01*
X280293Y-163084D01*
X280183Y-163029D01*
X280019Y-163029D01*
X280709Y-163029D02*
X280709Y-163577D01*
X280764Y-163741D01*
X280873Y-163796D01*
X281037Y-163796D01*
X281147Y-163741D01*
X281311Y-163577D01*
X281311Y-163029D02*
X281311Y-163796D01*
X281776Y-162646D02*
X281776Y-163577D01*
X281831Y-163741D01*
X281941Y-163796D01*
X282050Y-163796D01*
X281612Y-163029D02*
X281995Y-163029D01*
X283939Y-162920D02*
X283884Y-162810D01*
X283775Y-162701D01*
X283665Y-162646D01*
X283446Y-162646D01*
X283337Y-162701D01*
X283227Y-162810D01*
X283173Y-162920D01*
X283118Y-163084D01*
X283118Y-163358D01*
X283173Y-163522D01*
X283227Y-163632D01*
X283337Y-163741D01*
X283446Y-163796D01*
X283665Y-163796D01*
X283775Y-163741D01*
X283884Y-163632D01*
X283939Y-163522D01*
X284536Y-163029D02*
X284426Y-163084D01*
X284317Y-163194D01*
X284262Y-163358D01*
X284262Y-163467D01*
X284317Y-163632D01*
X284426Y-163741D01*
X284536Y-163796D01*
X284700Y-163796D01*
X284810Y-163741D01*
X284919Y-163632D01*
X284974Y-163467D01*
X284974Y-163358D01*
X284919Y-163194D01*
X284810Y-163084D01*
X284700Y-163029D01*
X284536Y-163029D01*
X285226Y-163029D02*
X285226Y-163796D01*
X285226Y-163248D02*
X285390Y-163084D01*
X285499Y-163029D01*
X285664Y-163029D01*
X285773Y-163084D01*
X285828Y-163248D01*
X285828Y-163796D01*
X286293Y-162646D02*
X286293Y-163577D01*
X286348Y-163741D01*
X286458Y-163796D01*
X286567Y-163796D01*
X286129Y-163029D02*
X286512Y-163029D01*
X287388Y-163029D02*
X287388Y-163796D01*
X287388Y-163194D02*
X287279Y-163084D01*
X287169Y-163029D01*
X287005Y-163029D01*
X286896Y-163084D01*
X286786Y-163194D01*
X286731Y-163358D01*
X286731Y-163467D01*
X286786Y-163632D01*
X286896Y-163741D01*
X287005Y-163796D01*
X287169Y-163796D01*
X287279Y-163741D01*
X287388Y-163632D01*
X288352Y-163194D02*
X288242Y-163084D01*
X288133Y-163029D01*
X287969Y-163029D01*
X287859Y-163084D01*
X287750Y-163194D01*
X287695Y-163358D01*
X287695Y-163467D01*
X287750Y-163632D01*
X287859Y-163741D01*
X287969Y-163796D01*
X288133Y-163796D01*
X288242Y-163741D01*
X288352Y-163632D01*
X288763Y-162646D02*
X288763Y-163577D01*
X288817Y-163741D01*
X288927Y-163796D01*
X289036Y-163796D01*
X288598Y-163029D02*
X288982Y-163029D01*
X289255Y-163029D02*
X289201Y-163084D01*
X289255Y-163139D01*
X289310Y-163084D01*
X289255Y-163029D01*
X289255Y-163686D02*
X289201Y-163741D01*
X289255Y-163796D01*
X289310Y-163741D01*
X289255Y-163686D01*
X273000Y-169248D02*
X273493Y-169248D01*
X273657Y-169194D01*
X273712Y-169139D01*
X273767Y-169029D01*
X273767Y-168865D01*
X273712Y-168756D01*
X273657Y-168701D01*
X273493Y-168646D01*
X273000Y-168646D01*
X273000Y-169796D01*
X274024Y-169029D02*
X274024Y-169796D01*
X274024Y-169358D02*
X274079Y-169194D01*
X274188Y-169084D01*
X274298Y-169029D01*
X274462Y-169029D01*
X274840Y-169029D02*
X274730Y-169084D01*
X274621Y-169194D01*
X274566Y-169358D01*
X274566Y-169467D01*
X274621Y-169632D01*
X274730Y-169741D01*
X274840Y-169796D01*
X275004Y-169796D01*
X275113Y-169741D01*
X275223Y-169632D01*
X275278Y-169467D01*
X275278Y-169358D01*
X275223Y-169194D01*
X275113Y-169084D01*
X275004Y-169029D01*
X274840Y-169029D01*
X275748Y-168646D02*
X275803Y-168701D01*
X275858Y-168646D01*
X275803Y-168591D01*
X275748Y-168646D01*
X275803Y-169029D02*
X275803Y-169960D01*
X275748Y-170124D01*
X275639Y-170179D01*
X275529Y-170179D01*
X276071Y-169358D02*
X276728Y-169358D01*
X276728Y-169248D01*
X276674Y-169139D01*
X276619Y-169084D01*
X276509Y-169029D01*
X276345Y-169029D01*
X276236Y-169084D01*
X276126Y-169194D01*
X276071Y-169358D01*
X276071Y-169467D01*
X276126Y-169632D01*
X276236Y-169741D01*
X276345Y-169796D01*
X276509Y-169796D01*
X276619Y-169741D01*
X276728Y-169632D01*
X277632Y-169194D02*
X277522Y-169084D01*
X277413Y-169029D01*
X277249Y-169029D01*
X277139Y-169084D01*
X277030Y-169194D01*
X276975Y-169358D01*
X276975Y-169467D01*
X277030Y-169632D01*
X277139Y-169741D01*
X277249Y-169796D01*
X277413Y-169796D01*
X277522Y-169741D01*
X277632Y-169632D01*
X278042Y-168646D02*
X278042Y-169577D01*
X278097Y-169741D01*
X278207Y-169796D01*
X278316Y-169796D01*
X277878Y-169029D02*
X278262Y-169029D01*
X279712Y-168646D02*
X279603Y-168701D01*
X279493Y-168810D01*
X279439Y-168920D01*
X279384Y-169084D01*
X279384Y-169358D01*
X279439Y-169522D01*
X279493Y-169632D01*
X279603Y-169741D01*
X279712Y-169796D01*
X279931Y-169796D01*
X280041Y-169741D01*
X280150Y-169632D01*
X280205Y-169522D01*
X280260Y-169358D01*
X280260Y-169084D01*
X280205Y-168920D01*
X280150Y-168810D01*
X280041Y-168701D01*
X279931Y-168646D01*
X279712Y-168646D01*
X280528Y-169029D02*
X280747Y-169796D01*
X280966Y-169029D02*
X280747Y-169796D01*
X280966Y-169029D02*
X281185Y-169796D01*
X281404Y-169029D02*
X281185Y-169796D01*
X281672Y-169029D02*
X281672Y-169796D01*
X281672Y-169248D02*
X281837Y-169084D01*
X281946Y-169029D01*
X282110Y-169029D01*
X282220Y-169084D01*
X282275Y-169248D01*
X282275Y-169796D01*
X282576Y-169358D02*
X283233Y-169358D01*
X283233Y-169248D01*
X283178Y-169139D01*
X283123Y-169084D01*
X283014Y-169029D01*
X282850Y-169029D01*
X282740Y-169084D01*
X282631Y-169194D01*
X282576Y-169358D01*
X282576Y-169467D01*
X282631Y-169632D01*
X282740Y-169741D01*
X282850Y-169796D01*
X283014Y-169796D01*
X283123Y-169741D01*
X283233Y-169632D01*
X283479Y-169029D02*
X283479Y-169796D01*
X283479Y-169358D02*
X283534Y-169194D01*
X283643Y-169084D01*
X283753Y-169029D01*
X283917Y-169029D01*
X284076Y-169029D02*
X284021Y-169084D01*
X284076Y-169139D01*
X284131Y-169084D01*
X284076Y-169029D01*
X284076Y-169686D02*
X284021Y-169741D01*
X284076Y-169796D01*
X284131Y-169741D01*
X284076Y-169686D01*
X301000Y-168646D02*
X301000Y-169796D01*
X301000Y-168646D02*
X301493Y-168646D01*
X301657Y-168701D01*
X301712Y-168756D01*
X301767Y-168865D01*
X301767Y-168975D01*
X301712Y-169084D01*
X301657Y-169139D01*
X301493Y-169194D01*
X301000Y-169194D02*
X301493Y-169194D01*
X301657Y-169248D01*
X301712Y-169303D01*
X301767Y-169413D01*
X301767Y-169577D01*
X301712Y-169686D01*
X301657Y-169741D01*
X301493Y-169796D01*
X301000Y-169796D01*
X302352Y-168646D02*
X302243Y-168701D01*
X302133Y-168810D01*
X302079Y-168920D01*
X302024Y-169084D01*
X302024Y-169358D01*
X302079Y-169522D01*
X302133Y-169632D01*
X302243Y-169741D01*
X302352Y-169796D01*
X302571Y-169796D01*
X302681Y-169741D01*
X302790Y-169632D01*
X302845Y-169522D01*
X302900Y-169358D01*
X302900Y-169084D01*
X302845Y-168920D01*
X302790Y-168810D01*
X302681Y-168701D01*
X302571Y-168646D01*
X302352Y-168646D01*
X304044Y-169796D02*
X303606Y-168646D01*
X303168Y-169796D01*
X303332Y-169413D02*
X303880Y-169413D01*
X304312Y-168646D02*
X304312Y-169796D01*
X304312Y-168646D02*
X304805Y-168646D01*
X304969Y-168701D01*
X305024Y-168756D01*
X305079Y-168865D01*
X305079Y-168975D01*
X305024Y-169084D01*
X304969Y-169139D01*
X304805Y-169194D01*
X304312Y-169194D01*
X304696Y-169194D02*
X305079Y-169796D01*
X305336Y-168646D02*
X305336Y-169796D01*
X305336Y-168646D02*
X305719Y-168646D01*
X305884Y-168701D01*
X305993Y-168810D01*
X306048Y-168920D01*
X306103Y-169084D01*
X306103Y-169358D01*
X306048Y-169522D01*
X305993Y-169632D01*
X305884Y-169741D01*
X305719Y-169796D01*
X305336Y-169796D01*
X307263Y-168646D02*
X307263Y-169796D01*
X307263Y-168646D02*
X308030Y-169796D01*
X308030Y-168646D02*
X308030Y-169796D01*
X308347Y-168646D02*
X308347Y-169467D01*
X308402Y-169632D01*
X308512Y-169741D01*
X308676Y-169796D01*
X308785Y-169796D01*
X308950Y-169741D01*
X309059Y-169632D01*
X309114Y-169467D01*
X309114Y-168646D01*
X309432Y-168646D02*
X309432Y-169796D01*
X309432Y-168646D02*
X309870Y-169796D01*
X310308Y-168646D02*
X309870Y-169796D01*
X310308Y-168646D02*
X310308Y-169796D01*
X310636Y-168646D02*
X310636Y-169796D01*
X310636Y-168646D02*
X311129Y-168646D01*
X311293Y-168701D01*
X311348Y-168756D01*
X311403Y-168865D01*
X311403Y-168975D01*
X311348Y-169084D01*
X311293Y-169139D01*
X311129Y-169194D01*
X310636Y-169194D02*
X311129Y-169194D01*
X311293Y-169248D01*
X311348Y-169303D01*
X311403Y-169413D01*
X311403Y-169577D01*
X311348Y-169686D01*
X311293Y-169741D01*
X311129Y-169796D01*
X310636Y-169796D01*
X312372Y-168646D02*
X311660Y-168646D01*
X311660Y-169796D01*
X312372Y-169796D01*
X311660Y-169194D02*
X312098Y-169194D01*
X312563Y-168646D02*
X312563Y-169796D01*
X312563Y-168646D02*
X313056Y-168646D01*
X313220Y-168701D01*
X313275Y-168756D01*
X313330Y-168865D01*
X313330Y-168975D01*
X313275Y-169084D01*
X313220Y-169139D01*
X313056Y-169194D01*
X312563Y-169194D01*
X312947Y-169194D02*
X313330Y-169796D01*
X313642Y-169029D02*
X313587Y-169084D01*
X313642Y-169139D01*
X313697Y-169084D01*
X313642Y-169029D01*
X313642Y-169686D02*
X313587Y-169741D01*
X313642Y-169796D01*
X313697Y-169741D01*
X313642Y-169686D01*
X301821Y-162920D02*
X301767Y-162810D01*
X301657Y-162701D01*
X301547Y-162646D01*
X301328Y-162646D01*
X301219Y-162701D01*
X301109Y-162810D01*
X301055Y-162920D01*
X301000Y-163084D01*
X301000Y-163358D01*
X301055Y-163522D01*
X301109Y-163632D01*
X301219Y-163741D01*
X301328Y-163796D01*
X301547Y-163796D01*
X301657Y-163741D01*
X301767Y-163632D01*
X301821Y-163522D01*
X301821Y-163358D01*
X301547Y-163358D02*
X301821Y-163358D01*
X302796Y-162646D02*
X302084Y-162646D01*
X302084Y-163796D01*
X302796Y-163796D01*
X302084Y-163194D02*
X302522Y-163194D01*
X302987Y-162646D02*
X302987Y-163796D01*
X302987Y-162646D02*
X303480Y-162646D01*
X303644Y-162701D01*
X303699Y-162756D01*
X303754Y-162865D01*
X303754Y-162975D01*
X303699Y-163084D01*
X303644Y-163139D01*
X303480Y-163194D01*
X302987Y-163194D01*
X303371Y-163194D02*
X303754Y-163796D01*
X304011Y-162646D02*
X304011Y-163796D01*
X304011Y-162646D02*
X304504Y-162646D01*
X304668Y-162701D01*
X304723Y-162756D01*
X304778Y-162865D01*
X304778Y-162975D01*
X304723Y-163084D01*
X304668Y-163139D01*
X304504Y-163194D01*
X304011Y-163194D02*
X304504Y-163194D01*
X304668Y-163248D01*
X304723Y-163303D01*
X304778Y-163413D01*
X304778Y-163577D01*
X304723Y-163686D01*
X304668Y-163741D01*
X304504Y-163796D01*
X304011Y-163796D01*
X305747Y-162646D02*
X305035Y-162646D01*
X305035Y-163796D01*
X305747Y-163796D01*
X305035Y-163194D02*
X305473Y-163194D01*
X305938Y-162646D02*
X305938Y-163796D01*
X305938Y-162646D02*
X306431Y-162646D01*
X306595Y-162701D01*
X306650Y-162756D01*
X306705Y-162865D01*
X306705Y-162975D01*
X306650Y-163084D01*
X306595Y-163139D01*
X306431Y-163194D01*
X305938Y-163194D01*
X306322Y-163194D02*
X306705Y-163796D01*
X307866Y-162646D02*
X307866Y-163796D01*
X307866Y-162646D02*
X308577Y-162646D01*
X307866Y-163194D02*
X308304Y-163194D01*
X308709Y-162646D02*
X308709Y-163796D01*
X308950Y-162646D02*
X308950Y-163796D01*
X309607Y-163796D01*
X310444Y-162646D02*
X309733Y-162646D01*
X309733Y-163796D01*
X310444Y-163796D01*
X309733Y-163194D02*
X310171Y-163194D01*
X310691Y-163029D02*
X310636Y-163084D01*
X310691Y-163139D01*
X310746Y-163084D01*
X310691Y-163029D01*
X310691Y-163686D02*
X310636Y-163741D01*
X310691Y-163796D01*
X310746Y-163741D01*
X310691Y-163686D01*
X340414Y-171296D02*
X339700Y-172296D01*
X340771Y-172296D01*
X340414Y-171296D02*
X340414Y-172796D01*
X341035Y-173010D02*
X342035Y-171296D01*
X342207Y-171653D02*
X342207Y-171582D01*
X342278Y-171439D01*
X342349Y-171368D01*
X342492Y-171296D01*
X342778Y-171296D01*
X342921Y-171368D01*
X342992Y-171439D01*
X343064Y-171582D01*
X343064Y-171725D01*
X342992Y-171868D01*
X342849Y-172082D01*
X342135Y-172796D01*
X343135Y-172796D01*
X344328Y-171296D02*
X343613Y-171296D01*
X343542Y-171939D01*
X343613Y-171868D01*
X343828Y-171796D01*
X344042Y-171796D01*
X344256Y-171868D01*
X344399Y-172010D01*
X344470Y-172225D01*
X344470Y-172368D01*
X344399Y-172582D01*
X344256Y-172725D01*
X344042Y-172796D01*
X343828Y-172796D01*
X343613Y-172725D01*
X343542Y-172653D01*
X343471Y-172510D01*
X344806Y-173010D02*
X345806Y-171296D01*
X345977Y-171653D02*
X345977Y-171582D01*
X346049Y-171439D01*
X346120Y-171368D01*
X346263Y-171296D01*
X346549Y-171296D01*
X346691Y-171368D01*
X346763Y-171439D01*
X346834Y-171582D01*
X346834Y-171725D01*
X346763Y-171868D01*
X346620Y-172082D01*
X345906Y-172796D01*
X346906Y-172796D01*
X347670Y-171296D02*
X347455Y-171368D01*
X347313Y-171582D01*
X347241Y-171939D01*
X347241Y-172153D01*
X347313Y-172510D01*
X347455Y-172725D01*
X347670Y-172796D01*
X347813Y-172796D01*
X348027Y-172725D01*
X348170Y-172510D01*
X348241Y-172153D01*
X348241Y-171939D01*
X348170Y-171582D01*
X348027Y-171368D01*
X347813Y-171296D01*
X347670Y-171296D01*
X348648Y-171653D02*
X348648Y-171582D01*
X348719Y-171439D01*
X348791Y-171368D01*
X348934Y-171296D01*
X349219Y-171296D01*
X349362Y-171368D01*
X349434Y-171439D01*
X349505Y-171582D01*
X349505Y-171725D01*
X349434Y-171868D01*
X349291Y-172082D01*
X348577Y-172796D01*
X349576Y-172796D01*
X350055Y-171296D02*
X350840Y-171296D01*
X350412Y-171868D01*
X350626Y-171868D01*
X350769Y-171939D01*
X350840Y-172010D01*
X350912Y-172225D01*
X350912Y-172368D01*
X350840Y-172582D01*
X350698Y-172725D01*
X350483Y-172796D01*
X350269Y-172796D01*
X350055Y-172725D01*
X349984Y-172653D01*
X349912Y-172510D01*
X325000Y-154320D02*
X325428Y-154320D01*
X325571Y-154272D01*
X325619Y-154225D01*
X325667Y-154129D01*
X325667Y-153987D01*
X325619Y-153891D01*
X325571Y-153844D01*
X325428Y-153796D01*
X325000Y-153796D01*
X325000Y-154796D01*
X326652Y-154796D02*
X326271Y-153796D01*
X325890Y-154796D01*
X326033Y-154463D02*
X326509Y-154463D01*
X326885Y-153796D02*
X326885Y-154796D01*
X326885Y-153796D02*
X327314Y-153796D01*
X327457Y-153844D01*
X327504Y-153891D01*
X327552Y-153987D01*
X327552Y-154082D01*
X327504Y-154177D01*
X327457Y-154225D01*
X327314Y-154272D01*
X326885Y-154272D01*
X327219Y-154272D02*
X327552Y-154796D01*
X328109Y-153796D02*
X328109Y-154796D01*
X327776Y-153796D02*
X328442Y-153796D01*
X329347Y-153796D02*
X329347Y-154796D01*
X329347Y-153796D02*
X330013Y-154796D01*
X330013Y-153796D02*
X330013Y-154796D01*
X330289Y-153796D02*
X330289Y-154510D01*
X330337Y-154653D01*
X330432Y-154748D01*
X330575Y-154796D01*
X330670Y-154796D01*
X330813Y-154748D01*
X330908Y-154653D01*
X330956Y-154510D01*
X330956Y-153796D01*
X331232Y-153796D02*
X331232Y-154796D01*
X331232Y-153796D02*
X331613Y-154796D01*
X331994Y-153796D02*
X331613Y-154796D01*
X331994Y-153796D02*
X331994Y-154796D01*
X332279Y-153796D02*
X332279Y-154796D01*
X332279Y-153796D02*
X332708Y-153796D01*
X332851Y-153844D01*
X332898Y-153891D01*
X332946Y-153987D01*
X332946Y-154082D01*
X332898Y-154177D01*
X332851Y-154225D01*
X332708Y-154272D01*
X332279Y-154272D02*
X332708Y-154272D01*
X332851Y-154320D01*
X332898Y-154367D01*
X332946Y-154463D01*
X332946Y-154606D01*
X332898Y-154701D01*
X332851Y-154748D01*
X332708Y-154796D01*
X332279Y-154796D01*
X333789Y-153796D02*
X333170Y-153796D01*
X333170Y-154796D01*
X333789Y-154796D01*
X333170Y-154272D02*
X333551Y-154272D01*
X333955Y-153796D02*
X333955Y-154796D01*
X333955Y-153796D02*
X334384Y-153796D01*
X334527Y-153844D01*
X334574Y-153891D01*
X334622Y-153987D01*
X334622Y-154082D01*
X334574Y-154177D01*
X334527Y-154225D01*
X334384Y-154272D01*
X333955Y-154272D01*
X334289Y-154272D02*
X334622Y-154796D01*
X334893Y-154129D02*
X334846Y-154177D01*
X334893Y-154225D01*
X334941Y-154177D01*
X334893Y-154129D01*
X334893Y-154701D02*
X334846Y-154748D01*
X334893Y-154796D01*
X334941Y-154748D01*
X334893Y-154701D01*
D15*
X336035Y-175869D02*
X336035Y-176726D01*
X335678Y-176083D02*
X336392Y-176511D01*
X336392Y-176083D02*
X335678Y-176511D01*
X337056Y-175869D02*
X337056Y-176726D01*
X336699Y-176083D02*
X337413Y-176511D01*
X337413Y-176083D02*
X336699Y-176511D01*
X273381Y-165196D02*
X273381Y-166110D01*
X273000Y-165425D02*
X273762Y-165882D01*
X273762Y-165425D02*
X273000Y-165882D01*
X274470Y-165196D02*
X274470Y-166110D01*
X274089Y-165425D02*
X274851Y-165882D01*
X274851Y-165425D02*
X274089Y-165882D01*
X243270Y-175942D02*
X243185Y-175772D01*
X243016Y-175603D01*
X242846Y-175518D01*
X242508Y-175518D01*
X242339Y-175603D01*
X242169Y-175772D01*
X242085Y-175942D01*
X242000Y-176196D01*
X242000Y-176619D01*
X242085Y-176873D01*
X242169Y-177042D01*
X242339Y-177211D01*
X242508Y-177296D01*
X242846Y-177296D01*
X243016Y-177211D01*
X243185Y-177042D01*
X243270Y-176873D01*
X243769Y-175518D02*
X243769Y-177296D01*
X243769Y-176449D02*
X244023Y-176196D01*
X244192Y-176111D01*
X244446Y-176111D01*
X244616Y-176196D01*
X244700Y-176449D01*
X244700Y-177296D01*
X246182Y-176111D02*
X246182Y-177296D01*
X246182Y-176365D02*
X246012Y-176196D01*
X245843Y-176111D01*
X245589Y-176111D01*
X245420Y-176196D01*
X245251Y-176365D01*
X245166Y-176619D01*
X245166Y-176788D01*
X245251Y-177042D01*
X245420Y-177211D01*
X245589Y-177296D01*
X245843Y-177296D01*
X246012Y-177211D01*
X246182Y-177042D01*
X246656Y-176111D02*
X246656Y-177296D01*
X246656Y-176449D02*
X246910Y-176196D01*
X247079Y-176111D01*
X247333Y-176111D01*
X247502Y-176196D01*
X247587Y-176449D01*
X247587Y-177296D01*
X249068Y-175518D02*
X249068Y-177296D01*
X249068Y-176365D02*
X248899Y-176196D01*
X248730Y-176111D01*
X248476Y-176111D01*
X248306Y-176196D01*
X248137Y-176365D01*
X248052Y-176619D01*
X248052Y-176788D01*
X248137Y-177042D01*
X248306Y-177211D01*
X248476Y-177296D01*
X248730Y-177296D01*
X248899Y-177211D01*
X249068Y-177042D01*
X249542Y-175518D02*
X249542Y-177296D01*
X249915Y-176619D02*
X250930Y-176619D01*
X250930Y-176449D01*
X250846Y-176280D01*
X250761Y-176196D01*
X250592Y-176111D01*
X250338Y-176111D01*
X250169Y-176196D01*
X249999Y-176365D01*
X249915Y-176619D01*
X249915Y-176788D01*
X249999Y-177042D01*
X250169Y-177211D01*
X250338Y-177296D01*
X250592Y-177296D01*
X250761Y-177211D01*
X250930Y-177042D01*
X251311Y-176111D02*
X251311Y-177296D01*
X251311Y-176619D02*
X251396Y-176365D01*
X251565Y-176196D01*
X251735Y-176111D01*
X251989Y-176111D01*
X252319Y-177211D02*
X252234Y-177296D01*
X252149Y-177211D01*
X252234Y-177127D01*
X252319Y-177211D01*
X252319Y-177381D01*
X252234Y-177550D01*
X252149Y-177635D01*
X255459Y-177296D02*
X254782Y-175518D01*
X254105Y-177296D01*
X254359Y-176703D02*
X255205Y-176703D01*
X257059Y-175518D02*
X255874Y-177296D01*
X255874Y-175518D02*
X257059Y-175518D01*
X255874Y-177296D02*
X257059Y-177296D01*
X260673Y-175518D02*
X260420Y-175603D01*
X260335Y-175772D01*
X260335Y-175942D01*
X260420Y-176111D01*
X260589Y-176196D01*
X260927Y-176280D01*
X261181Y-176365D01*
X261351Y-176534D01*
X261435Y-176703D01*
X261435Y-176957D01*
X261351Y-177127D01*
X261266Y-177211D01*
X261012Y-177296D01*
X260673Y-177296D01*
X260420Y-177211D01*
X260335Y-177127D01*
X260250Y-176957D01*
X260250Y-176703D01*
X260335Y-176534D01*
X260504Y-176365D01*
X260758Y-176280D01*
X261097Y-176196D01*
X261266Y-176111D01*
X261351Y-175942D01*
X261351Y-175772D01*
X261266Y-175603D01*
X261012Y-175518D01*
X260673Y-175518D01*
X262849Y-175518D02*
X262002Y-175518D01*
X261918Y-176280D01*
X262002Y-176196D01*
X262256Y-176111D01*
X262510Y-176111D01*
X262764Y-176196D01*
X262934Y-176365D01*
X263018Y-176619D01*
X263018Y-176788D01*
X262934Y-177042D01*
X262764Y-177211D01*
X262510Y-177296D01*
X262256Y-177296D01*
X262002Y-177211D01*
X261918Y-177127D01*
X261833Y-176957D01*
X263501Y-175942D02*
X263501Y-175857D01*
X263585Y-175688D01*
X263670Y-175603D01*
X263839Y-175518D01*
X264178Y-175518D01*
X264347Y-175603D01*
X264432Y-175688D01*
X264517Y-175857D01*
X264517Y-176026D01*
X264432Y-176196D01*
X264263Y-176449D01*
X263416Y-177296D01*
X264601Y-177296D01*
X265084Y-175942D02*
X265084Y-175857D01*
X265168Y-175688D01*
X265253Y-175603D01*
X265422Y-175518D01*
X265761Y-175518D01*
X265930Y-175603D01*
X266015Y-175688D01*
X266099Y-175857D01*
X266099Y-176026D01*
X266015Y-176196D01*
X265845Y-176449D01*
X264999Y-177296D01*
X266184Y-177296D01*
X267428Y-175518D02*
X266582Y-176703D01*
X267852Y-176703D01*
X267428Y-175518D02*
X267428Y-177296D01*
X241085Y-173442D02*
X241085Y-173357D01*
X241169Y-173188D01*
X241254Y-173103D01*
X241423Y-173018D01*
X241762Y-173018D01*
X241931Y-173103D01*
X242016Y-173188D01*
X242100Y-173357D01*
X242100Y-173526D01*
X242016Y-173696D01*
X241846Y-173949D01*
X241000Y-174796D01*
X242185Y-174796D01*
X242752Y-173018D02*
X243683Y-173018D01*
X243175Y-173696D01*
X243429Y-173696D01*
X243599Y-173780D01*
X243683Y-173865D01*
X243768Y-174119D01*
X243768Y-174288D01*
X243683Y-174542D01*
X243514Y-174711D01*
X243260Y-174796D01*
X243006Y-174796D01*
X242752Y-174711D01*
X242668Y-174627D01*
X242583Y-174457D01*
X245182Y-173018D02*
X244335Y-173018D01*
X244251Y-173780D01*
X244335Y-173696D01*
X244589Y-173611D01*
X244843Y-173611D01*
X245097Y-173696D01*
X245266Y-173865D01*
X245351Y-174119D01*
X245351Y-174288D01*
X245266Y-174542D01*
X245097Y-174711D01*
X244843Y-174796D01*
X244589Y-174796D01*
X244335Y-174711D01*
X244251Y-174627D01*
X244166Y-174457D01*
X246765Y-173018D02*
X245918Y-173018D01*
X245833Y-173780D01*
X245918Y-173696D01*
X246172Y-173611D01*
X246426Y-173611D01*
X246680Y-173696D01*
X246849Y-173865D01*
X246934Y-174119D01*
X246934Y-174288D01*
X246849Y-174542D01*
X246680Y-174711D01*
X246426Y-174796D01*
X246172Y-174796D01*
X245918Y-174711D01*
X245833Y-174627D01*
X245749Y-174457D01*
X248728Y-173018D02*
X249152Y-174796D01*
X249575Y-173018D02*
X249152Y-174796D01*
X249575Y-173018D02*
X249998Y-174796D01*
X250421Y-173018D02*
X249998Y-174796D01*
X250862Y-174627D02*
X250777Y-174711D01*
X250862Y-174796D01*
X250946Y-174711D01*
X250862Y-174627D01*
X254002Y-173442D02*
X253917Y-173272D01*
X253748Y-173103D01*
X253579Y-173018D01*
X253240Y-173018D01*
X253071Y-173103D01*
X252902Y-173272D01*
X252817Y-173442D01*
X252732Y-173696D01*
X252732Y-174119D01*
X252817Y-174373D01*
X252902Y-174542D01*
X253071Y-174711D01*
X253240Y-174796D01*
X253579Y-174796D01*
X253748Y-174711D01*
X253917Y-174542D01*
X254002Y-174373D01*
X254501Y-173018D02*
X254501Y-174796D01*
X254501Y-173949D02*
X254755Y-173696D01*
X254925Y-173611D01*
X255179Y-173611D01*
X255348Y-173696D01*
X255433Y-173949D01*
X255433Y-174796D01*
X256914Y-173611D02*
X256914Y-174796D01*
X256914Y-173865D02*
X256745Y-173696D01*
X256575Y-173611D01*
X256321Y-173611D01*
X256152Y-173696D01*
X255983Y-173865D01*
X255898Y-174119D01*
X255898Y-174288D01*
X255983Y-174542D01*
X256152Y-174711D01*
X256321Y-174796D01*
X256575Y-174796D01*
X256745Y-174711D01*
X256914Y-174542D01*
X257388Y-173611D02*
X257388Y-174796D01*
X257388Y-173949D02*
X257642Y-173696D01*
X257811Y-173611D01*
X258065Y-173611D01*
X258234Y-173696D01*
X258319Y-173949D01*
X258319Y-174796D01*
X259800Y-173018D02*
X259800Y-174796D01*
X259800Y-173865D02*
X259631Y-173696D01*
X259462Y-173611D01*
X259208Y-173611D01*
X259039Y-173696D01*
X258869Y-173865D01*
X258785Y-174119D01*
X258785Y-174288D01*
X258869Y-174542D01*
X259039Y-174711D01*
X259208Y-174796D01*
X259462Y-174796D01*
X259631Y-174711D01*
X259800Y-174542D01*
X260274Y-173018D02*
X260274Y-174796D01*
X260647Y-174119D02*
X261663Y-174119D01*
X261663Y-173949D01*
X261578Y-173780D01*
X261493Y-173696D01*
X261324Y-173611D01*
X261070Y-173611D01*
X260901Y-173696D01*
X260732Y-173865D01*
X260647Y-174119D01*
X260647Y-174288D01*
X260732Y-174542D01*
X260901Y-174711D01*
X261070Y-174796D01*
X261324Y-174796D01*
X261493Y-174711D01*
X261663Y-174542D01*
X262044Y-173611D02*
X262044Y-174796D01*
X262044Y-174119D02*
X262128Y-173865D01*
X262298Y-173696D01*
X262467Y-173611D01*
X262721Y-173611D01*
X264278Y-173018D02*
X264278Y-174796D01*
X264278Y-173018D02*
X265040Y-173018D01*
X265294Y-173103D01*
X265379Y-173188D01*
X265463Y-173357D01*
X265463Y-173526D01*
X265379Y-173696D01*
X265294Y-173780D01*
X265040Y-173865D01*
X264278Y-173865D02*
X265040Y-173865D01*
X265294Y-173949D01*
X265379Y-174034D01*
X265463Y-174203D01*
X265463Y-174457D01*
X265379Y-174627D01*
X265294Y-174711D01*
X265040Y-174796D01*
X264278Y-174796D01*
X265861Y-173018D02*
X265861Y-174796D01*
X266234Y-173611D02*
X266742Y-174796D01*
X267250Y-173611D02*
X266742Y-174796D01*
X268553Y-173018D02*
X268553Y-174796D01*
X268553Y-173865D02*
X268384Y-173696D01*
X268215Y-173611D01*
X267961Y-173611D01*
X267791Y-173696D01*
X267622Y-173865D01*
X267537Y-174119D01*
X267537Y-174288D01*
X267622Y-174542D01*
X267791Y-174711D01*
X267961Y-174796D01*
X268215Y-174796D01*
X268384Y-174711D01*
X268553Y-174542D01*
X269112Y-174627D02*
X269027Y-174711D01*
X269112Y-174796D01*
X269196Y-174711D01*
X269112Y-174627D01*
X239770Y-170278D02*
X239770Y-172056D01*
X239770Y-170278D02*
X240447Y-172056D01*
X241124Y-170278D02*
X240447Y-172056D01*
X241124Y-170278D02*
X241124Y-172056D01*
X241802Y-170278D02*
X241886Y-170363D01*
X241971Y-170278D01*
X241886Y-170194D01*
X241802Y-170278D01*
X241886Y-170871D02*
X241886Y-172056D01*
X243300Y-171125D02*
X243131Y-170956D01*
X242961Y-170871D01*
X242707Y-170871D01*
X242538Y-170956D01*
X242369Y-171125D01*
X242284Y-171379D01*
X242284Y-171548D01*
X242369Y-171802D01*
X242538Y-171971D01*
X242707Y-172056D01*
X242961Y-172056D01*
X243131Y-171971D01*
X243300Y-171802D01*
X243681Y-170871D02*
X243681Y-172056D01*
X243681Y-171379D02*
X243765Y-171125D01*
X243935Y-170956D01*
X244104Y-170871D01*
X244358Y-170871D01*
X244942Y-170871D02*
X244773Y-170956D01*
X244603Y-171125D01*
X244519Y-171379D01*
X244519Y-171548D01*
X244603Y-171802D01*
X244773Y-171971D01*
X244942Y-172056D01*
X245196Y-172056D01*
X245365Y-171971D01*
X245535Y-171802D01*
X245619Y-171548D01*
X245619Y-171379D01*
X245535Y-171125D01*
X245365Y-170956D01*
X245196Y-170871D01*
X244942Y-170871D01*
X247024Y-171125D02*
X246855Y-170956D01*
X246686Y-170871D01*
X246432Y-170871D01*
X246263Y-170956D01*
X246093Y-171125D01*
X246009Y-171379D01*
X246009Y-171548D01*
X246093Y-171802D01*
X246263Y-171971D01*
X246432Y-172056D01*
X246686Y-172056D01*
X246855Y-171971D01*
X247024Y-171802D01*
X247405Y-170278D02*
X247405Y-172056D01*
X247405Y-171210D02*
X247659Y-170956D01*
X247829Y-170871D01*
X248082Y-170871D01*
X248252Y-170956D01*
X248336Y-171210D01*
X248336Y-172056D01*
X248971Y-170278D02*
X249056Y-170363D01*
X249141Y-170278D01*
X249056Y-170194D01*
X248971Y-170278D01*
X249056Y-170871D02*
X249056Y-172056D01*
X249454Y-170871D02*
X249454Y-172649D01*
X249454Y-171125D02*
X249623Y-170956D01*
X249792Y-170871D01*
X250046Y-170871D01*
X250216Y-170956D01*
X250385Y-171125D01*
X250470Y-171379D01*
X250470Y-171548D01*
X250385Y-171802D01*
X250216Y-171971D01*
X250046Y-172056D01*
X249792Y-172056D01*
X249623Y-171971D01*
X249454Y-171802D01*
X252840Y-170278D02*
X252840Y-172056D01*
X252247Y-170278D02*
X253432Y-170278D01*
X253644Y-171379D02*
X254660Y-171379D01*
X254660Y-171210D01*
X254575Y-171040D01*
X254490Y-170956D01*
X254321Y-170871D01*
X254067Y-170871D01*
X253898Y-170956D01*
X253729Y-171125D01*
X253644Y-171379D01*
X253644Y-171548D01*
X253729Y-171802D01*
X253898Y-171971D01*
X254067Y-172056D01*
X254321Y-172056D01*
X254490Y-171971D01*
X254660Y-171802D01*
X256056Y-171125D02*
X255887Y-170956D01*
X255718Y-170871D01*
X255464Y-170871D01*
X255295Y-170956D01*
X255125Y-171125D01*
X255041Y-171379D01*
X255041Y-171548D01*
X255125Y-171802D01*
X255295Y-171971D01*
X255464Y-172056D01*
X255718Y-172056D01*
X255887Y-171971D01*
X256056Y-171802D01*
X256437Y-170278D02*
X256437Y-172056D01*
X256437Y-171210D02*
X256691Y-170956D01*
X256861Y-170871D01*
X257114Y-170871D01*
X257284Y-170956D01*
X257368Y-171210D01*
X257368Y-172056D01*
X257834Y-170871D02*
X257834Y-172056D01*
X257834Y-171210D02*
X258088Y-170956D01*
X258257Y-170871D01*
X258511Y-170871D01*
X258680Y-170956D01*
X258765Y-171210D01*
X258765Y-172056D01*
X259654Y-170871D02*
X259485Y-170956D01*
X259315Y-171125D01*
X259231Y-171379D01*
X259231Y-171548D01*
X259315Y-171802D01*
X259485Y-171971D01*
X259654Y-172056D01*
X259908Y-172056D01*
X260077Y-171971D01*
X260246Y-171802D01*
X260331Y-171548D01*
X260331Y-171379D01*
X260246Y-171125D01*
X260077Y-170956D01*
X259908Y-170871D01*
X259654Y-170871D01*
X260721Y-170278D02*
X260721Y-172056D01*
X261516Y-170871D02*
X261347Y-170956D01*
X261178Y-171125D01*
X261093Y-171379D01*
X261093Y-171548D01*
X261178Y-171802D01*
X261347Y-171971D01*
X261516Y-172056D01*
X261770Y-172056D01*
X261939Y-171971D01*
X262109Y-171802D01*
X262193Y-171548D01*
X262193Y-171379D01*
X262109Y-171125D01*
X261939Y-170956D01*
X261770Y-170871D01*
X261516Y-170871D01*
X263599Y-170871D02*
X263599Y-172225D01*
X263514Y-172479D01*
X263429Y-172564D01*
X263260Y-172649D01*
X263006Y-172649D01*
X262837Y-172564D01*
X263599Y-171125D02*
X263429Y-170956D01*
X263260Y-170871D01*
X263006Y-170871D01*
X262837Y-170956D01*
X262667Y-171125D01*
X262583Y-171379D01*
X262583Y-171548D01*
X262667Y-171802D01*
X262837Y-171971D01*
X263006Y-172056D01*
X263260Y-172056D01*
X263429Y-171971D01*
X263599Y-171802D01*
X264157Y-170871D02*
X264665Y-172056D01*
X265173Y-170871D02*
X264665Y-172056D01*
X264496Y-172395D01*
X264327Y-172564D01*
X264157Y-172649D01*
X264073Y-172649D01*
X266866Y-170278D02*
X266866Y-172056D01*
X267238Y-170871D02*
X267238Y-172056D01*
X267238Y-171210D02*
X267492Y-170956D01*
X267662Y-170871D01*
X267916Y-170871D01*
X268085Y-170956D01*
X268170Y-171210D01*
X268170Y-172056D01*
X269651Y-171125D02*
X269482Y-170956D01*
X269312Y-170871D01*
X269058Y-170871D01*
X268889Y-170956D01*
X268720Y-171125D01*
X268635Y-171379D01*
X268635Y-171548D01*
X268720Y-171802D01*
X268889Y-171971D01*
X269058Y-172056D01*
X269312Y-172056D01*
X269482Y-171971D01*
X269651Y-171802D01*
X270116Y-171887D02*
X270032Y-171971D01*
X270116Y-172056D01*
X270201Y-171971D01*
X270116Y-171887D01*
X301071Y-165439D02*
X301000Y-165368D01*
X301071Y-165296D01*
X301143Y-165368D01*
X301143Y-165511D01*
X301071Y-165653D01*
X301000Y-165725D01*
X301900Y-165296D02*
X301686Y-165368D01*
X301543Y-165582D01*
X301471Y-165939D01*
X301471Y-166153D01*
X301543Y-166510D01*
X301686Y-166725D01*
X301900Y-166796D01*
X302043Y-166796D01*
X302257Y-166725D01*
X302400Y-166510D01*
X302471Y-166153D01*
X302471Y-165939D01*
X302400Y-165582D01*
X302257Y-165368D01*
X302043Y-165296D01*
X301900Y-165296D01*
X303664Y-165296D02*
X302950Y-165296D01*
X302878Y-165939D01*
X302950Y-165868D01*
X303164Y-165796D01*
X303378Y-165796D01*
X303592Y-165868D01*
X303735Y-166010D01*
X303807Y-166225D01*
X303807Y-166368D01*
X303735Y-166582D01*
X303592Y-166725D01*
X303378Y-166796D01*
X303164Y-166796D01*
X302950Y-166725D01*
X302878Y-166653D01*
X302807Y-166510D01*
X304142Y-166153D02*
X305428Y-166153D01*
X305870Y-167296D02*
X307013Y-167296D01*
X307206Y-167296D02*
X308348Y-167296D01*
X308541Y-166153D02*
X309827Y-166153D01*
X310269Y-165296D02*
X310269Y-166796D01*
X310269Y-165296D02*
X310912Y-165296D01*
X311126Y-165368D01*
X311198Y-165439D01*
X311269Y-165582D01*
X311269Y-165725D01*
X311198Y-165868D01*
X311126Y-165939D01*
X310912Y-166010D01*
X310269Y-166010D01*
X310769Y-166010D02*
X311269Y-166796D01*
X311605Y-167296D02*
X312747Y-167296D01*
X312940Y-167296D02*
X314083Y-167296D01*
X314347Y-166653D02*
X314276Y-166725D01*
X314347Y-166796D01*
X314419Y-166725D01*
X314347Y-166653D01*
X315818Y-165653D02*
X315747Y-165511D01*
X315604Y-165368D01*
X315461Y-165296D01*
X315176Y-165296D01*
X315033Y-165368D01*
X314890Y-165511D01*
X314818Y-165653D01*
X314747Y-165868D01*
X314747Y-166225D01*
X314818Y-166439D01*
X314890Y-166582D01*
X315033Y-166725D01*
X315176Y-166796D01*
X315461Y-166796D01*
X315604Y-166725D01*
X315747Y-166582D01*
X315818Y-166439D01*
X315818Y-166225D01*
X315461Y-166225D02*
X315818Y-166225D01*
X316661Y-165296D02*
X316661Y-166796D01*
X316161Y-165296D02*
X317161Y-165296D01*
X317339Y-165296D02*
X317339Y-166796D01*
X318196Y-166796D01*
X318432Y-165439D02*
X318361Y-165368D01*
X318432Y-165296D01*
X318503Y-165368D01*
X318503Y-165511D01*
X318432Y-165653D01*
X318361Y-165725D01*
X327582Y-179994D02*
X327497Y-179825D01*
X327243Y-179740D01*
X327074Y-179740D01*
X326820Y-179825D01*
X326650Y-180079D01*
X326566Y-180502D01*
X326566Y-180925D01*
X326650Y-181264D01*
X326820Y-181433D01*
X327074Y-181518D01*
X327158Y-181518D01*
X327412Y-181433D01*
X327582Y-181264D01*
X327666Y-181010D01*
X327666Y-180925D01*
X327582Y-180671D01*
X327412Y-180502D01*
X327158Y-180418D01*
X327074Y-180418D01*
X326820Y-180502D01*
X326650Y-180671D01*
X326566Y-180925D01*
X263955Y-179740D02*
X263108Y-179740D01*
X263023Y-180502D01*
X263108Y-180418D01*
X263362Y-180333D01*
X263616Y-180333D01*
X263870Y-180418D01*
X264039Y-180587D01*
X264124Y-180841D01*
X264124Y-181010D01*
X264039Y-181264D01*
X263870Y-181433D01*
X263616Y-181518D01*
X263362Y-181518D01*
X263108Y-181433D01*
X263023Y-181349D01*
X262939Y-181179D01*
X200311Y-179740D02*
X199464Y-180925D01*
X200734Y-180925D01*
X200311Y-179740D02*
X200311Y-181518D01*
X135964Y-179740D02*
X136896Y-179740D01*
X136388Y-180418D01*
X136642Y-180418D01*
X136811Y-180502D01*
X136896Y-180587D01*
X136980Y-180841D01*
X136980Y-181010D01*
X136896Y-181264D01*
X136726Y-181433D01*
X136472Y-181518D01*
X136218Y-181518D01*
X135964Y-181433D01*
X135880Y-181349D01*
X135795Y-181179D01*
X72650Y-180164D02*
X72650Y-180079D01*
X72735Y-179910D01*
X72820Y-179825D01*
X72989Y-179740D01*
X73328Y-179740D01*
X73497Y-179825D01*
X73582Y-179910D01*
X73666Y-180079D01*
X73666Y-180248D01*
X73582Y-180418D01*
X73412Y-180671D01*
X72566Y-181518D01*
X73751Y-181518D01*
X9176Y-180079D02*
X9345Y-179994D01*
X9599Y-179740D01*
X9599Y-181518D01*
X-20195Y-153528D02*
X-20195Y-155305D01*
X-20195Y-153528D02*
X-19602Y-153528D01*
X-19349Y-153612D01*
X-19179Y-153782D01*
X-19095Y-153951D01*
X-19010Y-154205D01*
X-19010Y-154628D01*
X-19095Y-154882D01*
X-19179Y-155051D01*
X-19349Y-155221D01*
X-19602Y-155305D01*
X-20195Y-155305D01*
X-18925Y-93753D02*
X-19010Y-93584D01*
X-19179Y-93414D01*
X-19349Y-93330D01*
X-19687Y-93330D01*
X-19856Y-93414D01*
X-20026Y-93584D01*
X-20110Y-93753D01*
X-20195Y-94007D01*
X-20195Y-94430D01*
X-20110Y-94684D01*
X-20026Y-94853D01*
X-19856Y-95023D01*
X-19687Y-95107D01*
X-19349Y-95107D01*
X-19179Y-95023D01*
X-19010Y-94853D01*
X-18925Y-94684D01*
X-20195Y-33005D02*
X-20195Y-34782D01*
X-20195Y-33005D02*
X-19433Y-33005D01*
X-19179Y-33089D01*
X-19095Y-33174D01*
X-19010Y-33343D01*
X-19010Y-33512D01*
X-19095Y-33682D01*
X-19179Y-33766D01*
X-19433Y-33851D01*
X-20195Y-33851D02*
X-19433Y-33851D01*
X-19179Y-33936D01*
X-19095Y-34020D01*
X-19010Y-34190D01*
X-19010Y-34444D01*
X-19095Y-34613D01*
X-19179Y-34698D01*
X-19433Y-34782D01*
X-20195Y-34782D01*
X-18841Y25670D02*
X-19518Y27447D01*
X-20195Y25670D01*
X-19941Y26262D02*
X-19095Y26262D01*
X355725Y-153528D02*
X355725Y-155305D01*
X355725Y-153528D02*
X356318Y-153528D01*
X356572Y-153612D01*
X356741Y-153782D01*
X356825Y-153951D01*
X356910Y-154205D01*
X356910Y-154628D01*
X356825Y-154882D01*
X356741Y-155051D01*
X356572Y-155221D01*
X356318Y-155305D01*
X355725Y-155305D01*
X356995Y-93753D02*
X356910Y-93584D01*
X356741Y-93414D01*
X356572Y-93330D01*
X356233Y-93330D01*
X356064Y-93414D01*
X355894Y-93584D01*
X355810Y-93753D01*
X355725Y-94007D01*
X355725Y-94430D01*
X355810Y-94684D01*
X355894Y-94853D01*
X356064Y-95023D01*
X356233Y-95107D01*
X356572Y-95107D01*
X356741Y-95023D01*
X356910Y-94853D01*
X356995Y-94684D01*
X355725Y-33005D02*
X355725Y-34782D01*
X355725Y-33005D02*
X356487Y-33005D01*
X356741Y-33089D01*
X356825Y-33174D01*
X356910Y-33343D01*
X356910Y-33512D01*
X356825Y-33682D01*
X356741Y-33766D01*
X356487Y-33851D01*
X355725Y-33851D02*
X356487Y-33851D01*
X356741Y-33936D01*
X356825Y-34020D01*
X356910Y-34190D01*
X356910Y-34444D01*
X356825Y-34613D01*
X356741Y-34698D01*
X356487Y-34782D01*
X355725Y-34782D01*
X357079Y25670D02*
X356402Y27447D01*
X355725Y25670D01*
X355979Y26262D02*
X356825Y26262D01*
X327582Y56226D02*
X327497Y56395D01*
X327243Y56480D01*
X327074Y56480D01*
X326820Y56395D01*
X326650Y56141D01*
X326566Y55718D01*
X326566Y55295D01*
X326650Y54956D01*
X326820Y54787D01*
X327074Y54702D01*
X327158Y54702D01*
X327412Y54787D01*
X327582Y54956D01*
X327666Y55210D01*
X327666Y55295D01*
X327582Y55549D01*
X327412Y55718D01*
X327158Y55802D01*
X327074Y55802D01*
X326820Y55718D01*
X326650Y55549D01*
X326566Y55295D01*
X263955Y56480D02*
X263108Y56480D01*
X263023Y55718D01*
X263108Y55802D01*
X263362Y55887D01*
X263616Y55887D01*
X263870Y55802D01*
X264039Y55633D01*
X264124Y55379D01*
X264124Y55210D01*
X264039Y54956D01*
X263870Y54787D01*
X263616Y54702D01*
X263362Y54702D01*
X263108Y54787D01*
X263023Y54871D01*
X262939Y55041D01*
X200311Y56480D02*
X199464Y55295D01*
X200734Y55295D01*
X200311Y56480D02*
X200311Y54702D01*
X135964Y56480D02*
X136896Y56480D01*
X136388Y55802D01*
X136642Y55802D01*
X136811Y55718D01*
X136896Y55633D01*
X136980Y55379D01*
X136980Y55210D01*
X136896Y54956D01*
X136726Y54787D01*
X136472Y54702D01*
X136218Y54702D01*
X135964Y54787D01*
X135880Y54871D01*
X135795Y55041D01*
X72650Y56056D02*
X72650Y56141D01*
X72735Y56310D01*
X72820Y56395D01*
X72989Y56480D01*
X73328Y56480D01*
X73497Y56395D01*
X73582Y56310D01*
X73666Y56141D01*
X73666Y55972D01*
X73582Y55802D01*
X73412Y55549D01*
X72566Y54702D01*
X73751Y54702D01*
X9176Y56141D02*
X9345Y56226D01*
X9599Y56480D01*
X9599Y54702D01*
D17*
X331000Y-178216D02*
X331000Y-173796D01*
X300000Y-178216D02*
X300000Y-161796D01*
X318000Y-173796D02*
X318000Y-167796D01*
X338500Y-178216D02*
X338500Y-167796D01*
X238000Y-178216D02*
X238000Y-152796D01*
X272000Y-178216D02*
X272000Y-152796D01*
X353820Y-178216D02*
X353820Y-152796D01*
X238000Y-178216D02*
X353820Y-178216D01*
X272000Y-173796D02*
X353820Y-173796D01*
X272000Y-167796D02*
X353820Y-167796D01*
X272000Y-161796D02*
X353820Y-161796D01*
X238000Y-152796D02*
X353820Y-152796D01*
X203960Y-178216D02*
X239520Y-178216D01*
X41400Y-183296D02*
X41400Y-178216D01*
X-22100Y-122971D02*
X-17020Y-122971D01*
X-22100Y-62646D02*
X-17020Y-62646D01*
X-22100Y-2321D02*
X-17020Y-2321D01*
X-17020Y-178216D02*
X353820Y-178216D01*
X-17020Y-178216D02*
X-17020Y52924D01*
X-22100Y-183296D02*
X358900Y-183296D01*
X-22100Y-183296D02*
X-22100Y58004D01*
X353820Y-178216D02*
X353820Y-147736D01*
X104900Y-183296D02*
X104900Y-178216D01*
X168400Y-183296D02*
X168400Y-178216D01*
X231900Y-183296D02*
X231900Y-178216D01*
X295400Y-183296D02*
X295400Y-178216D01*
X353820Y-122971D02*
X358900Y-122971D01*
X353820Y-62646D02*
X358900Y-62646D01*
X353820Y-2321D02*
X358900Y-2321D01*
X358900Y-183296D02*
X358900Y58004D01*
X353820Y-178216D02*
X353820Y52924D01*
X41400Y52924D02*
X41400Y58004D01*
X-22100Y58004D02*
X358900Y58004D01*
X-17020Y52924D02*
X353820Y52924D01*
X104900Y52924D02*
X104900Y58004D01*
X168400Y52924D02*
X168400Y58004D01*
X231900Y52924D02*
X231900Y58004D01*
X295400Y52924D02*
X295400Y58004D01*
X301000Y-174153D02*
X301000Y-175296D01*
X301653Y-175296D01*
X302649Y-175296D02*
X302214Y-174153D01*
X301778Y-175296D01*
X301941Y-174915D02*
X302486Y-174915D01*
X302915Y-174153D02*
X303351Y-174697D01*
X303351Y-175296D01*
X303786Y-174153D02*
X303351Y-174697D01*
X304641Y-174153D02*
X303933Y-174153D01*
X303933Y-175296D01*
X304641Y-175296D01*
X303933Y-174697D02*
X304368Y-174697D01*
X304831Y-174153D02*
X304831Y-175296D01*
X304831Y-174153D02*
X305321Y-174153D01*
X305484Y-174208D01*
X305538Y-174262D01*
X305593Y-174371D01*
X305593Y-174480D01*
X305538Y-174589D01*
X305484Y-174643D01*
X305321Y-174697D01*
X304831Y-174697D01*
X305212Y-174697D02*
X305593Y-175296D01*
X306746Y-174153D02*
X306746Y-175296D01*
X306746Y-174153D02*
X307508Y-175296D01*
X307508Y-174153D02*
X307508Y-175296D01*
X308695Y-175296D02*
X308259Y-174153D01*
X307824Y-175296D01*
X307987Y-174915D02*
X308531Y-174915D01*
X308961Y-174153D02*
X308961Y-175296D01*
X308961Y-174153D02*
X309397Y-175296D01*
X309832Y-174153D02*
X309397Y-175296D01*
X309832Y-174153D02*
X309832Y-175296D01*
X310866Y-174153D02*
X310158Y-174153D01*
X310158Y-175296D01*
X310866Y-175296D01*
X310158Y-174697D02*
X310594Y-174697D01*
X311111Y-174534D02*
X311056Y-174589D01*
X311111Y-174643D01*
X311165Y-174589D01*
X311111Y-174534D01*
X311111Y-175187D02*
X311056Y-175242D01*
X311111Y-175296D01*
X311165Y-175242D01*
X311111Y-175187D01*
X331750Y-174403D02*
X331750Y-175546D01*
X331750Y-174403D02*
X332240Y-174403D01*
X332403Y-174458D01*
X332457Y-174512D01*
X332512Y-174621D01*
X332512Y-174730D01*
X332457Y-174839D01*
X332403Y-174893D01*
X332240Y-174947D01*
X331750Y-174947D01*
X332131Y-174947D02*
X332512Y-175546D01*
X333475Y-174403D02*
X332768Y-174403D01*
X332768Y-175546D01*
X333475Y-175546D01*
X332768Y-174947D02*
X333203Y-174947D01*
X333665Y-174403D02*
X334101Y-175546D01*
X334536Y-174403D02*
X334101Y-175546D01*
X334737Y-174784D02*
X334683Y-174839D01*
X334737Y-174893D01*
X334792Y-174839D01*
X334737Y-174784D01*
X334737Y-175437D02*
X334683Y-175492D01*
X334737Y-175546D01*
X334792Y-175492D01*
X334737Y-175437D01*
X339700Y-168653D02*
X339700Y-169796D01*
X339700Y-168653D02*
X340081Y-168653D01*
X340244Y-168708D01*
X340353Y-168816D01*
X340407Y-168925D01*
X340462Y-169089D01*
X340462Y-169361D01*
X340407Y-169524D01*
X340353Y-169633D01*
X340244Y-169742D01*
X340081Y-169796D01*
X339700Y-169796D01*
X341588Y-169796D02*
X341153Y-168653D01*
X340718Y-169796D01*
X340881Y-169415D02*
X341425Y-169415D01*
X342236Y-168653D02*
X342236Y-169796D01*
X341855Y-168653D02*
X342617Y-168653D01*
X343460Y-168653D02*
X342753Y-168653D01*
X342753Y-169796D01*
X343460Y-169796D01*
X342753Y-169197D02*
X343188Y-169197D01*
X343705Y-169034D02*
X343651Y-169089D01*
X343705Y-169143D01*
X343759Y-169089D01*
X343705Y-169034D01*
X343705Y-169687D02*
X343651Y-169742D01*
X343705Y-169796D01*
X343759Y-169742D01*
X343705Y-169687D01*
X273381Y-154153D02*
X273381Y-155296D01*
X273000Y-154153D02*
X273762Y-154153D01*
X273898Y-154153D02*
X273898Y-155296D01*
X274518Y-154153D02*
X274518Y-155296D01*
X274137Y-154153D02*
X274899Y-154153D01*
X275035Y-154153D02*
X275035Y-155296D01*
X275688Y-155296D01*
X276521Y-154153D02*
X275813Y-154153D01*
X275813Y-155296D01*
X276521Y-155296D01*
X275813Y-154697D02*
X276249Y-154697D01*
X276766Y-154534D02*
X276711Y-154589D01*
X276766Y-154643D01*
X276820Y-154589D01*
X276766Y-154534D01*
X276766Y-155187D02*
X276711Y-155242D01*
X276766Y-155296D01*
X276820Y-155242D01*
X276766Y-155187D01*
D18*
X273381Y-171196D02*
X273381Y-172110D01*
X273000Y-171425D02*
X273762Y-171882D01*
X273762Y-171425D02*
X273000Y-171882D01*
X274470Y-171196D02*
X274470Y-172110D01*
X274089Y-171425D02*
X274851Y-171882D01*
X274851Y-171425D02*
X274089Y-171882D01*
X301457Y-171196D02*
X301229Y-171273D01*
X301076Y-171501D01*
X301000Y-171882D01*
X301000Y-172110D01*
X301076Y-172491D01*
X301229Y-172720D01*
X301457Y-172796D01*
X301609Y-172796D01*
X301838Y-172720D01*
X301990Y-172491D01*
X302066Y-172110D01*
X302066Y-171882D01*
X301990Y-171501D01*
X301838Y-171273D01*
X301609Y-171196D01*
X301457Y-171196D01*
X303186Y-171196D02*
X302424Y-172263D01*
X303567Y-172263D01*
X303186Y-171196D02*
X303186Y-172796D01*
X303849Y-172110D02*
X305220Y-172110D01*
X306073Y-171196D02*
X306073Y-172110D01*
X305692Y-171425D02*
X306454Y-171882D01*
X306454Y-171425D02*
X305692Y-171882D01*
X307162Y-171196D02*
X307162Y-172110D01*
X306782Y-171425D02*
X307543Y-171882D01*
X307543Y-171425D02*
X306782Y-171882D01*
D19*
X273595Y-156797D02*
X273595Y-158225D01*
X273000Y-157154D02*
X274190Y-157868D01*
X274190Y-157154D02*
X273000Y-157868D01*
X275297Y-156797D02*
X275297Y-158225D01*
X274702Y-157154D02*
X275892Y-157868D01*
X275892Y-157154D02*
X274702Y-157868D01*
D20*
X64862Y30948D02*
D03*
X64862Y32148D02*
D03*
X64862Y35748D02*
D03*
X64862Y34548D02*
D03*
X56362Y33348D02*
D03*
X64862Y33348D02*
D03*
X56362Y34548D02*
D03*
X56362Y35748D02*
D03*
X56362Y32148D02*
D03*
X56362Y30948D02*
D03*
X33491Y32512D02*
D03*
X44991Y30312D02*
D03*
X33491Y27012D02*
D03*
X33491Y28112D02*
D03*
X33491Y20412D02*
D03*
X33491Y21512D02*
D03*
X33491Y29212D02*
D03*
X33491Y24812D02*
D03*
X33491Y31412D02*
D03*
X44991Y29212D02*
D03*
X33491Y30312D02*
D03*
X33491Y23712D02*
D03*
X33491Y25912D02*
D03*
X44991Y22612D02*
D03*
X44991Y27012D02*
D03*
X44991Y28112D02*
D03*
X33491Y22612D02*
D03*
X44991Y23712D02*
D03*
X44991Y24812D02*
D03*
X44991Y25912D02*
D03*
X44991Y21512D02*
D03*
X44991Y20412D02*
D03*
X44991Y38712D02*
D03*
X44991Y39812D02*
D03*
X33499Y38712D02*
D03*
X33499Y39812D02*
D03*
X6383Y32512D02*
D03*
X17883Y30312D02*
D03*
X6383Y27012D02*
D03*
X6383Y28112D02*
D03*
X6383Y20412D02*
D03*
X6383Y21512D02*
D03*
X6383Y29212D02*
D03*
X6383Y24812D02*
D03*
X6383Y31412D02*
D03*
X17883Y29212D02*
D03*
X6383Y30312D02*
D03*
X6383Y23712D02*
D03*
X6383Y25912D02*
D03*
X17883Y22612D02*
D03*
X17883Y27012D02*
D03*
X17883Y28112D02*
D03*
X6383Y22612D02*
D03*
X17883Y23712D02*
D03*
X17883Y24812D02*
D03*
X17883Y25912D02*
D03*
X17883Y21512D02*
D03*
X17883Y20412D02*
D03*
X17883Y38712D02*
D03*
X17883Y39812D02*
D03*
X6391Y38712D02*
D03*
X6391Y39812D02*
D03*
D21*
X60012Y29298D02*
D03*
X61212Y29298D02*
D03*
X62412Y29298D02*
D03*
X58812Y29298D02*
D03*
X63612Y29298D02*
D03*
X57612Y29298D02*
D03*
X42541Y18862D02*
D03*
X41441Y18862D02*
D03*
X37041Y18862D02*
D03*
X40341Y18862D02*
D03*
X39241Y18862D02*
D03*
X38141Y18862D02*
D03*
X35941Y18862D02*
D03*
X15433Y18862D02*
D03*
X14333Y18862D02*
D03*
X9933Y18862D02*
D03*
X13233Y18862D02*
D03*
X12133Y18862D02*
D03*
X11033Y18862D02*
D03*
X8833Y18862D02*
D03*
D22*
X30894Y28412D02*
D03*
X30894Y31412D02*
D03*
X4097Y31412D02*
D03*
X4097Y34412D02*
D03*
X67089Y33348D02*
D03*
X67089Y30348D02*
D03*
D23*
X2192Y15367D02*
D03*
X2192Y17267D02*
D03*
X65565Y26832D02*
D03*
X65565Y24932D02*
D03*
D24*
X1692Y31412D02*
D03*
X1692Y33512D02*
D03*
X20333Y27112D02*
D03*
X20333Y29212D02*
D03*
X69248Y33348D02*
D03*
X69248Y31248D02*
D03*
X47103Y31312D02*
D03*
X47103Y29212D02*
D03*
D25*
X69189Y28575D02*
D03*
X67089Y28575D02*
D03*
D26*
X75561Y25382D02*
D03*
X73661Y25382D02*
D03*
X22233Y18862D02*
D03*
X20333Y18862D02*
D03*
X30640Y26543D02*
D03*
X28740Y26543D02*
D03*
X47603Y10187D02*
D03*
X45703Y10187D02*
D03*
X47603Y12727D02*
D03*
X45703Y12727D02*
D03*
X47553Y15267D02*
D03*
X45653Y15267D02*
D03*
D27*
X15543Y8546D02*
D03*
X15543Y16346D02*
D03*
X31640Y8827D02*
D03*
X31640Y16627D02*
D03*
D28*
X54647Y24482D02*
D03*
X62447Y24482D02*
D03*
D33*
X30640Y23712D02*
D03*
D43*
X795Y31412D02*
X4097Y31412D01*
X625Y31242D02*
X795Y31412D01*
X625Y14361D02*
X625Y31242D01*
X625Y14361D02*
X8401Y6585D01*
X22233Y6585D02*
X22233Y18862D01*
X20333Y27112D02*
X21683Y27112D01*
X22233Y18862D02*
X22233Y26562D01*
X21683Y27112D02*
X22233Y26562D01*
X23114Y7790D02*
X23114Y13111D01*
X23758Y7146D02*
X52585Y7146D01*
X23114Y7790D02*
X23758Y7146D01*
X8401Y6585D02*
X22233Y6585D01*
X52594Y6585D01*
X58753Y20828D02*
X62455Y20828D01*
X65565Y23939D02*
X65565Y24932D01*
X62455Y20828D02*
X65565Y23939D01*
X53988Y16063D02*
X58753Y20828D01*
X53988Y14618D02*
X53988Y16063D01*
X53975Y2413D02*
X53975Y5205D01*
X52594Y6585D02*
X53975Y5205D01*
X52585Y7146D02*
X53975Y8536D01*
X56515Y8536D02*
X56515Y14605D01*
X23114Y13111D02*
X29715Y19712D01*
X30640Y19712D01*
X23114Y13111D02*
X23114Y28067D01*
X26459Y31412D02*
X30894Y31412D01*
X70713Y33228D02*
X71953Y31988D01*
X71953Y30098D02*
X71953Y31988D01*
X69368Y33228D02*
X70713Y33228D01*
X69248Y33348D02*
X69368Y33228D01*
X67089Y33348D02*
X69248Y33348D01*
X70430Y28575D02*
X71953Y30098D01*
X69189Y28575D02*
X70430Y28575D01*
X64862Y29339D02*
X64862Y30948D01*
X65627Y28575D02*
X67089Y28575D01*
X64862Y29339D02*
X65627Y28575D01*
X23114Y28067D02*
X26459Y31412D01*
X69139Y28525D02*
X69189Y28575D01*
X42541Y18862D02*
X42559Y18879D01*
X42559Y19720D01*
X42292Y19987D02*
X42559Y19720D01*
X35000Y19987D02*
X42292Y19987D01*
X42541Y18412D02*
X42541Y18862D01*
X61845Y2755D02*
X62237Y2755D01*
X56515Y2413D02*
X61503Y2413D01*
X61845Y2755D01*
X30894Y31412D02*
X33491Y31412D01*
X65565Y24932D02*
X67698Y24932D01*
X53975Y14605D02*
X53988Y14618D01*
X69139Y26373D02*
X69139Y28525D01*
X67698Y24932D02*
X69139Y26373D01*
X62412Y24517D02*
X62447Y24482D01*
X62412Y24517D02*
X62412Y26832D01*
X17883Y20412D02*
X19683Y20412D01*
X17883Y21512D02*
X19683Y21512D01*
X44991Y20412D02*
X46603Y20412D01*
X44991Y21512D02*
X46603Y21512D01*
X60012Y27305D02*
X60012Y29298D01*
X58812Y27305D02*
X58812Y29298D01*
X2192Y15367D02*
X4507Y15367D01*
X56515Y2413D02*
X56515Y8536D01*
X40072Y23302D02*
X43886Y19487D01*
X40072Y28112D02*
X43272Y31312D01*
X40072Y23302D02*
X40072Y28112D01*
X43886Y19487D02*
X45241Y19487D01*
X33491Y28112D02*
X40072Y28112D01*
X33491Y28112D02*
X33491Y29212D01*
X17883Y29212D02*
X20333Y29212D01*
X15433Y18862D02*
X20333Y18862D01*
X32641Y30312D02*
X33491Y30312D01*
X32366Y30037D02*
X32641Y30312D01*
X6383Y28112D02*
X6383Y29212D01*
X30640Y21712D02*
X32366Y23438D01*
X30640Y23712D02*
X30640Y26543D01*
X32366Y23438D02*
X32366Y30037D01*
X35769Y15253D02*
X36642Y15253D01*
X39241Y17852D01*
X4097Y31412D02*
X6383Y31412D01*
X45241Y19487D02*
X48478Y16250D01*
X62412Y26832D02*
X62412Y29298D01*
X35593Y11138D02*
X41441Y16986D01*
X75598Y25419D02*
X75598Y28085D01*
X75561Y25382D02*
X75598Y25419D01*
X75561Y35748D02*
X75598Y35711D01*
X64862Y35748D02*
X75561Y35748D01*
X64862Y33348D02*
X67089Y33348D01*
X62412Y26832D02*
X65565Y26832D01*
X35541Y12727D02*
X40341Y17527D01*
X43161Y15267D02*
X45653Y15267D01*
X43161Y10187D02*
X45703Y10187D01*
X43161Y12727D02*
X45703Y12727D01*
X47653Y10991D02*
X48478Y11816D01*
X47653Y10187D02*
X47653Y10991D01*
X35593Y10239D02*
X35593Y11138D01*
X35662Y15146D02*
X35769Y15253D01*
X35541Y12727D02*
X35541Y12727D01*
X35541Y15267D02*
X35662Y15146D01*
X35541Y10187D02*
X35593Y10239D01*
X15433Y16456D02*
X15543Y16346D01*
X15433Y16456D02*
X15433Y18862D01*
X12133Y15367D02*
X12133Y18862D01*
X48478Y11816D02*
X48478Y16250D01*
X4507Y15367D02*
X4508Y15367D01*
X31640Y16627D02*
X35000Y19987D01*
X41441Y16986D02*
X41441Y18862D01*
X39241Y17852D02*
X39241Y18862D01*
X40341Y17527D02*
X40341Y18862D01*
X44991Y29212D02*
X47103Y29212D01*
X43272Y31312D02*
X47103Y31312D01*
D44*
X4508Y15367D02*
D03*
X12133Y15367D02*
D03*
X75598Y28085D02*
D03*
X75598Y35711D02*
D03*
X35541Y10187D02*
D03*
X35541Y12727D02*
D03*
X35541Y15267D02*
D03*
X43161Y15267D02*
D03*
X43161Y10187D02*
D03*
X43161Y12727D02*
D03*
D45*
X56515Y2413D02*
D03*
X56515Y8536D02*
D03*
X56515Y14605D02*
D03*
X77477Y2755D02*
D03*
X77477Y17995D02*
D03*
D46*
X53975Y2413D02*
D03*
X53975Y8536D02*
D03*
X53975Y14605D02*
D03*
X62237Y2755D02*
D03*
X64777Y2755D02*
D03*
X74937Y2755D02*
D03*
X74937Y17995D02*
D03*
X69857Y2755D02*
D03*
X72397Y2755D02*
D03*
X67317Y2755D02*
D03*
X69857Y17995D02*
D03*
X72397Y17995D02*
D03*
X67317Y17995D02*
D03*
X64777Y17995D02*
D03*
X62237Y17995D02*
D03*
D47*
X25640Y19712D02*
D03*
X25640Y21712D02*
D03*
X25640Y23712D02*
D03*
X30640Y19712D02*
D03*
X30640Y21712D02*
D03*
D48*
X50673Y27802D02*
D03*
X26017Y34512D02*
D03*
X50673Y19067D02*
D03*
X50673Y35059D02*
D03*
X3520Y25395D02*
D03*
X20447Y9337D02*
D03*
X11303Y9827D02*
D03*
X26153Y27396D02*
D03*
X19683Y20412D02*
D03*
X19683Y21512D02*
D03*
X46603Y20412D02*
D03*
X46603Y21512D02*
D03*
D49*
X58812Y27305D02*
D03*
X60012Y27305D02*
D03*
M02*
