G04*
G04 #@! TF.GenerationSoftware,Altium Limited,Altium Designer,22.10.1 (41)*
G04*
G04 Layer_Color=32768*
%FSLAX43Y43*%
%MOMM*%
G71*
G04*
G04 #@! TF.SameCoordinates,616D65FC-62BC-469B-91EF-3386A997E351*
G04*
G04*
G04 #@! TF.FilePolarity,Positive*
G04*
G01*
G75*
%ADD10C,0.200*%
%ADD11C,0.100*%
%ADD13C,0.254*%
%ADD14C,0.150*%
%ADD15C,0.178*%
%ADD17C,0.127*%
%ADD18C,0.180*%
%ADD19C,0.350*%
%ADD55C,0.400*%
%ADD56C,1.000*%
%ADD57C,0.152*%
%ADD58C,0.090*%
%ADD59R,1.200X0.600*%
%ADD60R,0.600X1.200*%
G36*
X-3971Y-146069D02*
X-3952Y-146071D01*
X-3929Y-146074D01*
X-3904Y-146078D01*
X-3877Y-146084D01*
X-3817Y-146099D01*
X-3788Y-146109D01*
X-3754Y-146121D01*
X-3723Y-146136D01*
X-3694Y-146155D01*
X-3665Y-146174D01*
X-3636Y-146196D01*
X-3634Y-146199D01*
X-3629Y-146203D01*
X-3621Y-146209D01*
X-3613Y-146219D01*
X-3600Y-146232D01*
X-3588Y-146249D01*
X-3573Y-146267D01*
X-3559Y-146288D01*
X-3544Y-146311D01*
X-3529Y-146338D01*
X-3515Y-146367D01*
X-3500Y-146398D01*
X-3488Y-146432D01*
X-3477Y-146467D01*
X-3467Y-146505D01*
X-3461Y-146546D01*
X-3696Y-146565D01*
X-3696Y-146563D01*
X-3698Y-146559D01*
X-3700Y-146553D01*
X-3702Y-146542D01*
X-3709Y-146517D01*
X-3719Y-146488D01*
X-3731Y-146455D01*
X-3748Y-146421D01*
X-3765Y-146390D01*
X-3786Y-146363D01*
X-3788Y-146361D01*
X-3790Y-146359D01*
X-3796Y-146353D01*
X-3802Y-146346D01*
X-3823Y-146330D01*
X-3852Y-146311D01*
X-3886Y-146292D01*
X-3927Y-146278D01*
X-3973Y-146265D01*
X-3998Y-146263D01*
X-4023Y-146261D01*
X-4042Y-146261D01*
X-4065Y-146265D01*
X-4092Y-146269D01*
X-4123Y-146278D01*
X-4156Y-146288D01*
X-4190Y-146305D01*
X-4223Y-146326D01*
X-4225Y-146326D01*
X-4227Y-146330D01*
X-4233Y-146334D01*
X-4242Y-146340D01*
X-4261Y-146359D01*
X-4286Y-146386D01*
X-4315Y-146419D01*
X-4344Y-146461D01*
X-4371Y-146509D01*
X-4398Y-146563D01*
X-4398Y-146565D01*
X-4400Y-146569D01*
X-4404Y-146580D01*
X-4408Y-146592D01*
X-4413Y-146607D01*
X-4419Y-146628D01*
X-4425Y-146650D01*
X-4431Y-146675D01*
X-4438Y-146705D01*
X-4442Y-146738D01*
X-4448Y-146775D01*
X-4454Y-146815D01*
X-4458Y-146857D01*
X-4460Y-146903D01*
X-4463Y-146953D01*
X-4465Y-147002D01*
X-4460Y-146998D01*
X-4456Y-146992D01*
X-4450Y-146984D01*
X-4431Y-146961D01*
X-4408Y-146932D01*
X-4377Y-146900D01*
X-4342Y-146869D01*
X-4302Y-146840D01*
X-4258Y-146813D01*
X-4256Y-146813D01*
X-4252Y-146811D01*
X-4246Y-146807D01*
X-4238Y-146803D01*
X-4225Y-146798D01*
X-4213Y-146792D01*
X-4179Y-146780D01*
X-4140Y-146769D01*
X-4096Y-146759D01*
X-4048Y-146750D01*
X-3998Y-146748D01*
X-3988Y-146748D01*
X-3975Y-146750D01*
X-3959Y-146750D01*
X-3938Y-146755D01*
X-3915Y-146757D01*
X-3888Y-146763D01*
X-3859Y-146769D01*
X-3829Y-146780D01*
X-3796Y-146790D01*
X-3763Y-146805D01*
X-3729Y-146821D01*
X-3694Y-146842D01*
X-3661Y-146865D01*
X-3627Y-146892D01*
X-3596Y-146923D01*
X-3594Y-146925D01*
X-3590Y-146932D01*
X-3582Y-146940D01*
X-3569Y-146955D01*
X-3557Y-146971D01*
X-3544Y-146992D01*
X-3527Y-147017D01*
X-3513Y-147044D01*
X-3498Y-147075D01*
X-3482Y-147109D01*
X-3469Y-147146D01*
X-3454Y-147186D01*
X-3444Y-147227D01*
X-3436Y-147273D01*
X-3432Y-147321D01*
X-3429Y-147371D01*
X-3429Y-147373D01*
X-3429Y-147379D01*
X-3429Y-147388D01*
X-3432Y-147402D01*
X-3432Y-147417D01*
X-3434Y-147436D01*
X-3436Y-147459D01*
X-3440Y-147482D01*
X-3448Y-147534D01*
X-3463Y-147590D01*
X-3482Y-147648D01*
X-3509Y-147709D01*
X-3509Y-147711D01*
X-3513Y-147715D01*
X-3517Y-147723D01*
X-3523Y-147734D01*
X-3532Y-147746D01*
X-3540Y-147761D01*
X-3565Y-147796D01*
X-3594Y-147834D01*
X-3632Y-147873D01*
X-3675Y-147913D01*
X-3723Y-147946D01*
X-3725Y-147946D01*
X-3729Y-147950D01*
X-3738Y-147954D01*
X-3748Y-147958D01*
X-3761Y-147965D01*
X-3775Y-147971D01*
X-3794Y-147979D01*
X-3813Y-147986D01*
X-3859Y-148002D01*
X-3913Y-148015D01*
X-3971Y-148023D01*
X-4034Y-148027D01*
X-4046Y-148027D01*
X-4063Y-148025D01*
X-4083Y-148023D01*
X-4108Y-148021D01*
X-4138Y-148015D01*
X-4169Y-148008D01*
X-4204Y-148000D01*
X-4242Y-147988D01*
X-4281Y-147975D01*
X-4321Y-147956D01*
X-4360Y-147936D01*
X-4402Y-147911D01*
X-4440Y-147881D01*
X-4479Y-147848D01*
X-4515Y-147811D01*
X-4517Y-147809D01*
X-4523Y-147800D01*
X-4531Y-147788D01*
X-4544Y-147769D01*
X-4558Y-147746D01*
X-4573Y-147717D01*
X-4590Y-147681D01*
X-4606Y-147640D01*
X-4625Y-147594D01*
X-4642Y-147542D01*
X-4656Y-147484D01*
X-4671Y-147419D01*
X-4683Y-147348D01*
X-4692Y-147271D01*
X-4698Y-147188D01*
X-4700Y-147098D01*
X-4700Y-147096D01*
X-4700Y-147092D01*
X-4700Y-147084D01*
X-4700Y-147073D01*
X-4700Y-147061D01*
X-4698Y-147044D01*
X-4698Y-147027D01*
X-4696Y-147007D01*
X-4694Y-146961D01*
X-4690Y-146909D01*
X-4683Y-146850D01*
X-4675Y-146788D01*
X-4663Y-146721D01*
X-4650Y-146655D01*
X-4633Y-146588D01*
X-4613Y-146521D01*
X-4590Y-146457D01*
X-4563Y-146394D01*
X-4529Y-146338D01*
X-4494Y-146288D01*
X-4492Y-146286D01*
X-4485Y-146278D01*
X-4475Y-146267D01*
X-4460Y-146253D01*
X-4444Y-146236D01*
X-4421Y-146217D01*
X-4396Y-146199D01*
X-4367Y-146178D01*
X-4333Y-146157D01*
X-4296Y-146138D01*
X-4256Y-146119D01*
X-4213Y-146103D01*
X-4167Y-146088D01*
X-4117Y-146078D01*
X-4065Y-146069D01*
X-4009Y-146067D01*
X-3986Y-146067D01*
X-3971Y-146069D01*
X-3971Y-146069D02*
G37*
G36*
X49405Y-146042D02*
X49430Y-146044D01*
X49459Y-146049D01*
X49490Y-146053D01*
X49526Y-146059D01*
X49563Y-146067D01*
X49603Y-146076D01*
X49642Y-146088D01*
X49684Y-146103D01*
X49726Y-146119D01*
X49765Y-146140D01*
X49805Y-146161D01*
X49842Y-146188D01*
X49844Y-146190D01*
X49851Y-146194D01*
X49861Y-146203D01*
X49874Y-146215D01*
X49890Y-146230D01*
X49909Y-146249D01*
X49928Y-146269D01*
X49951Y-146294D01*
X49973Y-146321D01*
X49996Y-146353D01*
X50019Y-146386D01*
X50040Y-146423D01*
X50063Y-146463D01*
X50082Y-146507D01*
X50101Y-146553D01*
X50117Y-146600D01*
X49867Y-146659D01*
X49867Y-146657D01*
X49863Y-146650D01*
X49861Y-146638D01*
X49855Y-146623D01*
X49849Y-146607D01*
X49838Y-146588D01*
X49817Y-146542D01*
X49790Y-146492D01*
X49755Y-146440D01*
X49717Y-146392D01*
X49694Y-146371D01*
X49671Y-146353D01*
X49669Y-146351D01*
X49665Y-146348D01*
X49659Y-146344D01*
X49649Y-146338D01*
X49636Y-146330D01*
X49622Y-146321D01*
X49605Y-146313D01*
X49584Y-146305D01*
X49561Y-146296D01*
X49538Y-146288D01*
X49484Y-146271D01*
X49422Y-146261D01*
X49388Y-146257D01*
X49332Y-146257D01*
X49315Y-146259D01*
X49297Y-146261D01*
X49274Y-146263D01*
X49249Y-146265D01*
X49224Y-146269D01*
X49163Y-146284D01*
X49101Y-146303D01*
X49070Y-146315D01*
X49038Y-146330D01*
X49009Y-146346D01*
X48980Y-146365D01*
X48978Y-146367D01*
X48974Y-146369D01*
X48965Y-146376D01*
X48955Y-146384D01*
X48945Y-146394D01*
X48930Y-146409D01*
X48915Y-146423D01*
X48899Y-146440D01*
X48882Y-146461D01*
X48863Y-146482D01*
X48830Y-146530D01*
X48799Y-146586D01*
X48772Y-146650D01*
X48772Y-146653D01*
X48770Y-146659D01*
X48765Y-146669D01*
X48763Y-146682D01*
X48759Y-146698D01*
X48753Y-146717D01*
X48749Y-146740D01*
X48743Y-146763D01*
X48736Y-146790D01*
X48732Y-146819D01*
X48722Y-146882D01*
X48715Y-146948D01*
X48713Y-147019D01*
X48713Y-147021D01*
X48713Y-147030D01*
X48713Y-147042D01*
X48715Y-147061D01*
X48715Y-147082D01*
X48718Y-147107D01*
X48720Y-147134D01*
X48722Y-147165D01*
X48726Y-147198D01*
X48730Y-147232D01*
X48743Y-147304D01*
X48761Y-147377D01*
X48784Y-147448D01*
X48784Y-147450D01*
X48788Y-147457D01*
X48793Y-147465D01*
X48797Y-147477D01*
X48805Y-147494D01*
X48815Y-147511D01*
X48838Y-147550D01*
X48870Y-147596D01*
X48907Y-147640D01*
X48953Y-147684D01*
X48978Y-147702D01*
X49005Y-147721D01*
X49007Y-147721D01*
X49011Y-147725D01*
X49020Y-147729D01*
X49032Y-147736D01*
X49047Y-147742D01*
X49063Y-147750D01*
X49082Y-147756D01*
X49103Y-147765D01*
X49151Y-147781D01*
X49207Y-147796D01*
X49267Y-147806D01*
X49299Y-147809D01*
X49332Y-147811D01*
X49353Y-147811D01*
X49367Y-147809D01*
X49386Y-147806D01*
X49407Y-147804D01*
X49432Y-147800D01*
X49457Y-147796D01*
X49515Y-147781D01*
X49544Y-147771D01*
X49576Y-147759D01*
X49607Y-147744D01*
X49636Y-147727D01*
X49665Y-147709D01*
X49694Y-147688D01*
X49696Y-147686D01*
X49701Y-147681D01*
X49709Y-147675D01*
X49719Y-147665D01*
X49730Y-147652D01*
X49744Y-147636D01*
X49759Y-147617D01*
X49776Y-147596D01*
X49792Y-147571D01*
X49809Y-147544D01*
X49826Y-147515D01*
X49842Y-147482D01*
X49857Y-147446D01*
X49871Y-147407D01*
X49886Y-147365D01*
X49896Y-147321D01*
X50151Y-147386D01*
X50151Y-147390D01*
X50146Y-147400D01*
X50142Y-147415D01*
X50134Y-147438D01*
X50126Y-147463D01*
X50113Y-147494D01*
X50101Y-147527D01*
X50084Y-147563D01*
X50065Y-147602D01*
X50044Y-147640D01*
X50021Y-147681D01*
X49994Y-147721D01*
X49965Y-147759D01*
X49934Y-147796D01*
X49899Y-147831D01*
X49861Y-147865D01*
X49859Y-147867D01*
X49851Y-147871D01*
X49840Y-147879D01*
X49824Y-147890D01*
X49805Y-147902D01*
X49780Y-147917D01*
X49753Y-147931D01*
X49719Y-147946D01*
X49684Y-147961D01*
X49646Y-147975D01*
X49605Y-147990D01*
X49559Y-148002D01*
X49511Y-148013D01*
X49461Y-148021D01*
X49409Y-148025D01*
X49353Y-148027D01*
X49324Y-148027D01*
X49301Y-148025D01*
X49276Y-148023D01*
X49245Y-148021D01*
X49211Y-148017D01*
X49174Y-148011D01*
X49134Y-148004D01*
X49092Y-147996D01*
X49051Y-147986D01*
X49009Y-147975D01*
X48965Y-147961D01*
X48924Y-147944D01*
X48884Y-147925D01*
X48847Y-147902D01*
X48845Y-147900D01*
X48838Y-147896D01*
X48828Y-147890D01*
X48815Y-147879D01*
X48799Y-147865D01*
X48780Y-147850D01*
X48759Y-147831D01*
X48736Y-147809D01*
X48713Y-147784D01*
X48688Y-147756D01*
X48666Y-147727D01*
X48641Y-147694D01*
X48616Y-147659D01*
X48593Y-147621D01*
X48572Y-147579D01*
X48551Y-147536D01*
X48549Y-147534D01*
X48547Y-147525D01*
X48543Y-147511D01*
X48536Y-147494D01*
X48528Y-147471D01*
X48520Y-147446D01*
X48511Y-147415D01*
X48501Y-147382D01*
X48493Y-147344D01*
X48482Y-147304D01*
X48474Y-147263D01*
X48468Y-147217D01*
X48455Y-147121D01*
X48453Y-147071D01*
X48451Y-147021D01*
X48451Y-147017D01*
X48451Y-147009D01*
X48451Y-146992D01*
X48453Y-146971D01*
X48455Y-146944D01*
X48457Y-146913D01*
X48461Y-146880D01*
X48466Y-146842D01*
X48472Y-146803D01*
X48478Y-146761D01*
X48499Y-146671D01*
X48513Y-146628D01*
X48528Y-146584D01*
X48545Y-146538D01*
X48566Y-146496D01*
X48568Y-146494D01*
X48572Y-146486D01*
X48578Y-146476D01*
X48586Y-146459D01*
X48599Y-146440D01*
X48613Y-146419D01*
X48630Y-146396D01*
X48649Y-146369D01*
X48672Y-146344D01*
X48695Y-146315D01*
X48722Y-146288D01*
X48751Y-146259D01*
X48782Y-146232D01*
X48815Y-146205D01*
X48853Y-146180D01*
X48890Y-146157D01*
X48893Y-146155D01*
X48901Y-146153D01*
X48911Y-146146D01*
X48928Y-146138D01*
X48947Y-146130D01*
X48972Y-146119D01*
X48999Y-146109D01*
X49028Y-146099D01*
X49061Y-146088D01*
X49099Y-146078D01*
X49136Y-146067D01*
X49178Y-146059D01*
X49263Y-146044D01*
X49309Y-146042D01*
X49357Y-146040D01*
X49384Y-146040D01*
X49405Y-146042D01*
X49405Y-146042D02*
G37*
G36*
X33147Y-146042D02*
X33172Y-146044D01*
X33201Y-146049D01*
X33232Y-146053D01*
X33267Y-146059D01*
X33305Y-146067D01*
X33344Y-146076D01*
X33384Y-146088D01*
X33426Y-146103D01*
X33467Y-146119D01*
X33507Y-146140D01*
X33546Y-146161D01*
X33584Y-146188D01*
X33586Y-146190D01*
X33592Y-146194D01*
X33603Y-146203D01*
X33615Y-146215D01*
X33632Y-146230D01*
X33651Y-146249D01*
X33669Y-146269D01*
X33692Y-146294D01*
X33715Y-146321D01*
X33738Y-146353D01*
X33761Y-146386D01*
X33782Y-146423D01*
X33805Y-146463D01*
X33823Y-146507D01*
X33842Y-146553D01*
X33859Y-146600D01*
X33609Y-146659D01*
X33609Y-146657D01*
X33605Y-146650D01*
X33603Y-146638D01*
X33596Y-146623D01*
X33590Y-146607D01*
X33580Y-146588D01*
X33559Y-146542D01*
X33532Y-146492D01*
X33496Y-146440D01*
X33459Y-146392D01*
X33436Y-146371D01*
X33413Y-146353D01*
X33411Y-146351D01*
X33407Y-146348D01*
X33401Y-146344D01*
X33390Y-146338D01*
X33378Y-146330D01*
X33363Y-146321D01*
X33347Y-146313D01*
X33326Y-146305D01*
X33303Y-146296D01*
X33280Y-146288D01*
X33226Y-146271D01*
X33163Y-146261D01*
X33130Y-146257D01*
X33074Y-146257D01*
X33057Y-146259D01*
X33038Y-146261D01*
X33015Y-146263D01*
X32990Y-146265D01*
X32965Y-146269D01*
X32905Y-146284D01*
X32842Y-146303D01*
X32811Y-146315D01*
X32780Y-146330D01*
X32751Y-146346D01*
X32722Y-146365D01*
X32720Y-146367D01*
X32715Y-146369D01*
X32707Y-146376D01*
X32697Y-146384D01*
X32686Y-146394D01*
X32672Y-146409D01*
X32657Y-146423D01*
X32640Y-146440D01*
X32624Y-146461D01*
X32605Y-146482D01*
X32572Y-146530D01*
X32540Y-146586D01*
X32513Y-146650D01*
X32513Y-146653D01*
X32511Y-146659D01*
X32507Y-146669D01*
X32505Y-146682D01*
X32501Y-146698D01*
X32495Y-146717D01*
X32490Y-146740D01*
X32484Y-146763D01*
X32478Y-146790D01*
X32474Y-146819D01*
X32463Y-146882D01*
X32457Y-146948D01*
X32455Y-147019D01*
X32455Y-147021D01*
X32455Y-147030D01*
X32455Y-147042D01*
X32457Y-147061D01*
X32457Y-147082D01*
X32459Y-147107D01*
X32461Y-147134D01*
X32463Y-147165D01*
X32468Y-147198D01*
X32472Y-147232D01*
X32484Y-147304D01*
X32503Y-147377D01*
X32526Y-147448D01*
X32526Y-147450D01*
X32530Y-147457D01*
X32534Y-147465D01*
X32538Y-147477D01*
X32547Y-147494D01*
X32557Y-147511D01*
X32580Y-147550D01*
X32611Y-147596D01*
X32649Y-147640D01*
X32695Y-147684D01*
X32720Y-147702D01*
X32747Y-147721D01*
X32749Y-147721D01*
X32753Y-147725D01*
X32761Y-147729D01*
X32774Y-147736D01*
X32788Y-147742D01*
X32805Y-147750D01*
X32824Y-147756D01*
X32845Y-147765D01*
X32892Y-147781D01*
X32949Y-147796D01*
X33009Y-147806D01*
X33040Y-147809D01*
X33074Y-147811D01*
X33094Y-147811D01*
X33109Y-147809D01*
X33128Y-147806D01*
X33149Y-147804D01*
X33174Y-147800D01*
X33199Y-147796D01*
X33257Y-147781D01*
X33286Y-147771D01*
X33317Y-147759D01*
X33349Y-147744D01*
X33378Y-147727D01*
X33407Y-147709D01*
X33436Y-147688D01*
X33438Y-147686D01*
X33442Y-147681D01*
X33451Y-147675D01*
X33461Y-147665D01*
X33471Y-147652D01*
X33486Y-147636D01*
X33501Y-147617D01*
X33517Y-147596D01*
X33534Y-147571D01*
X33551Y-147544D01*
X33567Y-147515D01*
X33584Y-147482D01*
X33599Y-147446D01*
X33613Y-147407D01*
X33628Y-147365D01*
X33638Y-147321D01*
X33892Y-147386D01*
X33892Y-147390D01*
X33888Y-147400D01*
X33884Y-147415D01*
X33876Y-147438D01*
X33867Y-147463D01*
X33855Y-147494D01*
X33842Y-147527D01*
X33826Y-147563D01*
X33807Y-147602D01*
X33786Y-147640D01*
X33763Y-147681D01*
X33736Y-147721D01*
X33707Y-147759D01*
X33676Y-147796D01*
X33640Y-147831D01*
X33603Y-147865D01*
X33601Y-147867D01*
X33592Y-147871D01*
X33582Y-147879D01*
X33565Y-147890D01*
X33546Y-147902D01*
X33521Y-147917D01*
X33494Y-147931D01*
X33461Y-147946D01*
X33426Y-147961D01*
X33388Y-147975D01*
X33347Y-147990D01*
X33301Y-148002D01*
X33253Y-148013D01*
X33203Y-148021D01*
X33151Y-148025D01*
X33094Y-148027D01*
X33065Y-148027D01*
X33042Y-148025D01*
X33017Y-148023D01*
X32986Y-148021D01*
X32953Y-148017D01*
X32915Y-148011D01*
X32876Y-148004D01*
X32834Y-147996D01*
X32792Y-147986D01*
X32751Y-147975D01*
X32707Y-147961D01*
X32665Y-147944D01*
X32626Y-147925D01*
X32588Y-147902D01*
X32586Y-147900D01*
X32580Y-147896D01*
X32570Y-147890D01*
X32557Y-147879D01*
X32540Y-147865D01*
X32522Y-147850D01*
X32501Y-147831D01*
X32478Y-147809D01*
X32455Y-147784D01*
X32430Y-147756D01*
X32407Y-147727D01*
X32382Y-147694D01*
X32357Y-147659D01*
X32334Y-147621D01*
X32313Y-147579D01*
X32293Y-147536D01*
X32291Y-147534D01*
X32288Y-147525D01*
X32284Y-147511D01*
X32278Y-147494D01*
X32270Y-147471D01*
X32261Y-147446D01*
X32253Y-147415D01*
X32243Y-147382D01*
X32234Y-147344D01*
X32224Y-147304D01*
X32216Y-147263D01*
X32209Y-147217D01*
X32197Y-147121D01*
X32195Y-147071D01*
X32193Y-147021D01*
X32193Y-147017D01*
X32193Y-147009D01*
X32193Y-146992D01*
X32195Y-146971D01*
X32197Y-146944D01*
X32199Y-146913D01*
X32203Y-146880D01*
X32207Y-146842D01*
X32213Y-146803D01*
X32220Y-146761D01*
X32241Y-146671D01*
X32255Y-146628D01*
X32270Y-146584D01*
X32286Y-146538D01*
X32307Y-146496D01*
X32309Y-146494D01*
X32313Y-146486D01*
X32320Y-146476D01*
X32328Y-146459D01*
X32341Y-146440D01*
X32355Y-146419D01*
X32372Y-146396D01*
X32390Y-146369D01*
X32413Y-146344D01*
X32436Y-146315D01*
X32463Y-146288D01*
X32493Y-146259D01*
X32524Y-146232D01*
X32557Y-146205D01*
X32595Y-146180D01*
X32632Y-146157D01*
X32634Y-146155D01*
X32643Y-146153D01*
X32653Y-146146D01*
X32670Y-146138D01*
X32688Y-146130D01*
X32713Y-146119D01*
X32740Y-146109D01*
X32770Y-146099D01*
X32803Y-146088D01*
X32840Y-146078D01*
X32878Y-146067D01*
X32920Y-146059D01*
X33005Y-146044D01*
X33051Y-146042D01*
X33099Y-146040D01*
X33126Y-146040D01*
X33147Y-146042D01*
X33147Y-146042D02*
G37*
G36*
X4348Y-146042D02*
X4373Y-146044D01*
X4402Y-146049D01*
X4433Y-146053D01*
X4468Y-146059D01*
X4506Y-146067D01*
X4546Y-146076D01*
X4585Y-146088D01*
X4627Y-146103D01*
X4668Y-146119D01*
X4708Y-146140D01*
X4748Y-146161D01*
X4785Y-146188D01*
X4787Y-146190D01*
X4793Y-146194D01*
X4804Y-146203D01*
X4816Y-146215D01*
X4833Y-146230D01*
X4852Y-146249D01*
X4870Y-146269D01*
X4893Y-146294D01*
X4916Y-146321D01*
X4939Y-146353D01*
X4962Y-146386D01*
X4983Y-146423D01*
X5006Y-146463D01*
X5025Y-146507D01*
X5043Y-146553D01*
X5060Y-146601D01*
X4810Y-146659D01*
X4810Y-146657D01*
X4806Y-146650D01*
X4804Y-146638D01*
X4798Y-146623D01*
X4791Y-146607D01*
X4781Y-146588D01*
X4760Y-146542D01*
X4733Y-146492D01*
X4698Y-146440D01*
X4660Y-146392D01*
X4637Y-146371D01*
X4614Y-146353D01*
X4612Y-146351D01*
X4608Y-146348D01*
X4602Y-146344D01*
X4591Y-146338D01*
X4579Y-146330D01*
X4564Y-146321D01*
X4548Y-146313D01*
X4527Y-146305D01*
X4504Y-146296D01*
X4481Y-146288D01*
X4427Y-146271D01*
X4364Y-146261D01*
X4331Y-146257D01*
X4275Y-146257D01*
X4258Y-146259D01*
X4239Y-146261D01*
X4216Y-146263D01*
X4191Y-146265D01*
X4166Y-146269D01*
X4106Y-146284D01*
X4044Y-146303D01*
X4012Y-146315D01*
X3981Y-146330D01*
X3952Y-146346D01*
X3923Y-146365D01*
X3921Y-146367D01*
X3917Y-146369D01*
X3908Y-146376D01*
X3898Y-146384D01*
X3887Y-146394D01*
X3873Y-146409D01*
X3858Y-146423D01*
X3842Y-146440D01*
X3825Y-146461D01*
X3806Y-146482D01*
X3773Y-146530D01*
X3742Y-146586D01*
X3715Y-146650D01*
X3715Y-146653D01*
X3712Y-146659D01*
X3708Y-146669D01*
X3706Y-146682D01*
X3702Y-146698D01*
X3696Y-146717D01*
X3692Y-146740D01*
X3685Y-146763D01*
X3679Y-146790D01*
X3675Y-146819D01*
X3665Y-146882D01*
X3658Y-146948D01*
X3656Y-147019D01*
X3656Y-147021D01*
X3656Y-147030D01*
X3656Y-147042D01*
X3658Y-147061D01*
X3658Y-147082D01*
X3660Y-147107D01*
X3662Y-147134D01*
X3665Y-147165D01*
X3669Y-147198D01*
X3673Y-147232D01*
X3685Y-147305D01*
X3704Y-147377D01*
X3727Y-147448D01*
X3727Y-147450D01*
X3731Y-147457D01*
X3735Y-147465D01*
X3740Y-147477D01*
X3748Y-147494D01*
X3758Y-147511D01*
X3781Y-147550D01*
X3812Y-147596D01*
X3850Y-147640D01*
X3896Y-147684D01*
X3921Y-147702D01*
X3948Y-147721D01*
X3950Y-147721D01*
X3954Y-147725D01*
X3962Y-147729D01*
X3975Y-147736D01*
X3989Y-147742D01*
X4006Y-147750D01*
X4025Y-147756D01*
X4046Y-147765D01*
X4094Y-147781D01*
X4150Y-147796D01*
X4210Y-147806D01*
X4241Y-147809D01*
X4275Y-147811D01*
X4296Y-147811D01*
X4310Y-147809D01*
X4329Y-147806D01*
X4350Y-147804D01*
X4375Y-147800D01*
X4400Y-147796D01*
X4458Y-147781D01*
X4487Y-147771D01*
X4518Y-147759D01*
X4550Y-147744D01*
X4579Y-147727D01*
X4608Y-147709D01*
X4637Y-147688D01*
X4639Y-147686D01*
X4643Y-147681D01*
X4652Y-147675D01*
X4662Y-147665D01*
X4673Y-147652D01*
X4687Y-147636D01*
X4702Y-147617D01*
X4718Y-147596D01*
X4735Y-147571D01*
X4752Y-147544D01*
X4768Y-147515D01*
X4785Y-147482D01*
X4800Y-147446D01*
X4814Y-147407D01*
X4829Y-147365D01*
X4839Y-147321D01*
X5093Y-147386D01*
X5093Y-147390D01*
X5089Y-147400D01*
X5085Y-147415D01*
X5077Y-147438D01*
X5068Y-147463D01*
X5056Y-147494D01*
X5043Y-147527D01*
X5027Y-147563D01*
X5008Y-147602D01*
X4987Y-147640D01*
X4964Y-147681D01*
X4937Y-147721D01*
X4908Y-147759D01*
X4877Y-147796D01*
X4841Y-147831D01*
X4804Y-147865D01*
X4802Y-147867D01*
X4793Y-147871D01*
X4783Y-147879D01*
X4766Y-147890D01*
X4748Y-147902D01*
X4723Y-147917D01*
X4696Y-147931D01*
X4662Y-147946D01*
X4627Y-147961D01*
X4589Y-147975D01*
X4548Y-147990D01*
X4502Y-148002D01*
X4454Y-148013D01*
X4404Y-148021D01*
X4352Y-148025D01*
X4296Y-148027D01*
X4266Y-148027D01*
X4244Y-148025D01*
X4219Y-148023D01*
X4187Y-148021D01*
X4154Y-148017D01*
X4116Y-148011D01*
X4077Y-148004D01*
X4035Y-147996D01*
X3994Y-147986D01*
X3952Y-147975D01*
X3908Y-147961D01*
X3867Y-147944D01*
X3827Y-147925D01*
X3789Y-147902D01*
X3787Y-147900D01*
X3781Y-147896D01*
X3771Y-147890D01*
X3758Y-147879D01*
X3742Y-147865D01*
X3723Y-147850D01*
X3702Y-147831D01*
X3679Y-147809D01*
X3656Y-147784D01*
X3631Y-147756D01*
X3608Y-147727D01*
X3583Y-147694D01*
X3558Y-147659D01*
X3535Y-147621D01*
X3515Y-147579D01*
X3494Y-147536D01*
X3492Y-147534D01*
X3490Y-147525D01*
X3485Y-147511D01*
X3479Y-147494D01*
X3471Y-147471D01*
X3462Y-147446D01*
X3454Y-147415D01*
X3444Y-147382D01*
X3435Y-147344D01*
X3425Y-147305D01*
X3417Y-147263D01*
X3410Y-147217D01*
X3398Y-147121D01*
X3396Y-147071D01*
X3394Y-147021D01*
X3394Y-147017D01*
X3394Y-147009D01*
X3394Y-146992D01*
X3396Y-146971D01*
X3398Y-146944D01*
X3400Y-146913D01*
X3404Y-146880D01*
X3408Y-146842D01*
X3415Y-146803D01*
X3421Y-146761D01*
X3442Y-146671D01*
X3456Y-146628D01*
X3471Y-146584D01*
X3487Y-146538D01*
X3508Y-146496D01*
X3510Y-146494D01*
X3515Y-146486D01*
X3521Y-146476D01*
X3529Y-146459D01*
X3542Y-146440D01*
X3556Y-146419D01*
X3573Y-146396D01*
X3592Y-146369D01*
X3615Y-146344D01*
X3637Y-146315D01*
X3665Y-146288D01*
X3694Y-146259D01*
X3725Y-146232D01*
X3758Y-146205D01*
X3796Y-146180D01*
X3833Y-146157D01*
X3835Y-146155D01*
X3844Y-146153D01*
X3854Y-146146D01*
X3871Y-146138D01*
X3889Y-146130D01*
X3914Y-146119D01*
X3942Y-146109D01*
X3971Y-146099D01*
X4004Y-146088D01*
X4042Y-146078D01*
X4079Y-146067D01*
X4121Y-146059D01*
X4206Y-146044D01*
X4252Y-146042D01*
X4300Y-146040D01*
X4327Y-146040D01*
X4348Y-146042D01*
X4348Y-146042D02*
G37*
G36*
X25723Y-147996D02*
X25469Y-147996D01*
X25469Y-147090D01*
X24472Y-147090D01*
X24472Y-147996D01*
X24218Y-147996D01*
X24218Y-146074D01*
X24472Y-146074D01*
X24472Y-146863D01*
X25469Y-146863D01*
X25469Y-146074D01*
X25723Y-146074D01*
X25723Y-147996D01*
X25723Y-147996D02*
G37*
G36*
X45412Y-147996D02*
X45150Y-147996D01*
X44142Y-146488D01*
X44142Y-147996D01*
X43898Y-147996D01*
X43898Y-146074D01*
X44158Y-146074D01*
X45168Y-147584D01*
X45168Y-146074D01*
X45412Y-146074D01*
X45412Y-147996D01*
X45412Y-147996D02*
G37*
G36*
X41982Y-147996D02*
X41719Y-147996D01*
X40711Y-146488D01*
X40711Y-147996D01*
X40468Y-147996D01*
X40468Y-146074D01*
X40728Y-146074D01*
X41738Y-147584D01*
X41738Y-146074D01*
X41982Y-146074D01*
X41982Y-147996D01*
X41982Y-147996D02*
G37*
G36*
X21395Y-147996D02*
X21133Y-147996D01*
X20125Y-146488D01*
X20125Y-147996D01*
X19881Y-147996D01*
X19881Y-146074D01*
X20142Y-146074D01*
X21152Y-147584D01*
X21152Y-146074D01*
X21395Y-146074D01*
X21395Y-147996D01*
X21395Y-147996D02*
G37*
G36*
X57930Y-147996D02*
X57661Y-147996D01*
X57661Y-147727D01*
X57930Y-147727D01*
X57930Y-147996D01*
X57930Y-147996D02*
G37*
G36*
X56422Y-146076D02*
X56447Y-146076D01*
X56472Y-146078D01*
X56528Y-146080D01*
X56584Y-146086D01*
X56641Y-146092D01*
X56666Y-146099D01*
X56688Y-146103D01*
X56691Y-146103D01*
X56697Y-146105D01*
X56705Y-146107D01*
X56716Y-146111D01*
X56730Y-146115D01*
X56747Y-146119D01*
X56786Y-146134D01*
X56830Y-146153D01*
X56876Y-146176D01*
X56924Y-146205D01*
X56970Y-146240D01*
X56972Y-146242D01*
X56976Y-146246D01*
X56984Y-146253D01*
X56995Y-146263D01*
X57007Y-146276D01*
X57022Y-146292D01*
X57038Y-146309D01*
X57055Y-146330D01*
X57074Y-146353D01*
X57093Y-146378D01*
X57111Y-146405D01*
X57130Y-146434D01*
X57165Y-146498D01*
X57197Y-146569D01*
X57197Y-146571D01*
X57201Y-146578D01*
X57203Y-146590D01*
X57209Y-146605D01*
X57215Y-146623D01*
X57222Y-146646D01*
X57228Y-146671D01*
X57236Y-146700D01*
X57242Y-146734D01*
X57249Y-146769D01*
X57255Y-146807D01*
X57261Y-146846D01*
X57267Y-146888D01*
X57270Y-146932D01*
X57274Y-147025D01*
X57274Y-147027D01*
X57274Y-147036D01*
X57274Y-147046D01*
X57274Y-147063D01*
X57272Y-147082D01*
X57272Y-147105D01*
X57270Y-147130D01*
X57267Y-147157D01*
X57261Y-147217D01*
X57251Y-147282D01*
X57238Y-147348D01*
X57222Y-147415D01*
X57222Y-147417D01*
X57220Y-147423D01*
X57215Y-147432D01*
X57213Y-147442D01*
X57207Y-147457D01*
X57201Y-147473D01*
X57186Y-147513D01*
X57167Y-147557D01*
X57145Y-147604D01*
X57120Y-147650D01*
X57090Y-147694D01*
X57090Y-147696D01*
X57086Y-147698D01*
X57082Y-147704D01*
X57076Y-147713D01*
X57061Y-147731D01*
X57038Y-147756D01*
X57013Y-147786D01*
X56984Y-147815D01*
X56951Y-147842D01*
X56915Y-147869D01*
X56913Y-147869D01*
X56911Y-147871D01*
X56899Y-147879D01*
X56878Y-147890D01*
X56851Y-147904D01*
X56818Y-147919D01*
X56778Y-147936D01*
X56732Y-147950D01*
X56684Y-147965D01*
X56682Y-147965D01*
X56678Y-147967D01*
X56672Y-147967D01*
X56661Y-147969D01*
X56649Y-147971D01*
X56632Y-147975D01*
X56616Y-147977D01*
X56597Y-147979D01*
X56551Y-147986D01*
X56499Y-147992D01*
X56441Y-147994D01*
X56378Y-147996D01*
X55685Y-147996D01*
X55685Y-146074D01*
X56401Y-146074D01*
X56422Y-146076D01*
X56422Y-146076D02*
G37*
G36*
X55291Y-146301D02*
X54154Y-146301D01*
X54154Y-146888D01*
X55218Y-146888D01*
X55218Y-147115D01*
X54154Y-147115D01*
X54154Y-147769D01*
X55335Y-147769D01*
X55335Y-147996D01*
X53900Y-147996D01*
X53900Y-146074D01*
X55291Y-146074D01*
X55291Y-146301D01*
X55291Y-146301D02*
G37*
G36*
X53631Y-146301D02*
X52998Y-146301D01*
X52998Y-147996D01*
X52744Y-147996D01*
X52744Y-146301D01*
X52110Y-146301D01*
X52110Y-146074D01*
X53631Y-146074D01*
X53631Y-146301D01*
X53631Y-146301D02*
G37*
G36*
X52052Y-147996D02*
X51763Y-147996D01*
X51540Y-147415D01*
X50732Y-147415D01*
X50523Y-147996D01*
X50255Y-147996D01*
X50990Y-146074D01*
X51265Y-146074D01*
X52052Y-147996D01*
X52052Y-147996D02*
G37*
G36*
X48076Y-147996D02*
X47822Y-147996D01*
X47822Y-146074D01*
X48076Y-146074D01*
X48076Y-147996D01*
X48076Y-147996D02*
G37*
G36*
X46576Y-146076D02*
X46601Y-146076D01*
X46626Y-146078D01*
X46683Y-146080D01*
X46739Y-146086D01*
X46795Y-146092D01*
X46820Y-146099D01*
X46843Y-146103D01*
X46845Y-146103D01*
X46851Y-146105D01*
X46860Y-146107D01*
X46870Y-146111D01*
X46885Y-146115D01*
X46901Y-146119D01*
X46941Y-146134D01*
X46985Y-146153D01*
X47030Y-146176D01*
X47078Y-146205D01*
X47124Y-146240D01*
X47126Y-146242D01*
X47130Y-146246D01*
X47139Y-146253D01*
X47149Y-146263D01*
X47162Y-146276D01*
X47176Y-146292D01*
X47193Y-146309D01*
X47210Y-146330D01*
X47228Y-146353D01*
X47247Y-146378D01*
X47266Y-146405D01*
X47285Y-146434D01*
X47320Y-146498D01*
X47351Y-146569D01*
X47351Y-146571D01*
X47355Y-146578D01*
X47357Y-146590D01*
X47364Y-146605D01*
X47370Y-146623D01*
X47376Y-146646D01*
X47382Y-146671D01*
X47391Y-146700D01*
X47397Y-146734D01*
X47403Y-146769D01*
X47410Y-146807D01*
X47416Y-146846D01*
X47422Y-146888D01*
X47424Y-146932D01*
X47428Y-147025D01*
X47428Y-147027D01*
X47428Y-147036D01*
X47428Y-147046D01*
X47428Y-147063D01*
X47426Y-147082D01*
X47426Y-147105D01*
X47424Y-147130D01*
X47422Y-147157D01*
X47416Y-147217D01*
X47405Y-147282D01*
X47393Y-147348D01*
X47376Y-147415D01*
X47376Y-147417D01*
X47374Y-147423D01*
X47370Y-147432D01*
X47368Y-147442D01*
X47362Y-147457D01*
X47355Y-147473D01*
X47341Y-147513D01*
X47322Y-147557D01*
X47299Y-147604D01*
X47274Y-147650D01*
X47245Y-147694D01*
X47245Y-147696D01*
X47241Y-147698D01*
X47237Y-147704D01*
X47230Y-147713D01*
X47216Y-147731D01*
X47193Y-147756D01*
X47168Y-147786D01*
X47139Y-147815D01*
X47105Y-147842D01*
X47070Y-147869D01*
X47068Y-147869D01*
X47066Y-147871D01*
X47053Y-147879D01*
X47033Y-147890D01*
X47006Y-147904D01*
X46972Y-147919D01*
X46933Y-147936D01*
X46887Y-147950D01*
X46839Y-147965D01*
X46837Y-147965D01*
X46833Y-147967D01*
X46826Y-147967D01*
X46816Y-147969D01*
X46803Y-147971D01*
X46787Y-147975D01*
X46770Y-147977D01*
X46751Y-147979D01*
X46706Y-147986D01*
X46654Y-147992D01*
X46595Y-147994D01*
X46533Y-147996D01*
X45839Y-147996D01*
X45839Y-146074D01*
X46556Y-146074D01*
X46576Y-146076D01*
X46576Y-146076D02*
G37*
G36*
X43452Y-147996D02*
X43198Y-147996D01*
X43198Y-146074D01*
X43452Y-146074D01*
X43452Y-147996D01*
X43452Y-147996D02*
G37*
G36*
X37933Y-147996D02*
X37679Y-147996D01*
X37679Y-146074D01*
X37933Y-146074D01*
X37933Y-147996D01*
X37933Y-147996D02*
G37*
G36*
X37373Y-146301D02*
X36739Y-146301D01*
X36739Y-147996D01*
X36485Y-147996D01*
X36485Y-146301D01*
X35852Y-146301D01*
X35852Y-146074D01*
X37373Y-146074D01*
X37373Y-146301D01*
X37373Y-146301D02*
G37*
G36*
X35794Y-147996D02*
X35504Y-147996D01*
X35281Y-147415D01*
X34473Y-147415D01*
X34265Y-147996D01*
X33996Y-147996D01*
X34732Y-146074D01*
X35007Y-146074D01*
X35794Y-147996D01*
X35794Y-147996D02*
G37*
G36*
X28927Y-147769D02*
X29874Y-147769D01*
X29874Y-147996D01*
X28673Y-147996D01*
X28673Y-146074D01*
X28927Y-146074D01*
X28927Y-147769D01*
X28927Y-147769D02*
G37*
G36*
X27544Y-146301D02*
X26407Y-146301D01*
X26407Y-146888D01*
X27471Y-146888D01*
X27471Y-147115D01*
X26407Y-147115D01*
X26407Y-147769D01*
X27588Y-147769D01*
X27588Y-147996D01*
X26153Y-147996D01*
X26153Y-146074D01*
X27544Y-146074D01*
X27544Y-146301D01*
X27544Y-146301D02*
G37*
G36*
X23945Y-146301D02*
X23312Y-146301D01*
X23312Y-147996D01*
X23057Y-147996D01*
X23057Y-146301D01*
X22424Y-146301D01*
X22424Y-146074D01*
X23945Y-146074D01*
X23945Y-146301D01*
X23945Y-146301D02*
G37*
G36*
X15053Y-147769D02*
X16001Y-147769D01*
X16001Y-147996D01*
X14799Y-147996D01*
X14799Y-146074D01*
X15053Y-146074D01*
X15053Y-147769D01*
X15053Y-147769D02*
G37*
G36*
X14416Y-146301D02*
X13279Y-146301D01*
X13279Y-146888D01*
X14343Y-146888D01*
X14343Y-147115D01*
X13279Y-147115D01*
X13279Y-147769D01*
X14460Y-147769D01*
X14460Y-147996D01*
X13025Y-147996D01*
X13025Y-146074D01*
X14416Y-146074D01*
X14416Y-146301D01*
X14416Y-146301D02*
G37*
G36*
X11992Y-146076D02*
X12014Y-146076D01*
X12037Y-146078D01*
X12064Y-146082D01*
X12119Y-146088D01*
X12179Y-146099D01*
X12235Y-146113D01*
X12289Y-146134D01*
X12291Y-146134D01*
X12296Y-146136D01*
X12302Y-146140D01*
X12312Y-146144D01*
X12335Y-146159D01*
X12366Y-146178D01*
X12400Y-146203D01*
X12433Y-146234D01*
X12466Y-146271D01*
X12498Y-146313D01*
X12498Y-146315D01*
X12502Y-146319D01*
X12504Y-146326D01*
X12510Y-146334D01*
X12516Y-146344D01*
X12523Y-146359D01*
X12537Y-146390D01*
X12550Y-146428D01*
X12562Y-146471D01*
X12571Y-146517D01*
X12575Y-146567D01*
X12575Y-146569D01*
X12575Y-146573D01*
X12575Y-146580D01*
X12575Y-146588D01*
X12571Y-146611D01*
X12566Y-146642D01*
X12558Y-146678D01*
X12546Y-146717D01*
X12529Y-146757D01*
X12506Y-146798D01*
X12506Y-146800D01*
X12504Y-146803D01*
X12500Y-146809D01*
X12494Y-146817D01*
X12479Y-146836D01*
X12456Y-146861D01*
X12429Y-146888D01*
X12394Y-146917D01*
X12354Y-146946D01*
X12306Y-146973D01*
X12308Y-146973D01*
X12314Y-146975D01*
X12323Y-146980D01*
X12335Y-146984D01*
X12350Y-146990D01*
X12366Y-146996D01*
X12404Y-147015D01*
X12448Y-147038D01*
X12491Y-147069D01*
X12535Y-147105D01*
X12573Y-147148D01*
X12575Y-147150D01*
X12577Y-147155D01*
X12581Y-147161D01*
X12587Y-147169D01*
X12596Y-147182D01*
X12604Y-147196D01*
X12612Y-147213D01*
X12621Y-147232D01*
X12637Y-147273D01*
X12654Y-147323D01*
X12664Y-147379D01*
X12668Y-147409D01*
X12668Y-147440D01*
X12668Y-147442D01*
X12668Y-147446D01*
X12668Y-147452D01*
X12668Y-147463D01*
X12666Y-147475D01*
X12666Y-147488D01*
X12662Y-147521D01*
X12654Y-147561D01*
X12643Y-147602D01*
X12629Y-147648D01*
X12610Y-147692D01*
X12610Y-147694D01*
X12608Y-147696D01*
X12604Y-147702D01*
X12600Y-147711D01*
X12587Y-147731D01*
X12571Y-147756D01*
X12552Y-147786D01*
X12527Y-147815D01*
X12500Y-147844D01*
X12469Y-147871D01*
X12464Y-147873D01*
X12454Y-147881D01*
X12435Y-147892D01*
X12410Y-147906D01*
X12381Y-147921D01*
X12346Y-147938D01*
X12304Y-147952D01*
X12258Y-147965D01*
X12256Y-147965D01*
X12252Y-147967D01*
X12246Y-147967D01*
X12235Y-147969D01*
X12223Y-147971D01*
X12208Y-147975D01*
X12192Y-147977D01*
X12173Y-147979D01*
X12152Y-147983D01*
X12127Y-147986D01*
X12075Y-147992D01*
X12014Y-147994D01*
X11948Y-147996D01*
X11217Y-147996D01*
X11217Y-146074D01*
X11973Y-146074D01*
X11992Y-146076D01*
X11992Y-146076D02*
G37*
G36*
X11025Y-147996D02*
X10736Y-147996D01*
X10513Y-147415D01*
X9705Y-147415D01*
X9496Y-147996D01*
X9228Y-147996D01*
X9963Y-146074D01*
X10238Y-146074D01*
X11025Y-147996D01*
X11025Y-147996D02*
G37*
G36*
X8186Y-147769D02*
X9134Y-147769D01*
X9134Y-147996D01*
X7932Y-147996D01*
X7932Y-146074D01*
X8186Y-146074D01*
X8186Y-147769D01*
X8186Y-147769D02*
G37*
G36*
X6803Y-146301D02*
X5666Y-146301D01*
X5666Y-146888D01*
X6730Y-146888D01*
X6730Y-147115D01*
X5666Y-147115D01*
X5666Y-147769D01*
X6847Y-147769D01*
X6847Y-147996D01*
X5412Y-147996D01*
X5412Y-146074D01*
X6803Y-146074D01*
X6803Y-146301D01*
X6803Y-146301D02*
G37*
G36*
X3265Y-147996D02*
X2975Y-147996D01*
X2752Y-147415D01*
X1944Y-147415D01*
X1736Y-147996D01*
X1467Y-147996D01*
X2202Y-146074D01*
X2477Y-146074D01*
X3265Y-147996D01*
X3265Y-147996D02*
G37*
G36*
X426Y-147769D02*
X1373Y-147769D01*
X1373Y-147996D01*
X172Y-147996D01*
X172Y-146074D01*
X426Y-146074D01*
X426Y-147769D01*
X426Y-147769D02*
G37*
G36*
X-776Y-146076D02*
X-728Y-146078D01*
X-680Y-146082D01*
X-634Y-146086D01*
X-611Y-146088D01*
X-593Y-146092D01*
X-591Y-146092D01*
X-586Y-146094D01*
X-578Y-146094D01*
X-570Y-146096D01*
X-557Y-146101D01*
X-543Y-146103D01*
X-509Y-146113D01*
X-472Y-146126D01*
X-432Y-146142D01*
X-393Y-146161D01*
X-355Y-146184D01*
X-353Y-146184D01*
X-351Y-146186D01*
X-339Y-146196D01*
X-322Y-146211D01*
X-299Y-146232D01*
X-276Y-146257D01*
X-249Y-146290D01*
X-224Y-146326D01*
X-201Y-146369D01*
X-201Y-146371D01*
X-199Y-146376D01*
X-195Y-146382D01*
X-191Y-146390D01*
X-187Y-146401D01*
X-182Y-146415D01*
X-170Y-146446D01*
X-160Y-146486D01*
X-149Y-146530D01*
X-143Y-146580D01*
X-141Y-146632D01*
X-141Y-146634D01*
X-141Y-146642D01*
X-141Y-146655D01*
X-143Y-146673D01*
X-145Y-146694D01*
X-149Y-146717D01*
X-153Y-146744D01*
X-160Y-146775D01*
X-168Y-146807D01*
X-178Y-146840D01*
X-191Y-146873D01*
X-207Y-146909D01*
X-224Y-146944D01*
X-245Y-146980D01*
X-270Y-147013D01*
X-297Y-147046D01*
X-299Y-147048D01*
X-305Y-147052D01*
X-314Y-147061D01*
X-328Y-147073D01*
X-345Y-147086D01*
X-368Y-147100D01*
X-395Y-147115D01*
X-426Y-147130D01*
X-464Y-147146D01*
X-503Y-147161D01*
X-551Y-147175D01*
X-601Y-147188D01*
X-659Y-147198D01*
X-722Y-147207D01*
X-789Y-147213D01*
X-863Y-147215D01*
X-1355Y-147215D01*
X-1355Y-147996D01*
X-1609Y-147996D01*
X-1609Y-146074D01*
X-818Y-146074D01*
X-776Y-146076D01*
X-776Y-146076D02*
G37*
G36*
X-2794Y-147996D02*
X-3063Y-147996D01*
X-3063Y-147727D01*
X-2794Y-147727D01*
X-2794Y-147996D01*
X-2794Y-147996D02*
G37*
G36*
X39268Y-146042D02*
X39293Y-146044D01*
X39320Y-146046D01*
X39349Y-146051D01*
X39382Y-146057D01*
X39420Y-146063D01*
X39457Y-146071D01*
X39497Y-146082D01*
X39539Y-146094D01*
X39580Y-146109D01*
X39622Y-146126D01*
X39662Y-146144D01*
X39703Y-146167D01*
X39705Y-146169D01*
X39714Y-146174D01*
X39724Y-146180D01*
X39739Y-146190D01*
X39757Y-146203D01*
X39776Y-146219D01*
X39799Y-146238D01*
X39824Y-146259D01*
X39851Y-146284D01*
X39878Y-146311D01*
X39905Y-146340D01*
X39932Y-146371D01*
X39957Y-146405D01*
X39984Y-146442D01*
X40007Y-146482D01*
X40030Y-146523D01*
X40032Y-146526D01*
X40034Y-146534D01*
X40041Y-146546D01*
X40047Y-146563D01*
X40057Y-146584D01*
X40066Y-146611D01*
X40076Y-146640D01*
X40086Y-146673D01*
X40097Y-146709D01*
X40107Y-146748D01*
X40118Y-146792D01*
X40126Y-146836D01*
X40132Y-146884D01*
X40139Y-146934D01*
X40141Y-146984D01*
X40143Y-147038D01*
X40143Y-147042D01*
X40143Y-147050D01*
X40143Y-147067D01*
X40141Y-147088D01*
X40139Y-147113D01*
X40136Y-147142D01*
X40132Y-147175D01*
X40128Y-147213D01*
X40122Y-147252D01*
X40114Y-147294D01*
X40105Y-147338D01*
X40093Y-147382D01*
X40078Y-147427D01*
X40064Y-147471D01*
X40045Y-147517D01*
X40024Y-147561D01*
X40022Y-147563D01*
X40018Y-147571D01*
X40011Y-147584D01*
X40003Y-147598D01*
X39991Y-147617D01*
X39976Y-147640D01*
X39957Y-147665D01*
X39939Y-147692D01*
X39916Y-147719D01*
X39891Y-147748D01*
X39862Y-147777D01*
X39832Y-147806D01*
X39801Y-147834D01*
X39766Y-147861D01*
X39728Y-147888D01*
X39689Y-147911D01*
X39687Y-147913D01*
X39678Y-147915D01*
X39668Y-147921D01*
X39651Y-147929D01*
X39630Y-147938D01*
X39607Y-147948D01*
X39580Y-147958D01*
X39549Y-147969D01*
X39516Y-147979D01*
X39480Y-147990D01*
X39441Y-148000D01*
X39401Y-148008D01*
X39314Y-148023D01*
X39268Y-148025D01*
X39222Y-148027D01*
X39195Y-148027D01*
X39176Y-148025D01*
X39153Y-148023D01*
X39124Y-148021D01*
X39095Y-148017D01*
X39060Y-148011D01*
X39024Y-148004D01*
X38985Y-147996D01*
X38945Y-147986D01*
X38903Y-147973D01*
X38862Y-147958D01*
X38820Y-147940D01*
X38778Y-147921D01*
X38737Y-147898D01*
X38735Y-147896D01*
X38728Y-147892D01*
X38716Y-147884D01*
X38701Y-147873D01*
X38685Y-147861D01*
X38664Y-147844D01*
X38641Y-147825D01*
X38616Y-147804D01*
X38589Y-147779D01*
X38564Y-147752D01*
X38537Y-147723D01*
X38510Y-147692D01*
X38483Y-147656D01*
X38458Y-147621D01*
X38435Y-147581D01*
X38412Y-147540D01*
X38410Y-147538D01*
X38408Y-147529D01*
X38401Y-147517D01*
X38395Y-147500D01*
X38387Y-147479D01*
X38379Y-147454D01*
X38368Y-147427D01*
X38358Y-147394D01*
X38347Y-147361D01*
X38337Y-147323D01*
X38329Y-147284D01*
X38320Y-147242D01*
X38308Y-147155D01*
X38306Y-147107D01*
X38304Y-147061D01*
X38304Y-147059D01*
X38304Y-147055D01*
X38304Y-147048D01*
X38304Y-147040D01*
X38306Y-147027D01*
X38306Y-147015D01*
X38308Y-146982D01*
X38312Y-146942D01*
X38318Y-146894D01*
X38324Y-146844D01*
X38335Y-146788D01*
X38349Y-146728D01*
X38366Y-146667D01*
X38387Y-146605D01*
X38412Y-146542D01*
X38441Y-146480D01*
X38474Y-146421D01*
X38514Y-146363D01*
X38560Y-146311D01*
X38562Y-146309D01*
X38572Y-146298D01*
X38587Y-146286D01*
X38606Y-146269D01*
X38633Y-146249D01*
X38662Y-146226D01*
X38697Y-146201D01*
X38739Y-146176D01*
X38785Y-146151D01*
X38835Y-146126D01*
X38889Y-146103D01*
X38949Y-146082D01*
X39012Y-146065D01*
X39078Y-146053D01*
X39149Y-146042D01*
X39224Y-146040D01*
X39249Y-146040D01*
X39268Y-146042D01*
X39268Y-146042D02*
G37*
G36*
X31064Y-146042D02*
X31089Y-146044D01*
X31116Y-146046D01*
X31145Y-146051D01*
X31178Y-146057D01*
X31216Y-146063D01*
X31253Y-146071D01*
X31293Y-146082D01*
X31335Y-146094D01*
X31376Y-146109D01*
X31418Y-146126D01*
X31457Y-146144D01*
X31499Y-146167D01*
X31501Y-146169D01*
X31509Y-146174D01*
X31520Y-146180D01*
X31534Y-146190D01*
X31553Y-146203D01*
X31572Y-146219D01*
X31595Y-146238D01*
X31620Y-146259D01*
X31647Y-146284D01*
X31674Y-146311D01*
X31701Y-146340D01*
X31728Y-146371D01*
X31753Y-146405D01*
X31780Y-146442D01*
X31803Y-146482D01*
X31826Y-146523D01*
X31828Y-146526D01*
X31830Y-146534D01*
X31836Y-146546D01*
X31843Y-146563D01*
X31853Y-146584D01*
X31861Y-146611D01*
X31872Y-146640D01*
X31882Y-146673D01*
X31893Y-146709D01*
X31903Y-146748D01*
X31914Y-146792D01*
X31922Y-146836D01*
X31928Y-146884D01*
X31934Y-146934D01*
X31936Y-146984D01*
X31939Y-147038D01*
X31939Y-147042D01*
X31939Y-147050D01*
X31939Y-147067D01*
X31936Y-147088D01*
X31934Y-147113D01*
X31932Y-147142D01*
X31928Y-147175D01*
X31924Y-147213D01*
X31918Y-147252D01*
X31909Y-147294D01*
X31901Y-147338D01*
X31889Y-147382D01*
X31874Y-147427D01*
X31859Y-147471D01*
X31841Y-147517D01*
X31820Y-147561D01*
X31818Y-147563D01*
X31814Y-147571D01*
X31807Y-147584D01*
X31799Y-147598D01*
X31786Y-147617D01*
X31772Y-147640D01*
X31753Y-147665D01*
X31734Y-147692D01*
X31712Y-147719D01*
X31687Y-147748D01*
X31657Y-147777D01*
X31628Y-147806D01*
X31597Y-147834D01*
X31562Y-147861D01*
X31524Y-147888D01*
X31484Y-147911D01*
X31482Y-147913D01*
X31474Y-147915D01*
X31464Y-147921D01*
X31447Y-147929D01*
X31426Y-147938D01*
X31403Y-147948D01*
X31376Y-147958D01*
X31345Y-147969D01*
X31312Y-147979D01*
X31276Y-147990D01*
X31237Y-148000D01*
X31197Y-148008D01*
X31110Y-148023D01*
X31064Y-148025D01*
X31018Y-148027D01*
X30991Y-148027D01*
X30972Y-148025D01*
X30949Y-148023D01*
X30920Y-148021D01*
X30891Y-148017D01*
X30855Y-148011D01*
X30820Y-148004D01*
X30781Y-147996D01*
X30741Y-147986D01*
X30699Y-147973D01*
X30658Y-147958D01*
X30616Y-147940D01*
X30574Y-147921D01*
X30533Y-147898D01*
X30531Y-147896D01*
X30524Y-147892D01*
X30512Y-147884D01*
X30497Y-147873D01*
X30481Y-147861D01*
X30460Y-147844D01*
X30437Y-147825D01*
X30412Y-147804D01*
X30385Y-147779D01*
X30360Y-147752D01*
X30333Y-147723D01*
X30306Y-147692D01*
X30279Y-147656D01*
X30254Y-147621D01*
X30231Y-147582D01*
X30208Y-147540D01*
X30206Y-147538D01*
X30204Y-147529D01*
X30197Y-147517D01*
X30191Y-147500D01*
X30183Y-147479D01*
X30174Y-147454D01*
X30164Y-147427D01*
X30154Y-147394D01*
X30143Y-147361D01*
X30133Y-147323D01*
X30124Y-147284D01*
X30116Y-147242D01*
X30104Y-147155D01*
X30101Y-147107D01*
X30099Y-147061D01*
X30099Y-147059D01*
X30099Y-147055D01*
X30099Y-147048D01*
X30099Y-147040D01*
X30101Y-147027D01*
X30101Y-147015D01*
X30104Y-146982D01*
X30108Y-146942D01*
X30114Y-146894D01*
X30120Y-146844D01*
X30131Y-146788D01*
X30145Y-146728D01*
X30162Y-146667D01*
X30183Y-146605D01*
X30208Y-146542D01*
X30237Y-146480D01*
X30270Y-146421D01*
X30310Y-146363D01*
X30356Y-146311D01*
X30358Y-146309D01*
X30368Y-146298D01*
X30383Y-146286D01*
X30401Y-146269D01*
X30428Y-146249D01*
X30458Y-146226D01*
X30493Y-146201D01*
X30535Y-146176D01*
X30581Y-146151D01*
X30631Y-146126D01*
X30685Y-146103D01*
X30745Y-146082D01*
X30808Y-146065D01*
X30874Y-146053D01*
X30945Y-146042D01*
X31020Y-146040D01*
X31045Y-146040D01*
X31064Y-146042D01*
X31064Y-146042D02*
G37*
G36*
X18682Y-146042D02*
X18707Y-146044D01*
X18734Y-146046D01*
X18763Y-146051D01*
X18796Y-146057D01*
X18834Y-146063D01*
X18871Y-146071D01*
X18911Y-146082D01*
X18952Y-146094D01*
X18994Y-146109D01*
X19036Y-146126D01*
X19075Y-146144D01*
X19117Y-146167D01*
X19119Y-146169D01*
X19127Y-146174D01*
X19138Y-146180D01*
X19152Y-146190D01*
X19171Y-146203D01*
X19190Y-146219D01*
X19213Y-146238D01*
X19238Y-146259D01*
X19265Y-146284D01*
X19292Y-146311D01*
X19319Y-146340D01*
X19346Y-146371D01*
X19371Y-146405D01*
X19398Y-146442D01*
X19421Y-146482D01*
X19444Y-146523D01*
X19446Y-146526D01*
X19448Y-146534D01*
X19454Y-146546D01*
X19460Y-146563D01*
X19471Y-146584D01*
X19479Y-146611D01*
X19490Y-146640D01*
X19500Y-146673D01*
X19510Y-146709D01*
X19521Y-146748D01*
X19531Y-146792D01*
X19540Y-146836D01*
X19546Y-146884D01*
X19552Y-146934D01*
X19554Y-146984D01*
X19556Y-147038D01*
X19556Y-147042D01*
X19556Y-147050D01*
X19556Y-147067D01*
X19554Y-147088D01*
X19552Y-147113D01*
X19550Y-147142D01*
X19546Y-147175D01*
X19542Y-147213D01*
X19535Y-147252D01*
X19527Y-147294D01*
X19519Y-147338D01*
X19506Y-147382D01*
X19492Y-147427D01*
X19477Y-147471D01*
X19458Y-147517D01*
X19438Y-147561D01*
X19435Y-147563D01*
X19431Y-147571D01*
X19425Y-147584D01*
X19417Y-147598D01*
X19404Y-147617D01*
X19390Y-147640D01*
X19371Y-147665D01*
X19352Y-147692D01*
X19329Y-147719D01*
X19304Y-147748D01*
X19275Y-147777D01*
X19246Y-147806D01*
X19215Y-147834D01*
X19179Y-147861D01*
X19142Y-147888D01*
X19102Y-147911D01*
X19100Y-147913D01*
X19092Y-147915D01*
X19081Y-147921D01*
X19065Y-147929D01*
X19044Y-147938D01*
X19021Y-147948D01*
X18994Y-147958D01*
X18963Y-147969D01*
X18929Y-147979D01*
X18894Y-147990D01*
X18854Y-148000D01*
X18815Y-148008D01*
X18727Y-148023D01*
X18682Y-148025D01*
X18636Y-148027D01*
X18609Y-148027D01*
X18590Y-148025D01*
X18567Y-148023D01*
X18538Y-148021D01*
X18509Y-148017D01*
X18473Y-148011D01*
X18438Y-148004D01*
X18398Y-147996D01*
X18359Y-147986D01*
X18317Y-147973D01*
X18275Y-147958D01*
X18234Y-147940D01*
X18192Y-147921D01*
X18150Y-147898D01*
X18148Y-147896D01*
X18142Y-147892D01*
X18130Y-147884D01*
X18115Y-147873D01*
X18098Y-147861D01*
X18077Y-147844D01*
X18055Y-147825D01*
X18030Y-147804D01*
X18003Y-147779D01*
X17978Y-147752D01*
X17950Y-147723D01*
X17923Y-147692D01*
X17896Y-147656D01*
X17871Y-147621D01*
X17848Y-147582D01*
X17825Y-147540D01*
X17823Y-147538D01*
X17821Y-147529D01*
X17815Y-147517D01*
X17809Y-147500D01*
X17800Y-147479D01*
X17792Y-147454D01*
X17782Y-147427D01*
X17771Y-147394D01*
X17761Y-147361D01*
X17750Y-147323D01*
X17742Y-147284D01*
X17734Y-147242D01*
X17721Y-147155D01*
X17719Y-147107D01*
X17717Y-147061D01*
X17717Y-147059D01*
X17717Y-147055D01*
X17717Y-147048D01*
X17717Y-147040D01*
X17719Y-147027D01*
X17719Y-147015D01*
X17721Y-146982D01*
X17726Y-146942D01*
X17732Y-146894D01*
X17738Y-146844D01*
X17748Y-146788D01*
X17763Y-146728D01*
X17780Y-146667D01*
X17800Y-146605D01*
X17825Y-146542D01*
X17855Y-146480D01*
X17888Y-146421D01*
X17928Y-146363D01*
X17973Y-146311D01*
X17975Y-146309D01*
X17986Y-146298D01*
X18000Y-146286D01*
X18019Y-146269D01*
X18046Y-146249D01*
X18075Y-146226D01*
X18111Y-146201D01*
X18152Y-146176D01*
X18198Y-146151D01*
X18248Y-146126D01*
X18302Y-146103D01*
X18363Y-146082D01*
X18425Y-146065D01*
X18492Y-146053D01*
X18563Y-146042D01*
X18638Y-146040D01*
X18663Y-146040D01*
X18682Y-146042D01*
X18682Y-146042D02*
G37*
G36*
X-2821Y-150996D02*
X-3090Y-150996D01*
X-3090Y-150727D01*
X-2821Y-150727D01*
X-2821Y-150996D01*
X-2821Y-150996D02*
G37*
G36*
X-3457Y-149284D02*
X-3459Y-149286D01*
X-3465Y-149292D01*
X-3475Y-149305D01*
X-3488Y-149319D01*
X-3504Y-149340D01*
X-3525Y-149363D01*
X-3546Y-149390D01*
X-3571Y-149421D01*
X-3598Y-149457D01*
X-3627Y-149496D01*
X-3659Y-149540D01*
X-3690Y-149586D01*
X-3721Y-149634D01*
X-3754Y-149688D01*
X-3790Y-149744D01*
X-3823Y-149803D01*
X-3825Y-149807D01*
X-3831Y-149817D01*
X-3840Y-149834D01*
X-3852Y-149859D01*
X-3867Y-149888D01*
X-3886Y-149923D01*
X-3904Y-149963D01*
X-3925Y-150007D01*
X-3946Y-150055D01*
X-3969Y-150107D01*
X-3992Y-150163D01*
X-4015Y-150219D01*
X-4038Y-150280D01*
X-4061Y-150342D01*
X-4100Y-150469D01*
X-4100Y-150471D01*
X-4102Y-150479D01*
X-4106Y-150494D01*
X-4111Y-150511D01*
X-4117Y-150534D01*
X-4123Y-150561D01*
X-4131Y-150592D01*
X-4138Y-150625D01*
X-4146Y-150663D01*
X-4152Y-150704D01*
X-4161Y-150748D01*
X-4167Y-150794D01*
X-4175Y-150842D01*
X-4181Y-150892D01*
X-4190Y-150996D01*
X-4431Y-150996D01*
X-4431Y-150994D01*
X-4431Y-150986D01*
X-4431Y-150973D01*
X-4429Y-150956D01*
X-4427Y-150934D01*
X-4425Y-150909D01*
X-4423Y-150877D01*
X-4419Y-150844D01*
X-4415Y-150804D01*
X-4408Y-150765D01*
X-4402Y-150719D01*
X-4394Y-150671D01*
X-4383Y-150619D01*
X-4373Y-150565D01*
X-4358Y-150509D01*
X-4344Y-150450D01*
X-4342Y-150446D01*
X-4340Y-150436D01*
X-4336Y-150419D01*
X-4327Y-150396D01*
X-4319Y-150367D01*
X-4308Y-150332D01*
X-4296Y-150294D01*
X-4281Y-150252D01*
X-4265Y-150207D01*
X-4246Y-150157D01*
X-4227Y-150105D01*
X-4204Y-150052D01*
X-4156Y-149942D01*
X-4100Y-149830D01*
X-4098Y-149825D01*
X-4092Y-149817D01*
X-4083Y-149800D01*
X-4073Y-149780D01*
X-4056Y-149755D01*
X-4040Y-149725D01*
X-4019Y-149692D01*
X-3998Y-149655D01*
X-3973Y-149617D01*
X-3946Y-149576D01*
X-3888Y-149492D01*
X-3825Y-149407D01*
X-3792Y-149365D01*
X-3759Y-149326D01*
X-4700Y-149326D01*
X-4700Y-149099D01*
X-3457Y-149099D01*
X-3457Y-149284D01*
X-3457Y-149284D02*
G37*
G36*
X259338Y-154352D02*
X259423Y-154373D01*
X259528Y-154416D01*
X259634Y-154479D01*
X259719Y-154574D01*
X259782Y-154712D01*
X259793Y-154786D01*
X259804Y-154881D01*
X259804Y-154892D01*
X259804Y-154902D01*
X259793Y-154966D01*
X259772Y-155061D01*
X259740Y-155167D01*
X259666Y-155273D01*
X259571Y-155368D01*
X259507Y-155410D01*
X259433Y-155431D01*
X259349Y-155453D01*
X259253Y-155463D01*
X259211Y-155463D01*
X259169Y-155453D01*
X259116Y-155442D01*
X259042Y-155421D01*
X258978Y-155389D01*
X258904Y-155347D01*
X258841Y-155294D01*
X258830Y-155283D01*
X258819Y-155262D01*
X258788Y-155230D01*
X258756Y-155177D01*
X258724Y-155114D01*
X258703Y-155050D01*
X258682Y-154966D01*
X258671Y-154881D01*
X258671Y-154871D01*
X258671Y-154839D01*
X258682Y-154807D01*
X258693Y-154754D01*
X258714Y-154691D01*
X258745Y-154627D01*
X258788Y-154564D01*
X258841Y-154500D01*
X258851Y-154490D01*
X258872Y-154479D01*
X258904Y-154447D01*
X258957Y-154416D01*
X259021Y-154394D01*
X259084Y-154363D01*
X259169Y-154352D01*
X259253Y-154341D01*
X259274Y-154341D01*
X259338Y-154352D01*
X259338Y-154352D02*
G37*
G36*
X255624Y-153855D02*
X255730Y-153855D01*
X255846Y-153865D01*
X255984Y-153876D01*
X256121Y-153897D01*
X256280Y-153918D01*
X256449Y-153950D01*
X256788Y-154024D01*
X257148Y-154130D01*
X257497Y-154267D01*
X260671Y-159304D01*
X260671Y-159315D01*
X260671Y-159347D01*
X260661Y-159399D01*
X260661Y-159463D01*
X260650Y-159548D01*
X260629Y-159632D01*
X260587Y-159844D01*
X260587Y-159855D01*
X260576Y-159897D01*
X260565Y-159950D01*
X260544Y-160034D01*
X260513Y-160130D01*
X260491Y-160235D01*
X260417Y-160468D01*
X257666Y-156172D01*
X257655Y-156162D01*
X257624Y-156119D01*
X257581Y-156066D01*
X257529Y-156003D01*
X257454Y-155939D01*
X257370Y-155886D01*
X257275Y-155844D01*
X257169Y-155833D01*
X257126Y-155833D01*
X257084Y-155855D01*
X257021Y-155876D01*
X256957Y-155908D01*
X256883Y-155971D01*
X256798Y-156045D01*
X256714Y-156151D01*
X255793Y-157410D01*
X259031Y-162510D01*
X259010Y-162521D01*
X258957Y-162574D01*
X258872Y-162637D01*
X258756Y-162722D01*
X258608Y-162828D01*
X258428Y-162944D01*
X258216Y-163071D01*
X257984Y-163198D01*
X257719Y-163325D01*
X257433Y-163452D01*
X257126Y-163569D01*
X256798Y-163674D01*
X256449Y-163759D01*
X256079Y-163823D01*
X255687Y-163876D01*
X255285Y-163886D01*
X255190Y-163886D01*
X255137Y-163876D01*
X255074Y-163876D01*
X254915Y-163865D01*
X254724Y-163833D01*
X254502Y-163801D01*
X254248Y-163749D01*
X253984Y-163674D01*
X253687Y-163590D01*
X253381Y-163484D01*
X253063Y-163346D01*
X252746Y-163188D01*
X252418Y-162997D01*
X252090Y-162775D01*
X251772Y-162521D01*
X251465Y-162235D01*
X252841Y-160341D01*
X252851Y-160331D01*
X252862Y-160310D01*
X252873Y-160278D01*
X252883Y-160235D01*
X252894Y-160183D01*
X252915Y-160119D01*
X252926Y-160034D01*
X252926Y-160024D01*
X252926Y-160003D01*
X252915Y-159971D01*
X252904Y-159929D01*
X252894Y-159876D01*
X252862Y-159812D01*
X252830Y-159738D01*
X252777Y-159653D01*
X251762Y-158066D01*
X250248Y-160161D01*
X250248Y-160151D01*
X250238Y-160130D01*
X250227Y-160098D01*
X250217Y-160045D01*
X250206Y-159992D01*
X250195Y-159918D01*
X250164Y-159749D01*
X250121Y-159548D01*
X250100Y-159315D01*
X250079Y-159061D01*
X250068Y-158786D01*
X250068Y-158775D01*
X250068Y-158765D01*
X250068Y-158701D01*
X250079Y-158595D01*
X250090Y-158458D01*
X250111Y-158288D01*
X250143Y-158087D01*
X250195Y-157865D01*
X250248Y-157622D01*
X250322Y-157368D01*
X250418Y-157093D01*
X250545Y-156818D01*
X250682Y-156521D01*
X250852Y-156236D01*
X251042Y-155950D01*
X251264Y-155664D01*
X251518Y-155389D01*
X251539Y-155368D01*
X251592Y-155326D01*
X251677Y-155241D01*
X251793Y-155146D01*
X251952Y-155029D01*
X252132Y-154902D01*
X252344Y-154765D01*
X252587Y-154617D01*
X252862Y-154468D01*
X253158Y-154331D01*
X253476Y-154204D01*
X253825Y-154088D01*
X254195Y-153982D01*
X254587Y-153908D01*
X255000Y-153865D01*
X255433Y-153844D01*
X255550Y-153844D01*
X255624Y-153855D01*
X255624Y-153855D02*
G37*
G36*
X260893Y-165315D02*
X260978Y-165315D01*
X261052Y-165325D01*
X261105Y-165336D01*
X261116Y-165336D01*
X261147Y-165346D01*
X261190Y-165368D01*
X261243Y-165399D01*
X261296Y-165442D01*
X261348Y-165505D01*
X261391Y-165579D01*
X261423Y-165674D01*
X261423Y-165685D01*
X261423Y-165706D01*
X261433Y-165748D01*
X261433Y-165812D01*
X261433Y-165886D01*
X261444Y-165981D01*
X261444Y-166098D01*
X261444Y-166225D01*
X259560Y-166182D01*
X259539Y-166182D01*
X259497Y-166193D01*
X259423Y-166214D01*
X259349Y-166267D01*
X259264Y-166341D01*
X259232Y-166405D01*
X259190Y-166468D01*
X259169Y-166542D01*
X259148Y-166637D01*
X259126Y-166743D01*
X259126Y-166870D01*
X259126Y-167262D01*
X259126Y-167272D01*
X259126Y-167293D01*
X259126Y-167325D01*
X259137Y-167367D01*
X259148Y-167484D01*
X259179Y-167600D01*
X259232Y-167727D01*
X259306Y-167844D01*
X259349Y-167886D01*
X259412Y-167918D01*
X259476Y-167939D01*
X259550Y-167949D01*
X261475Y-167949D01*
X261475Y-167960D01*
X261475Y-167971D01*
X261475Y-168034D01*
X261475Y-168129D01*
X261465Y-168246D01*
X261454Y-168362D01*
X261433Y-168468D01*
X261401Y-168563D01*
X261370Y-168637D01*
X261359Y-168648D01*
X261338Y-168669D01*
X261306Y-168690D01*
X261243Y-168722D01*
X261158Y-168764D01*
X261052Y-168785D01*
X260904Y-168807D01*
X260735Y-168817D01*
X259370Y-168817D01*
X259327Y-168807D01*
X259211Y-168796D01*
X259073Y-168775D01*
X258925Y-168732D01*
X258777Y-168669D01*
X258650Y-168574D01*
X258544Y-168457D01*
X258534Y-168447D01*
X258523Y-168404D01*
X258491Y-168341D01*
X258470Y-168246D01*
X258439Y-168119D01*
X258407Y-167971D01*
X258396Y-167791D01*
X258386Y-167590D01*
X258386Y-166563D01*
X258386Y-166553D01*
X258386Y-166521D01*
X258386Y-166479D01*
X258396Y-166426D01*
X258396Y-166352D01*
X258407Y-166278D01*
X258439Y-166098D01*
X258491Y-165907D01*
X258555Y-165727D01*
X258661Y-165558D01*
X258724Y-165495D01*
X258798Y-165442D01*
X258809Y-165431D01*
X258841Y-165420D01*
X258883Y-165399D01*
X258957Y-165368D01*
X259042Y-165346D01*
X259158Y-165325D01*
X259285Y-165315D01*
X259433Y-165304D01*
X260809Y-165304D01*
X260893Y-165315D01*
X260893Y-165315D02*
G37*
G36*
X264904Y-168796D02*
X264174Y-168796D01*
X264174Y-167484D01*
X262618Y-167484D01*
X262618Y-168796D01*
X261930Y-168796D01*
X261930Y-165336D01*
X262618Y-165336D01*
X262618Y-166563D01*
X264174Y-166563D01*
X264174Y-165336D01*
X264904Y-165336D01*
X264904Y-168796D01*
X264904Y-168796D02*
G37*
G36*
X245211Y-164204D02*
X245275Y-164225D01*
X245349Y-164256D01*
X245434Y-164320D01*
X245508Y-164415D01*
X245540Y-164479D01*
X245561Y-164553D01*
X245592Y-164637D01*
X245603Y-164733D01*
X246069Y-168796D01*
X245201Y-168796D01*
X244958Y-165875D01*
X244947Y-165875D01*
X244048Y-168214D01*
X244037Y-168235D01*
X244016Y-168277D01*
X243984Y-168341D01*
X243931Y-168404D01*
X243857Y-168479D01*
X243772Y-168542D01*
X243667Y-168584D01*
X243540Y-168606D01*
X243518Y-168606D01*
X243476Y-168595D01*
X243413Y-168584D01*
X243328Y-168553D01*
X243233Y-168510D01*
X243148Y-168436D01*
X243063Y-168341D01*
X243000Y-168214D01*
X242111Y-165918D01*
X242100Y-165918D01*
X241847Y-168796D01*
X241000Y-168796D01*
X241444Y-164690D01*
X241444Y-164680D01*
X241444Y-164669D01*
X241466Y-164616D01*
X241487Y-164532D01*
X241529Y-164436D01*
X241582Y-164352D01*
X241667Y-164267D01*
X241772Y-164214D01*
X241836Y-164193D01*
X241931Y-164193D01*
X241984Y-164204D01*
X242058Y-164214D01*
X242153Y-164246D01*
X242259Y-164309D01*
X242365Y-164394D01*
X242460Y-164500D01*
X242503Y-164574D01*
X242534Y-164659D01*
X243518Y-167166D01*
X243540Y-167166D01*
X244524Y-164659D01*
X244524Y-164648D01*
X244534Y-164637D01*
X244555Y-164584D01*
X244608Y-164510D01*
X244672Y-164426D01*
X244756Y-164341D01*
X244862Y-164267D01*
X244989Y-164214D01*
X245063Y-164193D01*
X245169Y-164193D01*
X245211Y-164204D01*
X245211Y-164204D02*
G37*
G36*
X269031Y-165346D02*
X269137Y-165368D01*
X269274Y-165410D01*
X269412Y-165473D01*
X269539Y-165579D01*
X269602Y-165643D01*
X269655Y-165727D01*
X269697Y-165812D01*
X269729Y-165918D01*
X269729Y-165928D01*
X269740Y-165960D01*
X269750Y-166013D01*
X269761Y-166077D01*
X269771Y-166172D01*
X269782Y-166278D01*
X269793Y-166394D01*
X269793Y-166532D01*
X269793Y-166796D01*
X269793Y-166807D01*
X269793Y-166828D01*
X269793Y-166849D01*
X269793Y-166891D01*
X269782Y-167008D01*
X269771Y-167135D01*
X269740Y-167283D01*
X269708Y-167431D01*
X269655Y-167579D01*
X269581Y-167695D01*
X269570Y-167706D01*
X269549Y-167727D01*
X269518Y-167770D01*
X269465Y-167801D01*
X269401Y-167844D01*
X269316Y-167886D01*
X269221Y-167907D01*
X269115Y-167918D01*
X267401Y-167918D01*
X267401Y-168796D01*
X266682Y-168796D01*
X266682Y-165336D01*
X268988Y-165336D01*
X269031Y-165346D01*
X269031Y-165346D02*
G37*
G36*
X266216Y-168796D02*
X265412Y-168796D01*
X265412Y-165336D01*
X266216Y-165336D01*
X266216Y-168796D01*
X266216Y-168796D02*
G37*
G36*
X253677Y-165346D02*
X253719Y-165346D01*
X253836Y-165389D01*
X253888Y-165420D01*
X253963Y-165463D01*
X254026Y-165516D01*
X254079Y-165590D01*
X254142Y-165664D01*
X254195Y-165770D01*
X254238Y-165886D01*
X254269Y-166024D01*
X254291Y-166182D01*
X254301Y-166362D01*
X254301Y-166574D01*
X254301Y-166584D01*
X254301Y-166606D01*
X254301Y-166637D01*
X254291Y-166690D01*
X254280Y-166807D01*
X254248Y-166955D01*
X254206Y-167103D01*
X254132Y-167251D01*
X254037Y-167367D01*
X253984Y-167410D01*
X253910Y-167442D01*
X253910Y-167452D01*
X253931Y-167463D01*
X253973Y-167473D01*
X254037Y-167516D01*
X254111Y-167590D01*
X254174Y-167685D01*
X254238Y-167822D01*
X254269Y-167897D01*
X254280Y-167992D01*
X254301Y-168098D01*
X254301Y-168214D01*
X254301Y-168796D01*
X253571Y-168796D01*
X253571Y-168383D01*
X253571Y-168373D01*
X253571Y-168341D01*
X253571Y-168288D01*
X253571Y-168235D01*
X253560Y-168108D01*
X253550Y-168055D01*
X253539Y-168024D01*
X253539Y-168013D01*
X253529Y-168002D01*
X253486Y-167949D01*
X253402Y-167907D01*
X253349Y-167897D01*
X253285Y-167886D01*
X251994Y-167886D01*
X251994Y-168796D01*
X251264Y-168796D01*
X251264Y-165336D01*
X253645Y-165336D01*
X253677Y-165346D01*
X253677Y-165346D02*
G37*
G36*
X247307Y-168796D02*
X246492Y-168796D01*
X246492Y-165336D01*
X247307Y-165336D01*
X247307Y-168796D01*
X247307Y-168796D02*
G37*
G36*
X257148Y-165315D02*
X257275Y-165346D01*
X257412Y-165378D01*
X257550Y-165431D01*
X257666Y-165505D01*
X257761Y-165611D01*
X257772Y-165622D01*
X257793Y-165664D01*
X257835Y-165738D01*
X257878Y-165844D01*
X257909Y-165971D01*
X257952Y-166129D01*
X257973Y-166320D01*
X257984Y-166542D01*
X257984Y-167579D01*
X257984Y-167590D01*
X257984Y-167621D01*
X257984Y-167664D01*
X257973Y-167727D01*
X257973Y-167812D01*
X257962Y-167897D01*
X257920Y-168087D01*
X257857Y-168288D01*
X257772Y-168479D01*
X257708Y-168563D01*
X257645Y-168637D01*
X257560Y-168701D01*
X257476Y-168754D01*
X257465Y-168754D01*
X257444Y-168764D01*
X257391Y-168775D01*
X257338Y-168785D01*
X257253Y-168796D01*
X257169Y-168807D01*
X257063Y-168817D01*
X255730Y-168817D01*
X255687Y-168807D01*
X255571Y-168796D01*
X255444Y-168775D01*
X255306Y-168732D01*
X255158Y-168680D01*
X255031Y-168595D01*
X254925Y-168489D01*
X254915Y-168479D01*
X254894Y-168436D01*
X254862Y-168362D01*
X254830Y-168267D01*
X254798Y-168140D01*
X254767Y-167981D01*
X254746Y-167801D01*
X254735Y-167579D01*
X254735Y-166542D01*
X254735Y-166532D01*
X254735Y-166500D01*
X254735Y-166447D01*
X254746Y-166383D01*
X254756Y-166299D01*
X254767Y-166203D01*
X254809Y-166002D01*
X254883Y-165801D01*
X254936Y-165696D01*
X254989Y-165600D01*
X255063Y-165516D01*
X255137Y-165442D01*
X255232Y-165389D01*
X255338Y-165346D01*
X255349Y-165346D01*
X255370Y-165336D01*
X255412Y-165336D01*
X255465Y-165325D01*
X255529Y-165315D01*
X255603Y-165315D01*
X255783Y-165304D01*
X257042Y-165304D01*
X257148Y-165315D01*
X257148Y-165315D02*
G37*
G36*
X250079Y-165315D02*
X250248Y-165325D01*
X250407Y-165336D01*
X250471Y-165346D01*
X250534Y-165357D01*
X250576Y-165368D01*
X250608Y-165378D01*
X250619Y-165389D01*
X250640Y-165410D01*
X250672Y-165452D01*
X250703Y-165526D01*
X250735Y-165622D01*
X250756Y-165696D01*
X250767Y-165770D01*
X250777Y-165854D01*
X250788Y-165950D01*
X250799Y-166055D01*
X250799Y-166182D01*
X248904Y-166182D01*
X248862Y-166193D01*
X248820Y-166203D01*
X248714Y-166235D01*
X248661Y-166278D01*
X248619Y-166320D01*
X248619Y-166330D01*
X248598Y-166352D01*
X248587Y-166383D01*
X248566Y-166436D01*
X248545Y-166510D01*
X248524Y-166606D01*
X248513Y-166733D01*
X248502Y-166870D01*
X248502Y-167262D01*
X248502Y-167283D01*
X248502Y-167325D01*
X248502Y-167399D01*
X248513Y-167473D01*
X248513Y-167569D01*
X248524Y-167653D01*
X248534Y-167727D01*
X248555Y-167780D01*
X248555Y-167791D01*
X248576Y-167801D01*
X248598Y-167833D01*
X248640Y-167865D01*
X248682Y-167897D01*
X248746Y-167918D01*
X248820Y-167939D01*
X248915Y-167949D01*
X250852Y-167949D01*
X250852Y-167960D01*
X250852Y-167971D01*
X250852Y-168034D01*
X250852Y-168119D01*
X250841Y-168225D01*
X250830Y-168330D01*
X250809Y-168436D01*
X250777Y-168531D01*
X250746Y-168606D01*
X250735Y-168616D01*
X250714Y-168637D01*
X250672Y-168669D01*
X250619Y-168711D01*
X250523Y-168754D01*
X250418Y-168785D01*
X250270Y-168807D01*
X250100Y-168817D01*
X248703Y-168817D01*
X248598Y-168807D01*
X248481Y-168785D01*
X248344Y-168754D01*
X248206Y-168701D01*
X248079Y-168637D01*
X247973Y-168542D01*
X247963Y-168531D01*
X247942Y-168489D01*
X247899Y-168415D01*
X247857Y-168320D01*
X247815Y-168182D01*
X247772Y-168024D01*
X247751Y-167822D01*
X247741Y-167579D01*
X247741Y-166542D01*
X247741Y-166532D01*
X247741Y-166489D01*
X247741Y-166436D01*
X247751Y-166373D01*
X247762Y-166278D01*
X247783Y-166182D01*
X247836Y-165971D01*
X247920Y-165759D01*
X247973Y-165653D01*
X248047Y-165558D01*
X248132Y-165473D01*
X248227Y-165399D01*
X248333Y-165346D01*
X248460Y-165315D01*
X248513Y-165315D01*
X248555Y-165304D01*
X249910Y-165304D01*
X250079Y-165315D01*
X250079Y-165315D02*
G37*
%LPC*%
G36*
X-4465Y-147002D02*
X-4465Y-147002D01*
X-4465Y-147005D01*
X-4465Y-147002D01*
X-4465Y-147002D02*
G37*
G36*
X-4046Y-146957D02*
X-4061Y-146957D01*
X-4073Y-146959D01*
X-4086Y-146961D01*
X-4102Y-146963D01*
X-4140Y-146971D01*
X-4183Y-146986D01*
X-4229Y-147007D01*
X-4252Y-147019D01*
X-4275Y-147034D01*
X-4298Y-147052D01*
X-4319Y-147073D01*
X-4321Y-147075D01*
X-4323Y-147080D01*
X-4329Y-147086D01*
X-4336Y-147094D01*
X-4344Y-147105D01*
X-4354Y-147119D01*
X-4365Y-147136D01*
X-4373Y-147155D01*
X-4383Y-147173D01*
X-4394Y-147196D01*
X-4413Y-147248D01*
X-4425Y-147307D01*
X-4427Y-147340D01*
X-4429Y-147373D01*
X-4429Y-147375D01*
X-4429Y-147379D01*
X-4429Y-147386D01*
X-4429Y-147394D01*
X-4427Y-147404D01*
X-4427Y-147417D01*
X-4423Y-147448D01*
X-4417Y-147484D01*
X-4408Y-147523D01*
X-4396Y-147565D01*
X-4379Y-147607D01*
X-4379Y-147609D01*
X-4377Y-147611D01*
X-4373Y-147617D01*
X-4369Y-147625D01*
X-4358Y-147644D01*
X-4342Y-147669D01*
X-4321Y-147696D01*
X-4296Y-147723D01*
X-4269Y-147750D01*
X-4236Y-147775D01*
X-4233Y-147775D01*
X-4231Y-147777D01*
X-4219Y-147784D01*
X-4200Y-147794D01*
X-4175Y-147804D01*
X-4146Y-147815D01*
X-4113Y-147825D01*
X-4075Y-147831D01*
X-4038Y-147834D01*
X-4023Y-147834D01*
X-4013Y-147831D01*
X-3998Y-147829D01*
X-3984Y-147827D01*
X-3948Y-147819D01*
X-3909Y-147804D01*
X-3886Y-147794D01*
X-3865Y-147784D01*
X-3842Y-147769D01*
X-3821Y-147754D01*
X-3800Y-147736D01*
X-3779Y-147715D01*
X-3777Y-147713D01*
X-3775Y-147709D01*
X-3769Y-147702D01*
X-3763Y-147692D01*
X-3754Y-147679D01*
X-3746Y-147665D01*
X-3736Y-147648D01*
X-3725Y-147627D01*
X-3715Y-147607D01*
X-3704Y-147582D01*
X-3696Y-147554D01*
X-3688Y-147525D01*
X-3682Y-147494D01*
X-3675Y-147459D01*
X-3673Y-147423D01*
X-3671Y-147386D01*
X-3671Y-147384D01*
X-3671Y-147377D01*
X-3671Y-147367D01*
X-3673Y-147352D01*
X-3675Y-147336D01*
X-3677Y-147317D01*
X-3679Y-147296D01*
X-3684Y-147273D01*
X-3696Y-147223D01*
X-3715Y-147171D01*
X-3727Y-147144D01*
X-3742Y-147119D01*
X-3759Y-147096D01*
X-3777Y-147073D01*
X-3779Y-147071D01*
X-3781Y-147069D01*
X-3788Y-147063D01*
X-3796Y-147055D01*
X-3806Y-147046D01*
X-3819Y-147036D01*
X-3850Y-147015D01*
X-3890Y-146994D01*
X-3936Y-146975D01*
X-3988Y-146961D01*
X-4017Y-146959D01*
X-4046Y-146957D01*
X-4046Y-146957D02*
G37*
G36*
X56382Y-146301D02*
X55939Y-146301D01*
X55939Y-147769D01*
X56380Y-147769D01*
X56397Y-147767D01*
X56416Y-147767D01*
X56457Y-147765D01*
X56505Y-147761D01*
X56555Y-147754D01*
X56603Y-147746D01*
X56647Y-147736D01*
X56649Y-147736D01*
X56651Y-147734D01*
X56657Y-147731D01*
X56666Y-147729D01*
X56684Y-147721D01*
X56709Y-147711D01*
X56736Y-147696D01*
X56766Y-147679D01*
X56795Y-147659D01*
X56820Y-147636D01*
X56822Y-147634D01*
X56824Y-147631D01*
X56834Y-147619D01*
X56851Y-147598D01*
X56872Y-147571D01*
X56893Y-147536D01*
X56915Y-147494D01*
X56938Y-147446D01*
X56959Y-147392D01*
X56959Y-147390D01*
X56961Y-147386D01*
X56963Y-147377D01*
X56968Y-147365D01*
X56972Y-147350D01*
X56976Y-147332D01*
X56980Y-147311D01*
X56986Y-147288D01*
X56990Y-147263D01*
X56995Y-147234D01*
X56999Y-147205D01*
X57003Y-147171D01*
X57009Y-147100D01*
X57011Y-147021D01*
X57011Y-147017D01*
X57011Y-147009D01*
X57011Y-146992D01*
X57009Y-146971D01*
X57009Y-146946D01*
X57007Y-146917D01*
X57003Y-146886D01*
X56999Y-146850D01*
X56986Y-146775D01*
X56970Y-146698D01*
X56945Y-146626D01*
X56928Y-146590D01*
X56911Y-146559D01*
X56909Y-146557D01*
X56907Y-146553D01*
X56901Y-146544D01*
X56893Y-146532D01*
X56884Y-146519D01*
X56872Y-146505D01*
X56845Y-146471D01*
X56809Y-146434D01*
X56768Y-146398D01*
X56722Y-146365D01*
X56697Y-146353D01*
X56670Y-146340D01*
X56668Y-146340D01*
X56666Y-146338D01*
X56659Y-146336D01*
X56651Y-146334D01*
X56638Y-146332D01*
X56626Y-146328D01*
X56609Y-146323D01*
X56591Y-146319D01*
X56570Y-146317D01*
X56545Y-146313D01*
X56518Y-146309D01*
X56488Y-146307D01*
X56455Y-146305D01*
X56420Y-146303D01*
X56382Y-146301D01*
X56382Y-146301D02*
G37*
G36*
X51121Y-146273D02*
X51121Y-146276D01*
X51119Y-146282D01*
X51117Y-146292D01*
X51115Y-146305D01*
X51111Y-146323D01*
X51107Y-146342D01*
X51100Y-146365D01*
X51094Y-146390D01*
X51088Y-146417D01*
X51079Y-146446D01*
X51061Y-146509D01*
X51040Y-146576D01*
X51017Y-146644D01*
X50805Y-147209D01*
X51461Y-147209D01*
X51259Y-146675D01*
X51259Y-146673D01*
X51254Y-146665D01*
X51250Y-146653D01*
X51244Y-146634D01*
X51236Y-146615D01*
X51227Y-146590D01*
X51217Y-146563D01*
X51207Y-146534D01*
X51186Y-146469D01*
X51163Y-146403D01*
X51140Y-146336D01*
X51121Y-146273D01*
X51121Y-146273D02*
G37*
G36*
X46537Y-146301D02*
X46093Y-146301D01*
X46093Y-147769D01*
X46535Y-147769D01*
X46551Y-147767D01*
X46570Y-147767D01*
X46612Y-147765D01*
X46660Y-147761D01*
X46710Y-147754D01*
X46758Y-147746D01*
X46801Y-147736D01*
X46803Y-147736D01*
X46806Y-147734D01*
X46812Y-147731D01*
X46820Y-147729D01*
X46839Y-147721D01*
X46864Y-147711D01*
X46891Y-147696D01*
X46920Y-147679D01*
X46949Y-147659D01*
X46974Y-147636D01*
X46976Y-147634D01*
X46978Y-147631D01*
X46989Y-147619D01*
X47006Y-147598D01*
X47026Y-147571D01*
X47047Y-147536D01*
X47070Y-147494D01*
X47093Y-147446D01*
X47114Y-147392D01*
X47114Y-147390D01*
X47116Y-147386D01*
X47118Y-147377D01*
X47122Y-147365D01*
X47126Y-147350D01*
X47130Y-147332D01*
X47135Y-147311D01*
X47141Y-147288D01*
X47145Y-147263D01*
X47149Y-147234D01*
X47153Y-147205D01*
X47158Y-147171D01*
X47164Y-147100D01*
X47166Y-147021D01*
X47166Y-147017D01*
X47166Y-147009D01*
X47166Y-146992D01*
X47164Y-146971D01*
X47164Y-146946D01*
X47162Y-146917D01*
X47158Y-146886D01*
X47153Y-146850D01*
X47141Y-146775D01*
X47124Y-146698D01*
X47099Y-146626D01*
X47083Y-146590D01*
X47066Y-146559D01*
X47064Y-146557D01*
X47062Y-146553D01*
X47056Y-146544D01*
X47047Y-146532D01*
X47039Y-146519D01*
X47026Y-146505D01*
X46999Y-146471D01*
X46964Y-146434D01*
X46922Y-146398D01*
X46876Y-146365D01*
X46851Y-146353D01*
X46824Y-146340D01*
X46822Y-146340D01*
X46820Y-146338D01*
X46814Y-146336D01*
X46806Y-146334D01*
X46793Y-146332D01*
X46781Y-146328D01*
X46764Y-146323D01*
X46745Y-146319D01*
X46724Y-146317D01*
X46699Y-146313D01*
X46672Y-146309D01*
X46643Y-146307D01*
X46610Y-146305D01*
X46574Y-146303D01*
X46537Y-146301D01*
X46537Y-146301D02*
G37*
G36*
X34863Y-146273D02*
X34863Y-146276D01*
X34861Y-146282D01*
X34859Y-146292D01*
X34857Y-146305D01*
X34852Y-146323D01*
X34848Y-146342D01*
X34842Y-146365D01*
X34836Y-146390D01*
X34829Y-146417D01*
X34821Y-146446D01*
X34802Y-146509D01*
X34782Y-146576D01*
X34759Y-146644D01*
X34546Y-147209D01*
X35202Y-147209D01*
X35000Y-146675D01*
X35000Y-146673D01*
X34996Y-146665D01*
X34992Y-146653D01*
X34986Y-146634D01*
X34977Y-146615D01*
X34969Y-146590D01*
X34959Y-146563D01*
X34948Y-146534D01*
X34927Y-146469D01*
X34904Y-146403D01*
X34882Y-146336D01*
X34863Y-146273D01*
X34863Y-146273D02*
G37*
G36*
X11892Y-146301D02*
X11471Y-146301D01*
X11471Y-146882D01*
X11927Y-146882D01*
X11944Y-146880D01*
X11979Y-146880D01*
X12019Y-146878D01*
X12060Y-146873D01*
X12098Y-146867D01*
X12114Y-146865D01*
X12129Y-146861D01*
X12131Y-146861D01*
X12133Y-146859D01*
X12146Y-146855D01*
X12162Y-146848D01*
X12183Y-146838D01*
X12206Y-146825D01*
X12231Y-146809D01*
X12254Y-146788D01*
X12275Y-146765D01*
X12277Y-146761D01*
X12283Y-146753D01*
X12291Y-146738D01*
X12300Y-146719D01*
X12308Y-146694D01*
X12316Y-146665D01*
X12323Y-146634D01*
X12325Y-146596D01*
X12325Y-146594D01*
X12325Y-146592D01*
X12325Y-146580D01*
X12323Y-146563D01*
X12319Y-146540D01*
X12312Y-146513D01*
X12304Y-146484D01*
X12294Y-146455D01*
X12277Y-146428D01*
X12275Y-146423D01*
X12269Y-146415D01*
X12258Y-146403D01*
X12244Y-146388D01*
X12225Y-146371D01*
X12202Y-146355D01*
X12177Y-146340D01*
X12146Y-146328D01*
X12142Y-146326D01*
X12137Y-146326D01*
X12129Y-146324D01*
X12121Y-146321D01*
X12108Y-146319D01*
X12094Y-146317D01*
X12079Y-146313D01*
X12060Y-146311D01*
X12037Y-146309D01*
X12014Y-146307D01*
X11987Y-146305D01*
X11958Y-146303D01*
X11927Y-146303D01*
X11892Y-146301D01*
X11892Y-146301D02*
G37*
G36*
X11914Y-147109D02*
X11471Y-147109D01*
X11471Y-147769D01*
X11992Y-147769D01*
X12019Y-147767D01*
X12046Y-147767D01*
X12075Y-147765D01*
X12102Y-147763D01*
X12123Y-147761D01*
X12127Y-147761D01*
X12137Y-147759D01*
X12154Y-147754D01*
X12175Y-147748D01*
X12198Y-147742D01*
X12221Y-147731D01*
X12246Y-147721D01*
X12269Y-147709D01*
X12271Y-147706D01*
X12279Y-147702D01*
X12289Y-147694D01*
X12304Y-147681D01*
X12319Y-147667D01*
X12335Y-147648D01*
X12352Y-147627D01*
X12366Y-147602D01*
X12369Y-147598D01*
X12373Y-147590D01*
X12379Y-147575D01*
X12387Y-147554D01*
X12394Y-147532D01*
X12400Y-147504D01*
X12404Y-147473D01*
X12406Y-147440D01*
X12406Y-147438D01*
X12406Y-147436D01*
X12406Y-147429D01*
X12406Y-147421D01*
X12404Y-147402D01*
X12400Y-147375D01*
X12391Y-147346D01*
X12383Y-147315D01*
X12369Y-147284D01*
X12350Y-147252D01*
X12348Y-147248D01*
X12339Y-147240D01*
X12327Y-147225D01*
X12310Y-147209D01*
X12287Y-147190D01*
X12260Y-147173D01*
X12231Y-147157D01*
X12196Y-147142D01*
X12194Y-147142D01*
X12192Y-147140D01*
X12185Y-147138D01*
X12177Y-147136D01*
X12167Y-147134D01*
X12156Y-147132D01*
X12142Y-147127D01*
X12125Y-147125D01*
X12104Y-147121D01*
X12083Y-147119D01*
X12060Y-147117D01*
X12035Y-147113D01*
X11979Y-147111D01*
X11914Y-147109D01*
X11914Y-147109D02*
G37*
G36*
X10094Y-146274D02*
X10094Y-146276D01*
X10092Y-146282D01*
X10090Y-146292D01*
X10088Y-146305D01*
X10084Y-146324D01*
X10080Y-146342D01*
X10073Y-146365D01*
X10067Y-146390D01*
X10061Y-146417D01*
X10052Y-146446D01*
X10034Y-146509D01*
X10013Y-146576D01*
X9990Y-146644D01*
X9778Y-147209D01*
X10434Y-147209D01*
X10232Y-146675D01*
X10232Y-146673D01*
X10227Y-146665D01*
X10223Y-146653D01*
X10217Y-146634D01*
X10209Y-146615D01*
X10200Y-146590D01*
X10190Y-146563D01*
X10180Y-146534D01*
X10159Y-146469D01*
X10136Y-146403D01*
X10113Y-146336D01*
X10094Y-146274D01*
X10094Y-146274D02*
G37*
G36*
X2334Y-146274D02*
X2334Y-146276D01*
X2332Y-146282D01*
X2329Y-146292D01*
X2327Y-146305D01*
X2323Y-146324D01*
X2319Y-146342D01*
X2313Y-146365D01*
X2307Y-146390D01*
X2300Y-146417D01*
X2292Y-146446D01*
X2273Y-146509D01*
X2252Y-146576D01*
X2229Y-146644D01*
X2017Y-147209D01*
X2673Y-147209D01*
X2471Y-146675D01*
X2471Y-146673D01*
X2467Y-146665D01*
X2463Y-146653D01*
X2457Y-146634D01*
X2448Y-146615D01*
X2440Y-146590D01*
X2429Y-146563D01*
X2419Y-146534D01*
X2398Y-146469D01*
X2375Y-146403D01*
X2352Y-146336D01*
X2334Y-146274D01*
X2334Y-146274D02*
G37*
G36*
X-803Y-146301D02*
X-1355Y-146301D01*
X-1355Y-146988D01*
X-836Y-146988D01*
X-820Y-146986D01*
X-799Y-146986D01*
X-776Y-146984D01*
X-749Y-146980D01*
X-722Y-146975D01*
X-664Y-146965D01*
X-605Y-146948D01*
X-578Y-146938D01*
X-553Y-146925D01*
X-528Y-146913D01*
X-507Y-146896D01*
X-505Y-146894D01*
X-503Y-146892D01*
X-497Y-146886D01*
X-491Y-146880D01*
X-474Y-146859D01*
X-455Y-146830D01*
X-437Y-146792D01*
X-420Y-146748D01*
X-407Y-146696D01*
X-405Y-146669D01*
X-403Y-146638D01*
X-403Y-146636D01*
X-403Y-146632D01*
X-403Y-146626D01*
X-403Y-146617D01*
X-407Y-146594D01*
X-412Y-146567D01*
X-418Y-146534D01*
X-430Y-146501D01*
X-445Y-146465D01*
X-466Y-146432D01*
X-468Y-146428D01*
X-476Y-146417D01*
X-491Y-146403D01*
X-507Y-146386D01*
X-532Y-146367D01*
X-559Y-146348D01*
X-591Y-146332D01*
X-626Y-146319D01*
X-628Y-146319D01*
X-639Y-146317D01*
X-655Y-146313D01*
X-680Y-146309D01*
X-695Y-146309D01*
X-711Y-146307D01*
X-732Y-146305D01*
X-753Y-146303D01*
X-778Y-146303D01*
X-803Y-146301D01*
X-803Y-146301D02*
G37*
G36*
X39260Y-146259D02*
X39212Y-146259D01*
X39199Y-146261D01*
X39178Y-146261D01*
X39155Y-146265D01*
X39128Y-146269D01*
X39099Y-146276D01*
X39066Y-146282D01*
X39030Y-146292D01*
X38993Y-146305D01*
X38953Y-146319D01*
X38916Y-146338D01*
X38876Y-146359D01*
X38837Y-146384D01*
X38797Y-146413D01*
X38760Y-146446D01*
X38758Y-146448D01*
X38751Y-146455D01*
X38741Y-146467D01*
X38731Y-146482D01*
X38714Y-146503D01*
X38699Y-146528D01*
X38681Y-146559D01*
X38664Y-146592D01*
X38645Y-146634D01*
X38626Y-146680D01*
X38612Y-146730D01*
X38597Y-146786D01*
X38585Y-146846D01*
X38574Y-146913D01*
X38568Y-146986D01*
X38566Y-147065D01*
X38566Y-147069D01*
X38566Y-147080D01*
X38568Y-147098D01*
X38568Y-147123D01*
X38572Y-147152D01*
X38576Y-147186D01*
X38581Y-147223D01*
X38589Y-147263D01*
X38599Y-147307D01*
X38612Y-147352D01*
X38626Y-147396D01*
X38645Y-147442D01*
X38666Y-147488D01*
X38691Y-147532D01*
X38718Y-147573D01*
X38751Y-147613D01*
X38753Y-147615D01*
X38760Y-147621D01*
X38770Y-147631D01*
X38785Y-147644D01*
X38803Y-147659D01*
X38826Y-147675D01*
X38851Y-147694D01*
X38881Y-147711D01*
X38912Y-147729D01*
X38949Y-147748D01*
X38987Y-147765D01*
X39028Y-147779D01*
X39072Y-147792D01*
X39120Y-147802D01*
X39168Y-147809D01*
X39220Y-147811D01*
X39232Y-147811D01*
X39247Y-147809D01*
X39268Y-147806D01*
X39293Y-147804D01*
X39320Y-147800D01*
X39353Y-147794D01*
X39387Y-147786D01*
X39424Y-147775D01*
X39462Y-147763D01*
X39501Y-147746D01*
X39541Y-147725D01*
X39580Y-147702D01*
X39620Y-147677D01*
X39657Y-147646D01*
X39693Y-147611D01*
X39695Y-147609D01*
X39701Y-147600D01*
X39709Y-147590D01*
X39722Y-147573D01*
X39737Y-147552D01*
X39753Y-147527D01*
X39770Y-147498D01*
X39787Y-147463D01*
X39803Y-147425D01*
X39822Y-147382D01*
X39837Y-147336D01*
X39851Y-147284D01*
X39864Y-147227D01*
X39872Y-147169D01*
X39878Y-147105D01*
X39880Y-147038D01*
X39880Y-147036D01*
X39880Y-147027D01*
X39880Y-147015D01*
X39878Y-146998D01*
X39878Y-146977D01*
X39876Y-146955D01*
X39874Y-146928D01*
X39870Y-146898D01*
X39862Y-146834D01*
X39847Y-146765D01*
X39826Y-146696D01*
X39799Y-146628D01*
X39799Y-146626D01*
X39795Y-146619D01*
X39791Y-146611D01*
X39784Y-146598D01*
X39776Y-146584D01*
X39766Y-146567D01*
X39741Y-146528D01*
X39707Y-146484D01*
X39668Y-146440D01*
X39622Y-146396D01*
X39568Y-146357D01*
X39566Y-146355D01*
X39562Y-146353D01*
X39553Y-146348D01*
X39541Y-146342D01*
X39526Y-146334D01*
X39510Y-146326D01*
X39491Y-146317D01*
X39468Y-146307D01*
X39443Y-146298D01*
X39418Y-146290D01*
X39360Y-146273D01*
X39295Y-146263D01*
X39260Y-146259D01*
X39260Y-146259D02*
G37*
G36*
X31055Y-146259D02*
X31008Y-146259D01*
X30995Y-146261D01*
X30974Y-146261D01*
X30951Y-146265D01*
X30924Y-146269D01*
X30895Y-146276D01*
X30862Y-146282D01*
X30826Y-146292D01*
X30789Y-146305D01*
X30749Y-146319D01*
X30712Y-146338D01*
X30672Y-146359D01*
X30633Y-146384D01*
X30593Y-146413D01*
X30556Y-146446D01*
X30553Y-146448D01*
X30547Y-146455D01*
X30537Y-146467D01*
X30526Y-146482D01*
X30510Y-146503D01*
X30495Y-146528D01*
X30476Y-146559D01*
X30460Y-146592D01*
X30441Y-146634D01*
X30422Y-146680D01*
X30408Y-146730D01*
X30393Y-146786D01*
X30381Y-146846D01*
X30370Y-146913D01*
X30364Y-146986D01*
X30362Y-147065D01*
X30362Y-147069D01*
X30362Y-147080D01*
X30364Y-147098D01*
X30364Y-147123D01*
X30368Y-147152D01*
X30372Y-147186D01*
X30376Y-147223D01*
X30385Y-147263D01*
X30395Y-147307D01*
X30408Y-147352D01*
X30422Y-147396D01*
X30441Y-147442D01*
X30462Y-147488D01*
X30487Y-147532D01*
X30514Y-147573D01*
X30547Y-147613D01*
X30549Y-147615D01*
X30556Y-147621D01*
X30566Y-147631D01*
X30581Y-147644D01*
X30599Y-147659D01*
X30622Y-147675D01*
X30647Y-147694D01*
X30676Y-147711D01*
X30708Y-147729D01*
X30745Y-147748D01*
X30783Y-147765D01*
X30824Y-147779D01*
X30868Y-147792D01*
X30916Y-147802D01*
X30964Y-147809D01*
X31016Y-147811D01*
X31028Y-147811D01*
X31043Y-147809D01*
X31064Y-147806D01*
X31089Y-147804D01*
X31116Y-147800D01*
X31149Y-147794D01*
X31182Y-147786D01*
X31220Y-147775D01*
X31257Y-147763D01*
X31297Y-147746D01*
X31337Y-147725D01*
X31376Y-147702D01*
X31416Y-147677D01*
X31453Y-147646D01*
X31489Y-147611D01*
X31491Y-147609D01*
X31497Y-147600D01*
X31505Y-147590D01*
X31518Y-147573D01*
X31532Y-147552D01*
X31549Y-147527D01*
X31566Y-147498D01*
X31582Y-147463D01*
X31599Y-147425D01*
X31618Y-147382D01*
X31632Y-147336D01*
X31647Y-147284D01*
X31659Y-147227D01*
X31668Y-147169D01*
X31674Y-147105D01*
X31676Y-147038D01*
X31676Y-147036D01*
X31676Y-147027D01*
X31676Y-147015D01*
X31674Y-146998D01*
X31674Y-146977D01*
X31672Y-146955D01*
X31670Y-146928D01*
X31666Y-146898D01*
X31657Y-146834D01*
X31643Y-146765D01*
X31622Y-146696D01*
X31595Y-146628D01*
X31595Y-146626D01*
X31591Y-146619D01*
X31587Y-146611D01*
X31580Y-146598D01*
X31572Y-146584D01*
X31562Y-146567D01*
X31537Y-146528D01*
X31503Y-146484D01*
X31464Y-146440D01*
X31418Y-146396D01*
X31364Y-146357D01*
X31362Y-146355D01*
X31357Y-146353D01*
X31349Y-146348D01*
X31337Y-146342D01*
X31322Y-146334D01*
X31305Y-146326D01*
X31287Y-146317D01*
X31264Y-146307D01*
X31239Y-146298D01*
X31214Y-146290D01*
X31155Y-146274D01*
X31091Y-146263D01*
X31055Y-146259D01*
X31055Y-146259D02*
G37*
G36*
X18673Y-146259D02*
X18625Y-146259D01*
X18613Y-146261D01*
X18592Y-146261D01*
X18569Y-146265D01*
X18542Y-146269D01*
X18513Y-146276D01*
X18479Y-146282D01*
X18444Y-146292D01*
X18407Y-146305D01*
X18367Y-146319D01*
X18330Y-146338D01*
X18290Y-146359D01*
X18250Y-146384D01*
X18211Y-146413D01*
X18173Y-146446D01*
X18171Y-146448D01*
X18165Y-146455D01*
X18155Y-146467D01*
X18144Y-146482D01*
X18127Y-146503D01*
X18113Y-146528D01*
X18094Y-146559D01*
X18077Y-146592D01*
X18059Y-146634D01*
X18040Y-146680D01*
X18025Y-146730D01*
X18011Y-146786D01*
X17998Y-146846D01*
X17988Y-146913D01*
X17982Y-146986D01*
X17980Y-147065D01*
X17980Y-147069D01*
X17980Y-147080D01*
X17982Y-147098D01*
X17982Y-147123D01*
X17986Y-147152D01*
X17990Y-147186D01*
X17994Y-147223D01*
X18003Y-147263D01*
X18013Y-147307D01*
X18025Y-147352D01*
X18040Y-147396D01*
X18059Y-147442D01*
X18080Y-147488D01*
X18105Y-147532D01*
X18132Y-147573D01*
X18165Y-147613D01*
X18167Y-147615D01*
X18173Y-147621D01*
X18184Y-147631D01*
X18198Y-147644D01*
X18217Y-147659D01*
X18240Y-147675D01*
X18265Y-147694D01*
X18294Y-147711D01*
X18325Y-147729D01*
X18363Y-147748D01*
X18400Y-147765D01*
X18442Y-147779D01*
X18486Y-147792D01*
X18534Y-147802D01*
X18582Y-147809D01*
X18634Y-147811D01*
X18646Y-147811D01*
X18661Y-147809D01*
X18682Y-147806D01*
X18707Y-147804D01*
X18734Y-147800D01*
X18767Y-147794D01*
X18800Y-147786D01*
X18838Y-147775D01*
X18875Y-147763D01*
X18915Y-147746D01*
X18954Y-147725D01*
X18994Y-147702D01*
X19034Y-147677D01*
X19071Y-147646D01*
X19106Y-147611D01*
X19108Y-147609D01*
X19115Y-147600D01*
X19123Y-147590D01*
X19136Y-147573D01*
X19150Y-147552D01*
X19167Y-147527D01*
X19183Y-147498D01*
X19200Y-147463D01*
X19217Y-147425D01*
X19236Y-147382D01*
X19250Y-147336D01*
X19265Y-147284D01*
X19277Y-147227D01*
X19286Y-147169D01*
X19292Y-147105D01*
X19294Y-147038D01*
X19294Y-147036D01*
X19294Y-147027D01*
X19294Y-147015D01*
X19292Y-146998D01*
X19292Y-146977D01*
X19290Y-146955D01*
X19288Y-146928D01*
X19283Y-146898D01*
X19275Y-146834D01*
X19261Y-146765D01*
X19240Y-146696D01*
X19213Y-146628D01*
X19213Y-146626D01*
X19208Y-146619D01*
X19204Y-146611D01*
X19198Y-146598D01*
X19190Y-146584D01*
X19179Y-146567D01*
X19154Y-146528D01*
X19121Y-146484D01*
X19081Y-146440D01*
X19036Y-146396D01*
X18981Y-146357D01*
X18979Y-146355D01*
X18975Y-146353D01*
X18967Y-146348D01*
X18954Y-146342D01*
X18940Y-146334D01*
X18923Y-146326D01*
X18904Y-146317D01*
X18881Y-146307D01*
X18856Y-146298D01*
X18831Y-146290D01*
X18773Y-146274D01*
X18709Y-146263D01*
X18673Y-146259D01*
X18673Y-146259D02*
G37*
G36*
X259338Y-154437D02*
X259232Y-154437D01*
X259179Y-154447D01*
X259095Y-154458D01*
X259010Y-154490D01*
X258915Y-154543D01*
X258830Y-154627D01*
X258777Y-154733D01*
X258767Y-154807D01*
X258756Y-154881D01*
X258756Y-154892D01*
X258756Y-154913D01*
X258767Y-154955D01*
X258777Y-155008D01*
X258819Y-155125D01*
X258851Y-155177D01*
X258894Y-155241D01*
X258904Y-155251D01*
X258925Y-155262D01*
X258957Y-155283D01*
X258999Y-155304D01*
X259105Y-155357D01*
X259179Y-155368D01*
X259253Y-155378D01*
X259274Y-155378D01*
X259327Y-155368D01*
X259401Y-155347D01*
X259486Y-155315D01*
X259571Y-155251D01*
X259645Y-155167D01*
X259698Y-155040D01*
X259719Y-154966D01*
X259719Y-154881D01*
X259719Y-154860D01*
X259708Y-154807D01*
X259698Y-154744D01*
X259666Y-154659D01*
X259603Y-154574D01*
X259518Y-154511D01*
X259412Y-154458D01*
X259338Y-154437D01*
X259338Y-154437D02*
G37*
%LPD*%
G36*
X259327Y-154574D02*
X259370Y-154585D01*
X259412Y-154617D01*
X259454Y-154648D01*
X259476Y-154701D01*
X259486Y-154765D01*
X259486Y-154775D01*
X259486Y-154796D01*
X259465Y-154860D01*
X259444Y-154892D01*
X259423Y-154923D01*
X259380Y-154945D01*
X259327Y-154955D01*
X259507Y-155241D01*
X259401Y-155241D01*
X259222Y-154955D01*
X259116Y-154955D01*
X259116Y-155241D01*
X259010Y-155241D01*
X259010Y-154564D01*
X259285Y-154564D01*
X259327Y-154574D01*
X259327Y-154574D02*
G37*
%LPC*%
G36*
X259285Y-154659D02*
X259116Y-154659D01*
X259116Y-154871D01*
X259296Y-154871D01*
X259338Y-154860D01*
X259370Y-154828D01*
X259380Y-154765D01*
X259380Y-154744D01*
X259370Y-154712D01*
X259338Y-154680D01*
X259285Y-154659D01*
X259285Y-154659D02*
G37*
G36*
X253603Y-155823D02*
X253560Y-155823D01*
X253508Y-155844D01*
X253444Y-155865D01*
X253370Y-155897D01*
X253296Y-155960D01*
X253201Y-156035D01*
X253116Y-156140D01*
X252227Y-157389D01*
X254925Y-161664D01*
X254936Y-161685D01*
X254968Y-161727D01*
X255010Y-161791D01*
X255074Y-161854D01*
X255148Y-161928D01*
X255222Y-161992D01*
X255296Y-162034D01*
X255380Y-162055D01*
X255423Y-162055D01*
X255476Y-162045D01*
X255539Y-162024D01*
X255613Y-161981D01*
X255687Y-161939D01*
X255772Y-161865D01*
X255846Y-161770D01*
X256788Y-160415D01*
X254079Y-156151D01*
X254068Y-156140D01*
X254047Y-156098D01*
X253994Y-156045D01*
X253941Y-155982D01*
X253867Y-155929D01*
X253793Y-155876D01*
X253698Y-155833D01*
X253603Y-155823D01*
X253603Y-155823D02*
G37*
G36*
X268756Y-166172D02*
X267401Y-166172D01*
X267401Y-167050D01*
X268819Y-167050D01*
X268840Y-167039D01*
X268883Y-167029D01*
X268925Y-167008D01*
X268957Y-166965D01*
X268999Y-166902D01*
X269020Y-166807D01*
X269031Y-166690D01*
X269031Y-166563D01*
X269031Y-166542D01*
X269031Y-166500D01*
X269020Y-166436D01*
X268999Y-166362D01*
X268967Y-166299D01*
X268914Y-166235D01*
X268851Y-166193D01*
X268756Y-166172D01*
X268756Y-166172D02*
G37*
G36*
X253254Y-166172D02*
X251994Y-166172D01*
X251994Y-167039D01*
X253338Y-167039D01*
X253370Y-167029D01*
X253423Y-167018D01*
X253476Y-166987D01*
X253518Y-166944D01*
X253571Y-166881D01*
X253603Y-166785D01*
X253613Y-166658D01*
X253613Y-166563D01*
X253613Y-166542D01*
X253613Y-166500D01*
X253592Y-166436D01*
X253571Y-166362D01*
X253529Y-166299D01*
X253465Y-166235D01*
X253370Y-166193D01*
X253254Y-166172D01*
X253254Y-166172D02*
G37*
G36*
X256788Y-166172D02*
X255899Y-166172D01*
X255857Y-166182D01*
X255804Y-166193D01*
X255751Y-166214D01*
X255698Y-166235D01*
X255645Y-166278D01*
X255592Y-166330D01*
X255592Y-166341D01*
X255571Y-166362D01*
X255560Y-166394D01*
X255539Y-166457D01*
X255518Y-166532D01*
X255507Y-166616D01*
X255486Y-166733D01*
X255486Y-166870D01*
X255486Y-167262D01*
X255486Y-167283D01*
X255486Y-167325D01*
X255486Y-167389D01*
X255497Y-167473D01*
X255518Y-167653D01*
X255539Y-167738D01*
X255560Y-167801D01*
X255560Y-167812D01*
X255581Y-167822D01*
X255603Y-167844D01*
X255634Y-167875D01*
X255677Y-167907D01*
X255730Y-167928D01*
X255804Y-167939D01*
X255888Y-167949D01*
X256830Y-167949D01*
X256883Y-167939D01*
X256957Y-167918D01*
X257042Y-167865D01*
X257116Y-167780D01*
X257158Y-167727D01*
X257190Y-167664D01*
X257222Y-167579D01*
X257243Y-167484D01*
X257264Y-167378D01*
X257264Y-167262D01*
X257264Y-166870D01*
X257264Y-166849D01*
X257264Y-166807D01*
X257253Y-166743D01*
X257243Y-166658D01*
X257201Y-166479D01*
X257169Y-166394D01*
X257116Y-166330D01*
X257105Y-166320D01*
X257095Y-166309D01*
X257063Y-166278D01*
X257021Y-166246D01*
X256915Y-166193D01*
X256862Y-166182D01*
X256788Y-166172D01*
X256788Y-166172D02*
G37*
%LPD*%
D10*
X57002Y39188D02*
X57002Y38355D01*
X57169Y38188D01*
X57502Y38188D01*
X57669Y38355D01*
X57669Y39188D01*
X58668Y38188D02*
X58002Y38188D01*
X58668Y38854D01*
X58668Y39021D01*
X58502Y39188D01*
X58169Y39188D01*
X58002Y39021D01*
X34891Y28762D02*
X34891Y27929D01*
X35058Y27762D01*
X35391Y27762D01*
X35558Y27929D01*
X35558Y28762D01*
X35891Y28595D02*
X36058Y28762D01*
X36391Y28762D01*
X36557Y28595D01*
X36557Y28428D01*
X36391Y28262D01*
X36224Y28262D01*
X36391Y28262D01*
X36557Y28095D01*
X36557Y27929D01*
X36391Y27762D01*
X36058Y27762D01*
X35891Y27929D01*
X7783Y28762D02*
X7783Y27929D01*
X7950Y27762D01*
X8283Y27762D01*
X8450Y27929D01*
X8450Y28762D01*
X8783Y27762D02*
X9116Y27762D01*
X8950Y27762D01*
X8950Y28762D01*
X8783Y28595D01*
X56945Y2913D02*
X56945Y1913D01*
X56445Y1913D01*
X56279Y2080D01*
X56279Y2413D01*
X56445Y2580D01*
X56945Y2580D01*
X56612Y2580D02*
X56279Y2913D01*
X55945Y2913D02*
X55945Y1913D01*
X55279Y2913D01*
X55279Y1913D01*
X54446Y2913D02*
X54446Y1913D01*
X54946Y2413D01*
X54279Y2413D01*
X53946Y2080D02*
X53779Y1913D01*
X53446Y1913D01*
X53279Y2080D01*
X53279Y2247D01*
X53446Y2413D01*
X53279Y2580D01*
X53279Y2746D01*
X53446Y2913D01*
X53779Y2913D01*
X53946Y2746D01*
X53946Y2580D01*
X53779Y2413D01*
X53946Y2247D01*
X53946Y2080D01*
X53779Y2413D02*
X53446Y2413D01*
X52946Y1913D02*
X52280Y1913D01*
X52280Y2080D01*
X52946Y2746D01*
X52946Y2913D01*
X51947Y2080D02*
X51780Y1913D01*
X51447Y1913D01*
X51280Y2080D01*
X51280Y2746D01*
X51447Y2913D01*
X51780Y2913D01*
X51947Y2746D01*
X51947Y2080D01*
X56945Y9036D02*
X56945Y8036D01*
X56445Y8036D01*
X56279Y8203D01*
X56279Y8536D01*
X56445Y8703D01*
X56945Y8703D01*
X56612Y8703D02*
X56279Y9036D01*
X55945Y9036D02*
X55945Y8036D01*
X55279Y9036D01*
X55279Y8036D01*
X54446Y9036D02*
X54446Y8036D01*
X54946Y8536D01*
X54279Y8536D01*
X53279Y8036D02*
X53613Y8203D01*
X53946Y8536D01*
X53946Y8869D01*
X53779Y9036D01*
X53446Y9036D01*
X53279Y8869D01*
X53279Y8703D01*
X53446Y8536D01*
X53946Y8536D01*
X52946Y8036D02*
X52280Y8036D01*
X52280Y8203D01*
X52946Y8869D01*
X52946Y9036D01*
X51947Y8203D02*
X51780Y8036D01*
X51447Y8036D01*
X51280Y8203D01*
X51280Y8370D01*
X51447Y8536D01*
X51280Y8703D01*
X51280Y8869D01*
X51447Y9036D01*
X51780Y9036D01*
X51947Y8869D01*
X51947Y8703D01*
X51780Y8536D01*
X51947Y8370D01*
X51947Y8203D01*
X51780Y8536D02*
X51447Y8536D01*
X56945Y15105D02*
X56945Y14105D01*
X56445Y14105D01*
X56279Y14272D01*
X56279Y14605D01*
X56445Y14772D01*
X56945Y14772D01*
X56612Y14772D02*
X56279Y15105D01*
X55945Y15105D02*
X55945Y14105D01*
X55279Y15105D01*
X55279Y14105D01*
X54446Y15105D02*
X54446Y14105D01*
X54946Y14605D01*
X54279Y14605D01*
X53946Y14272D02*
X53779Y14105D01*
X53446Y14105D01*
X53279Y14272D01*
X53279Y14439D01*
X53446Y14605D01*
X53279Y14772D01*
X53279Y14938D01*
X53446Y15105D01*
X53779Y15105D01*
X53946Y14938D01*
X53946Y14772D01*
X53779Y14605D01*
X53946Y14439D01*
X53946Y14272D01*
X53779Y14605D02*
X53446Y14605D01*
X52946Y14105D02*
X52280Y14105D01*
X52280Y14272D01*
X52946Y14938D01*
X52946Y15105D01*
X51947Y15105D02*
X51613Y15105D01*
X51780Y15105D01*
X51780Y14105D01*
X51947Y14272D01*
X70991Y2355D02*
X71324Y2355D01*
X71157Y2355D01*
X71157Y3188D01*
X71324Y3355D01*
X71490Y3355D01*
X71657Y3188D01*
X69991Y2355D02*
X70657Y2355D01*
X70657Y2855D01*
X70324Y2689D01*
X70157Y2689D01*
X69991Y2855D01*
X69991Y3188D01*
X70157Y3355D01*
X70491Y3355D01*
X70657Y3188D01*
X69658Y3522D02*
X68991Y3522D01*
X68658Y3355D02*
X68325Y3355D01*
X68491Y3355D01*
X68491Y2355D01*
X68658Y2522D01*
X68691Y16875D02*
X69024Y16875D01*
X68857Y16875D01*
X68857Y17708D01*
X69024Y17875D01*
X69190Y17875D01*
X69357Y17708D01*
X67857Y17875D02*
X67857Y16875D01*
X68357Y17375D01*
X67691Y17375D01*
X67358Y18042D02*
X66691Y18042D01*
X66358Y17875D02*
X66025Y17875D01*
X66191Y17875D01*
X66191Y16875D01*
X66358Y17042D01*
X16676Y14480D02*
X16843Y14646D01*
X16843Y14979D01*
X16676Y15146D01*
X16510Y15146D01*
X16343Y14979D01*
X16343Y14646D01*
X16177Y14480D01*
X16010Y14480D01*
X15843Y14646D01*
X15843Y14979D01*
X16010Y15146D01*
X16843Y14146D02*
X15843Y14146D01*
X16177Y13813D01*
X15843Y13480D01*
X16843Y13480D01*
X16676Y13147D02*
X16843Y12980D01*
X16843Y12647D01*
X16676Y12480D01*
X16510Y12480D01*
X16343Y12647D01*
X16343Y12813D01*
X16343Y12647D01*
X16177Y12480D01*
X16010Y12480D01*
X15843Y12647D01*
X15843Y12980D01*
X16010Y13147D01*
X60581Y23349D02*
X60747Y23182D01*
X61080Y23182D01*
X61247Y23349D01*
X61247Y23516D01*
X61080Y23682D01*
X60747Y23682D01*
X60581Y23849D01*
X60581Y24015D01*
X60747Y24182D01*
X61080Y24182D01*
X61247Y24015D01*
X60247Y23182D02*
X60247Y24182D01*
X59914Y23849D01*
X59581Y24182D01*
X59581Y23182D01*
X58748Y24182D02*
X58748Y23182D01*
X59248Y23682D01*
X58581Y23682D01*
X30299Y24760D02*
X30299Y24427D01*
X30299Y24593D01*
X31299Y24593D01*
X31132Y24760D01*
X27576Y24221D02*
X27743Y24387D01*
X27743Y24720D01*
X27576Y24887D01*
X27410Y24887D01*
X27243Y24720D01*
X27243Y24387D01*
X27077Y24221D01*
X26910Y24221D01*
X26743Y24387D01*
X26743Y24720D01*
X26910Y24887D01*
X27743Y23887D02*
X26743Y23887D01*
X27077Y23554D01*
X26743Y23221D01*
X27743Y23221D01*
X27743Y22221D02*
X27743Y22888D01*
X27243Y22888D01*
X27410Y22554D01*
X27410Y22388D01*
X27243Y22221D01*
X26910Y22221D01*
X26743Y22388D01*
X26743Y22721D01*
X26910Y22888D01*
X32773Y14761D02*
X32940Y14927D01*
X32940Y15260D01*
X32773Y15427D01*
X32607Y15427D01*
X32440Y15260D01*
X32440Y14927D01*
X32274Y14761D01*
X32107Y14761D01*
X31940Y14927D01*
X31940Y15260D01*
X32107Y15427D01*
X32940Y14427D02*
X31940Y14427D01*
X32274Y14094D01*
X31940Y13761D01*
X32940Y13761D01*
X32940Y13428D02*
X32940Y12761D01*
X32773Y12761D01*
X32107Y13428D01*
X31940Y13428D01*
X337357Y-153546D02*
X337357Y-154403D01*
X337000Y-153761D02*
X337714Y-154189D01*
X337714Y-153761D02*
X337000Y-154189D01*
X338378Y-153546D02*
X338378Y-154403D01*
X338021Y-153761D02*
X338735Y-154189D01*
X338735Y-153761D02*
X338021Y-154189D01*
D11*
X31694Y28312D02*
X31694Y31512D01*
X30094Y28312D02*
X30094Y31512D01*
X31694Y31512D01*
X30094Y28312D02*
X31694Y28312D01*
X1567Y17317D02*
X2817Y17317D01*
X1567Y15317D02*
X2817Y15317D01*
X2817Y17317D01*
X1567Y15317D02*
X1567Y17317D01*
X3520Y13589D02*
X3520Y17145D01*
X13120Y17145D01*
X13120Y13589D02*
X13120Y17145D01*
X3520Y13589D02*
X13120Y13589D01*
X52645Y1013D02*
X52645Y3763D01*
X52645Y1013D02*
X57845Y1013D01*
X57845Y3473D01*
X57555Y3763D02*
X57845Y3473D01*
X52645Y3763D02*
X57555Y3763D01*
X52645Y7136D02*
X52645Y9886D01*
X52645Y7136D02*
X57845Y7136D01*
X57845Y9596D01*
X57555Y9886D02*
X57845Y9596D01*
X52645Y9886D02*
X57555Y9886D01*
X52645Y13205D02*
X52645Y15955D01*
X52645Y13205D02*
X57845Y13205D01*
X57845Y15665D01*
X57555Y15955D02*
X57845Y15665D01*
X52645Y15955D02*
X57555Y15955D01*
X60877Y1355D02*
X78877Y1355D01*
X60877Y1355D02*
X60877Y4155D01*
X76177Y1355D02*
X76177Y4155D01*
X78877Y1355D02*
X78877Y3935D01*
X78657Y4155D02*
X78877Y3935D01*
X60877Y4155D02*
X78657Y4155D01*
X60877Y16595D02*
X78877Y16595D01*
X60877Y16595D02*
X60877Y19395D01*
X76177Y16595D02*
X76177Y19395D01*
X78877Y16595D02*
X78877Y19175D01*
X78657Y19395D02*
X78877Y19175D01*
X60877Y19395D02*
X78657Y19395D01*
X4897Y31312D02*
X4897Y34512D01*
X3297Y31312D02*
X3297Y34512D01*
X4897Y34512D01*
X3297Y31312D02*
X4897Y31312D01*
X66289Y30248D02*
X66289Y33448D01*
X67889Y30248D02*
X67889Y33448D01*
X66289Y30248D02*
X67889Y30248D01*
X66289Y33448D02*
X67889Y33448D01*
X2292Y31462D02*
X2292Y33462D01*
X1092Y31462D02*
X2292Y31462D01*
X1092Y33462D02*
X2292Y33462D01*
X1092Y31462D02*
X1092Y33462D01*
X20933Y27162D02*
X20933Y29162D01*
X19733Y27162D02*
X20933Y27162D01*
X19733Y29162D02*
X20933Y29162D01*
X19733Y27162D02*
X19733Y29162D01*
X67139Y29175D02*
X69139Y29175D01*
X69139Y27975D02*
X69139Y29175D01*
X67139Y27975D02*
X67139Y29175D01*
X67139Y27975D02*
X69139Y27975D01*
X68648Y31298D02*
X68648Y33298D01*
X69848Y33298D01*
X68648Y31298D02*
X69848Y31298D01*
X69848Y33298D01*
X46503Y29262D02*
X46503Y31262D01*
X47703Y31262D01*
X46503Y29262D02*
X47703Y29262D01*
X47703Y31262D01*
X73611Y24757D02*
X73611Y26007D01*
X75611Y24757D02*
X75611Y26007D01*
X73611Y26007D02*
X75611Y26007D01*
X73611Y24757D02*
X75611Y24757D01*
X20283Y18237D02*
X20283Y19487D01*
X22283Y18237D02*
X22283Y19487D01*
X20283Y19487D02*
X22283Y19487D01*
X20283Y18237D02*
X22283Y18237D01*
X64940Y24882D02*
X66190Y24882D01*
X64940Y26882D02*
X66190Y26882D01*
X64940Y24882D02*
X64940Y26882D01*
X66190Y24882D02*
X66190Y26882D01*
X28690Y25918D02*
X28690Y27168D01*
X30690Y25918D02*
X30690Y27168D01*
X28690Y27168D02*
X30690Y27168D01*
X28690Y25918D02*
X30690Y25918D01*
X45653Y9562D02*
X45653Y10812D01*
X47653Y9562D02*
X47653Y10812D01*
X45653Y10812D02*
X47653Y10812D01*
X45653Y9562D02*
X47653Y9562D01*
X45653Y12102D02*
X45653Y13352D01*
X47653Y12102D02*
X47653Y13352D01*
X45653Y13352D02*
X47653Y13352D01*
X45653Y12102D02*
X47653Y12102D01*
X45603Y14642D02*
X45603Y15892D01*
X47603Y14642D02*
X47603Y15892D01*
X45603Y15892D02*
X47603Y15892D01*
X45603Y14642D02*
X47603Y14642D01*
X73820Y27098D02*
X77376Y27098D01*
X73820Y27098D02*
X73820Y36698D01*
X77376Y36698D01*
X77376Y27098D02*
X77376Y36698D01*
X17343Y9446D02*
X17343Y15446D01*
X13743Y9446D02*
X17343Y9446D01*
X13743Y9446D02*
X13743Y15446D01*
X17343Y15446D01*
X55547Y22682D02*
X61547Y22682D01*
X55547Y22682D02*
X55547Y26282D01*
X61547Y26282D01*
X61547Y22682D02*
X61547Y26282D01*
X24673Y18212D02*
X24673Y25212D01*
X31640Y25212D01*
X31640Y18212D02*
X31640Y25212D01*
X24673Y18212D02*
X31640Y18212D01*
X34398Y8155D02*
X44304Y8155D01*
X44304Y17299D01*
X34398Y17299D02*
X44304Y17299D01*
X34398Y8155D02*
X34398Y17299D01*
X33440Y9727D02*
X33440Y15727D01*
X29840Y9727D02*
X33440Y9727D01*
X29840Y9727D02*
X29840Y15727D01*
X33440Y15727D01*
X347700Y-175396D02*
X347700Y-174796D01*
X353820Y-155796D02*
X353820Y-155796D01*
X342700Y-175596D02*
X342700Y-174596D01*
X342540Y-177431D02*
X342540Y-176161D01*
X345080Y-177431D02*
X345080Y-176161D01*
X347620Y-177431D02*
X347620Y-176161D01*
X350160Y-177431D02*
X350160Y-176161D01*
X352700Y-175596D02*
X352700Y-174596D01*
X352700Y-177431D02*
X352700Y-176161D01*
X324000Y-155796D02*
X324000Y-152796D01*
X342540Y-176796D02*
X352700Y-176796D01*
X342700Y-175096D02*
X352700Y-175096D01*
X324000Y-155796D02*
X353820Y-155796D01*
X272000Y-160296D02*
X353820Y-160296D01*
X339233Y-176396D02*
X338900Y-176863D01*
X339400Y-176863D01*
X339233Y-176396D02*
X339233Y-177096D01*
X339723Y-176396D02*
X339623Y-176429D01*
X339557Y-176529D01*
X339523Y-176696D01*
X339523Y-176796D01*
X339557Y-176963D01*
X339623Y-177063D01*
X339723Y-177096D01*
X339790Y-177096D01*
X339890Y-177063D01*
X339956Y-176963D01*
X339990Y-176796D01*
X339990Y-176696D01*
X339956Y-176529D01*
X339890Y-176429D01*
X339790Y-176396D01*
X339723Y-176396D01*
X340346Y-176396D02*
X340246Y-176429D01*
X340180Y-176529D01*
X340146Y-176696D01*
X340146Y-176796D01*
X340180Y-176963D01*
X340246Y-177063D01*
X340346Y-177096D01*
X340413Y-177096D01*
X340513Y-177063D01*
X340580Y-176963D01*
X340613Y-176796D01*
X340613Y-176696D01*
X340580Y-176529D01*
X340513Y-176429D01*
X340413Y-176396D01*
X340346Y-176396D01*
X340770Y-176629D02*
X340770Y-177096D01*
X340770Y-176763D02*
X340870Y-176663D01*
X340936Y-176629D01*
X341036Y-176629D01*
X341103Y-176663D01*
X341136Y-176763D01*
X341136Y-177096D01*
X341136Y-176763D02*
X341236Y-176663D01*
X341303Y-176629D01*
X341403Y-176629D01*
X341469Y-176663D01*
X341503Y-176763D01*
X341503Y-177096D01*
X341789Y-176396D02*
X341823Y-176429D01*
X341856Y-176396D01*
X341823Y-176363D01*
X341789Y-176396D01*
X341823Y-176629D02*
X341823Y-177096D01*
X341979Y-176396D02*
X341979Y-177096D01*
X339000Y-174829D02*
X339067Y-174796D01*
X339167Y-174696D01*
X339167Y-175396D01*
X339713Y-174696D02*
X339613Y-174729D01*
X339547Y-174829D01*
X339513Y-174996D01*
X339513Y-175096D01*
X339547Y-175263D01*
X339613Y-175363D01*
X339713Y-175396D01*
X339780Y-175396D01*
X339880Y-175363D01*
X339946Y-175263D01*
X339980Y-175096D01*
X339980Y-174996D01*
X339946Y-174829D01*
X339880Y-174729D01*
X339780Y-174696D01*
X339713Y-174696D01*
X340136Y-174929D02*
X340136Y-175396D01*
X340136Y-175063D02*
X340236Y-174963D01*
X340303Y-174929D01*
X340403Y-174929D01*
X340470Y-174963D01*
X340503Y-175063D01*
X340503Y-175396D01*
X340503Y-175063D02*
X340603Y-174963D01*
X340670Y-174929D01*
X340770Y-174929D01*
X340836Y-174963D01*
X340870Y-175063D01*
X340870Y-175396D01*
X341090Y-174929D02*
X341090Y-175396D01*
X341090Y-175063D02*
X341190Y-174963D01*
X341256Y-174929D01*
X341356Y-174929D01*
X341423Y-174963D01*
X341456Y-175063D01*
X341456Y-175396D01*
X341456Y-175063D02*
X341556Y-174963D01*
X341623Y-174929D01*
X341723Y-174929D01*
X341789Y-174963D01*
X341823Y-175063D01*
X341823Y-175396D01*
D13*
X10705Y15297D02*
X10959Y15043D01*
X11467Y15043D01*
X11721Y15297D01*
X11721Y15551D01*
X11467Y15805D01*
X10959Y15805D01*
X10705Y16059D01*
X10705Y16313D01*
X10959Y16567D01*
X11467Y16567D01*
X11721Y16313D01*
X10197Y15043D02*
X10197Y16567D01*
X9689Y16059D01*
X9181Y16567D01*
X9181Y15043D01*
X8674Y16567D02*
X8166Y16567D01*
X8420Y16567D01*
X8420Y15043D01*
X8674Y15297D01*
X12621Y15267D02*
X12287Y15267D01*
X12454Y15267D01*
X12454Y14267D01*
X12621Y14434D01*
X75668Y34282D02*
X75922Y34536D01*
X75922Y35044D01*
X75668Y35298D01*
X75414Y35298D01*
X75160Y35044D01*
X75160Y34536D01*
X74906Y34282D01*
X74652Y34282D01*
X74398Y34536D01*
X74398Y35044D01*
X74652Y35298D01*
X75922Y33775D02*
X74398Y33775D01*
X74906Y33267D01*
X74398Y32759D01*
X75922Y32759D01*
X74398Y31235D02*
X74398Y32251D01*
X75414Y31235D01*
X75668Y31235D01*
X75922Y31489D01*
X75922Y31997D01*
X75668Y32251D01*
X75698Y36198D02*
X75698Y35865D01*
X75698Y36031D01*
X76698Y36031D01*
X76531Y36198D01*
X41637Y9933D02*
X41637Y10266D01*
X41637Y10100D01*
X40638Y10100D01*
X40804Y9933D01*
X37066Y9425D02*
X36812Y9171D01*
X36812Y8663D01*
X37066Y8409D01*
X37320Y8409D01*
X37574Y8663D01*
X37574Y9171D01*
X37827Y9425D01*
X38081Y9425D01*
X38335Y9171D01*
X38335Y8663D01*
X38081Y8409D01*
X36812Y9933D02*
X38335Y9933D01*
X37827Y10440D01*
X38335Y10948D01*
X36812Y10948D01*
X36812Y12472D02*
X37066Y11964D01*
X37574Y11456D01*
X38081Y11456D01*
X38335Y11710D01*
X38335Y12218D01*
X38081Y12472D01*
X37827Y12472D01*
X37574Y12218D01*
X37574Y11456D01*
X353820Y43924D02*
X353820Y52924D01*
X232320Y52924D02*
X353820Y52924D01*
X255820Y43924D02*
X255820Y48424D01*
X232320Y48424D02*
X232320Y52924D01*
X232320Y48424D02*
X353820Y48424D01*
X243320Y48424D02*
X243320Y52924D01*
X255820Y48424D02*
X255820Y52924D01*
X334320Y48424D02*
X334320Y52924D01*
X232320Y43924D02*
X232320Y48424D01*
X232320Y43924D02*
X353820Y43924D01*
X334320Y43924D02*
X334320Y48424D01*
X243320Y43924D02*
X243320Y48424D01*
X234820Y49924D02*
X234820Y51448D01*
X235582Y51448D01*
X235836Y51194D01*
X235836Y50686D01*
X235582Y50432D01*
X234820Y50432D01*
X235328Y50432D02*
X235836Y49924D01*
X237359Y51448D02*
X236344Y51448D01*
X236344Y49924D01*
X237359Y49924D01*
X236344Y50686D02*
X236851Y50686D01*
X237867Y51448D02*
X237867Y50432D01*
X238375Y49924D01*
X238883Y50432D01*
X238883Y51448D01*
X245836Y51448D02*
X244820Y51448D01*
X244820Y49924D01*
X245836Y49924D01*
X244820Y50686D02*
X245328Y50686D01*
X247359Y51194D02*
X247105Y51448D01*
X246597Y51448D01*
X246344Y51194D01*
X246344Y50178D01*
X246597Y49924D01*
X247105Y49924D01*
X247359Y50178D01*
X248629Y51448D02*
X248121Y51448D01*
X247867Y51194D01*
X247867Y50178D01*
X248121Y49924D01*
X248629Y49924D01*
X248883Y50178D01*
X248883Y51194D01*
X248629Y51448D01*
X292336Y50694D02*
X292082Y50948D01*
X291574Y50948D01*
X291320Y50694D01*
X291320Y49678D01*
X291574Y49424D01*
X292082Y49424D01*
X292336Y49678D01*
X293097Y49424D02*
X293605Y49424D01*
X293859Y49678D01*
X293859Y50186D01*
X293605Y50440D01*
X293097Y50440D01*
X292844Y50186D01*
X292844Y49678D01*
X293097Y49424D01*
X294367Y49424D02*
X294367Y50440D01*
X294621Y50440D01*
X294875Y50186D01*
X294875Y49424D01*
X294875Y50186D01*
X295129Y50440D01*
X295383Y50186D01*
X295383Y49424D01*
X295891Y49424D02*
X295891Y50440D01*
X296144Y50440D01*
X296398Y50186D01*
X296398Y49424D01*
X296398Y50186D01*
X296652Y50440D01*
X296906Y50186D01*
X296906Y49424D01*
X298176Y49424D02*
X297668Y49424D01*
X297414Y49678D01*
X297414Y50186D01*
X297668Y50440D01*
X298176Y50440D01*
X298430Y50186D01*
X298430Y49932D01*
X297414Y49932D01*
X298938Y49424D02*
X298938Y50440D01*
X299699Y50440D01*
X299953Y50186D01*
X299953Y49424D01*
X300715Y50694D02*
X300715Y50440D01*
X300461Y50440D01*
X300969Y50440D01*
X300715Y50440D01*
X300715Y49678D01*
X300969Y49424D01*
X301731Y49424D02*
X302492Y49424D01*
X302746Y49678D01*
X302492Y49932D01*
X301985Y49932D01*
X301731Y50186D01*
X301985Y50440D01*
X302746Y50440D01*
X339320Y50948D02*
X339320Y49424D01*
X340082Y49424D01*
X340336Y49678D01*
X340336Y50694D01*
X340082Y50948D01*
X339320Y50948D01*
X341097Y50440D02*
X341605Y50440D01*
X341859Y50186D01*
X341859Y49424D01*
X341097Y49424D01*
X340844Y49678D01*
X341097Y49932D01*
X341859Y49932D01*
X342621Y50694D02*
X342621Y50440D01*
X342367Y50440D01*
X342875Y50440D01*
X342621Y50440D01*
X342621Y49678D01*
X342875Y49424D01*
X344398Y49424D02*
X343891Y49424D01*
X343637Y49678D01*
X343637Y50186D01*
X343891Y50440D01*
X344398Y50440D01*
X344652Y50186D01*
X344652Y49932D01*
X343637Y49932D01*
D14*
X30645Y29012D02*
X30520Y28887D01*
X30520Y28637D01*
X30645Y28512D01*
X31144Y28512D01*
X31269Y28637D01*
X31269Y28887D01*
X31144Y29012D01*
X30645Y29262D02*
X30520Y29387D01*
X30520Y29637D01*
X30645Y29762D01*
X30769Y29762D01*
X30894Y29637D01*
X30894Y29512D01*
X30894Y29637D01*
X31019Y29762D01*
X31144Y29762D01*
X31269Y29637D01*
X31269Y29387D01*
X31144Y29262D01*
X3848Y32012D02*
X3723Y31887D01*
X3723Y31637D01*
X3848Y31512D01*
X4347Y31512D01*
X4472Y31637D01*
X4472Y31887D01*
X4347Y32012D01*
X4472Y32262D02*
X4472Y32512D01*
X4472Y32387D01*
X3723Y32387D01*
X3848Y32262D01*
X67339Y32748D02*
X67464Y32873D01*
X67464Y33123D01*
X67339Y33248D01*
X66839Y33248D01*
X66714Y33123D01*
X66714Y32873D01*
X66839Y32748D01*
X66714Y31998D02*
X66714Y32498D01*
X67214Y31998D01*
X67339Y31998D01*
X67464Y32123D01*
X67464Y32373D01*
X67339Y32498D01*
X1393Y31062D02*
X2092Y31062D01*
X2092Y31412D01*
X1976Y31529D01*
X1509Y31529D01*
X1393Y31412D01*
X1393Y31062D01*
X2092Y31762D02*
X2092Y31995D01*
X2092Y31878D01*
X1393Y31878D01*
X1509Y31762D01*
X20034Y26762D02*
X20733Y26762D01*
X20733Y27112D01*
X20617Y27229D01*
X20150Y27229D01*
X20034Y27112D01*
X20034Y26762D01*
X20733Y27928D02*
X20733Y27462D01*
X20267Y27928D01*
X20150Y27928D01*
X20034Y27812D01*
X20034Y27578D01*
X20150Y27462D01*
X69539Y28275D02*
X69539Y28975D01*
X69189Y28975D01*
X69073Y28858D01*
X69073Y28392D01*
X69189Y28275D01*
X69539Y28275D01*
X68840Y28392D02*
X68723Y28275D01*
X68490Y28275D01*
X68373Y28392D01*
X68373Y28508D01*
X68490Y28625D01*
X68606Y28625D01*
X68490Y28625D01*
X68373Y28742D01*
X68373Y28858D01*
X68490Y28975D01*
X68723Y28975D01*
X68840Y28858D01*
X69548Y33698D02*
X68848Y33698D01*
X68848Y33348D01*
X68965Y33231D01*
X69431Y33231D01*
X69548Y33348D01*
X69548Y33698D01*
X68848Y32648D02*
X69548Y32648D01*
X69198Y32998D01*
X69198Y32532D01*
X47403Y31662D02*
X46703Y31662D01*
X46703Y31312D01*
X46820Y31195D01*
X47286Y31195D01*
X47403Y31312D01*
X47403Y31662D01*
X47403Y30496D02*
X47403Y30962D01*
X47053Y30962D01*
X47170Y30729D01*
X47170Y30612D01*
X47053Y30496D01*
X46820Y30496D01*
X46703Y30612D01*
X46703Y30846D01*
X46820Y30962D01*
X273186Y-161546D02*
X272843Y-160646D01*
X272500Y-161546D01*
X272629Y-161246D02*
X273057Y-161246D01*
X273995Y-160775D02*
X273910Y-160689D01*
X273781Y-160646D01*
X273610Y-160646D01*
X273481Y-160689D01*
X273396Y-160775D01*
X273396Y-160860D01*
X273438Y-160946D01*
X273481Y-160989D01*
X273567Y-161032D01*
X273824Y-161118D01*
X273910Y-161160D01*
X273953Y-161203D01*
X273995Y-161289D01*
X273995Y-161417D01*
X273910Y-161503D01*
X273781Y-161546D01*
X273610Y-161546D01*
X273481Y-161503D01*
X273396Y-161417D01*
X274797Y-160775D02*
X274711Y-160689D01*
X274582Y-160646D01*
X274411Y-160646D01*
X274282Y-160689D01*
X274197Y-160775D01*
X274197Y-160860D01*
X274240Y-160946D01*
X274282Y-160989D01*
X274368Y-161032D01*
X274625Y-161118D01*
X274711Y-161160D01*
X274754Y-161203D01*
X274797Y-161289D01*
X274797Y-161417D01*
X274711Y-161503D01*
X274582Y-161546D01*
X274411Y-161546D01*
X274282Y-161503D01*
X274197Y-161417D01*
X275555Y-160646D02*
X274998Y-160646D01*
X274998Y-161546D01*
X275555Y-161546D01*
X274998Y-161075D02*
X275341Y-161075D01*
X275705Y-160646D02*
X275705Y-161546D01*
X275705Y-160646D02*
X276048Y-161546D01*
X276391Y-160646D02*
X276048Y-161546D01*
X276391Y-160646D02*
X276391Y-161546D01*
X276648Y-160646D02*
X276648Y-161546D01*
X276648Y-160646D02*
X277033Y-160646D01*
X277162Y-160689D01*
X277205Y-160732D01*
X277248Y-160818D01*
X277248Y-160903D01*
X277205Y-160989D01*
X277162Y-161032D01*
X277033Y-161075D01*
X276648Y-161075D02*
X277033Y-161075D01*
X277162Y-161118D01*
X277205Y-161160D01*
X277248Y-161246D01*
X277248Y-161375D01*
X277205Y-161460D01*
X277162Y-161503D01*
X277033Y-161546D01*
X276648Y-161546D01*
X277449Y-160646D02*
X277449Y-161546D01*
X277963Y-161546D01*
X278062Y-160646D02*
X278404Y-161075D01*
X278404Y-161546D01*
X278747Y-160646D02*
X278404Y-161075D01*
X279570Y-160646D02*
X279913Y-161546D01*
X280255Y-160646D02*
X279913Y-161546D01*
X281057Y-161546D02*
X280714Y-160646D01*
X280371Y-161546D01*
X280500Y-161246D02*
X280928Y-161246D01*
X281267Y-160646D02*
X281267Y-161546D01*
X281267Y-160646D02*
X281652Y-160646D01*
X281781Y-160689D01*
X281824Y-160732D01*
X281867Y-160818D01*
X281867Y-160903D01*
X281824Y-160989D01*
X281781Y-161032D01*
X281652Y-161075D01*
X281267Y-161075D01*
X281567Y-161075D02*
X281867Y-161546D01*
X282068Y-160646D02*
X282068Y-161546D01*
X282942Y-161546D02*
X282599Y-160646D01*
X282257Y-161546D01*
X282385Y-161246D02*
X282814Y-161246D01*
X283152Y-160646D02*
X283152Y-161546D01*
X283152Y-160646D02*
X283752Y-161546D01*
X283752Y-160646D02*
X283752Y-161546D01*
X284300Y-160646D02*
X284300Y-161546D01*
X284000Y-160646D02*
X284600Y-160646D01*
X284750Y-160946D02*
X284707Y-160989D01*
X284750Y-161032D01*
X284793Y-160989D01*
X284750Y-160946D01*
X284750Y-161460D02*
X284707Y-161503D01*
X284750Y-161546D01*
X284793Y-161503D01*
X284750Y-161460D01*
X300833Y-176546D02*
X300833Y-177546D01*
X300500Y-176546D02*
X301167Y-176546D01*
X301524Y-176879D02*
X301428Y-176927D01*
X301333Y-177022D01*
X301286Y-177165D01*
X301286Y-177260D01*
X301333Y-177403D01*
X301428Y-177498D01*
X301524Y-177546D01*
X301666Y-177546D01*
X301762Y-177498D01*
X301857Y-177403D01*
X301904Y-177260D01*
X301904Y-177165D01*
X301857Y-177022D01*
X301762Y-176927D01*
X301666Y-176879D01*
X301524Y-176879D01*
X302123Y-176879D02*
X302123Y-177879D01*
X302123Y-177022D02*
X302219Y-176927D01*
X302314Y-176879D01*
X302457Y-176879D01*
X302552Y-176927D01*
X302647Y-177022D01*
X302695Y-177165D01*
X302695Y-177260D01*
X302647Y-177403D01*
X302552Y-177498D01*
X302457Y-177546D01*
X302314Y-177546D01*
X302219Y-177498D01*
X302123Y-177403D01*
X304456Y-177546D02*
X304075Y-176546D01*
X303695Y-177546D01*
X303837Y-177213D02*
X304313Y-177213D01*
X305213Y-177022D02*
X305166Y-176927D01*
X305023Y-176879D01*
X304880Y-176879D01*
X304737Y-176927D01*
X304690Y-177022D01*
X304737Y-177118D01*
X304832Y-177165D01*
X305070Y-177213D01*
X305166Y-177260D01*
X305213Y-177356D01*
X305213Y-177403D01*
X305166Y-177498D01*
X305023Y-177546D01*
X304880Y-177546D01*
X304737Y-177498D01*
X304690Y-177403D01*
X305946Y-177022D02*
X305899Y-176927D01*
X305756Y-176879D01*
X305613Y-176879D01*
X305470Y-176927D01*
X305423Y-177022D01*
X305470Y-177118D01*
X305566Y-177165D01*
X305804Y-177213D01*
X305899Y-177260D01*
X305946Y-177356D01*
X305946Y-177403D01*
X305899Y-177498D01*
X305756Y-177546D01*
X305613Y-177546D01*
X305470Y-177498D01*
X305423Y-177403D01*
X306156Y-177165D02*
X306727Y-177165D01*
X306727Y-177070D01*
X306680Y-176975D01*
X306632Y-176927D01*
X306537Y-176879D01*
X306394Y-176879D01*
X306299Y-176927D01*
X306204Y-177022D01*
X306156Y-177165D01*
X306156Y-177260D01*
X306204Y-177403D01*
X306299Y-177498D01*
X306394Y-177546D01*
X306537Y-177546D01*
X306632Y-177498D01*
X306727Y-177403D01*
X306941Y-176879D02*
X306941Y-177546D01*
X306941Y-177070D02*
X307084Y-176927D01*
X307180Y-176879D01*
X307322Y-176879D01*
X307418Y-176927D01*
X307465Y-177070D01*
X307465Y-177546D01*
X307465Y-177070D02*
X307608Y-176927D01*
X307703Y-176879D01*
X307846Y-176879D01*
X307941Y-176927D01*
X307989Y-177070D01*
X307989Y-177546D01*
X308303Y-176546D02*
X308303Y-177546D01*
X308303Y-177022D02*
X308398Y-176927D01*
X308494Y-176879D01*
X308636Y-176879D01*
X308732Y-176927D01*
X308827Y-177022D01*
X308874Y-177165D01*
X308874Y-177260D01*
X308827Y-177403D01*
X308732Y-177498D01*
X308636Y-177546D01*
X308494Y-177546D01*
X308398Y-177498D01*
X308303Y-177403D01*
X309089Y-176546D02*
X309089Y-177546D01*
X309346Y-176879D02*
X309631Y-177546D01*
X309917Y-176879D02*
X309631Y-177546D01*
X309536Y-177736D01*
X309441Y-177832D01*
X309346Y-177879D01*
X309298Y-177879D01*
X318750Y-168646D02*
X318750Y-169796D01*
X318750Y-168646D02*
X319133Y-168646D01*
X319297Y-168701D01*
X319407Y-168810D01*
X319462Y-168920D01*
X319517Y-169084D01*
X319517Y-169358D01*
X319462Y-169522D01*
X319407Y-169632D01*
X319297Y-169741D01*
X319133Y-169796D01*
X318750Y-169796D01*
X320102Y-168646D02*
X319993Y-168701D01*
X319883Y-168810D01*
X319829Y-168920D01*
X319774Y-169084D01*
X319774Y-169358D01*
X319829Y-169522D01*
X319883Y-169632D01*
X319993Y-169741D01*
X320102Y-169796D01*
X320321Y-169796D01*
X320431Y-169741D01*
X320540Y-169632D01*
X320595Y-169522D01*
X320650Y-169358D01*
X320650Y-169084D01*
X320595Y-168920D01*
X320540Y-168810D01*
X320431Y-168701D01*
X320321Y-168646D01*
X320102Y-168646D01*
X321739Y-168920D02*
X321685Y-168810D01*
X321575Y-168701D01*
X321466Y-168646D01*
X321247Y-168646D01*
X321137Y-168701D01*
X321028Y-168810D01*
X320973Y-168920D01*
X320918Y-169084D01*
X320918Y-169358D01*
X320973Y-169522D01*
X321028Y-169632D01*
X321137Y-169741D01*
X321247Y-169796D01*
X321466Y-169796D01*
X321575Y-169741D01*
X321685Y-169632D01*
X321739Y-169522D01*
X322062Y-168646D02*
X322062Y-169467D01*
X322117Y-169632D01*
X322227Y-169741D01*
X322391Y-169796D01*
X322500Y-169796D01*
X322665Y-169741D01*
X322774Y-169632D01*
X322829Y-169467D01*
X322829Y-168646D01*
X323146Y-168646D02*
X323146Y-169796D01*
X323146Y-168646D02*
X323584Y-169796D01*
X324022Y-168646D02*
X323584Y-169796D01*
X324022Y-168646D02*
X324022Y-169796D01*
X325063Y-168646D02*
X324351Y-168646D01*
X324351Y-169796D01*
X325063Y-169796D01*
X324351Y-169194D02*
X324789Y-169194D01*
X325254Y-168646D02*
X325254Y-169796D01*
X325254Y-168646D02*
X326021Y-169796D01*
X326021Y-168646D02*
X326021Y-169796D01*
X326722Y-168646D02*
X326722Y-169796D01*
X326338Y-168646D02*
X327105Y-168646D01*
X328145Y-168646D02*
X328145Y-169796D01*
X328145Y-168646D02*
X328912Y-169796D01*
X328912Y-168646D02*
X328912Y-169796D01*
X329229Y-168646D02*
X329229Y-169467D01*
X329284Y-169632D01*
X329393Y-169741D01*
X329558Y-169796D01*
X329667Y-169796D01*
X329831Y-169741D01*
X329941Y-169632D01*
X329996Y-169467D01*
X329996Y-168646D01*
X330313Y-168646D02*
X330313Y-169796D01*
X330313Y-168646D02*
X330751Y-169796D01*
X331189Y-168646D02*
X330751Y-169796D01*
X331189Y-168646D02*
X331189Y-169796D01*
X331518Y-168646D02*
X331518Y-169796D01*
X331518Y-168646D02*
X332010Y-168646D01*
X332175Y-168701D01*
X332229Y-168756D01*
X332284Y-168865D01*
X332284Y-168975D01*
X332229Y-169084D01*
X332175Y-169139D01*
X332010Y-169194D01*
X331518Y-169194D02*
X332010Y-169194D01*
X332175Y-169248D01*
X332229Y-169303D01*
X332284Y-169413D01*
X332284Y-169577D01*
X332229Y-169686D01*
X332175Y-169741D01*
X332010Y-169796D01*
X331518Y-169796D01*
X333253Y-168646D02*
X332542Y-168646D01*
X332542Y-169796D01*
X333253Y-169796D01*
X332542Y-169194D02*
X332980Y-169194D01*
X333445Y-168646D02*
X333445Y-169796D01*
X333445Y-168646D02*
X333938Y-168646D01*
X334102Y-168701D01*
X334157Y-168756D01*
X334211Y-168865D01*
X334211Y-168975D01*
X334157Y-169084D01*
X334102Y-169139D01*
X333938Y-169194D01*
X333445Y-169194D01*
X333828Y-169194D02*
X334211Y-169796D01*
X334524Y-169029D02*
X334469Y-169084D01*
X334524Y-169139D01*
X334578Y-169084D01*
X334524Y-169029D01*
X334524Y-169686D02*
X334469Y-169741D01*
X334524Y-169796D01*
X334578Y-169741D01*
X334524Y-169686D01*
X286750Y-160732D02*
X286750Y-161589D01*
X286793Y-160732D02*
X286793Y-161589D01*
X286750Y-160732D02*
X286964Y-160732D01*
X286750Y-161589D02*
X286964Y-161589D01*
X287080Y-160646D02*
X287080Y-161546D01*
X287080Y-160646D02*
X287680Y-161546D01*
X287680Y-160646D02*
X287680Y-161546D01*
X288143Y-160946D02*
X288057Y-160989D01*
X287971Y-161075D01*
X287928Y-161203D01*
X287928Y-161289D01*
X287971Y-161417D01*
X288057Y-161503D01*
X288143Y-161546D01*
X288271Y-161546D01*
X288357Y-161503D01*
X288443Y-161417D01*
X288485Y-161289D01*
X288485Y-161203D01*
X288443Y-161075D01*
X288357Y-160989D01*
X288271Y-160946D01*
X288143Y-160946D01*
X289389Y-160646D02*
X289732Y-161546D01*
X290075Y-160646D02*
X289732Y-161546D01*
X290705Y-160946D02*
X290705Y-161546D01*
X290705Y-161075D02*
X290619Y-160989D01*
X290533Y-160946D01*
X290405Y-160946D01*
X290319Y-160989D01*
X290234Y-161075D01*
X290191Y-161203D01*
X290191Y-161289D01*
X290234Y-161417D01*
X290319Y-161503D01*
X290405Y-161546D01*
X290533Y-161546D01*
X290619Y-161503D01*
X290705Y-161417D01*
X290945Y-160946D02*
X290945Y-161546D01*
X290945Y-161203D02*
X290988Y-161075D01*
X291073Y-160989D01*
X291159Y-160946D01*
X291288Y-160946D01*
X291455Y-160646D02*
X291498Y-160689D01*
X291540Y-160646D01*
X291498Y-160603D01*
X291455Y-160646D01*
X291498Y-160946D02*
X291498Y-161546D01*
X292213Y-160946D02*
X292213Y-161546D01*
X292213Y-161075D02*
X292127Y-160989D01*
X292042Y-160946D01*
X291913Y-160946D01*
X291827Y-160989D01*
X291742Y-161075D01*
X291699Y-161203D01*
X291699Y-161289D01*
X291742Y-161417D01*
X291827Y-161503D01*
X291913Y-161546D01*
X292042Y-161546D01*
X292127Y-161503D01*
X292213Y-161417D01*
X292582Y-160646D02*
X292582Y-161375D01*
X292624Y-161503D01*
X292710Y-161546D01*
X292796Y-161546D01*
X292453Y-160946D02*
X292753Y-160946D01*
X293010Y-160646D02*
X293053Y-160689D01*
X293096Y-160646D01*
X293053Y-160603D01*
X293010Y-160646D01*
X293053Y-160946D02*
X293053Y-161546D01*
X293469Y-160946D02*
X293383Y-160989D01*
X293297Y-161075D01*
X293254Y-161203D01*
X293254Y-161289D01*
X293297Y-161417D01*
X293383Y-161503D01*
X293469Y-161546D01*
X293597Y-161546D01*
X293683Y-161503D01*
X293768Y-161417D01*
X293811Y-161289D01*
X293811Y-161203D01*
X293768Y-161075D01*
X293683Y-160989D01*
X293597Y-160946D01*
X293469Y-160946D01*
X294008Y-160946D02*
X294008Y-161546D01*
X294008Y-161118D02*
X294137Y-160989D01*
X294223Y-160946D01*
X294351Y-160946D01*
X294437Y-160989D01*
X294480Y-161118D01*
X294480Y-161546D01*
X295187Y-161075D02*
X295144Y-160989D01*
X295015Y-160946D01*
X294887Y-160946D01*
X294758Y-160989D01*
X294715Y-161075D01*
X294758Y-161160D01*
X294844Y-161203D01*
X295058Y-161246D01*
X295144Y-161289D01*
X295187Y-161375D01*
X295187Y-161417D01*
X295144Y-161503D01*
X295015Y-161546D01*
X294887Y-161546D01*
X294758Y-161503D01*
X294715Y-161417D01*
X295547Y-160732D02*
X295547Y-161589D01*
X295590Y-160732D02*
X295590Y-161589D01*
X295375Y-160732D02*
X295590Y-160732D01*
X295375Y-161589D02*
X295590Y-161589D01*
X273000Y-174998D02*
X273493Y-174998D01*
X273657Y-174944D01*
X273712Y-174889D01*
X273767Y-174779D01*
X273767Y-174615D01*
X273712Y-174506D01*
X273657Y-174451D01*
X273493Y-174396D01*
X273000Y-174396D01*
X273000Y-175546D01*
X274845Y-174670D02*
X274790Y-174560D01*
X274681Y-174451D01*
X274571Y-174396D01*
X274352Y-174396D01*
X274243Y-174451D01*
X274133Y-174560D01*
X274079Y-174670D01*
X274024Y-174834D01*
X274024Y-175108D01*
X274079Y-175272D01*
X274133Y-175382D01*
X274243Y-175491D01*
X274352Y-175546D01*
X274571Y-175546D01*
X274681Y-175491D01*
X274790Y-175382D01*
X274845Y-175272D01*
X275168Y-174396D02*
X275168Y-175546D01*
X275168Y-174396D02*
X275661Y-174396D01*
X275825Y-174451D01*
X275880Y-174506D01*
X275935Y-174615D01*
X275935Y-174725D01*
X275880Y-174834D01*
X275825Y-174889D01*
X275661Y-174944D01*
X275168Y-174944D02*
X275661Y-174944D01*
X275825Y-174998D01*
X275880Y-175053D01*
X275935Y-175163D01*
X275935Y-175327D01*
X275880Y-175436D01*
X275825Y-175491D01*
X275661Y-175546D01*
X275168Y-175546D01*
X277095Y-174396D02*
X277095Y-175546D01*
X277095Y-174396D02*
X277807Y-174396D01*
X277095Y-174944D02*
X277533Y-174944D01*
X277938Y-174396D02*
X277938Y-175546D01*
X278179Y-174396D02*
X278179Y-175546D01*
X278836Y-175546D01*
X279674Y-174396D02*
X278962Y-174396D01*
X278962Y-175546D01*
X279674Y-175546D01*
X278962Y-174944D02*
X279400Y-174944D01*
X280769Y-174396D02*
X280769Y-175546D01*
X280769Y-174396D02*
X281536Y-175546D01*
X281536Y-174396D02*
X281536Y-175546D01*
X282729Y-175546D02*
X282291Y-174396D01*
X281853Y-175546D01*
X282017Y-175163D02*
X282565Y-175163D01*
X282997Y-174396D02*
X282997Y-175546D01*
X282997Y-174396D02*
X283435Y-175546D01*
X283873Y-174396D02*
X283435Y-175546D01*
X283873Y-174396D02*
X283873Y-175546D01*
X284914Y-174396D02*
X284202Y-174396D01*
X284202Y-175546D01*
X284914Y-175546D01*
X284202Y-174944D02*
X284640Y-174944D01*
X285160Y-174779D02*
X285105Y-174834D01*
X285160Y-174889D01*
X285215Y-174834D01*
X285160Y-174779D01*
X285160Y-175436D02*
X285105Y-175491D01*
X285160Y-175546D01*
X285215Y-175491D01*
X285160Y-175436D01*
X273714Y-176784D02*
X273667Y-176689D01*
X273571Y-176594D01*
X273476Y-176546D01*
X273286Y-176546D01*
X273190Y-176594D01*
X273095Y-176689D01*
X273048Y-176784D01*
X273000Y-176927D01*
X273000Y-177165D01*
X273048Y-177308D01*
X273095Y-177403D01*
X273190Y-177498D01*
X273286Y-177546D01*
X273476Y-177546D01*
X273571Y-177498D01*
X273667Y-177403D01*
X273714Y-177308D01*
X274233Y-176879D02*
X274138Y-176927D01*
X274043Y-177022D01*
X273995Y-177165D01*
X273995Y-177260D01*
X274043Y-177403D01*
X274138Y-177498D01*
X274233Y-177546D01*
X274376Y-177546D01*
X274471Y-177498D01*
X274566Y-177403D01*
X274614Y-177260D01*
X274614Y-177165D01*
X274566Y-177022D01*
X274471Y-176927D01*
X274376Y-176879D01*
X274233Y-176879D01*
X274833Y-176879D02*
X274833Y-177879D01*
X274833Y-177022D02*
X274928Y-176927D01*
X275023Y-176879D01*
X275166Y-176879D01*
X275261Y-176927D01*
X275357Y-177022D01*
X275404Y-177165D01*
X275404Y-177260D01*
X275357Y-177403D01*
X275261Y-177498D01*
X275166Y-177546D01*
X275023Y-177546D01*
X274928Y-177498D01*
X274833Y-177403D01*
X275666Y-176879D02*
X275952Y-177546D01*
X276237Y-176879D02*
X275952Y-177546D01*
X275857Y-177736D01*
X275761Y-177832D01*
X275666Y-177879D01*
X275618Y-177879D01*
X277428Y-176879D02*
X277332Y-176927D01*
X277237Y-177022D01*
X277190Y-177165D01*
X277190Y-177260D01*
X277237Y-177403D01*
X277332Y-177498D01*
X277428Y-177546D01*
X277570Y-177546D01*
X277666Y-177498D01*
X277761Y-177403D01*
X277809Y-177260D01*
X277809Y-177165D01*
X277761Y-177022D01*
X277666Y-176927D01*
X277570Y-176879D01*
X277428Y-176879D01*
X278408Y-176546D02*
X278313Y-176546D01*
X278218Y-176594D01*
X278170Y-176737D01*
X278170Y-177546D01*
X278027Y-176879D02*
X278361Y-176879D01*
X279337Y-177070D02*
X279765Y-177070D01*
X279908Y-177022D01*
X279956Y-176975D01*
X280003Y-176879D01*
X280003Y-176737D01*
X279956Y-176641D01*
X279908Y-176594D01*
X279765Y-176546D01*
X279337Y-176546D01*
X279337Y-177546D01*
X280941Y-176784D02*
X280894Y-176689D01*
X280798Y-176594D01*
X280703Y-176546D01*
X280513Y-176546D01*
X280417Y-176594D01*
X280322Y-176689D01*
X280275Y-176784D01*
X280227Y-176927D01*
X280227Y-177165D01*
X280275Y-177308D01*
X280322Y-177403D01*
X280417Y-177498D01*
X280513Y-177546D01*
X280703Y-177546D01*
X280798Y-177498D01*
X280894Y-177403D01*
X280941Y-177308D01*
X281222Y-176546D02*
X281222Y-177546D01*
X281222Y-176546D02*
X281651Y-176546D01*
X281793Y-176594D01*
X281841Y-176641D01*
X281889Y-176737D01*
X281889Y-176832D01*
X281841Y-176927D01*
X281793Y-176975D01*
X281651Y-177022D01*
X281222Y-177022D02*
X281651Y-177022D01*
X281793Y-177070D01*
X281841Y-177118D01*
X281889Y-177213D01*
X281889Y-177356D01*
X281841Y-177451D01*
X281793Y-177498D01*
X281651Y-177546D01*
X281222Y-177546D01*
X282160Y-176784D02*
X282160Y-176737D01*
X282208Y-176641D01*
X282255Y-176594D01*
X282350Y-176546D01*
X282541Y-176546D01*
X282636Y-176594D01*
X282684Y-176641D01*
X282731Y-176737D01*
X282731Y-176832D01*
X282684Y-176927D01*
X282588Y-177070D01*
X282112Y-177546D01*
X282779Y-177546D01*
X283050Y-177451D02*
X283003Y-177498D01*
X283050Y-177546D01*
X283098Y-177498D01*
X283050Y-177451D01*
X283317Y-177070D02*
X283745Y-177070D01*
X283888Y-177022D01*
X283936Y-176975D01*
X283983Y-176879D01*
X283983Y-176737D01*
X283936Y-176641D01*
X283888Y-176594D01*
X283745Y-176546D01*
X283317Y-176546D01*
X283317Y-177546D01*
X284778Y-177022D02*
X284683Y-176927D01*
X284588Y-176879D01*
X284445Y-176879D01*
X284350Y-176927D01*
X284255Y-177022D01*
X284207Y-177165D01*
X284207Y-177260D01*
X284255Y-177403D01*
X284350Y-177498D01*
X284445Y-177546D01*
X284588Y-177546D01*
X284683Y-177498D01*
X284778Y-177403D01*
X284993Y-176546D02*
X284993Y-177546D01*
X284993Y-177022D02*
X285088Y-176927D01*
X285183Y-176879D01*
X285326Y-176879D01*
X285421Y-176927D01*
X285516Y-177022D01*
X285564Y-177165D01*
X285564Y-177260D01*
X285516Y-177403D01*
X285421Y-177498D01*
X285326Y-177546D01*
X285183Y-177546D01*
X285088Y-177498D01*
X284993Y-177403D01*
X285778Y-176546D02*
X285778Y-177546D01*
X285778Y-176546D02*
X286111Y-176546D01*
X286254Y-176594D01*
X286350Y-176689D01*
X286397Y-176784D01*
X286445Y-176927D01*
X286445Y-177165D01*
X286397Y-177308D01*
X286350Y-177403D01*
X286254Y-177498D01*
X286111Y-177546D01*
X285778Y-177546D01*
X286907Y-176879D02*
X286811Y-176927D01*
X286716Y-177022D01*
X286668Y-177165D01*
X286668Y-177260D01*
X286716Y-177403D01*
X286811Y-177498D01*
X286907Y-177546D01*
X287049Y-177546D01*
X287145Y-177498D01*
X287240Y-177403D01*
X287287Y-177260D01*
X287287Y-177165D01*
X287240Y-177022D01*
X287145Y-176927D01*
X287049Y-176879D01*
X286907Y-176879D01*
X288078Y-177022D02*
X287983Y-176927D01*
X287887Y-176879D01*
X287744Y-176879D01*
X287649Y-176927D01*
X287554Y-177022D01*
X287506Y-177165D01*
X287506Y-177260D01*
X287554Y-177403D01*
X287649Y-177498D01*
X287744Y-177546D01*
X287887Y-177546D01*
X287983Y-177498D01*
X288078Y-177403D01*
X273000Y-163248D02*
X273493Y-163248D01*
X273657Y-163194D01*
X273712Y-163139D01*
X273767Y-163029D01*
X273767Y-162865D01*
X273712Y-162756D01*
X273657Y-162701D01*
X273493Y-162646D01*
X273000Y-162646D01*
X273000Y-163796D01*
X274845Y-162920D02*
X274790Y-162810D01*
X274681Y-162701D01*
X274571Y-162646D01*
X274352Y-162646D01*
X274243Y-162701D01*
X274133Y-162810D01*
X274079Y-162920D01*
X274024Y-163084D01*
X274024Y-163358D01*
X274079Y-163522D01*
X274133Y-163632D01*
X274243Y-163741D01*
X274352Y-163796D01*
X274571Y-163796D01*
X274681Y-163741D01*
X274790Y-163632D01*
X274845Y-163522D01*
X275168Y-162646D02*
X275168Y-163796D01*
X275168Y-162646D02*
X275661Y-162646D01*
X275825Y-162701D01*
X275880Y-162756D01*
X275935Y-162865D01*
X275935Y-162975D01*
X275880Y-163084D01*
X275825Y-163139D01*
X275661Y-163194D01*
X275168Y-163194D02*
X275661Y-163194D01*
X275825Y-163248D01*
X275880Y-163303D01*
X275935Y-163413D01*
X275935Y-163577D01*
X275880Y-163686D01*
X275825Y-163741D01*
X275661Y-163796D01*
X275168Y-163796D01*
X277095Y-162646D02*
X277095Y-163796D01*
X277752Y-163796D01*
X278535Y-163029D02*
X278535Y-163796D01*
X278535Y-163194D02*
X278426Y-163084D01*
X278316Y-163029D01*
X278152Y-163029D01*
X278042Y-163084D01*
X277933Y-163194D01*
X277878Y-163358D01*
X277878Y-163467D01*
X277933Y-163632D01*
X278042Y-163741D01*
X278152Y-163796D01*
X278316Y-163796D01*
X278426Y-163741D01*
X278535Y-163632D01*
X278897Y-163029D02*
X279225Y-163796D01*
X279554Y-163029D02*
X279225Y-163796D01*
X279116Y-164015D01*
X279006Y-164124D01*
X278897Y-164179D01*
X278842Y-164179D01*
X280019Y-163029D02*
X279909Y-163084D01*
X279800Y-163194D01*
X279745Y-163358D01*
X279745Y-163467D01*
X279800Y-163632D01*
X279909Y-163741D01*
X280019Y-163796D01*
X280183Y-163796D01*
X280293Y-163741D01*
X280402Y-163632D01*
X280457Y-163467D01*
X280457Y-163358D01*
X280402Y-163194D01*
X280293Y-163084D01*
X280183Y-163029D01*
X280019Y-163029D01*
X280709Y-163029D02*
X280709Y-163577D01*
X280764Y-163741D01*
X280873Y-163796D01*
X281037Y-163796D01*
X281147Y-163741D01*
X281311Y-163577D01*
X281311Y-163029D02*
X281311Y-163796D01*
X281776Y-162646D02*
X281776Y-163577D01*
X281831Y-163741D01*
X281941Y-163796D01*
X282050Y-163796D01*
X281612Y-163029D02*
X281995Y-163029D01*
X283939Y-162920D02*
X283884Y-162810D01*
X283775Y-162701D01*
X283665Y-162646D01*
X283446Y-162646D01*
X283337Y-162701D01*
X283227Y-162810D01*
X283173Y-162920D01*
X283118Y-163084D01*
X283118Y-163358D01*
X283173Y-163522D01*
X283227Y-163632D01*
X283337Y-163741D01*
X283446Y-163796D01*
X283665Y-163796D01*
X283775Y-163741D01*
X283884Y-163632D01*
X283939Y-163522D01*
X284536Y-163029D02*
X284426Y-163084D01*
X284317Y-163194D01*
X284262Y-163358D01*
X284262Y-163467D01*
X284317Y-163632D01*
X284426Y-163741D01*
X284536Y-163796D01*
X284700Y-163796D01*
X284810Y-163741D01*
X284919Y-163632D01*
X284974Y-163467D01*
X284974Y-163358D01*
X284919Y-163194D01*
X284810Y-163084D01*
X284700Y-163029D01*
X284536Y-163029D01*
X285226Y-163029D02*
X285226Y-163796D01*
X285226Y-163248D02*
X285390Y-163084D01*
X285499Y-163029D01*
X285664Y-163029D01*
X285773Y-163084D01*
X285828Y-163248D01*
X285828Y-163796D01*
X286293Y-162646D02*
X286293Y-163577D01*
X286348Y-163741D01*
X286458Y-163796D01*
X286567Y-163796D01*
X286129Y-163029D02*
X286512Y-163029D01*
X287388Y-163029D02*
X287388Y-163796D01*
X287388Y-163194D02*
X287279Y-163084D01*
X287169Y-163029D01*
X287005Y-163029D01*
X286896Y-163084D01*
X286786Y-163194D01*
X286731Y-163358D01*
X286731Y-163467D01*
X286786Y-163632D01*
X286896Y-163741D01*
X287005Y-163796D01*
X287169Y-163796D01*
X287279Y-163741D01*
X287388Y-163632D01*
X288352Y-163194D02*
X288242Y-163084D01*
X288133Y-163029D01*
X287969Y-163029D01*
X287859Y-163084D01*
X287750Y-163194D01*
X287695Y-163358D01*
X287695Y-163467D01*
X287750Y-163632D01*
X287859Y-163741D01*
X287969Y-163796D01*
X288133Y-163796D01*
X288242Y-163741D01*
X288352Y-163632D01*
X288763Y-162646D02*
X288763Y-163577D01*
X288817Y-163741D01*
X288927Y-163796D01*
X289036Y-163796D01*
X288598Y-163029D02*
X288982Y-163029D01*
X289255Y-163029D02*
X289201Y-163084D01*
X289255Y-163139D01*
X289310Y-163084D01*
X289255Y-163029D01*
X289255Y-163686D02*
X289201Y-163741D01*
X289255Y-163796D01*
X289310Y-163741D01*
X289255Y-163686D01*
X273000Y-169248D02*
X273493Y-169248D01*
X273657Y-169194D01*
X273712Y-169139D01*
X273767Y-169029D01*
X273767Y-168865D01*
X273712Y-168756D01*
X273657Y-168701D01*
X273493Y-168646D01*
X273000Y-168646D01*
X273000Y-169796D01*
X274024Y-169029D02*
X274024Y-169796D01*
X274024Y-169358D02*
X274079Y-169194D01*
X274188Y-169084D01*
X274298Y-169029D01*
X274462Y-169029D01*
X274840Y-169029D02*
X274730Y-169084D01*
X274621Y-169194D01*
X274566Y-169358D01*
X274566Y-169467D01*
X274621Y-169632D01*
X274730Y-169741D01*
X274840Y-169796D01*
X275004Y-169796D01*
X275113Y-169741D01*
X275223Y-169632D01*
X275278Y-169467D01*
X275278Y-169358D01*
X275223Y-169194D01*
X275113Y-169084D01*
X275004Y-169029D01*
X274840Y-169029D01*
X275748Y-168646D02*
X275803Y-168701D01*
X275858Y-168646D01*
X275803Y-168591D01*
X275748Y-168646D01*
X275803Y-169029D02*
X275803Y-169960D01*
X275748Y-170124D01*
X275639Y-170179D01*
X275529Y-170179D01*
X276071Y-169358D02*
X276728Y-169358D01*
X276728Y-169248D01*
X276674Y-169139D01*
X276619Y-169084D01*
X276509Y-169029D01*
X276345Y-169029D01*
X276236Y-169084D01*
X276126Y-169194D01*
X276071Y-169358D01*
X276071Y-169467D01*
X276126Y-169632D01*
X276236Y-169741D01*
X276345Y-169796D01*
X276509Y-169796D01*
X276619Y-169741D01*
X276728Y-169632D01*
X277632Y-169194D02*
X277522Y-169084D01*
X277413Y-169029D01*
X277249Y-169029D01*
X277139Y-169084D01*
X277030Y-169194D01*
X276975Y-169358D01*
X276975Y-169467D01*
X277030Y-169632D01*
X277139Y-169741D01*
X277249Y-169796D01*
X277413Y-169796D01*
X277522Y-169741D01*
X277632Y-169632D01*
X278042Y-168646D02*
X278042Y-169577D01*
X278097Y-169741D01*
X278207Y-169796D01*
X278316Y-169796D01*
X277878Y-169029D02*
X278262Y-169029D01*
X279712Y-168646D02*
X279603Y-168701D01*
X279493Y-168810D01*
X279439Y-168920D01*
X279384Y-169084D01*
X279384Y-169358D01*
X279439Y-169522D01*
X279493Y-169632D01*
X279603Y-169741D01*
X279712Y-169796D01*
X279931Y-169796D01*
X280041Y-169741D01*
X280150Y-169632D01*
X280205Y-169522D01*
X280260Y-169358D01*
X280260Y-169084D01*
X280205Y-168920D01*
X280150Y-168810D01*
X280041Y-168701D01*
X279931Y-168646D01*
X279712Y-168646D01*
X280528Y-169029D02*
X280747Y-169796D01*
X280966Y-169029D02*
X280747Y-169796D01*
X280966Y-169029D02*
X281185Y-169796D01*
X281404Y-169029D02*
X281185Y-169796D01*
X281672Y-169029D02*
X281672Y-169796D01*
X281672Y-169248D02*
X281837Y-169084D01*
X281946Y-169029D01*
X282110Y-169029D01*
X282220Y-169084D01*
X282275Y-169248D01*
X282275Y-169796D01*
X282576Y-169358D02*
X283233Y-169358D01*
X283233Y-169248D01*
X283178Y-169139D01*
X283123Y-169084D01*
X283014Y-169029D01*
X282850Y-169029D01*
X282740Y-169084D01*
X282631Y-169194D01*
X282576Y-169358D01*
X282576Y-169467D01*
X282631Y-169632D01*
X282740Y-169741D01*
X282850Y-169796D01*
X283014Y-169796D01*
X283123Y-169741D01*
X283233Y-169632D01*
X283479Y-169029D02*
X283479Y-169796D01*
X283479Y-169358D02*
X283534Y-169194D01*
X283643Y-169084D01*
X283753Y-169029D01*
X283917Y-169029D01*
X284076Y-169029D02*
X284021Y-169084D01*
X284076Y-169139D01*
X284131Y-169084D01*
X284076Y-169029D01*
X284076Y-169686D02*
X284021Y-169741D01*
X284076Y-169796D01*
X284131Y-169741D01*
X284076Y-169686D01*
X301000Y-168646D02*
X301000Y-169796D01*
X301000Y-168646D02*
X301493Y-168646D01*
X301657Y-168701D01*
X301712Y-168756D01*
X301767Y-168865D01*
X301767Y-168975D01*
X301712Y-169084D01*
X301657Y-169139D01*
X301493Y-169194D01*
X301000Y-169194D02*
X301493Y-169194D01*
X301657Y-169248D01*
X301712Y-169303D01*
X301767Y-169413D01*
X301767Y-169577D01*
X301712Y-169686D01*
X301657Y-169741D01*
X301493Y-169796D01*
X301000Y-169796D01*
X302352Y-168646D02*
X302243Y-168701D01*
X302133Y-168810D01*
X302079Y-168920D01*
X302024Y-169084D01*
X302024Y-169358D01*
X302079Y-169522D01*
X302133Y-169632D01*
X302243Y-169741D01*
X302352Y-169796D01*
X302571Y-169796D01*
X302681Y-169741D01*
X302790Y-169632D01*
X302845Y-169522D01*
X302900Y-169358D01*
X302900Y-169084D01*
X302845Y-168920D01*
X302790Y-168810D01*
X302681Y-168701D01*
X302571Y-168646D01*
X302352Y-168646D01*
X304044Y-169796D02*
X303606Y-168646D01*
X303168Y-169796D01*
X303332Y-169413D02*
X303880Y-169413D01*
X304312Y-168646D02*
X304312Y-169796D01*
X304312Y-168646D02*
X304805Y-168646D01*
X304969Y-168701D01*
X305024Y-168756D01*
X305079Y-168865D01*
X305079Y-168975D01*
X305024Y-169084D01*
X304969Y-169139D01*
X304805Y-169194D01*
X304312Y-169194D01*
X304696Y-169194D02*
X305079Y-169796D01*
X305336Y-168646D02*
X305336Y-169796D01*
X305336Y-168646D02*
X305719Y-168646D01*
X305884Y-168701D01*
X305993Y-168810D01*
X306048Y-168920D01*
X306103Y-169084D01*
X306103Y-169358D01*
X306048Y-169522D01*
X305993Y-169632D01*
X305884Y-169741D01*
X305719Y-169796D01*
X305336Y-169796D01*
X307263Y-168646D02*
X307263Y-169796D01*
X307263Y-168646D02*
X308030Y-169796D01*
X308030Y-168646D02*
X308030Y-169796D01*
X308347Y-168646D02*
X308347Y-169467D01*
X308402Y-169632D01*
X308512Y-169741D01*
X308676Y-169796D01*
X308785Y-169796D01*
X308950Y-169741D01*
X309059Y-169632D01*
X309114Y-169467D01*
X309114Y-168646D01*
X309432Y-168646D02*
X309432Y-169796D01*
X309432Y-168646D02*
X309870Y-169796D01*
X310308Y-168646D02*
X309870Y-169796D01*
X310308Y-168646D02*
X310308Y-169796D01*
X310636Y-168646D02*
X310636Y-169796D01*
X310636Y-168646D02*
X311129Y-168646D01*
X311293Y-168701D01*
X311348Y-168756D01*
X311403Y-168865D01*
X311403Y-168975D01*
X311348Y-169084D01*
X311293Y-169139D01*
X311129Y-169194D01*
X310636Y-169194D02*
X311129Y-169194D01*
X311293Y-169248D01*
X311348Y-169303D01*
X311403Y-169413D01*
X311403Y-169577D01*
X311348Y-169686D01*
X311293Y-169741D01*
X311129Y-169796D01*
X310636Y-169796D01*
X312372Y-168646D02*
X311660Y-168646D01*
X311660Y-169796D01*
X312372Y-169796D01*
X311660Y-169194D02*
X312098Y-169194D01*
X312563Y-168646D02*
X312563Y-169796D01*
X312563Y-168646D02*
X313056Y-168646D01*
X313220Y-168701D01*
X313275Y-168756D01*
X313330Y-168865D01*
X313330Y-168975D01*
X313275Y-169084D01*
X313220Y-169139D01*
X313056Y-169194D01*
X312563Y-169194D01*
X312947Y-169194D02*
X313330Y-169796D01*
X313642Y-169029D02*
X313587Y-169084D01*
X313642Y-169139D01*
X313697Y-169084D01*
X313642Y-169029D01*
X313642Y-169686D02*
X313587Y-169741D01*
X313642Y-169796D01*
X313697Y-169741D01*
X313642Y-169686D01*
X301821Y-162920D02*
X301767Y-162810D01*
X301657Y-162701D01*
X301547Y-162646D01*
X301328Y-162646D01*
X301219Y-162701D01*
X301109Y-162810D01*
X301055Y-162920D01*
X301000Y-163084D01*
X301000Y-163358D01*
X301055Y-163522D01*
X301109Y-163632D01*
X301219Y-163741D01*
X301328Y-163796D01*
X301547Y-163796D01*
X301657Y-163741D01*
X301767Y-163632D01*
X301821Y-163522D01*
X301821Y-163358D01*
X301547Y-163358D02*
X301821Y-163358D01*
X302796Y-162646D02*
X302084Y-162646D01*
X302084Y-163796D01*
X302796Y-163796D01*
X302084Y-163194D02*
X302522Y-163194D01*
X302987Y-162646D02*
X302987Y-163796D01*
X302987Y-162646D02*
X303480Y-162646D01*
X303644Y-162701D01*
X303699Y-162756D01*
X303754Y-162865D01*
X303754Y-162975D01*
X303699Y-163084D01*
X303644Y-163139D01*
X303480Y-163194D01*
X302987Y-163194D01*
X303371Y-163194D02*
X303754Y-163796D01*
X304011Y-162646D02*
X304011Y-163796D01*
X304011Y-162646D02*
X304504Y-162646D01*
X304668Y-162701D01*
X304723Y-162756D01*
X304778Y-162865D01*
X304778Y-162975D01*
X304723Y-163084D01*
X304668Y-163139D01*
X304504Y-163194D01*
X304011Y-163194D02*
X304504Y-163194D01*
X304668Y-163248D01*
X304723Y-163303D01*
X304778Y-163413D01*
X304778Y-163577D01*
X304723Y-163686D01*
X304668Y-163741D01*
X304504Y-163796D01*
X304011Y-163796D01*
X305747Y-162646D02*
X305035Y-162646D01*
X305035Y-163796D01*
X305747Y-163796D01*
X305035Y-163194D02*
X305473Y-163194D01*
X305938Y-162646D02*
X305938Y-163796D01*
X305938Y-162646D02*
X306431Y-162646D01*
X306595Y-162701D01*
X306650Y-162756D01*
X306705Y-162865D01*
X306705Y-162975D01*
X306650Y-163084D01*
X306595Y-163139D01*
X306431Y-163194D01*
X305938Y-163194D01*
X306322Y-163194D02*
X306705Y-163796D01*
X307866Y-162646D02*
X307866Y-163796D01*
X307866Y-162646D02*
X308577Y-162646D01*
X307866Y-163194D02*
X308304Y-163194D01*
X308709Y-162646D02*
X308709Y-163796D01*
X308950Y-162646D02*
X308950Y-163796D01*
X309607Y-163796D01*
X310444Y-162646D02*
X309733Y-162646D01*
X309733Y-163796D01*
X310444Y-163796D01*
X309733Y-163194D02*
X310171Y-163194D01*
X310691Y-163029D02*
X310636Y-163084D01*
X310691Y-163139D01*
X310746Y-163084D01*
X310691Y-163029D01*
X310691Y-163686D02*
X310636Y-163741D01*
X310691Y-163796D01*
X310746Y-163741D01*
X310691Y-163686D01*
X340414Y-171296D02*
X339700Y-172296D01*
X340771Y-172296D01*
X340414Y-171296D02*
X340414Y-172796D01*
X341035Y-173010D02*
X342035Y-171296D01*
X342207Y-171653D02*
X342207Y-171582D01*
X342278Y-171439D01*
X342349Y-171368D01*
X342492Y-171296D01*
X342778Y-171296D01*
X342921Y-171368D01*
X342992Y-171439D01*
X343064Y-171582D01*
X343064Y-171725D01*
X342992Y-171868D01*
X342849Y-172082D01*
X342135Y-172796D01*
X343135Y-172796D01*
X344328Y-171296D02*
X343613Y-171296D01*
X343542Y-171939D01*
X343613Y-171868D01*
X343828Y-171796D01*
X344042Y-171796D01*
X344256Y-171868D01*
X344399Y-172010D01*
X344470Y-172225D01*
X344470Y-172368D01*
X344399Y-172582D01*
X344256Y-172725D01*
X344042Y-172796D01*
X343828Y-172796D01*
X343613Y-172725D01*
X343542Y-172653D01*
X343471Y-172510D01*
X344806Y-173010D02*
X345806Y-171296D01*
X345977Y-171653D02*
X345977Y-171582D01*
X346049Y-171439D01*
X346120Y-171368D01*
X346263Y-171296D01*
X346549Y-171296D01*
X346691Y-171368D01*
X346763Y-171439D01*
X346834Y-171582D01*
X346834Y-171725D01*
X346763Y-171868D01*
X346620Y-172082D01*
X345906Y-172796D01*
X346906Y-172796D01*
X347670Y-171296D02*
X347455Y-171368D01*
X347313Y-171582D01*
X347241Y-171939D01*
X347241Y-172153D01*
X347313Y-172510D01*
X347455Y-172725D01*
X347670Y-172796D01*
X347813Y-172796D01*
X348027Y-172725D01*
X348170Y-172510D01*
X348241Y-172153D01*
X348241Y-171939D01*
X348170Y-171582D01*
X348027Y-171368D01*
X347813Y-171296D01*
X347670Y-171296D01*
X348648Y-171653D02*
X348648Y-171582D01*
X348719Y-171439D01*
X348791Y-171368D01*
X348934Y-171296D01*
X349219Y-171296D01*
X349362Y-171368D01*
X349434Y-171439D01*
X349505Y-171582D01*
X349505Y-171725D01*
X349434Y-171868D01*
X349291Y-172082D01*
X348577Y-172796D01*
X349576Y-172796D01*
X350055Y-171296D02*
X350840Y-171296D01*
X350412Y-171868D01*
X350626Y-171868D01*
X350769Y-171939D01*
X350840Y-172010D01*
X350912Y-172225D01*
X350912Y-172368D01*
X350840Y-172582D01*
X350698Y-172725D01*
X350483Y-172796D01*
X350269Y-172796D01*
X350055Y-172725D01*
X349984Y-172653D01*
X349912Y-172510D01*
X325000Y-154320D02*
X325428Y-154320D01*
X325571Y-154272D01*
X325619Y-154225D01*
X325667Y-154129D01*
X325667Y-153987D01*
X325619Y-153891D01*
X325571Y-153844D01*
X325428Y-153796D01*
X325000Y-153796D01*
X325000Y-154796D01*
X326652Y-154796D02*
X326271Y-153796D01*
X325890Y-154796D01*
X326033Y-154463D02*
X326509Y-154463D01*
X326885Y-153796D02*
X326885Y-154796D01*
X326885Y-153796D02*
X327314Y-153796D01*
X327457Y-153844D01*
X327504Y-153891D01*
X327552Y-153987D01*
X327552Y-154082D01*
X327504Y-154177D01*
X327457Y-154225D01*
X327314Y-154272D01*
X326885Y-154272D01*
X327219Y-154272D02*
X327552Y-154796D01*
X328109Y-153796D02*
X328109Y-154796D01*
X327776Y-153796D02*
X328442Y-153796D01*
X329347Y-153796D02*
X329347Y-154796D01*
X329347Y-153796D02*
X330013Y-154796D01*
X330013Y-153796D02*
X330013Y-154796D01*
X330289Y-153796D02*
X330289Y-154510D01*
X330337Y-154653D01*
X330432Y-154748D01*
X330575Y-154796D01*
X330670Y-154796D01*
X330813Y-154748D01*
X330908Y-154653D01*
X330956Y-154510D01*
X330956Y-153796D01*
X331232Y-153796D02*
X331232Y-154796D01*
X331232Y-153796D02*
X331613Y-154796D01*
X331994Y-153796D02*
X331613Y-154796D01*
X331994Y-153796D02*
X331994Y-154796D01*
X332279Y-153796D02*
X332279Y-154796D01*
X332279Y-153796D02*
X332708Y-153796D01*
X332851Y-153844D01*
X332898Y-153891D01*
X332946Y-153987D01*
X332946Y-154082D01*
X332898Y-154177D01*
X332851Y-154225D01*
X332708Y-154272D01*
X332279Y-154272D02*
X332708Y-154272D01*
X332851Y-154320D01*
X332898Y-154367D01*
X332946Y-154463D01*
X332946Y-154606D01*
X332898Y-154701D01*
X332851Y-154748D01*
X332708Y-154796D01*
X332279Y-154796D01*
X333789Y-153796D02*
X333170Y-153796D01*
X333170Y-154796D01*
X333789Y-154796D01*
X333170Y-154272D02*
X333551Y-154272D01*
X333955Y-153796D02*
X333955Y-154796D01*
X333955Y-153796D02*
X334384Y-153796D01*
X334527Y-153844D01*
X334574Y-153891D01*
X334622Y-153987D01*
X334622Y-154082D01*
X334574Y-154177D01*
X334527Y-154225D01*
X334384Y-154272D01*
X333955Y-154272D01*
X334289Y-154272D02*
X334622Y-154796D01*
X334893Y-154129D02*
X334846Y-154177D01*
X334893Y-154225D01*
X334941Y-154177D01*
X334893Y-154129D01*
X334893Y-154701D02*
X334846Y-154748D01*
X334893Y-154796D01*
X334941Y-154748D01*
X334893Y-154701D01*
D15*
X336035Y-175869D02*
X336035Y-176726D01*
X335678Y-176083D02*
X336392Y-176511D01*
X336392Y-176083D02*
X335678Y-176511D01*
X337056Y-175869D02*
X337056Y-176726D01*
X336699Y-176083D02*
X337413Y-176511D01*
X337413Y-176083D02*
X336699Y-176511D01*
X273381Y-165196D02*
X273381Y-166110D01*
X273000Y-165425D02*
X273762Y-165882D01*
X273762Y-165425D02*
X273000Y-165882D01*
X274470Y-165196D02*
X274470Y-166110D01*
X274089Y-165425D02*
X274851Y-165882D01*
X274851Y-165425D02*
X274089Y-165882D01*
X243270Y-175942D02*
X243185Y-175772D01*
X243016Y-175603D01*
X242846Y-175518D01*
X242508Y-175518D01*
X242339Y-175603D01*
X242169Y-175772D01*
X242085Y-175942D01*
X242000Y-176196D01*
X242000Y-176619D01*
X242085Y-176873D01*
X242169Y-177042D01*
X242339Y-177211D01*
X242508Y-177296D01*
X242846Y-177296D01*
X243016Y-177211D01*
X243185Y-177042D01*
X243270Y-176873D01*
X243769Y-175518D02*
X243769Y-177296D01*
X243769Y-176449D02*
X244023Y-176196D01*
X244192Y-176111D01*
X244446Y-176111D01*
X244616Y-176196D01*
X244700Y-176449D01*
X244700Y-177296D01*
X246182Y-176111D02*
X246182Y-177296D01*
X246182Y-176365D02*
X246012Y-176196D01*
X245843Y-176111D01*
X245589Y-176111D01*
X245420Y-176196D01*
X245251Y-176365D01*
X245166Y-176619D01*
X245166Y-176788D01*
X245251Y-177042D01*
X245420Y-177211D01*
X245589Y-177296D01*
X245843Y-177296D01*
X246012Y-177211D01*
X246182Y-177042D01*
X246656Y-176111D02*
X246656Y-177296D01*
X246656Y-176449D02*
X246910Y-176196D01*
X247079Y-176111D01*
X247333Y-176111D01*
X247502Y-176196D01*
X247587Y-176449D01*
X247587Y-177296D01*
X249068Y-175518D02*
X249068Y-177296D01*
X249068Y-176365D02*
X248899Y-176196D01*
X248730Y-176111D01*
X248476Y-176111D01*
X248306Y-176196D01*
X248137Y-176365D01*
X248052Y-176619D01*
X248052Y-176788D01*
X248137Y-177042D01*
X248306Y-177211D01*
X248476Y-177296D01*
X248730Y-177296D01*
X248899Y-177211D01*
X249068Y-177042D01*
X249542Y-175518D02*
X249542Y-177296D01*
X249915Y-176619D02*
X250930Y-176619D01*
X250930Y-176449D01*
X250846Y-176280D01*
X250761Y-176196D01*
X250592Y-176111D01*
X250338Y-176111D01*
X250169Y-176196D01*
X249999Y-176365D01*
X249915Y-176619D01*
X249915Y-176788D01*
X249999Y-177042D01*
X250169Y-177211D01*
X250338Y-177296D01*
X250592Y-177296D01*
X250761Y-177211D01*
X250930Y-177042D01*
X251311Y-176111D02*
X251311Y-177296D01*
X251311Y-176619D02*
X251396Y-176365D01*
X251565Y-176196D01*
X251735Y-176111D01*
X251989Y-176111D01*
X252319Y-177211D02*
X252234Y-177296D01*
X252149Y-177211D01*
X252234Y-177127D01*
X252319Y-177211D01*
X252319Y-177381D01*
X252234Y-177550D01*
X252149Y-177635D01*
X255459Y-177296D02*
X254782Y-175518D01*
X254105Y-177296D01*
X254359Y-176703D02*
X255205Y-176703D01*
X257059Y-175518D02*
X255874Y-177296D01*
X255874Y-175518D02*
X257059Y-175518D01*
X255874Y-177296D02*
X257059Y-177296D01*
X260673Y-175518D02*
X260420Y-175603D01*
X260335Y-175772D01*
X260335Y-175942D01*
X260420Y-176111D01*
X260589Y-176196D01*
X260927Y-176280D01*
X261181Y-176365D01*
X261351Y-176534D01*
X261435Y-176703D01*
X261435Y-176957D01*
X261351Y-177127D01*
X261266Y-177211D01*
X261012Y-177296D01*
X260673Y-177296D01*
X260420Y-177211D01*
X260335Y-177127D01*
X260250Y-176957D01*
X260250Y-176703D01*
X260335Y-176534D01*
X260504Y-176365D01*
X260758Y-176280D01*
X261097Y-176196D01*
X261266Y-176111D01*
X261351Y-175942D01*
X261351Y-175772D01*
X261266Y-175603D01*
X261012Y-175518D01*
X260673Y-175518D01*
X262849Y-175518D02*
X262002Y-175518D01*
X261918Y-176280D01*
X262002Y-176196D01*
X262256Y-176111D01*
X262510Y-176111D01*
X262764Y-176196D01*
X262934Y-176365D01*
X263018Y-176619D01*
X263018Y-176788D01*
X262934Y-177042D01*
X262764Y-177211D01*
X262510Y-177296D01*
X262256Y-177296D01*
X262002Y-177211D01*
X261918Y-177127D01*
X261833Y-176957D01*
X263501Y-175942D02*
X263501Y-175857D01*
X263585Y-175688D01*
X263670Y-175603D01*
X263839Y-175518D01*
X264178Y-175518D01*
X264347Y-175603D01*
X264432Y-175688D01*
X264517Y-175857D01*
X264517Y-176026D01*
X264432Y-176196D01*
X264263Y-176449D01*
X263416Y-177296D01*
X264601Y-177296D01*
X265084Y-175942D02*
X265084Y-175857D01*
X265168Y-175688D01*
X265253Y-175603D01*
X265422Y-175518D01*
X265761Y-175518D01*
X265930Y-175603D01*
X266015Y-175688D01*
X266099Y-175857D01*
X266099Y-176026D01*
X266015Y-176196D01*
X265845Y-176449D01*
X264999Y-177296D01*
X266184Y-177296D01*
X267428Y-175518D02*
X266582Y-176703D01*
X267852Y-176703D01*
X267428Y-175518D02*
X267428Y-177296D01*
X241085Y-173442D02*
X241085Y-173357D01*
X241169Y-173188D01*
X241254Y-173103D01*
X241423Y-173018D01*
X241762Y-173018D01*
X241931Y-173103D01*
X242016Y-173188D01*
X242100Y-173357D01*
X242100Y-173526D01*
X242016Y-173696D01*
X241846Y-173949D01*
X241000Y-174796D01*
X242185Y-174796D01*
X242752Y-173018D02*
X243683Y-173018D01*
X243175Y-173696D01*
X243429Y-173696D01*
X243599Y-173780D01*
X243683Y-173865D01*
X243768Y-174119D01*
X243768Y-174288D01*
X243683Y-174542D01*
X243514Y-174711D01*
X243260Y-174796D01*
X243006Y-174796D01*
X242752Y-174711D01*
X242668Y-174627D01*
X242583Y-174457D01*
X245182Y-173018D02*
X244335Y-173018D01*
X244251Y-173780D01*
X244335Y-173696D01*
X244589Y-173611D01*
X244843Y-173611D01*
X245097Y-173696D01*
X245266Y-173865D01*
X245351Y-174119D01*
X245351Y-174288D01*
X245266Y-174542D01*
X245097Y-174711D01*
X244843Y-174796D01*
X244589Y-174796D01*
X244335Y-174711D01*
X244251Y-174627D01*
X244166Y-174457D01*
X246765Y-173018D02*
X245918Y-173018D01*
X245833Y-173780D01*
X245918Y-173696D01*
X246172Y-173611D01*
X246426Y-173611D01*
X246680Y-173696D01*
X246849Y-173865D01*
X246934Y-174119D01*
X246934Y-174288D01*
X246849Y-174542D01*
X246680Y-174711D01*
X246426Y-174796D01*
X246172Y-174796D01*
X245918Y-174711D01*
X245833Y-174627D01*
X245749Y-174457D01*
X248728Y-173018D02*
X249152Y-174796D01*
X249575Y-173018D02*
X249152Y-174796D01*
X249575Y-173018D02*
X249998Y-174796D01*
X250421Y-173018D02*
X249998Y-174796D01*
X250862Y-174627D02*
X250777Y-174711D01*
X250862Y-174796D01*
X250946Y-174711D01*
X250862Y-174627D01*
X254002Y-173442D02*
X253917Y-173272D01*
X253748Y-173103D01*
X253579Y-173018D01*
X253240Y-173018D01*
X253071Y-173103D01*
X252902Y-173272D01*
X252817Y-173442D01*
X252732Y-173696D01*
X252732Y-174119D01*
X252817Y-174373D01*
X252902Y-174542D01*
X253071Y-174711D01*
X253240Y-174796D01*
X253579Y-174796D01*
X253748Y-174711D01*
X253917Y-174542D01*
X254002Y-174373D01*
X254501Y-173018D02*
X254501Y-174796D01*
X254501Y-173949D02*
X254755Y-173696D01*
X254925Y-173611D01*
X255179Y-173611D01*
X255348Y-173696D01*
X255433Y-173949D01*
X255433Y-174796D01*
X256914Y-173611D02*
X256914Y-174796D01*
X256914Y-173865D02*
X256745Y-173696D01*
X256575Y-173611D01*
X256321Y-173611D01*
X256152Y-173696D01*
X255983Y-173865D01*
X255898Y-174119D01*
X255898Y-174288D01*
X255983Y-174542D01*
X256152Y-174711D01*
X256321Y-174796D01*
X256575Y-174796D01*
X256745Y-174711D01*
X256914Y-174542D01*
X257388Y-173611D02*
X257388Y-174796D01*
X257388Y-173949D02*
X257642Y-173696D01*
X257811Y-173611D01*
X258065Y-173611D01*
X258234Y-173696D01*
X258319Y-173949D01*
X258319Y-174796D01*
X259800Y-173018D02*
X259800Y-174796D01*
X259800Y-173865D02*
X259631Y-173696D01*
X259462Y-173611D01*
X259208Y-173611D01*
X259039Y-173696D01*
X258869Y-173865D01*
X258785Y-174119D01*
X258785Y-174288D01*
X258869Y-174542D01*
X259039Y-174711D01*
X259208Y-174796D01*
X259462Y-174796D01*
X259631Y-174711D01*
X259800Y-174542D01*
X260274Y-173018D02*
X260274Y-174796D01*
X260647Y-174119D02*
X261663Y-174119D01*
X261663Y-173949D01*
X261578Y-173780D01*
X261493Y-173696D01*
X261324Y-173611D01*
X261070Y-173611D01*
X260901Y-173696D01*
X260732Y-173865D01*
X260647Y-174119D01*
X260647Y-174288D01*
X260732Y-174542D01*
X260901Y-174711D01*
X261070Y-174796D01*
X261324Y-174796D01*
X261493Y-174711D01*
X261663Y-174542D01*
X262044Y-173611D02*
X262044Y-174796D01*
X262044Y-174119D02*
X262128Y-173865D01*
X262298Y-173696D01*
X262467Y-173611D01*
X262721Y-173611D01*
X264278Y-173018D02*
X264278Y-174796D01*
X264278Y-173018D02*
X265040Y-173018D01*
X265294Y-173103D01*
X265379Y-173188D01*
X265463Y-173357D01*
X265463Y-173526D01*
X265379Y-173696D01*
X265294Y-173780D01*
X265040Y-173865D01*
X264278Y-173865D02*
X265040Y-173865D01*
X265294Y-173949D01*
X265379Y-174034D01*
X265463Y-174203D01*
X265463Y-174457D01*
X265379Y-174627D01*
X265294Y-174711D01*
X265040Y-174796D01*
X264278Y-174796D01*
X265861Y-173018D02*
X265861Y-174796D01*
X266234Y-173611D02*
X266742Y-174796D01*
X267250Y-173611D02*
X266742Y-174796D01*
X268553Y-173018D02*
X268553Y-174796D01*
X268553Y-173865D02*
X268384Y-173696D01*
X268215Y-173611D01*
X267961Y-173611D01*
X267791Y-173696D01*
X267622Y-173865D01*
X267537Y-174119D01*
X267537Y-174288D01*
X267622Y-174542D01*
X267791Y-174711D01*
X267961Y-174796D01*
X268215Y-174796D01*
X268384Y-174711D01*
X268553Y-174542D01*
X269112Y-174627D02*
X269027Y-174711D01*
X269112Y-174796D01*
X269196Y-174711D01*
X269112Y-174627D01*
X239770Y-170278D02*
X239770Y-172056D01*
X239770Y-170278D02*
X240447Y-172056D01*
X241124Y-170278D02*
X240447Y-172056D01*
X241124Y-170278D02*
X241124Y-172056D01*
X241802Y-170278D02*
X241886Y-170363D01*
X241971Y-170278D01*
X241886Y-170194D01*
X241802Y-170278D01*
X241886Y-170871D02*
X241886Y-172056D01*
X243300Y-171125D02*
X243131Y-170956D01*
X242961Y-170871D01*
X242707Y-170871D01*
X242538Y-170956D01*
X242369Y-171125D01*
X242284Y-171379D01*
X242284Y-171548D01*
X242369Y-171802D01*
X242538Y-171971D01*
X242707Y-172056D01*
X242961Y-172056D01*
X243131Y-171971D01*
X243300Y-171802D01*
X243681Y-170871D02*
X243681Y-172056D01*
X243681Y-171379D02*
X243765Y-171125D01*
X243935Y-170956D01*
X244104Y-170871D01*
X244358Y-170871D01*
X244942Y-170871D02*
X244773Y-170956D01*
X244603Y-171125D01*
X244519Y-171379D01*
X244519Y-171548D01*
X244603Y-171802D01*
X244773Y-171971D01*
X244942Y-172056D01*
X245196Y-172056D01*
X245365Y-171971D01*
X245535Y-171802D01*
X245619Y-171548D01*
X245619Y-171379D01*
X245535Y-171125D01*
X245365Y-170956D01*
X245196Y-170871D01*
X244942Y-170871D01*
X247024Y-171125D02*
X246855Y-170956D01*
X246686Y-170871D01*
X246432Y-170871D01*
X246263Y-170956D01*
X246093Y-171125D01*
X246009Y-171379D01*
X246009Y-171548D01*
X246093Y-171802D01*
X246263Y-171971D01*
X246432Y-172056D01*
X246686Y-172056D01*
X246855Y-171971D01*
X247024Y-171802D01*
X247405Y-170278D02*
X247405Y-172056D01*
X247405Y-171210D02*
X247659Y-170956D01*
X247829Y-170871D01*
X248082Y-170871D01*
X248252Y-170956D01*
X248336Y-171210D01*
X248336Y-172056D01*
X248971Y-170278D02*
X249056Y-170363D01*
X249141Y-170278D01*
X249056Y-170194D01*
X248971Y-170278D01*
X249056Y-170871D02*
X249056Y-172056D01*
X249454Y-170871D02*
X249454Y-172649D01*
X249454Y-171125D02*
X249623Y-170956D01*
X249792Y-170871D01*
X250046Y-170871D01*
X250216Y-170956D01*
X250385Y-171125D01*
X250470Y-171379D01*
X250470Y-171548D01*
X250385Y-171802D01*
X250216Y-171971D01*
X250046Y-172056D01*
X249792Y-172056D01*
X249623Y-171971D01*
X249454Y-171802D01*
X252840Y-170278D02*
X252840Y-172056D01*
X252247Y-170278D02*
X253432Y-170278D01*
X253644Y-171379D02*
X254660Y-171379D01*
X254660Y-171210D01*
X254575Y-171040D01*
X254490Y-170956D01*
X254321Y-170871D01*
X254067Y-170871D01*
X253898Y-170956D01*
X253729Y-171125D01*
X253644Y-171379D01*
X253644Y-171548D01*
X253729Y-171802D01*
X253898Y-171971D01*
X254067Y-172056D01*
X254321Y-172056D01*
X254490Y-171971D01*
X254660Y-171802D01*
X256056Y-171125D02*
X255887Y-170956D01*
X255718Y-170871D01*
X255464Y-170871D01*
X255295Y-170956D01*
X255125Y-171125D01*
X255041Y-171379D01*
X255041Y-171548D01*
X255125Y-171802D01*
X255295Y-171971D01*
X255464Y-172056D01*
X255718Y-172056D01*
X255887Y-171971D01*
X256056Y-171802D01*
X256437Y-170278D02*
X256437Y-172056D01*
X256437Y-171210D02*
X256691Y-170956D01*
X256861Y-170871D01*
X257114Y-170871D01*
X257284Y-170956D01*
X257368Y-171210D01*
X257368Y-172056D01*
X257834Y-170871D02*
X257834Y-172056D01*
X257834Y-171210D02*
X258088Y-170956D01*
X258257Y-170871D01*
X258511Y-170871D01*
X258680Y-170956D01*
X258765Y-171210D01*
X258765Y-172056D01*
X259654Y-170871D02*
X259485Y-170956D01*
X259315Y-171125D01*
X259231Y-171379D01*
X259231Y-171548D01*
X259315Y-171802D01*
X259485Y-171971D01*
X259654Y-172056D01*
X259908Y-172056D01*
X260077Y-171971D01*
X260246Y-171802D01*
X260331Y-171548D01*
X260331Y-171379D01*
X260246Y-171125D01*
X260077Y-170956D01*
X259908Y-170871D01*
X259654Y-170871D01*
X260721Y-170278D02*
X260721Y-172056D01*
X261516Y-170871D02*
X261347Y-170956D01*
X261178Y-171125D01*
X261093Y-171379D01*
X261093Y-171548D01*
X261178Y-171802D01*
X261347Y-171971D01*
X261516Y-172056D01*
X261770Y-172056D01*
X261939Y-171971D01*
X262109Y-171802D01*
X262193Y-171548D01*
X262193Y-171379D01*
X262109Y-171125D01*
X261939Y-170956D01*
X261770Y-170871D01*
X261516Y-170871D01*
X263599Y-170871D02*
X263599Y-172225D01*
X263514Y-172479D01*
X263429Y-172564D01*
X263260Y-172649D01*
X263006Y-172649D01*
X262837Y-172564D01*
X263599Y-171125D02*
X263429Y-170956D01*
X263260Y-170871D01*
X263006Y-170871D01*
X262837Y-170956D01*
X262667Y-171125D01*
X262583Y-171379D01*
X262583Y-171548D01*
X262667Y-171802D01*
X262837Y-171971D01*
X263006Y-172056D01*
X263260Y-172056D01*
X263429Y-171971D01*
X263599Y-171802D01*
X264157Y-170871D02*
X264665Y-172056D01*
X265173Y-170871D02*
X264665Y-172056D01*
X264496Y-172395D01*
X264327Y-172564D01*
X264157Y-172649D01*
X264073Y-172649D01*
X266866Y-170278D02*
X266866Y-172056D01*
X267238Y-170871D02*
X267238Y-172056D01*
X267238Y-171210D02*
X267492Y-170956D01*
X267662Y-170871D01*
X267916Y-170871D01*
X268085Y-170956D01*
X268170Y-171210D01*
X268170Y-172056D01*
X269651Y-171125D02*
X269482Y-170956D01*
X269312Y-170871D01*
X269058Y-170871D01*
X268889Y-170956D01*
X268720Y-171125D01*
X268635Y-171379D01*
X268635Y-171548D01*
X268720Y-171802D01*
X268889Y-171971D01*
X269058Y-172056D01*
X269312Y-172056D01*
X269482Y-171971D01*
X269651Y-171802D01*
X270116Y-171887D02*
X270032Y-171971D01*
X270116Y-172056D01*
X270201Y-171971D01*
X270116Y-171887D01*
X301071Y-165439D02*
X301000Y-165368D01*
X301071Y-165296D01*
X301143Y-165368D01*
X301143Y-165511D01*
X301071Y-165653D01*
X301000Y-165725D01*
X301900Y-165296D02*
X301686Y-165368D01*
X301543Y-165582D01*
X301471Y-165939D01*
X301471Y-166153D01*
X301543Y-166510D01*
X301686Y-166725D01*
X301900Y-166796D01*
X302043Y-166796D01*
X302257Y-166725D01*
X302400Y-166510D01*
X302471Y-166153D01*
X302471Y-165939D01*
X302400Y-165582D01*
X302257Y-165368D01*
X302043Y-165296D01*
X301900Y-165296D01*
X303664Y-165296D02*
X302950Y-165296D01*
X302878Y-165939D01*
X302950Y-165868D01*
X303164Y-165796D01*
X303378Y-165796D01*
X303592Y-165868D01*
X303735Y-166010D01*
X303807Y-166225D01*
X303807Y-166368D01*
X303735Y-166582D01*
X303592Y-166725D01*
X303378Y-166796D01*
X303164Y-166796D01*
X302950Y-166725D01*
X302878Y-166653D01*
X302807Y-166510D01*
X304142Y-166153D02*
X305428Y-166153D01*
X305870Y-167296D02*
X307013Y-167296D01*
X307206Y-167296D02*
X308348Y-167296D01*
X308541Y-166153D02*
X309827Y-166153D01*
X310269Y-165296D02*
X310269Y-166796D01*
X310269Y-165296D02*
X310912Y-165296D01*
X311126Y-165368D01*
X311198Y-165439D01*
X311269Y-165582D01*
X311269Y-165725D01*
X311198Y-165868D01*
X311126Y-165939D01*
X310912Y-166010D01*
X310269Y-166010D01*
X310769Y-166010D02*
X311269Y-166796D01*
X311605Y-167296D02*
X312747Y-167296D01*
X312940Y-167296D02*
X314083Y-167296D01*
X314347Y-166653D02*
X314276Y-166725D01*
X314347Y-166796D01*
X314419Y-166725D01*
X314347Y-166653D01*
X315818Y-165653D02*
X315747Y-165511D01*
X315604Y-165368D01*
X315461Y-165296D01*
X315176Y-165296D01*
X315033Y-165368D01*
X314890Y-165511D01*
X314818Y-165653D01*
X314747Y-165868D01*
X314747Y-166225D01*
X314818Y-166439D01*
X314890Y-166582D01*
X315033Y-166725D01*
X315176Y-166796D01*
X315461Y-166796D01*
X315604Y-166725D01*
X315747Y-166582D01*
X315818Y-166439D01*
X315818Y-166225D01*
X315461Y-166225D02*
X315818Y-166225D01*
X316161Y-165296D02*
X316161Y-166796D01*
X316161Y-165296D02*
X316732Y-166796D01*
X317304Y-165296D02*
X316732Y-166796D01*
X317304Y-165296D02*
X317304Y-166796D01*
X317732Y-165582D02*
X317875Y-165511D01*
X318089Y-165296D01*
X318089Y-166796D01*
X318832Y-165582D02*
X318975Y-165511D01*
X319189Y-165296D01*
X319189Y-166796D01*
X320003Y-165439D02*
X319932Y-165368D01*
X320003Y-165296D01*
X320074Y-165368D01*
X320074Y-165511D01*
X320003Y-165653D01*
X319932Y-165725D01*
X327582Y-179994D02*
X327497Y-179825D01*
X327243Y-179740D01*
X327074Y-179740D01*
X326820Y-179825D01*
X326650Y-180079D01*
X326566Y-180502D01*
X326566Y-180925D01*
X326650Y-181264D01*
X326820Y-181433D01*
X327074Y-181518D01*
X327158Y-181518D01*
X327412Y-181433D01*
X327582Y-181264D01*
X327666Y-181010D01*
X327666Y-180925D01*
X327582Y-180671D01*
X327412Y-180502D01*
X327158Y-180418D01*
X327074Y-180418D01*
X326820Y-180502D01*
X326650Y-180671D01*
X326566Y-180925D01*
X263955Y-179740D02*
X263108Y-179740D01*
X263023Y-180502D01*
X263108Y-180418D01*
X263362Y-180333D01*
X263616Y-180333D01*
X263870Y-180418D01*
X264039Y-180587D01*
X264124Y-180841D01*
X264124Y-181010D01*
X264039Y-181264D01*
X263870Y-181433D01*
X263616Y-181518D01*
X263362Y-181518D01*
X263108Y-181433D01*
X263023Y-181349D01*
X262939Y-181179D01*
X200311Y-179740D02*
X199464Y-180925D01*
X200734Y-180925D01*
X200311Y-179740D02*
X200311Y-181518D01*
X135964Y-179740D02*
X136896Y-179740D01*
X136388Y-180418D01*
X136642Y-180418D01*
X136811Y-180502D01*
X136896Y-180587D01*
X136980Y-180841D01*
X136980Y-181010D01*
X136896Y-181264D01*
X136726Y-181433D01*
X136472Y-181518D01*
X136218Y-181518D01*
X135964Y-181433D01*
X135880Y-181349D01*
X135795Y-181179D01*
X72650Y-180164D02*
X72650Y-180079D01*
X72735Y-179910D01*
X72820Y-179825D01*
X72989Y-179740D01*
X73328Y-179740D01*
X73497Y-179825D01*
X73582Y-179910D01*
X73666Y-180079D01*
X73666Y-180248D01*
X73582Y-180418D01*
X73412Y-180671D01*
X72566Y-181518D01*
X73751Y-181518D01*
X9176Y-180079D02*
X9345Y-179994D01*
X9599Y-179740D01*
X9599Y-181518D01*
X-20195Y-153528D02*
X-20195Y-155305D01*
X-20195Y-153528D02*
X-19602Y-153528D01*
X-19349Y-153612D01*
X-19179Y-153782D01*
X-19095Y-153951D01*
X-19010Y-154205D01*
X-19010Y-154628D01*
X-19095Y-154882D01*
X-19179Y-155051D01*
X-19349Y-155221D01*
X-19602Y-155305D01*
X-20195Y-155305D01*
X-18925Y-93753D02*
X-19010Y-93584D01*
X-19179Y-93414D01*
X-19349Y-93330D01*
X-19687Y-93330D01*
X-19856Y-93414D01*
X-20026Y-93584D01*
X-20110Y-93753D01*
X-20195Y-94007D01*
X-20195Y-94430D01*
X-20110Y-94684D01*
X-20026Y-94853D01*
X-19856Y-95023D01*
X-19687Y-95107D01*
X-19349Y-95107D01*
X-19179Y-95023D01*
X-19010Y-94853D01*
X-18925Y-94684D01*
X-20195Y-33005D02*
X-20195Y-34782D01*
X-20195Y-33005D02*
X-19433Y-33005D01*
X-19179Y-33089D01*
X-19095Y-33174D01*
X-19010Y-33343D01*
X-19010Y-33512D01*
X-19095Y-33682D01*
X-19179Y-33766D01*
X-19433Y-33851D01*
X-20195Y-33851D02*
X-19433Y-33851D01*
X-19179Y-33936D01*
X-19095Y-34020D01*
X-19010Y-34190D01*
X-19010Y-34444D01*
X-19095Y-34613D01*
X-19179Y-34698D01*
X-19433Y-34782D01*
X-20195Y-34782D01*
X-18841Y25670D02*
X-19518Y27447D01*
X-20195Y25670D01*
X-19941Y26262D02*
X-19095Y26262D01*
X355725Y-153528D02*
X355725Y-155305D01*
X355725Y-153528D02*
X356318Y-153528D01*
X356572Y-153612D01*
X356741Y-153782D01*
X356825Y-153951D01*
X356910Y-154205D01*
X356910Y-154628D01*
X356825Y-154882D01*
X356741Y-155051D01*
X356572Y-155221D01*
X356318Y-155305D01*
X355725Y-155305D01*
X356995Y-93753D02*
X356910Y-93584D01*
X356741Y-93414D01*
X356572Y-93330D01*
X356233Y-93330D01*
X356064Y-93414D01*
X355894Y-93584D01*
X355810Y-93753D01*
X355725Y-94007D01*
X355725Y-94430D01*
X355810Y-94684D01*
X355894Y-94853D01*
X356064Y-95023D01*
X356233Y-95107D01*
X356572Y-95107D01*
X356741Y-95023D01*
X356910Y-94853D01*
X356995Y-94684D01*
X355725Y-33005D02*
X355725Y-34782D01*
X355725Y-33005D02*
X356487Y-33005D01*
X356741Y-33089D01*
X356825Y-33174D01*
X356910Y-33343D01*
X356910Y-33512D01*
X356825Y-33682D01*
X356741Y-33766D01*
X356487Y-33851D01*
X355725Y-33851D02*
X356487Y-33851D01*
X356741Y-33936D01*
X356825Y-34020D01*
X356910Y-34190D01*
X356910Y-34444D01*
X356825Y-34613D01*
X356741Y-34698D01*
X356487Y-34782D01*
X355725Y-34782D01*
X357079Y25670D02*
X356402Y27447D01*
X355725Y25670D01*
X355979Y26262D02*
X356825Y26262D01*
X327582Y56226D02*
X327497Y56395D01*
X327243Y56480D01*
X327074Y56480D01*
X326820Y56395D01*
X326650Y56141D01*
X326566Y55718D01*
X326566Y55295D01*
X326650Y54956D01*
X326820Y54787D01*
X327074Y54702D01*
X327158Y54702D01*
X327412Y54787D01*
X327582Y54956D01*
X327666Y55210D01*
X327666Y55295D01*
X327582Y55549D01*
X327412Y55718D01*
X327158Y55802D01*
X327074Y55802D01*
X326820Y55718D01*
X326650Y55549D01*
X326566Y55295D01*
X263955Y56480D02*
X263108Y56480D01*
X263023Y55718D01*
X263108Y55802D01*
X263362Y55887D01*
X263616Y55887D01*
X263870Y55802D01*
X264039Y55633D01*
X264124Y55379D01*
X264124Y55210D01*
X264039Y54956D01*
X263870Y54787D01*
X263616Y54702D01*
X263362Y54702D01*
X263108Y54787D01*
X263023Y54871D01*
X262939Y55041D01*
X200311Y56480D02*
X199464Y55295D01*
X200734Y55295D01*
X200311Y56480D02*
X200311Y54702D01*
X135964Y56480D02*
X136896Y56480D01*
X136388Y55802D01*
X136642Y55802D01*
X136811Y55718D01*
X136896Y55633D01*
X136980Y55379D01*
X136980Y55210D01*
X136896Y54956D01*
X136726Y54787D01*
X136472Y54702D01*
X136218Y54702D01*
X135964Y54787D01*
X135880Y54871D01*
X135795Y55041D01*
X72650Y56056D02*
X72650Y56141D01*
X72735Y56310D01*
X72820Y56395D01*
X72989Y56480D01*
X73328Y56480D01*
X73497Y56395D01*
X73582Y56310D01*
X73666Y56141D01*
X73666Y55972D01*
X73582Y55802D01*
X73412Y55549D01*
X72566Y54702D01*
X73751Y54702D01*
X9176Y56141D02*
X9345Y56226D01*
X9599Y56480D01*
X9599Y54702D01*
D17*
X62512Y40548D02*
G03*
X63112Y40548I300J0D01*
G01*
X34941Y40612D02*
G03*
X35541Y40612I300J0D01*
G01*
X7833Y40612D02*
G03*
X8433Y40612I300J0D01*
G01*
X56112Y29048D02*
X56112Y40548D01*
X63112Y40548D02*
X65112Y40548D01*
X56112Y40548D02*
X62512Y40548D01*
X65112Y29048D02*
X65112Y40548D01*
X56112Y29048D02*
X65112Y29048D01*
X33241Y18612D02*
X45241Y18612D01*
X45241Y40612D01*
X33241Y18612D02*
X33241Y40612D01*
X35541Y40612D02*
X45241Y40612D01*
X33241Y40612D02*
X34941Y40612D01*
X33241Y18612D02*
X45241Y18612D01*
X6133Y18612D02*
X18133Y18612D01*
X18133Y40612D01*
X6133Y18612D02*
X6133Y40612D01*
X8433Y40612D02*
X18133Y40612D01*
X6133Y40612D02*
X7833Y40612D01*
X6133Y18612D02*
X18133Y18612D01*
X331000Y-178216D02*
X331000Y-173796D01*
X300000Y-178216D02*
X300000Y-161796D01*
X318000Y-173796D02*
X318000Y-167796D01*
X338500Y-178216D02*
X338500Y-167796D01*
X238000Y-178216D02*
X238000Y-152796D01*
X272000Y-178216D02*
X272000Y-152796D01*
X353820Y-178216D02*
X353820Y-152796D01*
X238000Y-178216D02*
X353820Y-178216D01*
X272000Y-173796D02*
X353820Y-173796D01*
X272000Y-167796D02*
X353820Y-167796D01*
X272000Y-161796D02*
X353820Y-161796D01*
X238000Y-152796D02*
X353820Y-152796D01*
X203960Y-178216D02*
X239520Y-178216D01*
X41400Y-183296D02*
X41400Y-178216D01*
X-22100Y-122971D02*
X-17020Y-122971D01*
X-22100Y-62646D02*
X-17020Y-62646D01*
X-22100Y-2321D02*
X-17020Y-2321D01*
X-17020Y-178216D02*
X353820Y-178216D01*
X-17020Y-178216D02*
X-17020Y52924D01*
X-22100Y-183296D02*
X358900Y-183296D01*
X-22100Y-183296D02*
X-22100Y58004D01*
X353820Y-178216D02*
X353820Y-147736D01*
X104900Y-183296D02*
X104900Y-178216D01*
X168400Y-183296D02*
X168400Y-178216D01*
X231900Y-183296D02*
X231900Y-178216D01*
X295400Y-183296D02*
X295400Y-178216D01*
X353820Y-122971D02*
X358900Y-122971D01*
X353820Y-62646D02*
X358900Y-62646D01*
X353820Y-2321D02*
X358900Y-2321D01*
X358900Y-183296D02*
X358900Y58004D01*
X353820Y-178216D02*
X353820Y52924D01*
X41400Y52924D02*
X41400Y58004D01*
X-22100Y58004D02*
X358900Y58004D01*
X-17020Y52924D02*
X353820Y52924D01*
X104900Y52924D02*
X104900Y58004D01*
X168400Y52924D02*
X168400Y58004D01*
X231900Y52924D02*
X231900Y58004D01*
X295400Y52924D02*
X295400Y58004D01*
X301000Y-174153D02*
X301000Y-175296D01*
X301653Y-175296D01*
X302649Y-175296D02*
X302214Y-174153D01*
X301778Y-175296D01*
X301941Y-174915D02*
X302486Y-174915D01*
X302915Y-174153D02*
X303351Y-174697D01*
X303351Y-175296D01*
X303786Y-174153D02*
X303351Y-174697D01*
X304641Y-174153D02*
X303933Y-174153D01*
X303933Y-175296D01*
X304641Y-175296D01*
X303933Y-174697D02*
X304368Y-174697D01*
X304831Y-174153D02*
X304831Y-175296D01*
X304831Y-174153D02*
X305321Y-174153D01*
X305484Y-174208D01*
X305538Y-174262D01*
X305593Y-174371D01*
X305593Y-174480D01*
X305538Y-174589D01*
X305484Y-174643D01*
X305321Y-174697D01*
X304831Y-174697D01*
X305212Y-174697D02*
X305593Y-175296D01*
X306746Y-174153D02*
X306746Y-175296D01*
X306746Y-174153D02*
X307508Y-175296D01*
X307508Y-174153D02*
X307508Y-175296D01*
X308695Y-175296D02*
X308259Y-174153D01*
X307824Y-175296D01*
X307987Y-174915D02*
X308531Y-174915D01*
X308961Y-174153D02*
X308961Y-175296D01*
X308961Y-174153D02*
X309397Y-175296D01*
X309832Y-174153D02*
X309397Y-175296D01*
X309832Y-174153D02*
X309832Y-175296D01*
X310866Y-174153D02*
X310158Y-174153D01*
X310158Y-175296D01*
X310866Y-175296D01*
X310158Y-174697D02*
X310594Y-174697D01*
X311111Y-174534D02*
X311056Y-174589D01*
X311111Y-174643D01*
X311165Y-174589D01*
X311111Y-174534D01*
X311111Y-175187D02*
X311056Y-175242D01*
X311111Y-175296D01*
X311165Y-175242D01*
X311111Y-175187D01*
X331750Y-174403D02*
X331750Y-175546D01*
X331750Y-174403D02*
X332240Y-174403D01*
X332403Y-174458D01*
X332457Y-174512D01*
X332512Y-174621D01*
X332512Y-174730D01*
X332457Y-174839D01*
X332403Y-174893D01*
X332240Y-174947D01*
X331750Y-174947D01*
X332131Y-174947D02*
X332512Y-175546D01*
X333475Y-174403D02*
X332768Y-174403D01*
X332768Y-175546D01*
X333475Y-175546D01*
X332768Y-174947D02*
X333203Y-174947D01*
X333665Y-174403D02*
X334101Y-175546D01*
X334536Y-174403D02*
X334101Y-175546D01*
X334737Y-174784D02*
X334683Y-174839D01*
X334737Y-174893D01*
X334792Y-174839D01*
X334737Y-174784D01*
X334737Y-175437D02*
X334683Y-175492D01*
X334737Y-175546D01*
X334792Y-175492D01*
X334737Y-175437D01*
X339700Y-168653D02*
X339700Y-169796D01*
X339700Y-168653D02*
X340081Y-168653D01*
X340244Y-168708D01*
X340353Y-168816D01*
X340407Y-168925D01*
X340462Y-169089D01*
X340462Y-169361D01*
X340407Y-169524D01*
X340353Y-169633D01*
X340244Y-169742D01*
X340081Y-169796D01*
X339700Y-169796D01*
X341588Y-169796D02*
X341153Y-168653D01*
X340718Y-169796D01*
X340881Y-169415D02*
X341425Y-169415D01*
X342236Y-168653D02*
X342236Y-169796D01*
X341855Y-168653D02*
X342617Y-168653D01*
X343460Y-168653D02*
X342753Y-168653D01*
X342753Y-169796D01*
X343460Y-169796D01*
X342753Y-169197D02*
X343188Y-169197D01*
X343705Y-169034D02*
X343651Y-169089D01*
X343705Y-169143D01*
X343759Y-169089D01*
X343705Y-169034D01*
X343705Y-169687D02*
X343651Y-169742D01*
X343705Y-169796D01*
X343759Y-169742D01*
X343705Y-169687D01*
X273381Y-154153D02*
X273381Y-155296D01*
X273000Y-154153D02*
X273762Y-154153D01*
X273898Y-154153D02*
X273898Y-155296D01*
X274518Y-154153D02*
X274518Y-155296D01*
X274137Y-154153D02*
X274899Y-154153D01*
X275035Y-154153D02*
X275035Y-155296D01*
X275688Y-155296D01*
X276521Y-154153D02*
X275813Y-154153D01*
X275813Y-155296D01*
X276521Y-155296D01*
X275813Y-154697D02*
X276249Y-154697D01*
X276766Y-154534D02*
X276711Y-154589D01*
X276766Y-154643D01*
X276820Y-154589D01*
X276766Y-154534D01*
X276766Y-155187D02*
X276711Y-155242D01*
X276766Y-155296D01*
X276820Y-155242D01*
X276766Y-155187D01*
D18*
X319457Y-171196D02*
X319229Y-171273D01*
X319076Y-171501D01*
X319000Y-171882D01*
X319000Y-172110D01*
X319076Y-172491D01*
X319229Y-172720D01*
X319457Y-172796D01*
X319609Y-172796D01*
X319838Y-172720D01*
X319990Y-172491D01*
X320066Y-172110D01*
X320066Y-171882D01*
X319990Y-171501D01*
X319838Y-171273D01*
X319609Y-171196D01*
X319457Y-171196D01*
X320501Y-171577D02*
X320501Y-171501D01*
X320577Y-171349D01*
X320653Y-171273D01*
X320805Y-171196D01*
X321110Y-171196D01*
X321262Y-171273D01*
X321339Y-171349D01*
X321415Y-171501D01*
X321415Y-171653D01*
X321339Y-171806D01*
X321186Y-172034D01*
X320424Y-172796D01*
X321491Y-172796D01*
X321849Y-172110D02*
X323220Y-172110D01*
X324073Y-171196D02*
X324073Y-172110D01*
X323692Y-171425D02*
X324454Y-171882D01*
X324454Y-171425D02*
X323692Y-171882D01*
X325162Y-171196D02*
X325162Y-172110D01*
X324782Y-171425D02*
X325543Y-171882D01*
X325543Y-171425D02*
X324782Y-171882D01*
X325871Y-172110D02*
X327242Y-172110D01*
X327714Y-171196D02*
X327714Y-172796D01*
X327714Y-171196D02*
X328248Y-171196D01*
X328476Y-171273D01*
X328628Y-171425D01*
X328705Y-171577D01*
X328781Y-171806D01*
X328781Y-172187D01*
X328705Y-172415D01*
X328628Y-172567D01*
X328476Y-172720D01*
X328248Y-172796D01*
X327714Y-172796D01*
X273381Y-171196D02*
X273381Y-172110D01*
X273000Y-171425D02*
X273762Y-171882D01*
X273762Y-171425D02*
X273000Y-171882D01*
X274470Y-171196D02*
X274470Y-172110D01*
X274089Y-171425D02*
X274851Y-171882D01*
X274851Y-171425D02*
X274089Y-171882D01*
X301457Y-171196D02*
X301229Y-171273D01*
X301076Y-171501D01*
X301000Y-171882D01*
X301000Y-172110D01*
X301076Y-172491D01*
X301229Y-172720D01*
X301457Y-172796D01*
X301609Y-172796D01*
X301838Y-172720D01*
X301990Y-172491D01*
X302066Y-172110D01*
X302066Y-171882D01*
X301990Y-171501D01*
X301838Y-171273D01*
X301609Y-171196D01*
X301457Y-171196D01*
X303186Y-171196D02*
X302424Y-172263D01*
X303567Y-172263D01*
X303186Y-171196D02*
X303186Y-172796D01*
X303849Y-172110D02*
X305220Y-172110D01*
X306073Y-171196D02*
X306073Y-172110D01*
X305692Y-171425D02*
X306454Y-171882D01*
X306454Y-171425D02*
X305692Y-171882D01*
X307162Y-171196D02*
X307162Y-172110D01*
X306782Y-171425D02*
X307543Y-171882D01*
X307543Y-171425D02*
X306782Y-171882D01*
D19*
X273595Y-156797D02*
X273595Y-158225D01*
X273000Y-157154D02*
X274190Y-157868D01*
X274190Y-157154D02*
X273000Y-157868D01*
X275297Y-156797D02*
X275297Y-158225D01*
X274702Y-157154D02*
X275892Y-157868D01*
X275892Y-157154D02*
X274702Y-157868D01*
D55*
X56562Y35748D02*
G03*
X56562Y35748I-200J0D01*
G01*
X43600Y35695D02*
G03*
X43620Y35670I-149J-133D01*
G01*
X16492Y35695D02*
G03*
X16512Y35670I-149J-133D01*
G01*
D56*
X44951Y35560D02*
G03*
X44951Y35560I-1500J2D01*
G01*
X17843Y35560D02*
G03*
X17843Y35560I-1500J2D01*
G01*
D57*
X56112Y36548D02*
X65112Y36548D01*
X43451Y34762D02*
X43451Y35562D01*
X42651Y35562D02*
X43451Y35562D01*
X44251Y35562D01*
X43451Y35562D02*
X43451Y36362D01*
X33241Y36662D02*
X45241Y36662D01*
X16343Y34762D02*
X16343Y35562D01*
X15543Y35562D02*
X16343Y35562D01*
X17143Y35562D01*
X16343Y35562D02*
X16343Y36362D01*
X6133Y36662D02*
X18133Y36662D01*
D58*
X1992Y17117D02*
X2442Y17117D01*
X2442Y16892D01*
X2367Y16817D01*
X2217Y16817D01*
X2142Y16892D01*
X2142Y17117D01*
X2142Y16967D02*
X1992Y16817D01*
X1992Y16667D02*
X1992Y16517D01*
X1992Y16592D01*
X2442Y16592D01*
X2367Y16667D01*
X73811Y25182D02*
X73811Y25632D01*
X74036Y25632D01*
X74111Y25557D01*
X74111Y25407D01*
X74036Y25332D01*
X73811Y25332D01*
X73961Y25332D02*
X74111Y25182D01*
X74561Y25182D02*
X74261Y25182D01*
X74561Y25482D01*
X74561Y25557D01*
X74486Y25632D01*
X74336Y25632D01*
X74261Y25557D01*
X20483Y18662D02*
X20483Y19112D01*
X20708Y19112D01*
X20783Y19037D01*
X20783Y18887D01*
X20708Y18812D01*
X20483Y18812D01*
X20633Y18812D02*
X20783Y18662D01*
X20933Y19037D02*
X21008Y19112D01*
X21158Y19112D01*
X21233Y19037D01*
X21233Y18962D01*
X21158Y18887D01*
X21083Y18887D01*
X21158Y18887D01*
X21233Y18812D01*
X21233Y18737D01*
X21158Y18662D01*
X21008Y18662D01*
X20933Y18737D01*
X65765Y25082D02*
X65315Y25082D01*
X65315Y25307D01*
X65390Y25382D01*
X65540Y25382D01*
X65615Y25307D01*
X65615Y25082D01*
X65615Y25232D02*
X65765Y25382D01*
X65765Y25757D02*
X65315Y25757D01*
X65540Y25532D01*
X65540Y25832D01*
X28890Y26343D02*
X28890Y26793D01*
X29115Y26793D01*
X29190Y26718D01*
X29190Y26568D01*
X29115Y26493D01*
X28890Y26493D01*
X29040Y26493D02*
X29190Y26343D01*
X29640Y26793D02*
X29340Y26793D01*
X29340Y26568D01*
X29490Y26643D01*
X29565Y26643D01*
X29640Y26568D01*
X29640Y26418D01*
X29565Y26343D01*
X29415Y26343D01*
X29340Y26418D01*
X45853Y9987D02*
X45853Y10437D01*
X46078Y10437D01*
X46153Y10362D01*
X46153Y10212D01*
X46078Y10137D01*
X45853Y10137D01*
X46003Y10137D02*
X46153Y9987D01*
X46603Y10437D02*
X46453Y10362D01*
X46303Y10212D01*
X46303Y10062D01*
X46378Y9987D01*
X46528Y9987D01*
X46603Y10062D01*
X46603Y10137D01*
X46528Y10212D01*
X46303Y10212D01*
X45853Y12527D02*
X45853Y12977D01*
X46078Y12977D01*
X46153Y12902D01*
X46153Y12752D01*
X46078Y12677D01*
X45853Y12677D01*
X46003Y12677D02*
X46153Y12527D01*
X46303Y12977D02*
X46603Y12977D01*
X46603Y12902D01*
X46303Y12602D01*
X46303Y12527D01*
X45803Y15067D02*
X45803Y15517D01*
X46028Y15517D01*
X46103Y15442D01*
X46103Y15292D01*
X46028Y15217D01*
X45803Y15217D01*
X45953Y15217D02*
X46103Y15067D01*
X46253Y15442D02*
X46328Y15517D01*
X46478Y15517D01*
X46553Y15442D01*
X46553Y15367D01*
X46478Y15292D01*
X46553Y15217D01*
X46553Y15142D01*
X46478Y15067D01*
X46328Y15067D01*
X46253Y15142D01*
X46253Y15217D01*
X46328Y15292D01*
X46253Y15367D01*
X46253Y15442D01*
X46328Y15292D02*
X46478Y15292D01*
D59*
X1692Y33162D02*
D03*
X20333Y28862D02*
D03*
X69248Y31598D02*
D03*
X47103Y29562D02*
D03*
D60*
X67439Y28575D02*
D03*
M02*
