G04*
G04 #@! TF.GenerationSoftware,Altium Limited,Altium Designer,22.10.1 (41)*
G04*
G04 Layer_Color=255*
%FSLAX43Y43*%
%MOMM*%
G71*
G04*
G04 #@! TF.SameCoordinates,616D65FC-62BC-469B-91EF-3386A997E351*
G04*
G04*
G04 #@! TF.FilePolarity,Positive*
G04*
G01*
G75*
%ADD10C,0.200*%
%ADD11C,0.100*%
%ADD13C,0.254*%
%ADD14C,0.150*%
%ADD15C,0.178*%
%ADD17C,0.127*%
%ADD18C,0.180*%
%ADD19C,0.350*%
%ADD20R,1.500X0.700*%
%ADD21R,0.700X1.500*%
G04:AMPARAMS|DCode=22|XSize=1.75mm|YSize=1mm|CornerRadius=0.25mm|HoleSize=0mm|Usage=FLASHONLY|Rotation=180.000|XOffset=0mm|YOffset=0mm|HoleType=Round|Shape=RoundedRectangle|*
%AMROUNDEDRECTD22*
21,1,1.750,0.500,0,0,180.0*
21,1,1.250,1.000,0,0,180.0*
1,1,0.500,-0.625,0.250*
1,1,0.500,0.625,0.250*
1,1,0.500,0.625,-0.250*
1,1,0.500,-0.625,-0.250*
%
%ADD22ROUNDEDRECTD22*%
G04:AMPARAMS|DCode=23|XSize=1.4mm|YSize=0.9mm|CornerRadius=0.225mm|HoleSize=0mm|Usage=FLASHONLY|Rotation=0.000|XOffset=0mm|YOffset=0mm|HoleType=Round|Shape=RoundedRectangle|*
%AMROUNDEDRECTD23*
21,1,1.400,0.450,0,0,0.0*
21,1,0.950,0.900,0,0,0.0*
1,1,0.450,0.475,-0.225*
1,1,0.450,-0.475,-0.225*
1,1,0.450,-0.475,0.225*
1,1,0.450,0.475,0.225*
%
%ADD23ROUNDEDRECTD23*%
%ADD24R,1.200X1.200*%
%ADD25R,1.200X1.200*%
G04:AMPARAMS|DCode=26|XSize=1.4mm|YSize=0.9mm|CornerRadius=0.225mm|HoleSize=0mm|Usage=FLASHONLY|Rotation=90.000|XOffset=0mm|YOffset=0mm|HoleType=Round|Shape=RoundedRectangle|*
%AMROUNDEDRECTD26*
21,1,1.400,0.450,0,0,90.0*
21,1,0.950,0.900,0,0,90.0*
1,1,0.450,0.225,0.475*
1,1,0.450,0.225,-0.475*
1,1,0.450,-0.225,-0.475*
1,1,0.450,-0.225,0.475*
%
%ADD26ROUNDEDRECTD26*%
%ADD27R,1.500X1.500*%
%ADD28R,1.500X1.500*%
%ADD33R,1.400X1.400*%
%ADD44C,1.524*%
%ADD45P,1.840X8X202.5*%
%ADD46C,1.700*%
%ADD47C,1.400*%
G36*
X259338Y-154352D02*
X259423Y-154373D01*
X259528Y-154416D01*
X259634Y-154479D01*
X259719Y-154574D01*
X259782Y-154712D01*
X259793Y-154786D01*
X259804Y-154881D01*
X259804Y-154892D01*
X259804Y-154902D01*
X259793Y-154966D01*
X259772Y-155061D01*
X259740Y-155167D01*
X259666Y-155273D01*
X259571Y-155368D01*
X259507Y-155410D01*
X259433Y-155431D01*
X259349Y-155453D01*
X259253Y-155463D01*
X259211Y-155463D01*
X259169Y-155453D01*
X259116Y-155442D01*
X259042Y-155421D01*
X258978Y-155389D01*
X258904Y-155347D01*
X258841Y-155294D01*
X258830Y-155283D01*
X258819Y-155262D01*
X258788Y-155230D01*
X258756Y-155177D01*
X258724Y-155114D01*
X258703Y-155050D01*
X258682Y-154966D01*
X258671Y-154881D01*
X258671Y-154871D01*
X258671Y-154839D01*
X258682Y-154807D01*
X258693Y-154754D01*
X258714Y-154691D01*
X258745Y-154627D01*
X258788Y-154564D01*
X258841Y-154500D01*
X258851Y-154490D01*
X258872Y-154479D01*
X258904Y-154447D01*
X258957Y-154416D01*
X259021Y-154394D01*
X259084Y-154363D01*
X259169Y-154352D01*
X259253Y-154341D01*
X259274Y-154341D01*
X259338Y-154352D01*
X259338Y-154352D02*
G37*
G36*
X255624Y-153855D02*
X255730Y-153855D01*
X255846Y-153865D01*
X255984Y-153876D01*
X256121Y-153897D01*
X256280Y-153918D01*
X256449Y-153950D01*
X256788Y-154024D01*
X257148Y-154130D01*
X257497Y-154267D01*
X260671Y-159304D01*
X260671Y-159315D01*
X260671Y-159347D01*
X260661Y-159399D01*
X260661Y-159463D01*
X260650Y-159548D01*
X260629Y-159632D01*
X260587Y-159844D01*
X260587Y-159855D01*
X260576Y-159897D01*
X260565Y-159950D01*
X260544Y-160034D01*
X260513Y-160130D01*
X260491Y-160235D01*
X260417Y-160468D01*
X257666Y-156172D01*
X257655Y-156162D01*
X257624Y-156119D01*
X257581Y-156066D01*
X257529Y-156003D01*
X257454Y-155939D01*
X257370Y-155886D01*
X257275Y-155844D01*
X257169Y-155833D01*
X257126Y-155833D01*
X257084Y-155855D01*
X257021Y-155876D01*
X256957Y-155908D01*
X256883Y-155971D01*
X256798Y-156045D01*
X256714Y-156151D01*
X255793Y-157410D01*
X259031Y-162510D01*
X259010Y-162521D01*
X258957Y-162574D01*
X258872Y-162637D01*
X258756Y-162722D01*
X258608Y-162828D01*
X258428Y-162944D01*
X258216Y-163071D01*
X257984Y-163198D01*
X257719Y-163325D01*
X257433Y-163452D01*
X257126Y-163569D01*
X256798Y-163674D01*
X256449Y-163759D01*
X256079Y-163823D01*
X255687Y-163876D01*
X255285Y-163886D01*
X255190Y-163886D01*
X255137Y-163876D01*
X255074Y-163876D01*
X254915Y-163865D01*
X254724Y-163833D01*
X254502Y-163801D01*
X254248Y-163749D01*
X253984Y-163674D01*
X253687Y-163590D01*
X253381Y-163484D01*
X253063Y-163346D01*
X252746Y-163188D01*
X252418Y-162997D01*
X252090Y-162775D01*
X251772Y-162521D01*
X251465Y-162235D01*
X252841Y-160341D01*
X252851Y-160331D01*
X252862Y-160310D01*
X252873Y-160278D01*
X252883Y-160235D01*
X252894Y-160183D01*
X252915Y-160119D01*
X252926Y-160034D01*
X252926Y-160024D01*
X252926Y-160003D01*
X252915Y-159971D01*
X252904Y-159929D01*
X252894Y-159876D01*
X252862Y-159812D01*
X252830Y-159738D01*
X252777Y-159653D01*
X251762Y-158066D01*
X250248Y-160161D01*
X250248Y-160151D01*
X250238Y-160130D01*
X250227Y-160098D01*
X250217Y-160045D01*
X250206Y-159992D01*
X250195Y-159918D01*
X250164Y-159749D01*
X250121Y-159548D01*
X250100Y-159315D01*
X250079Y-159061D01*
X250068Y-158786D01*
X250068Y-158775D01*
X250068Y-158765D01*
X250068Y-158701D01*
X250079Y-158595D01*
X250090Y-158458D01*
X250111Y-158288D01*
X250143Y-158087D01*
X250195Y-157865D01*
X250248Y-157622D01*
X250322Y-157368D01*
X250418Y-157093D01*
X250545Y-156818D01*
X250682Y-156521D01*
X250852Y-156236D01*
X251042Y-155950D01*
X251264Y-155664D01*
X251518Y-155389D01*
X251539Y-155368D01*
X251592Y-155326D01*
X251677Y-155241D01*
X251793Y-155146D01*
X251952Y-155029D01*
X252132Y-154902D01*
X252344Y-154765D01*
X252587Y-154617D01*
X252862Y-154468D01*
X253158Y-154331D01*
X253476Y-154204D01*
X253825Y-154088D01*
X254195Y-153982D01*
X254587Y-153908D01*
X255000Y-153865D01*
X255433Y-153844D01*
X255550Y-153844D01*
X255624Y-153855D01*
X255624Y-153855D02*
G37*
G36*
X260893Y-165315D02*
X260978Y-165315D01*
X261052Y-165325D01*
X261105Y-165336D01*
X261116Y-165336D01*
X261147Y-165346D01*
X261190Y-165368D01*
X261243Y-165399D01*
X261296Y-165442D01*
X261348Y-165505D01*
X261391Y-165579D01*
X261423Y-165674D01*
X261423Y-165685D01*
X261423Y-165706D01*
X261433Y-165748D01*
X261433Y-165812D01*
X261433Y-165886D01*
X261444Y-165981D01*
X261444Y-166098D01*
X261444Y-166225D01*
X259560Y-166182D01*
X259539Y-166182D01*
X259497Y-166193D01*
X259423Y-166214D01*
X259349Y-166267D01*
X259264Y-166341D01*
X259232Y-166405D01*
X259190Y-166468D01*
X259169Y-166542D01*
X259148Y-166637D01*
X259126Y-166743D01*
X259126Y-166870D01*
X259126Y-167262D01*
X259126Y-167272D01*
X259126Y-167293D01*
X259126Y-167325D01*
X259137Y-167367D01*
X259148Y-167484D01*
X259179Y-167600D01*
X259232Y-167727D01*
X259306Y-167844D01*
X259349Y-167886D01*
X259412Y-167918D01*
X259476Y-167939D01*
X259550Y-167949D01*
X261475Y-167949D01*
X261475Y-167960D01*
X261475Y-167971D01*
X261475Y-168034D01*
X261475Y-168129D01*
X261465Y-168246D01*
X261454Y-168362D01*
X261433Y-168468D01*
X261401Y-168563D01*
X261370Y-168637D01*
X261359Y-168648D01*
X261338Y-168669D01*
X261306Y-168690D01*
X261243Y-168722D01*
X261158Y-168764D01*
X261052Y-168785D01*
X260904Y-168807D01*
X260735Y-168817D01*
X259370Y-168817D01*
X259327Y-168807D01*
X259211Y-168796D01*
X259073Y-168775D01*
X258925Y-168732D01*
X258777Y-168669D01*
X258650Y-168574D01*
X258544Y-168457D01*
X258534Y-168447D01*
X258523Y-168404D01*
X258491Y-168341D01*
X258470Y-168246D01*
X258439Y-168119D01*
X258407Y-167971D01*
X258396Y-167791D01*
X258386Y-167590D01*
X258386Y-166563D01*
X258386Y-166553D01*
X258386Y-166521D01*
X258386Y-166479D01*
X258396Y-166426D01*
X258396Y-166352D01*
X258407Y-166278D01*
X258439Y-166098D01*
X258491Y-165907D01*
X258555Y-165727D01*
X258661Y-165558D01*
X258724Y-165495D01*
X258798Y-165442D01*
X258809Y-165431D01*
X258841Y-165420D01*
X258883Y-165399D01*
X258957Y-165368D01*
X259042Y-165346D01*
X259158Y-165325D01*
X259285Y-165315D01*
X259433Y-165304D01*
X260809Y-165304D01*
X260893Y-165315D01*
X260893Y-165315D02*
G37*
G36*
X264904Y-168796D02*
X264174Y-168796D01*
X264174Y-167484D01*
X262618Y-167484D01*
X262618Y-168796D01*
X261930Y-168796D01*
X261930Y-165336D01*
X262618Y-165336D01*
X262618Y-166563D01*
X264174Y-166563D01*
X264174Y-165336D01*
X264904Y-165336D01*
X264904Y-168796D01*
X264904Y-168796D02*
G37*
G36*
X245211Y-164204D02*
X245275Y-164225D01*
X245349Y-164256D01*
X245434Y-164320D01*
X245508Y-164415D01*
X245540Y-164479D01*
X245561Y-164553D01*
X245592Y-164637D01*
X245603Y-164733D01*
X246069Y-168796D01*
X245201Y-168796D01*
X244958Y-165875D01*
X244947Y-165875D01*
X244048Y-168214D01*
X244037Y-168235D01*
X244016Y-168277D01*
X243984Y-168341D01*
X243931Y-168404D01*
X243857Y-168479D01*
X243772Y-168542D01*
X243667Y-168584D01*
X243540Y-168606D01*
X243518Y-168606D01*
X243476Y-168595D01*
X243413Y-168584D01*
X243328Y-168553D01*
X243233Y-168510D01*
X243148Y-168436D01*
X243063Y-168341D01*
X243000Y-168214D01*
X242111Y-165918D01*
X242100Y-165918D01*
X241847Y-168796D01*
X241000Y-168796D01*
X241444Y-164690D01*
X241444Y-164680D01*
X241444Y-164669D01*
X241466Y-164616D01*
X241487Y-164532D01*
X241529Y-164436D01*
X241582Y-164352D01*
X241667Y-164267D01*
X241772Y-164214D01*
X241836Y-164193D01*
X241931Y-164193D01*
X241984Y-164204D01*
X242058Y-164214D01*
X242153Y-164246D01*
X242259Y-164309D01*
X242365Y-164394D01*
X242460Y-164500D01*
X242503Y-164574D01*
X242534Y-164659D01*
X243518Y-167166D01*
X243540Y-167166D01*
X244524Y-164659D01*
X244524Y-164648D01*
X244534Y-164637D01*
X244555Y-164584D01*
X244608Y-164510D01*
X244672Y-164426D01*
X244756Y-164341D01*
X244862Y-164267D01*
X244989Y-164214D01*
X245063Y-164193D01*
X245169Y-164193D01*
X245211Y-164204D01*
X245211Y-164204D02*
G37*
G36*
X269031Y-165346D02*
X269137Y-165368D01*
X269274Y-165410D01*
X269412Y-165473D01*
X269539Y-165579D01*
X269602Y-165643D01*
X269655Y-165727D01*
X269697Y-165812D01*
X269729Y-165918D01*
X269729Y-165928D01*
X269740Y-165960D01*
X269750Y-166013D01*
X269761Y-166077D01*
X269771Y-166172D01*
X269782Y-166278D01*
X269793Y-166394D01*
X269793Y-166532D01*
X269793Y-166796D01*
X269793Y-166807D01*
X269793Y-166828D01*
X269793Y-166849D01*
X269793Y-166891D01*
X269782Y-167008D01*
X269771Y-167135D01*
X269740Y-167283D01*
X269708Y-167431D01*
X269655Y-167579D01*
X269581Y-167695D01*
X269570Y-167706D01*
X269549Y-167727D01*
X269518Y-167770D01*
X269465Y-167801D01*
X269401Y-167844D01*
X269316Y-167886D01*
X269221Y-167907D01*
X269115Y-167918D01*
X267401Y-167918D01*
X267401Y-168796D01*
X266682Y-168796D01*
X266682Y-165336D01*
X268988Y-165336D01*
X269031Y-165346D01*
X269031Y-165346D02*
G37*
G36*
X266216Y-168796D02*
X265412Y-168796D01*
X265412Y-165336D01*
X266216Y-165336D01*
X266216Y-168796D01*
X266216Y-168796D02*
G37*
G36*
X253677Y-165346D02*
X253719Y-165346D01*
X253836Y-165389D01*
X253888Y-165420D01*
X253963Y-165463D01*
X254026Y-165516D01*
X254079Y-165590D01*
X254142Y-165664D01*
X254195Y-165770D01*
X254238Y-165886D01*
X254269Y-166024D01*
X254291Y-166182D01*
X254301Y-166362D01*
X254301Y-166574D01*
X254301Y-166584D01*
X254301Y-166606D01*
X254301Y-166637D01*
X254291Y-166690D01*
X254280Y-166807D01*
X254248Y-166955D01*
X254206Y-167103D01*
X254132Y-167251D01*
X254037Y-167367D01*
X253984Y-167410D01*
X253910Y-167442D01*
X253910Y-167452D01*
X253931Y-167463D01*
X253973Y-167473D01*
X254037Y-167516D01*
X254111Y-167590D01*
X254174Y-167685D01*
X254238Y-167822D01*
X254269Y-167897D01*
X254280Y-167992D01*
X254301Y-168098D01*
X254301Y-168214D01*
X254301Y-168796D01*
X253571Y-168796D01*
X253571Y-168383D01*
X253571Y-168373D01*
X253571Y-168341D01*
X253571Y-168288D01*
X253571Y-168235D01*
X253560Y-168108D01*
X253550Y-168055D01*
X253539Y-168024D01*
X253539Y-168013D01*
X253529Y-168002D01*
X253486Y-167949D01*
X253402Y-167907D01*
X253349Y-167897D01*
X253285Y-167886D01*
X251994Y-167886D01*
X251994Y-168796D01*
X251264Y-168796D01*
X251264Y-165336D01*
X253645Y-165336D01*
X253677Y-165346D01*
X253677Y-165346D02*
G37*
G36*
X247307Y-168796D02*
X246492Y-168796D01*
X246492Y-165336D01*
X247307Y-165336D01*
X247307Y-168796D01*
X247307Y-168796D02*
G37*
G36*
X257148Y-165315D02*
X257275Y-165346D01*
X257412Y-165378D01*
X257550Y-165431D01*
X257666Y-165505D01*
X257761Y-165611D01*
X257772Y-165622D01*
X257793Y-165664D01*
X257835Y-165738D01*
X257878Y-165844D01*
X257909Y-165971D01*
X257952Y-166129D01*
X257973Y-166320D01*
X257984Y-166542D01*
X257984Y-167579D01*
X257984Y-167590D01*
X257984Y-167621D01*
X257984Y-167664D01*
X257973Y-167727D01*
X257973Y-167812D01*
X257962Y-167897D01*
X257920Y-168087D01*
X257857Y-168288D01*
X257772Y-168479D01*
X257708Y-168563D01*
X257645Y-168637D01*
X257560Y-168701D01*
X257476Y-168754D01*
X257465Y-168754D01*
X257444Y-168764D01*
X257391Y-168775D01*
X257338Y-168785D01*
X257253Y-168796D01*
X257169Y-168807D01*
X257063Y-168817D01*
X255730Y-168817D01*
X255687Y-168807D01*
X255571Y-168796D01*
X255444Y-168775D01*
X255306Y-168732D01*
X255158Y-168680D01*
X255031Y-168595D01*
X254925Y-168489D01*
X254915Y-168479D01*
X254894Y-168436D01*
X254862Y-168362D01*
X254830Y-168267D01*
X254798Y-168140D01*
X254767Y-167981D01*
X254746Y-167801D01*
X254735Y-167579D01*
X254735Y-166542D01*
X254735Y-166532D01*
X254735Y-166500D01*
X254735Y-166447D01*
X254746Y-166383D01*
X254756Y-166299D01*
X254767Y-166203D01*
X254809Y-166002D01*
X254883Y-165801D01*
X254936Y-165696D01*
X254989Y-165600D01*
X255063Y-165516D01*
X255137Y-165442D01*
X255232Y-165389D01*
X255338Y-165346D01*
X255349Y-165346D01*
X255370Y-165336D01*
X255412Y-165336D01*
X255465Y-165325D01*
X255529Y-165315D01*
X255603Y-165315D01*
X255783Y-165304D01*
X257042Y-165304D01*
X257148Y-165315D01*
X257148Y-165315D02*
G37*
G36*
X250079Y-165315D02*
X250248Y-165325D01*
X250407Y-165336D01*
X250471Y-165346D01*
X250534Y-165357D01*
X250576Y-165368D01*
X250608Y-165378D01*
X250619Y-165389D01*
X250640Y-165410D01*
X250672Y-165452D01*
X250703Y-165526D01*
X250735Y-165622D01*
X250756Y-165696D01*
X250767Y-165770D01*
X250777Y-165854D01*
X250788Y-165950D01*
X250799Y-166055D01*
X250799Y-166182D01*
X248904Y-166182D01*
X248862Y-166193D01*
X248820Y-166203D01*
X248714Y-166235D01*
X248661Y-166278D01*
X248619Y-166320D01*
X248619Y-166330D01*
X248598Y-166352D01*
X248587Y-166383D01*
X248566Y-166436D01*
X248545Y-166510D01*
X248524Y-166606D01*
X248513Y-166733D01*
X248502Y-166870D01*
X248502Y-167262D01*
X248502Y-167283D01*
X248502Y-167325D01*
X248502Y-167399D01*
X248513Y-167473D01*
X248513Y-167569D01*
X248524Y-167653D01*
X248534Y-167727D01*
X248555Y-167780D01*
X248555Y-167791D01*
X248576Y-167801D01*
X248598Y-167833D01*
X248640Y-167865D01*
X248682Y-167897D01*
X248746Y-167918D01*
X248820Y-167939D01*
X248915Y-167949D01*
X250852Y-167949D01*
X250852Y-167960D01*
X250852Y-167971D01*
X250852Y-168034D01*
X250852Y-168119D01*
X250841Y-168225D01*
X250830Y-168330D01*
X250809Y-168436D01*
X250777Y-168531D01*
X250746Y-168606D01*
X250735Y-168616D01*
X250714Y-168637D01*
X250672Y-168669D01*
X250619Y-168711D01*
X250523Y-168754D01*
X250418Y-168785D01*
X250270Y-168807D01*
X250100Y-168817D01*
X248703Y-168817D01*
X248598Y-168807D01*
X248481Y-168785D01*
X248344Y-168754D01*
X248206Y-168701D01*
X248079Y-168637D01*
X247973Y-168542D01*
X247963Y-168531D01*
X247942Y-168489D01*
X247899Y-168415D01*
X247857Y-168320D01*
X247815Y-168182D01*
X247772Y-168024D01*
X247751Y-167822D01*
X247741Y-167579D01*
X247741Y-166542D01*
X247741Y-166532D01*
X247741Y-166489D01*
X247741Y-166436D01*
X247751Y-166373D01*
X247762Y-166278D01*
X247783Y-166182D01*
X247836Y-165971D01*
X247920Y-165759D01*
X247973Y-165653D01*
X248047Y-165558D01*
X248132Y-165473D01*
X248227Y-165399D01*
X248333Y-165346D01*
X248460Y-165315D01*
X248513Y-165315D01*
X248555Y-165304D01*
X249910Y-165304D01*
X250079Y-165315D01*
X250079Y-165315D02*
G37*
%LPC*%
G36*
X259338Y-154437D02*
X259232Y-154437D01*
X259179Y-154447D01*
X259095Y-154458D01*
X259010Y-154490D01*
X258915Y-154543D01*
X258830Y-154627D01*
X258777Y-154733D01*
X258767Y-154807D01*
X258756Y-154881D01*
X258756Y-154892D01*
X258756Y-154913D01*
X258767Y-154955D01*
X258777Y-155008D01*
X258819Y-155125D01*
X258851Y-155177D01*
X258894Y-155241D01*
X258904Y-155251D01*
X258925Y-155262D01*
X258957Y-155283D01*
X258999Y-155304D01*
X259105Y-155357D01*
X259179Y-155368D01*
X259253Y-155378D01*
X259274Y-155378D01*
X259327Y-155368D01*
X259401Y-155347D01*
X259486Y-155315D01*
X259571Y-155251D01*
X259645Y-155167D01*
X259698Y-155040D01*
X259719Y-154966D01*
X259719Y-154881D01*
X259719Y-154860D01*
X259708Y-154807D01*
X259698Y-154744D01*
X259666Y-154659D01*
X259603Y-154574D01*
X259518Y-154511D01*
X259412Y-154458D01*
X259338Y-154437D01*
X259338Y-154437D02*
G37*
%LPD*%
G36*
X259327Y-154574D02*
X259370Y-154585D01*
X259412Y-154617D01*
X259454Y-154648D01*
X259476Y-154701D01*
X259486Y-154765D01*
X259486Y-154775D01*
X259486Y-154796D01*
X259465Y-154860D01*
X259444Y-154892D01*
X259423Y-154923D01*
X259380Y-154945D01*
X259327Y-154955D01*
X259507Y-155241D01*
X259401Y-155241D01*
X259222Y-154955D01*
X259116Y-154955D01*
X259116Y-155241D01*
X259010Y-155241D01*
X259010Y-154564D01*
X259285Y-154564D01*
X259327Y-154574D01*
X259327Y-154574D02*
G37*
%LPC*%
G36*
X259285Y-154659D02*
X259116Y-154659D01*
X259116Y-154871D01*
X259296Y-154871D01*
X259338Y-154860D01*
X259370Y-154828D01*
X259380Y-154765D01*
X259380Y-154744D01*
X259370Y-154712D01*
X259338Y-154680D01*
X259285Y-154659D01*
X259285Y-154659D02*
G37*
G36*
X253603Y-155823D02*
X253560Y-155823D01*
X253508Y-155844D01*
X253444Y-155865D01*
X253370Y-155897D01*
X253296Y-155960D01*
X253201Y-156035D01*
X253116Y-156140D01*
X252227Y-157389D01*
X254925Y-161664D01*
X254936Y-161685D01*
X254968Y-161727D01*
X255010Y-161791D01*
X255074Y-161854D01*
X255148Y-161928D01*
X255222Y-161992D01*
X255296Y-162034D01*
X255380Y-162055D01*
X255423Y-162055D01*
X255476Y-162045D01*
X255539Y-162024D01*
X255613Y-161981D01*
X255687Y-161939D01*
X255772Y-161865D01*
X255846Y-161770D01*
X256788Y-160415D01*
X254079Y-156151D01*
X254068Y-156140D01*
X254047Y-156098D01*
X253994Y-156045D01*
X253941Y-155982D01*
X253867Y-155929D01*
X253793Y-155876D01*
X253698Y-155833D01*
X253603Y-155823D01*
X253603Y-155823D02*
G37*
G36*
X268756Y-166172D02*
X267401Y-166172D01*
X267401Y-167050D01*
X268819Y-167050D01*
X268840Y-167039D01*
X268883Y-167029D01*
X268925Y-167008D01*
X268957Y-166965D01*
X268999Y-166902D01*
X269020Y-166807D01*
X269031Y-166690D01*
X269031Y-166563D01*
X269031Y-166542D01*
X269031Y-166500D01*
X269020Y-166436D01*
X268999Y-166362D01*
X268967Y-166299D01*
X268914Y-166235D01*
X268851Y-166193D01*
X268756Y-166172D01*
X268756Y-166172D02*
G37*
G36*
X253254Y-166172D02*
X251994Y-166172D01*
X251994Y-167039D01*
X253338Y-167039D01*
X253370Y-167029D01*
X253423Y-167018D01*
X253476Y-166987D01*
X253518Y-166944D01*
X253571Y-166881D01*
X253603Y-166785D01*
X253613Y-166658D01*
X253613Y-166563D01*
X253613Y-166542D01*
X253613Y-166500D01*
X253592Y-166436D01*
X253571Y-166362D01*
X253529Y-166299D01*
X253465Y-166235D01*
X253370Y-166193D01*
X253254Y-166172D01*
X253254Y-166172D02*
G37*
G36*
X256788Y-166172D02*
X255899Y-166172D01*
X255857Y-166182D01*
X255804Y-166193D01*
X255751Y-166214D01*
X255698Y-166235D01*
X255645Y-166278D01*
X255592Y-166330D01*
X255592Y-166341D01*
X255571Y-166362D01*
X255560Y-166394D01*
X255539Y-166457D01*
X255518Y-166532D01*
X255507Y-166616D01*
X255486Y-166733D01*
X255486Y-166870D01*
X255486Y-167262D01*
X255486Y-167283D01*
X255486Y-167325D01*
X255486Y-167389D01*
X255497Y-167473D01*
X255518Y-167653D01*
X255539Y-167738D01*
X255560Y-167801D01*
X255560Y-167812D01*
X255581Y-167822D01*
X255603Y-167844D01*
X255634Y-167875D01*
X255677Y-167907D01*
X255730Y-167928D01*
X255804Y-167939D01*
X255888Y-167949D01*
X256830Y-167949D01*
X256883Y-167939D01*
X256957Y-167918D01*
X257042Y-167865D01*
X257116Y-167780D01*
X257158Y-167727D01*
X257190Y-167664D01*
X257222Y-167579D01*
X257243Y-167484D01*
X257264Y-167378D01*
X257264Y-167262D01*
X257264Y-166870D01*
X257264Y-166849D01*
X257264Y-166807D01*
X257253Y-166743D01*
X257243Y-166658D01*
X257201Y-166479D01*
X257169Y-166394D01*
X257116Y-166330D01*
X257105Y-166320D01*
X257095Y-166309D01*
X257063Y-166278D01*
X257021Y-166246D01*
X256915Y-166193D01*
X256862Y-166182D01*
X256788Y-166172D01*
X256788Y-166172D02*
G37*
%LPD*%
D10*
X337357Y-153546D02*
X337357Y-154403D01*
X337000Y-153761D02*
X337714Y-154189D01*
X337714Y-153761D02*
X337000Y-154189D01*
X338378Y-153546D02*
X338378Y-154403D01*
X338021Y-153761D02*
X338735Y-154189D01*
X338735Y-153761D02*
X338021Y-154189D01*
D11*
X347700Y-175396D02*
X347700Y-174796D01*
X353820Y-155796D02*
X353820Y-155796D01*
X342700Y-175596D02*
X342700Y-174596D01*
X342540Y-177431D02*
X342540Y-176161D01*
X345080Y-177431D02*
X345080Y-176161D01*
X347620Y-177431D02*
X347620Y-176161D01*
X350160Y-177431D02*
X350160Y-176161D01*
X352700Y-175596D02*
X352700Y-174596D01*
X352700Y-177431D02*
X352700Y-176161D01*
X324000Y-155796D02*
X324000Y-152796D01*
X342540Y-176796D02*
X352700Y-176796D01*
X342700Y-175096D02*
X352700Y-175096D01*
X324000Y-155796D02*
X353820Y-155796D01*
X272000Y-160296D02*
X353820Y-160296D01*
X339233Y-176396D02*
X338900Y-176863D01*
X339400Y-176863D01*
X339233Y-176396D02*
X339233Y-177096D01*
X339723Y-176396D02*
X339623Y-176429D01*
X339557Y-176529D01*
X339523Y-176696D01*
X339523Y-176796D01*
X339557Y-176963D01*
X339623Y-177063D01*
X339723Y-177096D01*
X339790Y-177096D01*
X339890Y-177063D01*
X339956Y-176963D01*
X339990Y-176796D01*
X339990Y-176696D01*
X339956Y-176529D01*
X339890Y-176429D01*
X339790Y-176396D01*
X339723Y-176396D01*
X340346Y-176396D02*
X340246Y-176429D01*
X340180Y-176529D01*
X340146Y-176696D01*
X340146Y-176796D01*
X340180Y-176963D01*
X340246Y-177063D01*
X340346Y-177096D01*
X340413Y-177096D01*
X340513Y-177063D01*
X340580Y-176963D01*
X340613Y-176796D01*
X340613Y-176696D01*
X340580Y-176529D01*
X340513Y-176429D01*
X340413Y-176396D01*
X340346Y-176396D01*
X340770Y-176629D02*
X340770Y-177096D01*
X340770Y-176763D02*
X340870Y-176663D01*
X340936Y-176629D01*
X341036Y-176629D01*
X341103Y-176663D01*
X341136Y-176763D01*
X341136Y-177096D01*
X341136Y-176763D02*
X341236Y-176663D01*
X341303Y-176629D01*
X341403Y-176629D01*
X341469Y-176663D01*
X341503Y-176763D01*
X341503Y-177096D01*
X341789Y-176396D02*
X341823Y-176429D01*
X341856Y-176396D01*
X341823Y-176363D01*
X341789Y-176396D01*
X341823Y-176629D02*
X341823Y-177096D01*
X341979Y-176396D02*
X341979Y-177096D01*
X339000Y-174829D02*
X339067Y-174796D01*
X339167Y-174696D01*
X339167Y-175396D01*
X339713Y-174696D02*
X339613Y-174729D01*
X339547Y-174829D01*
X339513Y-174996D01*
X339513Y-175096D01*
X339547Y-175263D01*
X339613Y-175363D01*
X339713Y-175396D01*
X339780Y-175396D01*
X339880Y-175363D01*
X339946Y-175263D01*
X339980Y-175096D01*
X339980Y-174996D01*
X339946Y-174829D01*
X339880Y-174729D01*
X339780Y-174696D01*
X339713Y-174696D01*
X340136Y-174929D02*
X340136Y-175396D01*
X340136Y-175063D02*
X340236Y-174963D01*
X340303Y-174929D01*
X340403Y-174929D01*
X340470Y-174963D01*
X340503Y-175063D01*
X340503Y-175396D01*
X340503Y-175063D02*
X340603Y-174963D01*
X340670Y-174929D01*
X340770Y-174929D01*
X340836Y-174963D01*
X340870Y-175063D01*
X340870Y-175396D01*
X341090Y-174929D02*
X341090Y-175396D01*
X341090Y-175063D02*
X341190Y-174963D01*
X341256Y-174929D01*
X341356Y-174929D01*
X341423Y-174963D01*
X341456Y-175063D01*
X341456Y-175396D01*
X341456Y-175063D02*
X341556Y-174963D01*
X341623Y-174929D01*
X341723Y-174929D01*
X341789Y-174963D01*
X341823Y-175063D01*
X341823Y-175396D01*
D13*
X353820Y43924D02*
X353820Y52924D01*
X232320Y52924D02*
X353820Y52924D01*
X255820Y43924D02*
X255820Y48424D01*
X232320Y48424D02*
X232320Y52924D01*
X232320Y48424D02*
X353820Y48424D01*
X243320Y48424D02*
X243320Y52924D01*
X255820Y48424D02*
X255820Y52924D01*
X334320Y48424D02*
X334320Y52924D01*
X232320Y43924D02*
X232320Y48424D01*
X232320Y43924D02*
X353820Y43924D01*
X334320Y43924D02*
X334320Y48424D01*
X243320Y43924D02*
X243320Y48424D01*
X234820Y49924D02*
X234820Y51448D01*
X235582Y51448D01*
X235836Y51194D01*
X235836Y50686D01*
X235582Y50432D01*
X234820Y50432D01*
X235328Y50432D02*
X235836Y49924D01*
X237359Y51448D02*
X236344Y51448D01*
X236344Y49924D01*
X237359Y49924D01*
X236344Y50686D02*
X236851Y50686D01*
X237867Y51448D02*
X237867Y50432D01*
X238375Y49924D01*
X238883Y50432D01*
X238883Y51448D01*
X245836Y51448D02*
X244820Y51448D01*
X244820Y49924D01*
X245836Y49924D01*
X244820Y50686D02*
X245328Y50686D01*
X247359Y51194D02*
X247105Y51448D01*
X246597Y51448D01*
X246344Y51194D01*
X246344Y50178D01*
X246597Y49924D01*
X247105Y49924D01*
X247359Y50178D01*
X248629Y51448D02*
X248121Y51448D01*
X247867Y51194D01*
X247867Y50178D01*
X248121Y49924D01*
X248629Y49924D01*
X248883Y50178D01*
X248883Y51194D01*
X248629Y51448D01*
X292336Y50694D02*
X292082Y50948D01*
X291574Y50948D01*
X291320Y50694D01*
X291320Y49678D01*
X291574Y49424D01*
X292082Y49424D01*
X292336Y49678D01*
X293097Y49424D02*
X293605Y49424D01*
X293859Y49678D01*
X293859Y50186D01*
X293605Y50440D01*
X293097Y50440D01*
X292844Y50186D01*
X292844Y49678D01*
X293097Y49424D01*
X294367Y49424D02*
X294367Y50440D01*
X294621Y50440D01*
X294875Y50186D01*
X294875Y49424D01*
X294875Y50186D01*
X295129Y50440D01*
X295383Y50186D01*
X295383Y49424D01*
X295891Y49424D02*
X295891Y50440D01*
X296144Y50440D01*
X296398Y50186D01*
X296398Y49424D01*
X296398Y50186D01*
X296652Y50440D01*
X296906Y50186D01*
X296906Y49424D01*
X298176Y49424D02*
X297668Y49424D01*
X297414Y49678D01*
X297414Y50186D01*
X297668Y50440D01*
X298176Y50440D01*
X298430Y50186D01*
X298430Y49932D01*
X297414Y49932D01*
X298938Y49424D02*
X298938Y50440D01*
X299699Y50440D01*
X299953Y50186D01*
X299953Y49424D01*
X300715Y50694D02*
X300715Y50440D01*
X300461Y50440D01*
X300969Y50440D01*
X300715Y50440D01*
X300715Y49678D01*
X300969Y49424D01*
X301731Y49424D02*
X302492Y49424D01*
X302746Y49678D01*
X302492Y49932D01*
X301985Y49932D01*
X301731Y50186D01*
X301985Y50440D01*
X302746Y50440D01*
X339320Y50948D02*
X339320Y49424D01*
X340082Y49424D01*
X340336Y49678D01*
X340336Y50694D01*
X340082Y50948D01*
X339320Y50948D01*
X341097Y50440D02*
X341605Y50440D01*
X341859Y50186D01*
X341859Y49424D01*
X341097Y49424D01*
X340844Y49678D01*
X341097Y49932D01*
X341859Y49932D01*
X342621Y50694D02*
X342621Y50440D01*
X342367Y50440D01*
X342875Y50440D01*
X342621Y50440D01*
X342621Y49678D01*
X342875Y49424D01*
X344398Y49424D02*
X343891Y49424D01*
X343637Y49678D01*
X343637Y50186D01*
X343891Y50440D01*
X344398Y50440D01*
X344652Y50186D01*
X344652Y49932D01*
X343637Y49932D01*
D14*
X273000Y-174998D02*
X273493Y-174998D01*
X273657Y-174944D01*
X273712Y-174889D01*
X273767Y-174779D01*
X273767Y-174615D01*
X273712Y-174506D01*
X273657Y-174451D01*
X273493Y-174396D01*
X273000Y-174396D01*
X273000Y-175546D01*
X274845Y-174670D02*
X274790Y-174560D01*
X274681Y-174451D01*
X274571Y-174396D01*
X274352Y-174396D01*
X274243Y-174451D01*
X274133Y-174560D01*
X274079Y-174670D01*
X274024Y-174834D01*
X274024Y-175108D01*
X274079Y-175272D01*
X274133Y-175382D01*
X274243Y-175491D01*
X274352Y-175546D01*
X274571Y-175546D01*
X274681Y-175491D01*
X274790Y-175382D01*
X274845Y-175272D01*
X275168Y-174396D02*
X275168Y-175546D01*
X275168Y-174396D02*
X275661Y-174396D01*
X275825Y-174451D01*
X275880Y-174506D01*
X275935Y-174615D01*
X275935Y-174725D01*
X275880Y-174834D01*
X275825Y-174889D01*
X275661Y-174944D01*
X275168Y-174944D02*
X275661Y-174944D01*
X275825Y-174998D01*
X275880Y-175053D01*
X275935Y-175163D01*
X275935Y-175327D01*
X275880Y-175436D01*
X275825Y-175491D01*
X275661Y-175546D01*
X275168Y-175546D01*
X277095Y-174396D02*
X277095Y-175546D01*
X277095Y-174396D02*
X277807Y-174396D01*
X277095Y-174944D02*
X277533Y-174944D01*
X277938Y-174396D02*
X277938Y-175546D01*
X278179Y-174396D02*
X278179Y-175546D01*
X278836Y-175546D01*
X279674Y-174396D02*
X278962Y-174396D01*
X278962Y-175546D01*
X279674Y-175546D01*
X278962Y-174944D02*
X279400Y-174944D01*
X280769Y-174396D02*
X280769Y-175546D01*
X280769Y-174396D02*
X281536Y-175546D01*
X281536Y-174396D02*
X281536Y-175546D01*
X282729Y-175546D02*
X282291Y-174396D01*
X281853Y-175546D01*
X282017Y-175163D02*
X282565Y-175163D01*
X282997Y-174396D02*
X282997Y-175546D01*
X282997Y-174396D02*
X283435Y-175546D01*
X283873Y-174396D02*
X283435Y-175546D01*
X283873Y-174396D02*
X283873Y-175546D01*
X284914Y-174396D02*
X284202Y-174396D01*
X284202Y-175546D01*
X284914Y-175546D01*
X284202Y-174944D02*
X284640Y-174944D01*
X285160Y-174779D02*
X285105Y-174834D01*
X285160Y-174889D01*
X285215Y-174834D01*
X285160Y-174779D01*
X285160Y-175436D02*
X285105Y-175491D01*
X285160Y-175546D01*
X285215Y-175491D01*
X285160Y-175436D01*
X273714Y-176784D02*
X273667Y-176689D01*
X273571Y-176594D01*
X273476Y-176546D01*
X273286Y-176546D01*
X273190Y-176594D01*
X273095Y-176689D01*
X273048Y-176784D01*
X273000Y-176927D01*
X273000Y-177165D01*
X273048Y-177308D01*
X273095Y-177403D01*
X273190Y-177498D01*
X273286Y-177546D01*
X273476Y-177546D01*
X273571Y-177498D01*
X273667Y-177403D01*
X273714Y-177308D01*
X274233Y-176879D02*
X274138Y-176927D01*
X274043Y-177022D01*
X273995Y-177165D01*
X273995Y-177260D01*
X274043Y-177403D01*
X274138Y-177498D01*
X274233Y-177546D01*
X274376Y-177546D01*
X274471Y-177498D01*
X274566Y-177403D01*
X274614Y-177260D01*
X274614Y-177165D01*
X274566Y-177022D01*
X274471Y-176927D01*
X274376Y-176879D01*
X274233Y-176879D01*
X274833Y-176879D02*
X274833Y-177879D01*
X274833Y-177022D02*
X274928Y-176927D01*
X275023Y-176879D01*
X275166Y-176879D01*
X275261Y-176927D01*
X275357Y-177022D01*
X275404Y-177165D01*
X275404Y-177260D01*
X275357Y-177403D01*
X275261Y-177498D01*
X275166Y-177546D01*
X275023Y-177546D01*
X274928Y-177498D01*
X274833Y-177403D01*
X275666Y-176879D02*
X275952Y-177546D01*
X276237Y-176879D02*
X275952Y-177546D01*
X275857Y-177736D01*
X275761Y-177832D01*
X275666Y-177879D01*
X275618Y-177879D01*
X277428Y-176879D02*
X277332Y-176927D01*
X277237Y-177022D01*
X277190Y-177165D01*
X277190Y-177260D01*
X277237Y-177403D01*
X277332Y-177498D01*
X277428Y-177546D01*
X277570Y-177546D01*
X277666Y-177498D01*
X277761Y-177403D01*
X277809Y-177260D01*
X277809Y-177165D01*
X277761Y-177022D01*
X277666Y-176927D01*
X277570Y-176879D01*
X277428Y-176879D01*
X278408Y-176546D02*
X278313Y-176546D01*
X278218Y-176594D01*
X278170Y-176737D01*
X278170Y-177546D01*
X278027Y-176879D02*
X278361Y-176879D01*
X279337Y-177070D02*
X279765Y-177070D01*
X279908Y-177022D01*
X279956Y-176975D01*
X280003Y-176879D01*
X280003Y-176737D01*
X279956Y-176641D01*
X279908Y-176594D01*
X279765Y-176546D01*
X279337Y-176546D01*
X279337Y-177546D01*
X280941Y-176784D02*
X280894Y-176689D01*
X280798Y-176594D01*
X280703Y-176546D01*
X280513Y-176546D01*
X280417Y-176594D01*
X280322Y-176689D01*
X280275Y-176784D01*
X280227Y-176927D01*
X280227Y-177165D01*
X280275Y-177308D01*
X280322Y-177403D01*
X280417Y-177498D01*
X280513Y-177546D01*
X280703Y-177546D01*
X280798Y-177498D01*
X280894Y-177403D01*
X280941Y-177308D01*
X281222Y-176546D02*
X281222Y-177546D01*
X281222Y-176546D02*
X281651Y-176546D01*
X281793Y-176594D01*
X281841Y-176641D01*
X281889Y-176737D01*
X281889Y-176832D01*
X281841Y-176927D01*
X281793Y-176975D01*
X281651Y-177022D01*
X281222Y-177022D02*
X281651Y-177022D01*
X281793Y-177070D01*
X281841Y-177118D01*
X281889Y-177213D01*
X281889Y-177356D01*
X281841Y-177451D01*
X281793Y-177498D01*
X281651Y-177546D01*
X281222Y-177546D01*
X282160Y-176784D02*
X282160Y-176737D01*
X282208Y-176641D01*
X282255Y-176594D01*
X282350Y-176546D01*
X282541Y-176546D01*
X282636Y-176594D01*
X282684Y-176641D01*
X282731Y-176737D01*
X282731Y-176832D01*
X282684Y-176927D01*
X282588Y-177070D01*
X282112Y-177546D01*
X282779Y-177546D01*
X283050Y-177451D02*
X283003Y-177498D01*
X283050Y-177546D01*
X283098Y-177498D01*
X283050Y-177451D01*
X283317Y-177070D02*
X283745Y-177070D01*
X283888Y-177022D01*
X283936Y-176975D01*
X283983Y-176879D01*
X283983Y-176737D01*
X283936Y-176641D01*
X283888Y-176594D01*
X283745Y-176546D01*
X283317Y-176546D01*
X283317Y-177546D01*
X284778Y-177022D02*
X284683Y-176927D01*
X284588Y-176879D01*
X284445Y-176879D01*
X284350Y-176927D01*
X284255Y-177022D01*
X284207Y-177165D01*
X284207Y-177260D01*
X284255Y-177403D01*
X284350Y-177498D01*
X284445Y-177546D01*
X284588Y-177546D01*
X284683Y-177498D01*
X284778Y-177403D01*
X284993Y-176546D02*
X284993Y-177546D01*
X284993Y-177022D02*
X285088Y-176927D01*
X285183Y-176879D01*
X285326Y-176879D01*
X285421Y-176927D01*
X285516Y-177022D01*
X285564Y-177165D01*
X285564Y-177260D01*
X285516Y-177403D01*
X285421Y-177498D01*
X285326Y-177546D01*
X285183Y-177546D01*
X285088Y-177498D01*
X284993Y-177403D01*
X285778Y-176546D02*
X285778Y-177546D01*
X285778Y-176546D02*
X286111Y-176546D01*
X286254Y-176594D01*
X286350Y-176689D01*
X286397Y-176784D01*
X286445Y-176927D01*
X286445Y-177165D01*
X286397Y-177308D01*
X286350Y-177403D01*
X286254Y-177498D01*
X286111Y-177546D01*
X285778Y-177546D01*
X286907Y-176879D02*
X286811Y-176927D01*
X286716Y-177022D01*
X286668Y-177165D01*
X286668Y-177260D01*
X286716Y-177403D01*
X286811Y-177498D01*
X286907Y-177546D01*
X287049Y-177546D01*
X287145Y-177498D01*
X287240Y-177403D01*
X287287Y-177260D01*
X287287Y-177165D01*
X287240Y-177022D01*
X287145Y-176927D01*
X287049Y-176879D01*
X286907Y-176879D01*
X288078Y-177022D02*
X287983Y-176927D01*
X287887Y-176879D01*
X287744Y-176879D01*
X287649Y-176927D01*
X287554Y-177022D01*
X287506Y-177165D01*
X287506Y-177260D01*
X287554Y-177403D01*
X287649Y-177498D01*
X287744Y-177546D01*
X287887Y-177546D01*
X287983Y-177498D01*
X288078Y-177403D01*
X273000Y-163248D02*
X273493Y-163248D01*
X273657Y-163194D01*
X273712Y-163139D01*
X273767Y-163029D01*
X273767Y-162865D01*
X273712Y-162756D01*
X273657Y-162701D01*
X273493Y-162646D01*
X273000Y-162646D01*
X273000Y-163796D01*
X274845Y-162920D02*
X274790Y-162810D01*
X274681Y-162701D01*
X274571Y-162646D01*
X274352Y-162646D01*
X274243Y-162701D01*
X274133Y-162810D01*
X274079Y-162920D01*
X274024Y-163084D01*
X274024Y-163358D01*
X274079Y-163522D01*
X274133Y-163632D01*
X274243Y-163741D01*
X274352Y-163796D01*
X274571Y-163796D01*
X274681Y-163741D01*
X274790Y-163632D01*
X274845Y-163522D01*
X275168Y-162646D02*
X275168Y-163796D01*
X275168Y-162646D02*
X275661Y-162646D01*
X275825Y-162701D01*
X275880Y-162756D01*
X275935Y-162865D01*
X275935Y-162975D01*
X275880Y-163084D01*
X275825Y-163139D01*
X275661Y-163194D01*
X275168Y-163194D02*
X275661Y-163194D01*
X275825Y-163248D01*
X275880Y-163303D01*
X275935Y-163413D01*
X275935Y-163577D01*
X275880Y-163686D01*
X275825Y-163741D01*
X275661Y-163796D01*
X275168Y-163796D01*
X277095Y-162646D02*
X277095Y-163796D01*
X277752Y-163796D01*
X278535Y-163029D02*
X278535Y-163796D01*
X278535Y-163194D02*
X278426Y-163084D01*
X278316Y-163029D01*
X278152Y-163029D01*
X278042Y-163084D01*
X277933Y-163194D01*
X277878Y-163358D01*
X277878Y-163467D01*
X277933Y-163632D01*
X278042Y-163741D01*
X278152Y-163796D01*
X278316Y-163796D01*
X278426Y-163741D01*
X278535Y-163632D01*
X278897Y-163029D02*
X279225Y-163796D01*
X279554Y-163029D02*
X279225Y-163796D01*
X279116Y-164015D01*
X279006Y-164124D01*
X278897Y-164179D01*
X278842Y-164179D01*
X280019Y-163029D02*
X279909Y-163084D01*
X279800Y-163194D01*
X279745Y-163358D01*
X279745Y-163467D01*
X279800Y-163632D01*
X279909Y-163741D01*
X280019Y-163796D01*
X280183Y-163796D01*
X280293Y-163741D01*
X280402Y-163632D01*
X280457Y-163467D01*
X280457Y-163358D01*
X280402Y-163194D01*
X280293Y-163084D01*
X280183Y-163029D01*
X280019Y-163029D01*
X280709Y-163029D02*
X280709Y-163577D01*
X280764Y-163741D01*
X280873Y-163796D01*
X281037Y-163796D01*
X281147Y-163741D01*
X281311Y-163577D01*
X281311Y-163029D02*
X281311Y-163796D01*
X281776Y-162646D02*
X281776Y-163577D01*
X281831Y-163741D01*
X281941Y-163796D01*
X282050Y-163796D01*
X281612Y-163029D02*
X281995Y-163029D01*
X283939Y-162920D02*
X283884Y-162810D01*
X283775Y-162701D01*
X283665Y-162646D01*
X283446Y-162646D01*
X283337Y-162701D01*
X283227Y-162810D01*
X283173Y-162920D01*
X283118Y-163084D01*
X283118Y-163358D01*
X283173Y-163522D01*
X283227Y-163632D01*
X283337Y-163741D01*
X283446Y-163796D01*
X283665Y-163796D01*
X283775Y-163741D01*
X283884Y-163632D01*
X283939Y-163522D01*
X284536Y-163029D02*
X284426Y-163084D01*
X284317Y-163194D01*
X284262Y-163358D01*
X284262Y-163467D01*
X284317Y-163632D01*
X284426Y-163741D01*
X284536Y-163796D01*
X284700Y-163796D01*
X284810Y-163741D01*
X284919Y-163632D01*
X284974Y-163467D01*
X284974Y-163358D01*
X284919Y-163194D01*
X284810Y-163084D01*
X284700Y-163029D01*
X284536Y-163029D01*
X285226Y-163029D02*
X285226Y-163796D01*
X285226Y-163248D02*
X285390Y-163084D01*
X285499Y-163029D01*
X285664Y-163029D01*
X285773Y-163084D01*
X285828Y-163248D01*
X285828Y-163796D01*
X286293Y-162646D02*
X286293Y-163577D01*
X286348Y-163741D01*
X286458Y-163796D01*
X286567Y-163796D01*
X286129Y-163029D02*
X286512Y-163029D01*
X287388Y-163029D02*
X287388Y-163796D01*
X287388Y-163194D02*
X287279Y-163084D01*
X287169Y-163029D01*
X287005Y-163029D01*
X286896Y-163084D01*
X286786Y-163194D01*
X286731Y-163358D01*
X286731Y-163467D01*
X286786Y-163632D01*
X286896Y-163741D01*
X287005Y-163796D01*
X287169Y-163796D01*
X287279Y-163741D01*
X287388Y-163632D01*
X288352Y-163194D02*
X288242Y-163084D01*
X288133Y-163029D01*
X287969Y-163029D01*
X287859Y-163084D01*
X287750Y-163194D01*
X287695Y-163358D01*
X287695Y-163467D01*
X287750Y-163632D01*
X287859Y-163741D01*
X287969Y-163796D01*
X288133Y-163796D01*
X288242Y-163741D01*
X288352Y-163632D01*
X288763Y-162646D02*
X288763Y-163577D01*
X288817Y-163741D01*
X288927Y-163796D01*
X289036Y-163796D01*
X288598Y-163029D02*
X288982Y-163029D01*
X289255Y-163029D02*
X289201Y-163084D01*
X289255Y-163139D01*
X289310Y-163084D01*
X289255Y-163029D01*
X289255Y-163686D02*
X289201Y-163741D01*
X289255Y-163796D01*
X289310Y-163741D01*
X289255Y-163686D01*
X273000Y-169248D02*
X273493Y-169248D01*
X273657Y-169194D01*
X273712Y-169139D01*
X273767Y-169029D01*
X273767Y-168865D01*
X273712Y-168756D01*
X273657Y-168701D01*
X273493Y-168646D01*
X273000Y-168646D01*
X273000Y-169796D01*
X274024Y-169029D02*
X274024Y-169796D01*
X274024Y-169358D02*
X274079Y-169194D01*
X274188Y-169084D01*
X274298Y-169029D01*
X274462Y-169029D01*
X274840Y-169029D02*
X274730Y-169084D01*
X274621Y-169194D01*
X274566Y-169358D01*
X274566Y-169467D01*
X274621Y-169632D01*
X274730Y-169741D01*
X274840Y-169796D01*
X275004Y-169796D01*
X275113Y-169741D01*
X275223Y-169632D01*
X275278Y-169467D01*
X275278Y-169358D01*
X275223Y-169194D01*
X275113Y-169084D01*
X275004Y-169029D01*
X274840Y-169029D01*
X275748Y-168646D02*
X275803Y-168701D01*
X275858Y-168646D01*
X275803Y-168591D01*
X275748Y-168646D01*
X275803Y-169029D02*
X275803Y-169960D01*
X275748Y-170124D01*
X275639Y-170179D01*
X275529Y-170179D01*
X276071Y-169358D02*
X276728Y-169358D01*
X276728Y-169248D01*
X276674Y-169139D01*
X276619Y-169084D01*
X276509Y-169029D01*
X276345Y-169029D01*
X276236Y-169084D01*
X276126Y-169194D01*
X276071Y-169358D01*
X276071Y-169467D01*
X276126Y-169632D01*
X276236Y-169741D01*
X276345Y-169796D01*
X276509Y-169796D01*
X276619Y-169741D01*
X276728Y-169632D01*
X277632Y-169194D02*
X277522Y-169084D01*
X277413Y-169029D01*
X277249Y-169029D01*
X277139Y-169084D01*
X277030Y-169194D01*
X276975Y-169358D01*
X276975Y-169467D01*
X277030Y-169632D01*
X277139Y-169741D01*
X277249Y-169796D01*
X277413Y-169796D01*
X277522Y-169741D01*
X277632Y-169632D01*
X278042Y-168646D02*
X278042Y-169577D01*
X278097Y-169741D01*
X278207Y-169796D01*
X278316Y-169796D01*
X277878Y-169029D02*
X278262Y-169029D01*
X279712Y-168646D02*
X279603Y-168701D01*
X279493Y-168810D01*
X279439Y-168920D01*
X279384Y-169084D01*
X279384Y-169358D01*
X279439Y-169522D01*
X279493Y-169632D01*
X279603Y-169741D01*
X279712Y-169796D01*
X279931Y-169796D01*
X280041Y-169741D01*
X280150Y-169632D01*
X280205Y-169522D01*
X280260Y-169358D01*
X280260Y-169084D01*
X280205Y-168920D01*
X280150Y-168810D01*
X280041Y-168701D01*
X279931Y-168646D01*
X279712Y-168646D01*
X280528Y-169029D02*
X280747Y-169796D01*
X280966Y-169029D02*
X280747Y-169796D01*
X280966Y-169029D02*
X281185Y-169796D01*
X281404Y-169029D02*
X281185Y-169796D01*
X281672Y-169029D02*
X281672Y-169796D01*
X281672Y-169248D02*
X281837Y-169084D01*
X281946Y-169029D01*
X282110Y-169029D01*
X282220Y-169084D01*
X282275Y-169248D01*
X282275Y-169796D01*
X282576Y-169358D02*
X283233Y-169358D01*
X283233Y-169248D01*
X283178Y-169139D01*
X283123Y-169084D01*
X283014Y-169029D01*
X282850Y-169029D01*
X282740Y-169084D01*
X282631Y-169194D01*
X282576Y-169358D01*
X282576Y-169467D01*
X282631Y-169632D01*
X282740Y-169741D01*
X282850Y-169796D01*
X283014Y-169796D01*
X283123Y-169741D01*
X283233Y-169632D01*
X283479Y-169029D02*
X283479Y-169796D01*
X283479Y-169358D02*
X283534Y-169194D01*
X283643Y-169084D01*
X283753Y-169029D01*
X283917Y-169029D01*
X284076Y-169029D02*
X284021Y-169084D01*
X284076Y-169139D01*
X284131Y-169084D01*
X284076Y-169029D01*
X284076Y-169686D02*
X284021Y-169741D01*
X284076Y-169796D01*
X284131Y-169741D01*
X284076Y-169686D01*
X301000Y-168646D02*
X301000Y-169796D01*
X301000Y-168646D02*
X301493Y-168646D01*
X301657Y-168701D01*
X301712Y-168756D01*
X301767Y-168865D01*
X301767Y-168975D01*
X301712Y-169084D01*
X301657Y-169139D01*
X301493Y-169194D01*
X301000Y-169194D02*
X301493Y-169194D01*
X301657Y-169248D01*
X301712Y-169303D01*
X301767Y-169413D01*
X301767Y-169577D01*
X301712Y-169686D01*
X301657Y-169741D01*
X301493Y-169796D01*
X301000Y-169796D01*
X302352Y-168646D02*
X302243Y-168701D01*
X302133Y-168810D01*
X302079Y-168920D01*
X302024Y-169084D01*
X302024Y-169358D01*
X302079Y-169522D01*
X302133Y-169632D01*
X302243Y-169741D01*
X302352Y-169796D01*
X302571Y-169796D01*
X302681Y-169741D01*
X302790Y-169632D01*
X302845Y-169522D01*
X302900Y-169358D01*
X302900Y-169084D01*
X302845Y-168920D01*
X302790Y-168810D01*
X302681Y-168701D01*
X302571Y-168646D01*
X302352Y-168646D01*
X304044Y-169796D02*
X303606Y-168646D01*
X303168Y-169796D01*
X303332Y-169413D02*
X303880Y-169413D01*
X304312Y-168646D02*
X304312Y-169796D01*
X304312Y-168646D02*
X304805Y-168646D01*
X304969Y-168701D01*
X305024Y-168756D01*
X305079Y-168865D01*
X305079Y-168975D01*
X305024Y-169084D01*
X304969Y-169139D01*
X304805Y-169194D01*
X304312Y-169194D01*
X304696Y-169194D02*
X305079Y-169796D01*
X305336Y-168646D02*
X305336Y-169796D01*
X305336Y-168646D02*
X305719Y-168646D01*
X305884Y-168701D01*
X305993Y-168810D01*
X306048Y-168920D01*
X306103Y-169084D01*
X306103Y-169358D01*
X306048Y-169522D01*
X305993Y-169632D01*
X305884Y-169741D01*
X305719Y-169796D01*
X305336Y-169796D01*
X307263Y-168646D02*
X307263Y-169796D01*
X307263Y-168646D02*
X308030Y-169796D01*
X308030Y-168646D02*
X308030Y-169796D01*
X308347Y-168646D02*
X308347Y-169467D01*
X308402Y-169632D01*
X308512Y-169741D01*
X308676Y-169796D01*
X308785Y-169796D01*
X308950Y-169741D01*
X309059Y-169632D01*
X309114Y-169467D01*
X309114Y-168646D01*
X309432Y-168646D02*
X309432Y-169796D01*
X309432Y-168646D02*
X309870Y-169796D01*
X310308Y-168646D02*
X309870Y-169796D01*
X310308Y-168646D02*
X310308Y-169796D01*
X310636Y-168646D02*
X310636Y-169796D01*
X310636Y-168646D02*
X311129Y-168646D01*
X311293Y-168701D01*
X311348Y-168756D01*
X311403Y-168865D01*
X311403Y-168975D01*
X311348Y-169084D01*
X311293Y-169139D01*
X311129Y-169194D01*
X310636Y-169194D02*
X311129Y-169194D01*
X311293Y-169248D01*
X311348Y-169303D01*
X311403Y-169413D01*
X311403Y-169577D01*
X311348Y-169686D01*
X311293Y-169741D01*
X311129Y-169796D01*
X310636Y-169796D01*
X312372Y-168646D02*
X311660Y-168646D01*
X311660Y-169796D01*
X312372Y-169796D01*
X311660Y-169194D02*
X312098Y-169194D01*
X312563Y-168646D02*
X312563Y-169796D01*
X312563Y-168646D02*
X313056Y-168646D01*
X313220Y-168701D01*
X313275Y-168756D01*
X313330Y-168865D01*
X313330Y-168975D01*
X313275Y-169084D01*
X313220Y-169139D01*
X313056Y-169194D01*
X312563Y-169194D01*
X312947Y-169194D02*
X313330Y-169796D01*
X313642Y-169029D02*
X313587Y-169084D01*
X313642Y-169139D01*
X313697Y-169084D01*
X313642Y-169029D01*
X313642Y-169686D02*
X313587Y-169741D01*
X313642Y-169796D01*
X313697Y-169741D01*
X313642Y-169686D01*
X301821Y-162920D02*
X301767Y-162810D01*
X301657Y-162701D01*
X301547Y-162646D01*
X301328Y-162646D01*
X301219Y-162701D01*
X301109Y-162810D01*
X301055Y-162920D01*
X301000Y-163084D01*
X301000Y-163358D01*
X301055Y-163522D01*
X301109Y-163632D01*
X301219Y-163741D01*
X301328Y-163796D01*
X301547Y-163796D01*
X301657Y-163741D01*
X301767Y-163632D01*
X301821Y-163522D01*
X301821Y-163358D01*
X301547Y-163358D02*
X301821Y-163358D01*
X302796Y-162646D02*
X302084Y-162646D01*
X302084Y-163796D01*
X302796Y-163796D01*
X302084Y-163194D02*
X302522Y-163194D01*
X302987Y-162646D02*
X302987Y-163796D01*
X302987Y-162646D02*
X303480Y-162646D01*
X303644Y-162701D01*
X303699Y-162756D01*
X303754Y-162865D01*
X303754Y-162975D01*
X303699Y-163084D01*
X303644Y-163139D01*
X303480Y-163194D01*
X302987Y-163194D01*
X303371Y-163194D02*
X303754Y-163796D01*
X304011Y-162646D02*
X304011Y-163796D01*
X304011Y-162646D02*
X304504Y-162646D01*
X304668Y-162701D01*
X304723Y-162756D01*
X304778Y-162865D01*
X304778Y-162975D01*
X304723Y-163084D01*
X304668Y-163139D01*
X304504Y-163194D01*
X304011Y-163194D02*
X304504Y-163194D01*
X304668Y-163248D01*
X304723Y-163303D01*
X304778Y-163413D01*
X304778Y-163577D01*
X304723Y-163686D01*
X304668Y-163741D01*
X304504Y-163796D01*
X304011Y-163796D01*
X305747Y-162646D02*
X305035Y-162646D01*
X305035Y-163796D01*
X305747Y-163796D01*
X305035Y-163194D02*
X305473Y-163194D01*
X305938Y-162646D02*
X305938Y-163796D01*
X305938Y-162646D02*
X306431Y-162646D01*
X306595Y-162701D01*
X306650Y-162756D01*
X306705Y-162865D01*
X306705Y-162975D01*
X306650Y-163084D01*
X306595Y-163139D01*
X306431Y-163194D01*
X305938Y-163194D01*
X306322Y-163194D02*
X306705Y-163796D01*
X307866Y-162646D02*
X307866Y-163796D01*
X307866Y-162646D02*
X308577Y-162646D01*
X307866Y-163194D02*
X308304Y-163194D01*
X308709Y-162646D02*
X308709Y-163796D01*
X308950Y-162646D02*
X308950Y-163796D01*
X309607Y-163796D01*
X310444Y-162646D02*
X309733Y-162646D01*
X309733Y-163796D01*
X310444Y-163796D01*
X309733Y-163194D02*
X310171Y-163194D01*
X310691Y-163029D02*
X310636Y-163084D01*
X310691Y-163139D01*
X310746Y-163084D01*
X310691Y-163029D01*
X310691Y-163686D02*
X310636Y-163741D01*
X310691Y-163796D01*
X310746Y-163741D01*
X310691Y-163686D01*
X340414Y-171296D02*
X339700Y-172296D01*
X340771Y-172296D01*
X340414Y-171296D02*
X340414Y-172796D01*
X341035Y-173010D02*
X342035Y-171296D01*
X342207Y-171653D02*
X342207Y-171582D01*
X342278Y-171439D01*
X342349Y-171368D01*
X342492Y-171296D01*
X342778Y-171296D01*
X342921Y-171368D01*
X342992Y-171439D01*
X343064Y-171582D01*
X343064Y-171725D01*
X342992Y-171868D01*
X342849Y-172082D01*
X342135Y-172796D01*
X343135Y-172796D01*
X344328Y-171296D02*
X343613Y-171296D01*
X343542Y-171939D01*
X343613Y-171868D01*
X343828Y-171796D01*
X344042Y-171796D01*
X344256Y-171868D01*
X344399Y-172010D01*
X344470Y-172225D01*
X344470Y-172368D01*
X344399Y-172582D01*
X344256Y-172725D01*
X344042Y-172796D01*
X343828Y-172796D01*
X343613Y-172725D01*
X343542Y-172653D01*
X343471Y-172510D01*
X344806Y-173010D02*
X345806Y-171296D01*
X345977Y-171653D02*
X345977Y-171582D01*
X346049Y-171439D01*
X346120Y-171368D01*
X346263Y-171296D01*
X346549Y-171296D01*
X346691Y-171368D01*
X346763Y-171439D01*
X346834Y-171582D01*
X346834Y-171725D01*
X346763Y-171868D01*
X346620Y-172082D01*
X345906Y-172796D01*
X346906Y-172796D01*
X347670Y-171296D02*
X347455Y-171368D01*
X347313Y-171582D01*
X347241Y-171939D01*
X347241Y-172153D01*
X347313Y-172510D01*
X347455Y-172725D01*
X347670Y-172796D01*
X347813Y-172796D01*
X348027Y-172725D01*
X348170Y-172510D01*
X348241Y-172153D01*
X348241Y-171939D01*
X348170Y-171582D01*
X348027Y-171368D01*
X347813Y-171296D01*
X347670Y-171296D01*
X348648Y-171653D02*
X348648Y-171582D01*
X348719Y-171439D01*
X348791Y-171368D01*
X348934Y-171296D01*
X349219Y-171296D01*
X349362Y-171368D01*
X349434Y-171439D01*
X349505Y-171582D01*
X349505Y-171725D01*
X349434Y-171868D01*
X349291Y-172082D01*
X348577Y-172796D01*
X349576Y-172796D01*
X350055Y-171296D02*
X350840Y-171296D01*
X350412Y-171868D01*
X350626Y-171868D01*
X350769Y-171939D01*
X350840Y-172010D01*
X350912Y-172225D01*
X350912Y-172368D01*
X350840Y-172582D01*
X350698Y-172725D01*
X350483Y-172796D01*
X350269Y-172796D01*
X350055Y-172725D01*
X349984Y-172653D01*
X349912Y-172510D01*
X325000Y-154320D02*
X325428Y-154320D01*
X325571Y-154272D01*
X325619Y-154225D01*
X325667Y-154129D01*
X325667Y-153987D01*
X325619Y-153891D01*
X325571Y-153844D01*
X325428Y-153796D01*
X325000Y-153796D01*
X325000Y-154796D01*
X326652Y-154796D02*
X326271Y-153796D01*
X325890Y-154796D01*
X326033Y-154463D02*
X326509Y-154463D01*
X326885Y-153796D02*
X326885Y-154796D01*
X326885Y-153796D02*
X327314Y-153796D01*
X327457Y-153844D01*
X327504Y-153891D01*
X327552Y-153987D01*
X327552Y-154082D01*
X327504Y-154177D01*
X327457Y-154225D01*
X327314Y-154272D01*
X326885Y-154272D01*
X327219Y-154272D02*
X327552Y-154796D01*
X328109Y-153796D02*
X328109Y-154796D01*
X327776Y-153796D02*
X328442Y-153796D01*
X329347Y-153796D02*
X329347Y-154796D01*
X329347Y-153796D02*
X330013Y-154796D01*
X330013Y-153796D02*
X330013Y-154796D01*
X330289Y-153796D02*
X330289Y-154510D01*
X330337Y-154653D01*
X330432Y-154748D01*
X330575Y-154796D01*
X330670Y-154796D01*
X330813Y-154748D01*
X330908Y-154653D01*
X330956Y-154510D01*
X330956Y-153796D01*
X331232Y-153796D02*
X331232Y-154796D01*
X331232Y-153796D02*
X331613Y-154796D01*
X331994Y-153796D02*
X331613Y-154796D01*
X331994Y-153796D02*
X331994Y-154796D01*
X332279Y-153796D02*
X332279Y-154796D01*
X332279Y-153796D02*
X332708Y-153796D01*
X332851Y-153844D01*
X332898Y-153891D01*
X332946Y-153987D01*
X332946Y-154082D01*
X332898Y-154177D01*
X332851Y-154225D01*
X332708Y-154272D01*
X332279Y-154272D02*
X332708Y-154272D01*
X332851Y-154320D01*
X332898Y-154367D01*
X332946Y-154463D01*
X332946Y-154606D01*
X332898Y-154701D01*
X332851Y-154748D01*
X332708Y-154796D01*
X332279Y-154796D01*
X333789Y-153796D02*
X333170Y-153796D01*
X333170Y-154796D01*
X333789Y-154796D01*
X333170Y-154272D02*
X333551Y-154272D01*
X333955Y-153796D02*
X333955Y-154796D01*
X333955Y-153796D02*
X334384Y-153796D01*
X334527Y-153844D01*
X334574Y-153891D01*
X334622Y-153987D01*
X334622Y-154082D01*
X334574Y-154177D01*
X334527Y-154225D01*
X334384Y-154272D01*
X333955Y-154272D01*
X334289Y-154272D02*
X334622Y-154796D01*
X334893Y-154129D02*
X334846Y-154177D01*
X334893Y-154225D01*
X334941Y-154177D01*
X334893Y-154129D01*
X334893Y-154701D02*
X334846Y-154748D01*
X334893Y-154796D01*
X334941Y-154748D01*
X334893Y-154701D01*
D15*
X273381Y-165196D02*
X273381Y-166110D01*
X273000Y-165425D02*
X273762Y-165882D01*
X273762Y-165425D02*
X273000Y-165882D01*
X274470Y-165196D02*
X274470Y-166110D01*
X274089Y-165425D02*
X274851Y-165882D01*
X274851Y-165425D02*
X274089Y-165882D01*
X243270Y-175942D02*
X243185Y-175772D01*
X243016Y-175603D01*
X242846Y-175518D01*
X242508Y-175518D01*
X242339Y-175603D01*
X242169Y-175772D01*
X242085Y-175942D01*
X242000Y-176196D01*
X242000Y-176619D01*
X242085Y-176873D01*
X242169Y-177042D01*
X242339Y-177211D01*
X242508Y-177296D01*
X242846Y-177296D01*
X243016Y-177211D01*
X243185Y-177042D01*
X243270Y-176873D01*
X243769Y-175518D02*
X243769Y-177296D01*
X243769Y-176449D02*
X244023Y-176196D01*
X244192Y-176111D01*
X244446Y-176111D01*
X244616Y-176196D01*
X244700Y-176449D01*
X244700Y-177296D01*
X246182Y-176111D02*
X246182Y-177296D01*
X246182Y-176365D02*
X246012Y-176196D01*
X245843Y-176111D01*
X245589Y-176111D01*
X245420Y-176196D01*
X245251Y-176365D01*
X245166Y-176619D01*
X245166Y-176788D01*
X245251Y-177042D01*
X245420Y-177211D01*
X245589Y-177296D01*
X245843Y-177296D01*
X246012Y-177211D01*
X246182Y-177042D01*
X246656Y-176111D02*
X246656Y-177296D01*
X246656Y-176449D02*
X246910Y-176196D01*
X247079Y-176111D01*
X247333Y-176111D01*
X247502Y-176196D01*
X247587Y-176449D01*
X247587Y-177296D01*
X249068Y-175518D02*
X249068Y-177296D01*
X249068Y-176365D02*
X248899Y-176196D01*
X248730Y-176111D01*
X248476Y-176111D01*
X248306Y-176196D01*
X248137Y-176365D01*
X248052Y-176619D01*
X248052Y-176788D01*
X248137Y-177042D01*
X248306Y-177211D01*
X248476Y-177296D01*
X248730Y-177296D01*
X248899Y-177211D01*
X249068Y-177042D01*
X249542Y-175518D02*
X249542Y-177296D01*
X249915Y-176619D02*
X250930Y-176619D01*
X250930Y-176449D01*
X250846Y-176280D01*
X250761Y-176196D01*
X250592Y-176111D01*
X250338Y-176111D01*
X250169Y-176196D01*
X249999Y-176365D01*
X249915Y-176619D01*
X249915Y-176788D01*
X249999Y-177042D01*
X250169Y-177211D01*
X250338Y-177296D01*
X250592Y-177296D01*
X250761Y-177211D01*
X250930Y-177042D01*
X251311Y-176111D02*
X251311Y-177296D01*
X251311Y-176619D02*
X251396Y-176365D01*
X251565Y-176196D01*
X251735Y-176111D01*
X251989Y-176111D01*
X252319Y-177211D02*
X252234Y-177296D01*
X252149Y-177211D01*
X252234Y-177127D01*
X252319Y-177211D01*
X252319Y-177381D01*
X252234Y-177550D01*
X252149Y-177635D01*
X255459Y-177296D02*
X254782Y-175518D01*
X254105Y-177296D01*
X254359Y-176703D02*
X255205Y-176703D01*
X257059Y-175518D02*
X255874Y-177296D01*
X255874Y-175518D02*
X257059Y-175518D01*
X255874Y-177296D02*
X257059Y-177296D01*
X260673Y-175518D02*
X260420Y-175603D01*
X260335Y-175772D01*
X260335Y-175942D01*
X260420Y-176111D01*
X260589Y-176196D01*
X260927Y-176280D01*
X261181Y-176365D01*
X261351Y-176534D01*
X261435Y-176703D01*
X261435Y-176957D01*
X261351Y-177127D01*
X261266Y-177211D01*
X261012Y-177296D01*
X260673Y-177296D01*
X260420Y-177211D01*
X260335Y-177127D01*
X260250Y-176957D01*
X260250Y-176703D01*
X260335Y-176534D01*
X260504Y-176365D01*
X260758Y-176280D01*
X261097Y-176196D01*
X261266Y-176111D01*
X261351Y-175942D01*
X261351Y-175772D01*
X261266Y-175603D01*
X261012Y-175518D01*
X260673Y-175518D01*
X262849Y-175518D02*
X262002Y-175518D01*
X261918Y-176280D01*
X262002Y-176196D01*
X262256Y-176111D01*
X262510Y-176111D01*
X262764Y-176196D01*
X262934Y-176365D01*
X263018Y-176619D01*
X263018Y-176788D01*
X262934Y-177042D01*
X262764Y-177211D01*
X262510Y-177296D01*
X262256Y-177296D01*
X262002Y-177211D01*
X261918Y-177127D01*
X261833Y-176957D01*
X263501Y-175942D02*
X263501Y-175857D01*
X263585Y-175688D01*
X263670Y-175603D01*
X263839Y-175518D01*
X264178Y-175518D01*
X264347Y-175603D01*
X264432Y-175688D01*
X264517Y-175857D01*
X264517Y-176026D01*
X264432Y-176196D01*
X264263Y-176449D01*
X263416Y-177296D01*
X264601Y-177296D01*
X265084Y-175942D02*
X265084Y-175857D01*
X265168Y-175688D01*
X265253Y-175603D01*
X265422Y-175518D01*
X265761Y-175518D01*
X265930Y-175603D01*
X266015Y-175688D01*
X266099Y-175857D01*
X266099Y-176026D01*
X266015Y-176196D01*
X265845Y-176449D01*
X264999Y-177296D01*
X266184Y-177296D01*
X267428Y-175518D02*
X266582Y-176703D01*
X267852Y-176703D01*
X267428Y-175518D02*
X267428Y-177296D01*
X241085Y-173442D02*
X241085Y-173357D01*
X241169Y-173188D01*
X241254Y-173103D01*
X241423Y-173018D01*
X241762Y-173018D01*
X241931Y-173103D01*
X242016Y-173188D01*
X242100Y-173357D01*
X242100Y-173526D01*
X242016Y-173696D01*
X241846Y-173949D01*
X241000Y-174796D01*
X242185Y-174796D01*
X242752Y-173018D02*
X243683Y-173018D01*
X243175Y-173696D01*
X243429Y-173696D01*
X243599Y-173780D01*
X243683Y-173865D01*
X243768Y-174119D01*
X243768Y-174288D01*
X243683Y-174542D01*
X243514Y-174711D01*
X243260Y-174796D01*
X243006Y-174796D01*
X242752Y-174711D01*
X242668Y-174627D01*
X242583Y-174457D01*
X245182Y-173018D02*
X244335Y-173018D01*
X244251Y-173780D01*
X244335Y-173696D01*
X244589Y-173611D01*
X244843Y-173611D01*
X245097Y-173696D01*
X245266Y-173865D01*
X245351Y-174119D01*
X245351Y-174288D01*
X245266Y-174542D01*
X245097Y-174711D01*
X244843Y-174796D01*
X244589Y-174796D01*
X244335Y-174711D01*
X244251Y-174627D01*
X244166Y-174457D01*
X246765Y-173018D02*
X245918Y-173018D01*
X245833Y-173780D01*
X245918Y-173696D01*
X246172Y-173611D01*
X246426Y-173611D01*
X246680Y-173696D01*
X246849Y-173865D01*
X246934Y-174119D01*
X246934Y-174288D01*
X246849Y-174542D01*
X246680Y-174711D01*
X246426Y-174796D01*
X246172Y-174796D01*
X245918Y-174711D01*
X245833Y-174627D01*
X245749Y-174457D01*
X248728Y-173018D02*
X249152Y-174796D01*
X249575Y-173018D02*
X249152Y-174796D01*
X249575Y-173018D02*
X249998Y-174796D01*
X250421Y-173018D02*
X249998Y-174796D01*
X250862Y-174627D02*
X250777Y-174711D01*
X250862Y-174796D01*
X250946Y-174711D01*
X250862Y-174627D01*
X254002Y-173442D02*
X253917Y-173272D01*
X253748Y-173103D01*
X253579Y-173018D01*
X253240Y-173018D01*
X253071Y-173103D01*
X252902Y-173272D01*
X252817Y-173442D01*
X252732Y-173696D01*
X252732Y-174119D01*
X252817Y-174373D01*
X252902Y-174542D01*
X253071Y-174711D01*
X253240Y-174796D01*
X253579Y-174796D01*
X253748Y-174711D01*
X253917Y-174542D01*
X254002Y-174373D01*
X254501Y-173018D02*
X254501Y-174796D01*
X254501Y-173949D02*
X254755Y-173696D01*
X254925Y-173611D01*
X255179Y-173611D01*
X255348Y-173696D01*
X255433Y-173949D01*
X255433Y-174796D01*
X256914Y-173611D02*
X256914Y-174796D01*
X256914Y-173865D02*
X256745Y-173696D01*
X256575Y-173611D01*
X256321Y-173611D01*
X256152Y-173696D01*
X255983Y-173865D01*
X255898Y-174119D01*
X255898Y-174288D01*
X255983Y-174542D01*
X256152Y-174711D01*
X256321Y-174796D01*
X256575Y-174796D01*
X256745Y-174711D01*
X256914Y-174542D01*
X257388Y-173611D02*
X257388Y-174796D01*
X257388Y-173949D02*
X257642Y-173696D01*
X257811Y-173611D01*
X258065Y-173611D01*
X258234Y-173696D01*
X258319Y-173949D01*
X258319Y-174796D01*
X259800Y-173018D02*
X259800Y-174796D01*
X259800Y-173865D02*
X259631Y-173696D01*
X259462Y-173611D01*
X259208Y-173611D01*
X259039Y-173696D01*
X258869Y-173865D01*
X258785Y-174119D01*
X258785Y-174288D01*
X258869Y-174542D01*
X259039Y-174711D01*
X259208Y-174796D01*
X259462Y-174796D01*
X259631Y-174711D01*
X259800Y-174542D01*
X260274Y-173018D02*
X260274Y-174796D01*
X260647Y-174119D02*
X261663Y-174119D01*
X261663Y-173949D01*
X261578Y-173780D01*
X261493Y-173696D01*
X261324Y-173611D01*
X261070Y-173611D01*
X260901Y-173696D01*
X260732Y-173865D01*
X260647Y-174119D01*
X260647Y-174288D01*
X260732Y-174542D01*
X260901Y-174711D01*
X261070Y-174796D01*
X261324Y-174796D01*
X261493Y-174711D01*
X261663Y-174542D01*
X262044Y-173611D02*
X262044Y-174796D01*
X262044Y-174119D02*
X262128Y-173865D01*
X262298Y-173696D01*
X262467Y-173611D01*
X262721Y-173611D01*
X264278Y-173018D02*
X264278Y-174796D01*
X264278Y-173018D02*
X265040Y-173018D01*
X265294Y-173103D01*
X265379Y-173188D01*
X265463Y-173357D01*
X265463Y-173526D01*
X265379Y-173696D01*
X265294Y-173780D01*
X265040Y-173865D01*
X264278Y-173865D02*
X265040Y-173865D01*
X265294Y-173949D01*
X265379Y-174034D01*
X265463Y-174203D01*
X265463Y-174457D01*
X265379Y-174627D01*
X265294Y-174711D01*
X265040Y-174796D01*
X264278Y-174796D01*
X265861Y-173018D02*
X265861Y-174796D01*
X266234Y-173611D02*
X266742Y-174796D01*
X267250Y-173611D02*
X266742Y-174796D01*
X268553Y-173018D02*
X268553Y-174796D01*
X268553Y-173865D02*
X268384Y-173696D01*
X268215Y-173611D01*
X267961Y-173611D01*
X267791Y-173696D01*
X267622Y-173865D01*
X267537Y-174119D01*
X267537Y-174288D01*
X267622Y-174542D01*
X267791Y-174711D01*
X267961Y-174796D01*
X268215Y-174796D01*
X268384Y-174711D01*
X268553Y-174542D01*
X269112Y-174627D02*
X269027Y-174711D01*
X269112Y-174796D01*
X269196Y-174711D01*
X269112Y-174627D01*
X239770Y-170278D02*
X239770Y-172056D01*
X239770Y-170278D02*
X240447Y-172056D01*
X241124Y-170278D02*
X240447Y-172056D01*
X241124Y-170278D02*
X241124Y-172056D01*
X241802Y-170278D02*
X241886Y-170363D01*
X241971Y-170278D01*
X241886Y-170194D01*
X241802Y-170278D01*
X241886Y-170871D02*
X241886Y-172056D01*
X243300Y-171125D02*
X243131Y-170956D01*
X242961Y-170871D01*
X242707Y-170871D01*
X242538Y-170956D01*
X242369Y-171125D01*
X242284Y-171379D01*
X242284Y-171548D01*
X242369Y-171802D01*
X242538Y-171971D01*
X242707Y-172056D01*
X242961Y-172056D01*
X243131Y-171971D01*
X243300Y-171802D01*
X243681Y-170871D02*
X243681Y-172056D01*
X243681Y-171379D02*
X243765Y-171125D01*
X243935Y-170956D01*
X244104Y-170871D01*
X244358Y-170871D01*
X244942Y-170871D02*
X244773Y-170956D01*
X244603Y-171125D01*
X244519Y-171379D01*
X244519Y-171548D01*
X244603Y-171802D01*
X244773Y-171971D01*
X244942Y-172056D01*
X245196Y-172056D01*
X245365Y-171971D01*
X245535Y-171802D01*
X245619Y-171548D01*
X245619Y-171379D01*
X245535Y-171125D01*
X245365Y-170956D01*
X245196Y-170871D01*
X244942Y-170871D01*
X247024Y-171125D02*
X246855Y-170956D01*
X246686Y-170871D01*
X246432Y-170871D01*
X246263Y-170956D01*
X246093Y-171125D01*
X246009Y-171379D01*
X246009Y-171548D01*
X246093Y-171802D01*
X246263Y-171971D01*
X246432Y-172056D01*
X246686Y-172056D01*
X246855Y-171971D01*
X247024Y-171802D01*
X247405Y-170278D02*
X247405Y-172056D01*
X247405Y-171210D02*
X247659Y-170956D01*
X247829Y-170871D01*
X248082Y-170871D01*
X248252Y-170956D01*
X248336Y-171210D01*
X248336Y-172056D01*
X248971Y-170278D02*
X249056Y-170363D01*
X249141Y-170278D01*
X249056Y-170194D01*
X248971Y-170278D01*
X249056Y-170871D02*
X249056Y-172056D01*
X249454Y-170871D02*
X249454Y-172649D01*
X249454Y-171125D02*
X249623Y-170956D01*
X249792Y-170871D01*
X250046Y-170871D01*
X250216Y-170956D01*
X250385Y-171125D01*
X250470Y-171379D01*
X250470Y-171548D01*
X250385Y-171802D01*
X250216Y-171971D01*
X250046Y-172056D01*
X249792Y-172056D01*
X249623Y-171971D01*
X249454Y-171802D01*
X252840Y-170278D02*
X252840Y-172056D01*
X252247Y-170278D02*
X253432Y-170278D01*
X253644Y-171379D02*
X254660Y-171379D01*
X254660Y-171210D01*
X254575Y-171040D01*
X254490Y-170956D01*
X254321Y-170871D01*
X254067Y-170871D01*
X253898Y-170956D01*
X253729Y-171125D01*
X253644Y-171379D01*
X253644Y-171548D01*
X253729Y-171802D01*
X253898Y-171971D01*
X254067Y-172056D01*
X254321Y-172056D01*
X254490Y-171971D01*
X254660Y-171802D01*
X256056Y-171125D02*
X255887Y-170956D01*
X255718Y-170871D01*
X255464Y-170871D01*
X255295Y-170956D01*
X255125Y-171125D01*
X255041Y-171379D01*
X255041Y-171548D01*
X255125Y-171802D01*
X255295Y-171971D01*
X255464Y-172056D01*
X255718Y-172056D01*
X255887Y-171971D01*
X256056Y-171802D01*
X256437Y-170278D02*
X256437Y-172056D01*
X256437Y-171210D02*
X256691Y-170956D01*
X256861Y-170871D01*
X257114Y-170871D01*
X257284Y-170956D01*
X257368Y-171210D01*
X257368Y-172056D01*
X257834Y-170871D02*
X257834Y-172056D01*
X257834Y-171210D02*
X258088Y-170956D01*
X258257Y-170871D01*
X258511Y-170871D01*
X258680Y-170956D01*
X258765Y-171210D01*
X258765Y-172056D01*
X259654Y-170871D02*
X259485Y-170956D01*
X259315Y-171125D01*
X259231Y-171379D01*
X259231Y-171548D01*
X259315Y-171802D01*
X259485Y-171971D01*
X259654Y-172056D01*
X259908Y-172056D01*
X260077Y-171971D01*
X260246Y-171802D01*
X260331Y-171548D01*
X260331Y-171379D01*
X260246Y-171125D01*
X260077Y-170956D01*
X259908Y-170871D01*
X259654Y-170871D01*
X260721Y-170278D02*
X260721Y-172056D01*
X261516Y-170871D02*
X261347Y-170956D01*
X261178Y-171125D01*
X261093Y-171379D01*
X261093Y-171548D01*
X261178Y-171802D01*
X261347Y-171971D01*
X261516Y-172056D01*
X261770Y-172056D01*
X261939Y-171971D01*
X262109Y-171802D01*
X262193Y-171548D01*
X262193Y-171379D01*
X262109Y-171125D01*
X261939Y-170956D01*
X261770Y-170871D01*
X261516Y-170871D01*
X263599Y-170871D02*
X263599Y-172225D01*
X263514Y-172479D01*
X263429Y-172564D01*
X263260Y-172649D01*
X263006Y-172649D01*
X262837Y-172564D01*
X263599Y-171125D02*
X263429Y-170956D01*
X263260Y-170871D01*
X263006Y-170871D01*
X262837Y-170956D01*
X262667Y-171125D01*
X262583Y-171379D01*
X262583Y-171548D01*
X262667Y-171802D01*
X262837Y-171971D01*
X263006Y-172056D01*
X263260Y-172056D01*
X263429Y-171971D01*
X263599Y-171802D01*
X264157Y-170871D02*
X264665Y-172056D01*
X265173Y-170871D02*
X264665Y-172056D01*
X264496Y-172395D01*
X264327Y-172564D01*
X264157Y-172649D01*
X264073Y-172649D01*
X266866Y-170278D02*
X266866Y-172056D01*
X267238Y-170871D02*
X267238Y-172056D01*
X267238Y-171210D02*
X267492Y-170956D01*
X267662Y-170871D01*
X267916Y-170871D01*
X268085Y-170956D01*
X268170Y-171210D01*
X268170Y-172056D01*
X269651Y-171125D02*
X269482Y-170956D01*
X269312Y-170871D01*
X269058Y-170871D01*
X268889Y-170956D01*
X268720Y-171125D01*
X268635Y-171379D01*
X268635Y-171548D01*
X268720Y-171802D01*
X268889Y-171971D01*
X269058Y-172056D01*
X269312Y-172056D01*
X269482Y-171971D01*
X269651Y-171802D01*
X270116Y-171887D02*
X270032Y-171971D01*
X270116Y-172056D01*
X270201Y-171971D01*
X270116Y-171887D01*
X301071Y-165439D02*
X301000Y-165368D01*
X301071Y-165296D01*
X301143Y-165368D01*
X301143Y-165511D01*
X301071Y-165653D01*
X301000Y-165725D01*
X301900Y-165296D02*
X301686Y-165368D01*
X301543Y-165582D01*
X301471Y-165939D01*
X301471Y-166153D01*
X301543Y-166510D01*
X301686Y-166725D01*
X301900Y-166796D01*
X302043Y-166796D01*
X302257Y-166725D01*
X302400Y-166510D01*
X302471Y-166153D01*
X302471Y-165939D01*
X302400Y-165582D01*
X302257Y-165368D01*
X302043Y-165296D01*
X301900Y-165296D01*
X303664Y-165296D02*
X302950Y-165296D01*
X302878Y-165939D01*
X302950Y-165868D01*
X303164Y-165796D01*
X303378Y-165796D01*
X303592Y-165868D01*
X303735Y-166010D01*
X303807Y-166225D01*
X303807Y-166368D01*
X303735Y-166582D01*
X303592Y-166725D01*
X303378Y-166796D01*
X303164Y-166796D01*
X302950Y-166725D01*
X302878Y-166653D01*
X302807Y-166510D01*
X304142Y-166153D02*
X305428Y-166153D01*
X305870Y-167296D02*
X307013Y-167296D01*
X307206Y-167296D02*
X308348Y-167296D01*
X308541Y-166153D02*
X309827Y-166153D01*
X310269Y-165296D02*
X310269Y-166796D01*
X310269Y-165296D02*
X310912Y-165296D01*
X311126Y-165368D01*
X311198Y-165439D01*
X311269Y-165582D01*
X311269Y-165725D01*
X311198Y-165868D01*
X311126Y-165939D01*
X310912Y-166010D01*
X310269Y-166010D01*
X310769Y-166010D02*
X311269Y-166796D01*
X311605Y-167296D02*
X312747Y-167296D01*
X312940Y-167296D02*
X314083Y-167296D01*
X314347Y-166653D02*
X314276Y-166725D01*
X314347Y-166796D01*
X314419Y-166725D01*
X314347Y-166653D01*
X315818Y-165653D02*
X315747Y-165511D01*
X315604Y-165368D01*
X315461Y-165296D01*
X315176Y-165296D01*
X315033Y-165368D01*
X314890Y-165511D01*
X314818Y-165653D01*
X314747Y-165868D01*
X314747Y-166225D01*
X314818Y-166439D01*
X314890Y-166582D01*
X315033Y-166725D01*
X315176Y-166796D01*
X315461Y-166796D01*
X315604Y-166725D01*
X315747Y-166582D01*
X315818Y-166439D01*
X315818Y-166225D01*
X315461Y-166225D02*
X315818Y-166225D01*
X316161Y-166082D02*
X316804Y-166082D01*
X317018Y-166010D01*
X317089Y-165939D01*
X317161Y-165796D01*
X317161Y-165582D01*
X317089Y-165439D01*
X317018Y-165368D01*
X316804Y-165296D01*
X316161Y-165296D01*
X316161Y-166796D01*
X317996Y-165296D02*
X317996Y-166796D01*
X317496Y-165296D02*
X318496Y-165296D01*
X318746Y-165439D02*
X318675Y-165368D01*
X318746Y-165296D01*
X318818Y-165368D01*
X318818Y-165511D01*
X318746Y-165653D01*
X318675Y-165725D01*
X327582Y-179994D02*
X327497Y-179825D01*
X327243Y-179740D01*
X327074Y-179740D01*
X326820Y-179825D01*
X326650Y-180079D01*
X326566Y-180502D01*
X326566Y-180925D01*
X326650Y-181264D01*
X326820Y-181433D01*
X327074Y-181518D01*
X327158Y-181518D01*
X327412Y-181433D01*
X327582Y-181264D01*
X327666Y-181010D01*
X327666Y-180925D01*
X327582Y-180671D01*
X327412Y-180502D01*
X327158Y-180418D01*
X327074Y-180418D01*
X326820Y-180502D01*
X326650Y-180671D01*
X326566Y-180925D01*
X263955Y-179740D02*
X263108Y-179740D01*
X263023Y-180502D01*
X263108Y-180418D01*
X263362Y-180333D01*
X263616Y-180333D01*
X263870Y-180418D01*
X264039Y-180587D01*
X264124Y-180841D01*
X264124Y-181010D01*
X264039Y-181264D01*
X263870Y-181433D01*
X263616Y-181518D01*
X263362Y-181518D01*
X263108Y-181433D01*
X263023Y-181349D01*
X262939Y-181179D01*
X200311Y-179740D02*
X199464Y-180925D01*
X200734Y-180925D01*
X200311Y-179740D02*
X200311Y-181518D01*
X135964Y-179740D02*
X136896Y-179740D01*
X136388Y-180418D01*
X136642Y-180418D01*
X136811Y-180502D01*
X136896Y-180587D01*
X136980Y-180841D01*
X136980Y-181010D01*
X136896Y-181264D01*
X136726Y-181433D01*
X136472Y-181518D01*
X136218Y-181518D01*
X135964Y-181433D01*
X135880Y-181349D01*
X135795Y-181179D01*
X72650Y-180164D02*
X72650Y-180079D01*
X72735Y-179910D01*
X72820Y-179825D01*
X72989Y-179740D01*
X73328Y-179740D01*
X73497Y-179825D01*
X73582Y-179910D01*
X73666Y-180079D01*
X73666Y-180248D01*
X73582Y-180418D01*
X73412Y-180671D01*
X72566Y-181518D01*
X73751Y-181518D01*
X9176Y-180079D02*
X9345Y-179994D01*
X9599Y-179740D01*
X9599Y-181518D01*
X-20195Y-153528D02*
X-20195Y-155305D01*
X-20195Y-153528D02*
X-19602Y-153528D01*
X-19349Y-153612D01*
X-19179Y-153782D01*
X-19095Y-153951D01*
X-19010Y-154205D01*
X-19010Y-154628D01*
X-19095Y-154882D01*
X-19179Y-155051D01*
X-19349Y-155221D01*
X-19602Y-155305D01*
X-20195Y-155305D01*
X-18925Y-93753D02*
X-19010Y-93584D01*
X-19179Y-93414D01*
X-19349Y-93330D01*
X-19687Y-93330D01*
X-19856Y-93414D01*
X-20026Y-93584D01*
X-20110Y-93753D01*
X-20195Y-94007D01*
X-20195Y-94430D01*
X-20110Y-94684D01*
X-20026Y-94853D01*
X-19856Y-95023D01*
X-19687Y-95107D01*
X-19349Y-95107D01*
X-19179Y-95023D01*
X-19010Y-94853D01*
X-18925Y-94684D01*
X-20195Y-33005D02*
X-20195Y-34782D01*
X-20195Y-33005D02*
X-19433Y-33005D01*
X-19179Y-33089D01*
X-19095Y-33174D01*
X-19010Y-33343D01*
X-19010Y-33512D01*
X-19095Y-33682D01*
X-19179Y-33766D01*
X-19433Y-33851D01*
X-20195Y-33851D02*
X-19433Y-33851D01*
X-19179Y-33936D01*
X-19095Y-34020D01*
X-19010Y-34190D01*
X-19010Y-34444D01*
X-19095Y-34613D01*
X-19179Y-34698D01*
X-19433Y-34782D01*
X-20195Y-34782D01*
X-18841Y25670D02*
X-19518Y27447D01*
X-20195Y25670D01*
X-19941Y26262D02*
X-19095Y26262D01*
X355725Y-153528D02*
X355725Y-155305D01*
X355725Y-153528D02*
X356318Y-153528D01*
X356572Y-153612D01*
X356741Y-153782D01*
X356825Y-153951D01*
X356910Y-154205D01*
X356910Y-154628D01*
X356825Y-154882D01*
X356741Y-155051D01*
X356572Y-155221D01*
X356318Y-155305D01*
X355725Y-155305D01*
X356995Y-93753D02*
X356910Y-93584D01*
X356741Y-93414D01*
X356572Y-93330D01*
X356233Y-93330D01*
X356064Y-93414D01*
X355894Y-93584D01*
X355810Y-93753D01*
X355725Y-94007D01*
X355725Y-94430D01*
X355810Y-94684D01*
X355894Y-94853D01*
X356064Y-95023D01*
X356233Y-95107D01*
X356572Y-95107D01*
X356741Y-95023D01*
X356910Y-94853D01*
X356995Y-94684D01*
X355725Y-33005D02*
X355725Y-34782D01*
X355725Y-33005D02*
X356487Y-33005D01*
X356741Y-33089D01*
X356825Y-33174D01*
X356910Y-33343D01*
X356910Y-33512D01*
X356825Y-33682D01*
X356741Y-33766D01*
X356487Y-33851D01*
X355725Y-33851D02*
X356487Y-33851D01*
X356741Y-33936D01*
X356825Y-34020D01*
X356910Y-34190D01*
X356910Y-34444D01*
X356825Y-34613D01*
X356741Y-34698D01*
X356487Y-34782D01*
X355725Y-34782D01*
X357079Y25670D02*
X356402Y27447D01*
X355725Y25670D01*
X355979Y26262D02*
X356825Y26262D01*
X327582Y56226D02*
X327497Y56395D01*
X327243Y56480D01*
X327074Y56480D01*
X326820Y56395D01*
X326650Y56141D01*
X326566Y55718D01*
X326566Y55295D01*
X326650Y54956D01*
X326820Y54787D01*
X327074Y54702D01*
X327158Y54702D01*
X327412Y54787D01*
X327582Y54956D01*
X327666Y55210D01*
X327666Y55295D01*
X327582Y55549D01*
X327412Y55718D01*
X327158Y55802D01*
X327074Y55802D01*
X326820Y55718D01*
X326650Y55549D01*
X326566Y55295D01*
X263955Y56480D02*
X263108Y56480D01*
X263023Y55718D01*
X263108Y55802D01*
X263362Y55887D01*
X263616Y55887D01*
X263870Y55802D01*
X264039Y55633D01*
X264124Y55379D01*
X264124Y55210D01*
X264039Y54956D01*
X263870Y54787D01*
X263616Y54702D01*
X263362Y54702D01*
X263108Y54787D01*
X263023Y54871D01*
X262939Y55041D01*
X200311Y56480D02*
X199464Y55295D01*
X200734Y55295D01*
X200311Y56480D02*
X200311Y54702D01*
X135964Y56480D02*
X136896Y56480D01*
X136388Y55802D01*
X136642Y55802D01*
X136811Y55718D01*
X136896Y55633D01*
X136980Y55379D01*
X136980Y55210D01*
X136896Y54956D01*
X136726Y54787D01*
X136472Y54702D01*
X136218Y54702D01*
X135964Y54787D01*
X135880Y54871D01*
X135795Y55041D01*
X72650Y56056D02*
X72650Y56141D01*
X72735Y56310D01*
X72820Y56395D01*
X72989Y56480D01*
X73328Y56480D01*
X73497Y56395D01*
X73582Y56310D01*
X73666Y56141D01*
X73666Y55972D01*
X73582Y55802D01*
X73412Y55549D01*
X72566Y54702D01*
X73751Y54702D01*
X9176Y56141D02*
X9345Y56226D01*
X9599Y56480D01*
X9599Y54702D01*
D17*
X331000Y-178216D02*
X331000Y-173796D01*
X300000Y-178216D02*
X300000Y-161796D01*
X318000Y-173796D02*
X318000Y-167796D01*
X338500Y-178216D02*
X338500Y-167796D01*
X238000Y-178216D02*
X238000Y-152796D01*
X272000Y-178216D02*
X272000Y-152796D01*
X353820Y-178216D02*
X353820Y-152796D01*
X238000Y-178216D02*
X353820Y-178216D01*
X272000Y-173796D02*
X353820Y-173796D01*
X272000Y-167796D02*
X353820Y-167796D01*
X272000Y-161796D02*
X353820Y-161796D01*
X238000Y-152796D02*
X353820Y-152796D01*
X203960Y-178216D02*
X239520Y-178216D01*
X41400Y-183296D02*
X41400Y-178216D01*
X-22100Y-122971D02*
X-17020Y-122971D01*
X-22100Y-62646D02*
X-17020Y-62646D01*
X-22100Y-2321D02*
X-17020Y-2321D01*
X-17020Y-178216D02*
X353820Y-178216D01*
X-17020Y-178216D02*
X-17020Y52924D01*
X-22100Y-183296D02*
X358900Y-183296D01*
X-22100Y-183296D02*
X-22100Y58004D01*
X353820Y-178216D02*
X353820Y-147736D01*
X104900Y-183296D02*
X104900Y-178216D01*
X168400Y-183296D02*
X168400Y-178216D01*
X231900Y-183296D02*
X231900Y-178216D01*
X295400Y-183296D02*
X295400Y-178216D01*
X353820Y-122971D02*
X358900Y-122971D01*
X353820Y-62646D02*
X358900Y-62646D01*
X353820Y-2321D02*
X358900Y-2321D01*
X358900Y-183296D02*
X358900Y58004D01*
X353820Y-178216D02*
X353820Y52924D01*
X41400Y52924D02*
X41400Y58004D01*
X-22100Y58004D02*
X358900Y58004D01*
X-17020Y52924D02*
X353820Y52924D01*
X104900Y52924D02*
X104900Y58004D01*
X168400Y52924D02*
X168400Y58004D01*
X231900Y52924D02*
X231900Y58004D01*
X295400Y52924D02*
X295400Y58004D01*
X301000Y-174153D02*
X301000Y-175296D01*
X301653Y-175296D01*
X302649Y-175296D02*
X302214Y-174153D01*
X301778Y-175296D01*
X301941Y-174915D02*
X302486Y-174915D01*
X302915Y-174153D02*
X303351Y-174697D01*
X303351Y-175296D01*
X303786Y-174153D02*
X303351Y-174697D01*
X304641Y-174153D02*
X303933Y-174153D01*
X303933Y-175296D01*
X304641Y-175296D01*
X303933Y-174697D02*
X304368Y-174697D01*
X304831Y-174153D02*
X304831Y-175296D01*
X304831Y-174153D02*
X305321Y-174153D01*
X305484Y-174208D01*
X305538Y-174262D01*
X305593Y-174371D01*
X305593Y-174480D01*
X305538Y-174589D01*
X305484Y-174643D01*
X305321Y-174697D01*
X304831Y-174697D01*
X305212Y-174697D02*
X305593Y-175296D01*
X306746Y-174153D02*
X306746Y-175296D01*
X306746Y-174153D02*
X307508Y-175296D01*
X307508Y-174153D02*
X307508Y-175296D01*
X308695Y-175296D02*
X308259Y-174153D01*
X307824Y-175296D01*
X307987Y-174915D02*
X308531Y-174915D01*
X308961Y-174153D02*
X308961Y-175296D01*
X308961Y-174153D02*
X309397Y-175296D01*
X309832Y-174153D02*
X309397Y-175296D01*
X309832Y-174153D02*
X309832Y-175296D01*
X310866Y-174153D02*
X310158Y-174153D01*
X310158Y-175296D01*
X310866Y-175296D01*
X310158Y-174697D02*
X310594Y-174697D01*
X311111Y-174534D02*
X311056Y-174589D01*
X311111Y-174643D01*
X311165Y-174589D01*
X311111Y-174534D01*
X311111Y-175187D02*
X311056Y-175242D01*
X311111Y-175296D01*
X311165Y-175242D01*
X311111Y-175187D01*
X331750Y-174403D02*
X331750Y-175546D01*
X331750Y-174403D02*
X332240Y-174403D01*
X332403Y-174458D01*
X332457Y-174512D01*
X332512Y-174621D01*
X332512Y-174730D01*
X332457Y-174839D01*
X332403Y-174893D01*
X332240Y-174947D01*
X331750Y-174947D01*
X332131Y-174947D02*
X332512Y-175546D01*
X333475Y-174403D02*
X332768Y-174403D01*
X332768Y-175546D01*
X333475Y-175546D01*
X332768Y-174947D02*
X333203Y-174947D01*
X333665Y-174403D02*
X334101Y-175546D01*
X334536Y-174403D02*
X334101Y-175546D01*
X334737Y-174784D02*
X334683Y-174839D01*
X334737Y-174893D01*
X334792Y-174839D01*
X334737Y-174784D01*
X334737Y-175437D02*
X334683Y-175492D01*
X334737Y-175546D01*
X334792Y-175492D01*
X334737Y-175437D01*
X339700Y-168653D02*
X339700Y-169796D01*
X339700Y-168653D02*
X340081Y-168653D01*
X340244Y-168708D01*
X340353Y-168816D01*
X340407Y-168925D01*
X340462Y-169089D01*
X340462Y-169361D01*
X340407Y-169524D01*
X340353Y-169633D01*
X340244Y-169742D01*
X340081Y-169796D01*
X339700Y-169796D01*
X341588Y-169796D02*
X341153Y-168653D01*
X340718Y-169796D01*
X340881Y-169415D02*
X341425Y-169415D01*
X342236Y-168653D02*
X342236Y-169796D01*
X341855Y-168653D02*
X342617Y-168653D01*
X343460Y-168653D02*
X342753Y-168653D01*
X342753Y-169796D01*
X343460Y-169796D01*
X342753Y-169197D02*
X343188Y-169197D01*
X343705Y-169034D02*
X343651Y-169089D01*
X343705Y-169143D01*
X343759Y-169089D01*
X343705Y-169034D01*
X343705Y-169687D02*
X343651Y-169742D01*
X343705Y-169796D01*
X343759Y-169742D01*
X343705Y-169687D01*
X273381Y-154153D02*
X273381Y-155296D01*
X273000Y-154153D02*
X273762Y-154153D01*
X273898Y-154153D02*
X273898Y-155296D01*
X274518Y-154153D02*
X274518Y-155296D01*
X274137Y-154153D02*
X274899Y-154153D01*
X275035Y-154153D02*
X275035Y-155296D01*
X275688Y-155296D01*
X276521Y-154153D02*
X275813Y-154153D01*
X275813Y-155296D01*
X276521Y-155296D01*
X275813Y-154697D02*
X276249Y-154697D01*
X276766Y-154534D02*
X276711Y-154589D01*
X276766Y-154643D01*
X276820Y-154589D01*
X276766Y-154534D01*
X276766Y-155187D02*
X276711Y-155242D01*
X276766Y-155296D01*
X276820Y-155242D01*
X276766Y-155187D01*
D18*
X273381Y-171196D02*
X273381Y-172110D01*
X273000Y-171425D02*
X273762Y-171882D01*
X273762Y-171425D02*
X273000Y-171882D01*
X274470Y-171196D02*
X274470Y-172110D01*
X274089Y-171425D02*
X274851Y-171882D01*
X274851Y-171425D02*
X274089Y-171882D01*
X301457Y-171196D02*
X301229Y-171273D01*
X301076Y-171501D01*
X301000Y-171882D01*
X301000Y-172110D01*
X301076Y-172491D01*
X301229Y-172720D01*
X301457Y-172796D01*
X301609Y-172796D01*
X301838Y-172720D01*
X301990Y-172491D01*
X302066Y-172110D01*
X302066Y-171882D01*
X301990Y-171501D01*
X301838Y-171273D01*
X301609Y-171196D01*
X301457Y-171196D01*
X303186Y-171196D02*
X302424Y-172263D01*
X303567Y-172263D01*
X303186Y-171196D02*
X303186Y-172796D01*
X303849Y-172110D02*
X305220Y-172110D01*
X306073Y-171196D02*
X306073Y-172110D01*
X305692Y-171425D02*
X306454Y-171882D01*
X306454Y-171425D02*
X305692Y-171882D01*
X307162Y-171196D02*
X307162Y-172110D01*
X306782Y-171425D02*
X307543Y-171882D01*
X307543Y-171425D02*
X306782Y-171882D01*
D19*
X273595Y-156797D02*
X273595Y-158225D01*
X273000Y-157154D02*
X274190Y-157868D01*
X274190Y-157154D02*
X273000Y-157868D01*
X275297Y-156797D02*
X275297Y-158225D01*
X274702Y-157154D02*
X275892Y-157868D01*
X275892Y-157154D02*
X274702Y-157868D01*
D20*
X64862Y30948D02*
D03*
X64862Y32148D02*
D03*
X64862Y35748D02*
D03*
X64862Y34548D02*
D03*
X56362Y33348D02*
D03*
X64862Y33348D02*
D03*
X56362Y34548D02*
D03*
X56362Y35748D02*
D03*
X56362Y32148D02*
D03*
X56362Y30948D02*
D03*
X33491Y32512D02*
D03*
X44991Y30312D02*
D03*
X33491Y27012D02*
D03*
X33491Y28112D02*
D03*
X33491Y20412D02*
D03*
X33491Y21512D02*
D03*
X33491Y29212D02*
D03*
X33491Y24812D02*
D03*
X33491Y31412D02*
D03*
X44991Y29212D02*
D03*
X33491Y30312D02*
D03*
X33491Y23712D02*
D03*
X33491Y25912D02*
D03*
X44991Y22612D02*
D03*
X44991Y27012D02*
D03*
X44991Y28112D02*
D03*
X33491Y22612D02*
D03*
X44991Y23712D02*
D03*
X44991Y24812D02*
D03*
X44991Y25912D02*
D03*
X44991Y21512D02*
D03*
X44991Y20412D02*
D03*
X44991Y38712D02*
D03*
X44991Y39812D02*
D03*
X33499Y38712D02*
D03*
X33499Y39812D02*
D03*
X6383Y32512D02*
D03*
X17883Y30312D02*
D03*
X6383Y27012D02*
D03*
X6383Y28112D02*
D03*
X6383Y20412D02*
D03*
X6383Y21512D02*
D03*
X6383Y29212D02*
D03*
X6383Y24812D02*
D03*
X6383Y31412D02*
D03*
X17883Y29212D02*
D03*
X6383Y30312D02*
D03*
X6383Y23712D02*
D03*
X6383Y25912D02*
D03*
X17883Y22612D02*
D03*
X17883Y27012D02*
D03*
X17883Y28112D02*
D03*
X6383Y22612D02*
D03*
X17883Y23712D02*
D03*
X17883Y24812D02*
D03*
X17883Y25912D02*
D03*
X17883Y21512D02*
D03*
X17883Y20412D02*
D03*
X17883Y38712D02*
D03*
X17883Y39812D02*
D03*
X6391Y38712D02*
D03*
X6391Y39812D02*
D03*
D21*
X60012Y29298D02*
D03*
X61212Y29298D02*
D03*
X62412Y29298D02*
D03*
X58812Y29298D02*
D03*
X63612Y29298D02*
D03*
X57612Y29298D02*
D03*
X42541Y18862D02*
D03*
X41441Y18862D02*
D03*
X37041Y18862D02*
D03*
X40341Y18862D02*
D03*
X39241Y18862D02*
D03*
X38141Y18862D02*
D03*
X35941Y18862D02*
D03*
X15433Y18862D02*
D03*
X14333Y18862D02*
D03*
X9933Y18862D02*
D03*
X13233Y18862D02*
D03*
X12133Y18862D02*
D03*
X11033Y18862D02*
D03*
X8833Y18862D02*
D03*
D22*
X30894Y28412D02*
D03*
X30894Y31412D02*
D03*
X4097Y31412D02*
D03*
X4097Y34412D02*
D03*
X67089Y33348D02*
D03*
X67089Y30348D02*
D03*
D23*
X2192Y15367D02*
D03*
X2192Y17267D02*
D03*
X65565Y26832D02*
D03*
X65565Y24932D02*
D03*
D24*
X1692Y31412D02*
D03*
X1692Y33512D02*
D03*
X20333Y27112D02*
D03*
X20333Y29212D02*
D03*
X69248Y33348D02*
D03*
X69248Y31248D02*
D03*
X47103Y31312D02*
D03*
X47103Y29212D02*
D03*
D25*
X69189Y28575D02*
D03*
X67089Y28575D02*
D03*
D26*
X75561Y25382D02*
D03*
X73661Y25382D02*
D03*
X22233Y18862D02*
D03*
X20333Y18862D02*
D03*
X30640Y26543D02*
D03*
X28740Y26543D02*
D03*
X47603Y10187D02*
D03*
X45703Y10187D02*
D03*
X47603Y12727D02*
D03*
X45703Y12727D02*
D03*
X47553Y15267D02*
D03*
X45653Y15267D02*
D03*
D27*
X15543Y8546D02*
D03*
X15543Y16346D02*
D03*
X31640Y8827D02*
D03*
X31640Y16627D02*
D03*
D28*
X54647Y24482D02*
D03*
X62447Y24482D02*
D03*
D33*
X30640Y23712D02*
D03*
D44*
X4508Y15367D02*
D03*
X12133Y15367D02*
D03*
X75598Y28085D02*
D03*
X75598Y35711D02*
D03*
X35541Y10187D02*
D03*
X35541Y12727D02*
D03*
X35541Y15267D02*
D03*
X43161Y15267D02*
D03*
X43161Y10187D02*
D03*
X43161Y12727D02*
D03*
D45*
X56515Y2413D02*
D03*
X56515Y8536D02*
D03*
X56515Y14605D02*
D03*
X77477Y2755D02*
D03*
X77477Y17995D02*
D03*
D46*
X53975Y2413D02*
D03*
X53975Y8536D02*
D03*
X53975Y14605D02*
D03*
X62237Y2755D02*
D03*
X64777Y2755D02*
D03*
X74937Y2755D02*
D03*
X74937Y17995D02*
D03*
X69857Y2755D02*
D03*
X72397Y2755D02*
D03*
X67317Y2755D02*
D03*
X69857Y17995D02*
D03*
X72397Y17995D02*
D03*
X67317Y17995D02*
D03*
X64777Y17995D02*
D03*
X62237Y17995D02*
D03*
D47*
X25640Y19712D02*
D03*
X25640Y21712D02*
D03*
X25640Y23712D02*
D03*
X30640Y19712D02*
D03*
X30640Y21712D02*
D03*
M02*
